<?xml version="1.0" encoding="utf-8"?>
<!-- Generator: Adobe Illustrator 25.4.1, SVG Export Plug-In . SVG Version: 6.00 Build 0)  -->
<svg version="1.1" id="Layer_1"
	xmlns="http://www.w3.org/2000/svg"
	xmlns:xlink="http://www.w3.org/1999/xlink" x="0px" y="0px" viewBox="0 0 245.2 145.2" style="enable-background:new 0 0 245.2 145.2;" xml:space="preserve">
	<style type="text/css">
	.st0{opacity:0.4;fill:#818181;enable-background:new    ;}
	.st1{fill:#9AB2DC;}
	.st2{fill:#9EB3DD;}
	.st3{fill:#FFFFFF;stroke:#FFFFFF;stroke-width:0.3199;stroke-miterlimit:10;}
	.st4{fill:#5F64AD;stroke:#5F64AD;stroke-width:0.3199;stroke-miterlimit:10;}
	.st5{opacity:0.53;fill:#9896CA;enable-background:new    ;}
	.st6{fill:#FFCB5E;}
	.st7{fill:#807EBC;}
	.st8{opacity:0.53;fill:#5F64AD;enable-background:new    ;}
	.st9{fill:#5F64AD;}
	.st10{opacity:0.53;}
	.st11{fill:#676767;}
	.st12{fill:#CCCCCC;}
	.st13{fill:#FFFFFF;}
	</style>
	<g>
		<path class="st0" d="M215.7,77.5c0.6-2.8,1-5.7,1-8.6c0-21.1-17.1-38.2-38.2-38.2c-7.3,0-14.2,2.1-20,5.7
		c-9.4-17.6-27.9-29.6-49.2-29.6c-30.8,0-55.7,25-55.7,55.8c0,0.6,0,1.3,0,1.9c-19,2.2-33.8,18.4-33.8,38
		c0,20.5,16.2,37.3,36.5,38.2l0,0h155.9l0,0c0.3,0,0.6,0,0.9,0c17.5,0,31.7-14.2,31.7-31.7C244.8,92.4,232,78.8,215.7,77.5z"/>
		<g>
			<g>
				<rect x="99.5" y="22.9" class="st1" width="0.9" height="25.9"/>
				<rect x="107.8" y="29.5" class="st1" width="0.9" height="19.3"/>
				<path class="st1" d="M116.7,49.3c-1.8,0-3.2-1.5-3.2-3.3s1.5-3.2,3.2-3.2c1.8,0,3.2,1.5,3.2,3.2
				C119.9,47.8,118.5,49.3,116.7,49.3z M116.7,43.7c-1.3,0-2.4,1.1-2.4,2.4c0,1.3,1.1,2.4,2.4,2.4s2.4-1.1,2.4-2.4
				C119,44.7,118,43.7,116.7,43.7z"/>
			</g>
			<path class="st1" d="M132.1,16.8c-1.8,0-3.2-1.5-3.2-3.2c0-1.8,1.5-3.2,3.2-3.2c1.8,0,3.2,1.5,3.2,3.2S133.9,16.8,132.1,16.8z
			 M132.1,11.2c-1.3,0-2.4,1.1-2.4,2.4s1.1,2.4,2.4,2.4c1.3,0,2.4-1.1,2.4-2.4C134.4,12.2,133.4,11.2,132.1,11.2z"/>
			<path class="st1" d="M134.4,76.2c-1.8,0-3.2-1.5-3.2-3.2c0-1.8,1.5-3.2,3.2-3.2c1.8,0,3.2,1.5,3.2,3.2
			C137.7,74.8,136.2,76.2,134.4,76.2z M134.4,70.6c-1.3,0-2.4,1.1-2.4,2.4s1.1,2.4,2.4,2.4c1.3,0,2.4-1.1,2.4-2.4
			S135.7,70.6,134.4,70.6z"/>
			<path class="st1" d="M132.4,64.8h-0.7v-2.2h0.7V64.8z M132.4,59.5h-0.7v-2.2h0.7V59.5z M132.4,54.2h-0.7V52h0.7V54.2z M132.4,48.9
			h-0.7v-2.2h0.7V48.9z M132.4,43.6h-0.7v-2.2h0.7V43.6z M132.4,38.3h-0.7v-2.2h0.7V38.3z M132.4,33h-0.7v-2.2h0.7V33z M132.4,27.7
			h-0.7v-2.2h0.7V27.7z M132.4,22.4h-0.7v-2.2h0.7V22.4z"/>
			<path class="st1" d="M60.4,20.2h0.7v2.2h-0.7V20.2z M60.4,25.5h0.7v2.2h-0.7V25.5z M60.4,30.8h0.7V33h-0.7V30.8z M60.4,36.1h0.7
			v2.2h-0.7V36.1z M60.4,41.4h0.7v2.2h-0.7V41.4z M60.4,46.7h0.7v2.2h-0.7V46.7z M60.4,52h0.7v2.2h-0.7V52z M60.4,57.3h0.7v2.2h-0.7
			V57.3z M60.4,62.5h0.7v2.2h-0.7V62.5z"/>
			<g>
				<path class="st1" d="M90,6.7c-1.8,0-3.3-1.5-3.3-3.2c0-1.8,1.5-3.2,3.3-3.2s3.2,1.5,3.2,3.2C93.2,5.3,91.8,6.7,90,6.7z M90,1.1
				c-1.3,0-2.4,1.1-2.4,2.4s1.1,2.4,2.4,2.4s2.4-1.1,2.4-2.4C92.3,2.2,91.3,1.1,90,1.1z"/>
				<path class="st1" d="M90.3,48.4h-0.7v-2.2h0.7V48.4z M90.3,43.1h-0.7v-2.2h0.7V43.1z M90.3,37.9h-0.7v-2.2h0.7V37.9z M90.3,32.6
				h-0.7v-2.2h0.7V32.6z M90.3,27.3h-0.7v-2.2h0.7V27.3z M90.3,22h-0.7v-2.2h0.7V22z M90.3,16.7h-0.7v-2.2h0.7V16.7z M90.3,11.4
				h-0.7V9.2h0.7V11.4z"/>
			</g>
			<path class="st2" d="M179.9,14.8l-2-4.3l-6.1,1c-0.8-1-1.7-1.8-2.8-2.6l0.5-6.1l-4.4-1.6l-3.6,5c-1.3-0.1-2.6-0.1-3.8,0.1l-4-4.7
			l-4.3,2l1,6c-1,0.8-1.9,1.8-2.6,2.8l-6.1-0.5l-1.6,4.4l5,3.6c-0.1,1.2-0.1,2.5,0.2,3.8l-4.7,4l2,4.3l6.2-1c0.8,1,1.7,1.8,2.7,2.5
			l-0.5,6.2l4.4,1.6l3.7-5.1c1.2,0.1,2.4,0.1,3.6-0.1l4.1,4.8l4.3-2l-1-6.2c0.9-0.8,1.8-1.7,2.5-2.7l6.3,0.5l1.6-4.4l-5.1-3.7
			c0.1-1.2,0.1-2.5-0.1-3.7L179.9,14.8z M163.9,29.4c-4.5,2.1-9.9,0.1-11.9-4.4c-2.1-4.5-0.1-9.9,4.4-11.9c4.5-2.1,9.9-0.1,11.9,4.4
			S168.4,27.3,163.9,29.4z"/>
			<path class="st2" d="M196.4,47.6l0.3-3l-3.6-1.4c-0.1-0.8-0.4-1.6-0.7-2.3l2.2-3.2l-1.9-2.3l-3.5,1.6c-0.7-0.5-1.4-0.8-2.1-1.1
			l-0.7-3.8l-3-0.3l-1.4,3.6c-0.8,0.1-1.6,0.4-2.3,0.7l-3.2-2.2l-2.3,1.9l1.6,3.6c-0.5,0.6-0.8,1.4-1.1,2.1l-3.8,0.7l-0.3,3l3.7,1.4
			c0.1,0.8,0.4,1.5,0.7,2.2l-2.3,3.2l1.9,2.3l3.6-1.6c0.6,0.4,1.3,0.8,2,1.1l0.7,3.9l3,0.3l1.4-3.7c0.8-0.1,1.5-0.4,2.2-0.7l3.3,2.3
			l2.3-1.9l-1.6-3.6c0.4-0.6,0.8-1.3,1.1-2L196.4,47.6z M183,50.4c-3.1-0.3-5.4-3.1-5.1-6.2c0.3-3.1,3.1-5.4,6.2-5.1
			c3.1,0.3,5.4,3.1,5.1,6.2C188.9,48.5,186.1,50.7,183,50.4z"/>
			<path class="st2" d="M77.9,22.4c0.1-0.6,0.2-1.2,0.2-1.8c0-4.3-3.5-7.9-7.9-7.9c-1.5,0-2.9,0.4-4.1,1.2c-1.9-3.6-5.7-6.1-10.1-6.1
			c-6.3,0-11.5,5.1-11.5,11.5c0,0.1,0,0.3,0,0.4c-3.9,0.5-7,3.8-7,7.8c0,4.2,3.3,7.7,7.5,7.9l0,0h32l0,0c0.1,0,0.1,0,0.2,0
			c3.6,0,6.5-2.9,6.5-6.5C83.9,25.5,81.2,22.7,77.9,22.4z"/>
			<g>
				<path class="st3" d="M47.2,135.6c0,2.1,1.7,3.8,3.8,3.8h130c2.1,0,3.8-1.7,3.8-3.8V59.5H47.2V135.6z"/>
				<path class="st4" d="M181.4,51.2H50.6c-1.9,0-3.5,1.5-3.5,3.5v4.8h137.7v-4.8C184.8,52.8,183.3,51.2,181.4,51.2z"/>
				<circle class="st5" cx="52.8" cy="55.7" r="1.8"/>
				<circle class="st6" cx="60.7" cy="55.7" r="1.8"/>
				<path class="st7" d="M68.5,53.8c-1,0-1.8,0.8-1.8,1.8s0.8,1.8,1.8,1.8s1.8-0.8,1.8-1.8C70.4,54.6,69.5,53.8,68.5,53.8z"/>
			</g>
			<rect x="113.4" y="70.5" class="st8" width="57.9" height="57.9"/>
			<g>
				<g>
					<rect x="60.7" y="72" class="st8" width="5.9" height="23.2"/>
					<rect x="70.3" y="72" class="st8" width="5.9" height="23.2"/>
					<rect x="79.9" y="72" class="st8" width="5.9" height="23.2"/>
					<rect x="60.7" y="79.8" class="st8" width="5.9" height="15.5"/>
					<rect x="70.3" y="84.9" class="st9" width="5.9" height="10.4"/>
					<rect x="79.9" y="77" class="st7" width="5.9" height="18.3"/>
					<rect x="89.4" y="72" class="st8" width="5.9" height="23.2"/>
					<rect x="89.4" y="79.8" class="st6" width="5.9" height="15.5"/>
				</g>
				<g class="st10">
					<rect x="55" y="100.1" class="st9" width="46" height="2.7"/>
					<rect x="55" y="105.4" class="st9" width="46" height="2.7"/>
					<rect x="55" y="110.7" class="st9" width="46" height="2.7"/>
					<rect x="55" y="116" class="st9" width="46" height="2.7"/>
				</g>
			</g>
			<path class="st11" d="M231.7,139.5H2.4c-1.1,0-2,1-2,2.3v1.1c0,1.3,0.9,2.3,2,2.3h229.3c1.1,0,2-1,2-2.3v-1.1
			C233.7,140.6,232.8,139.5,231.7,139.5z"/>
			<g>
				<rect x="111.7" y="65" class="st9" width="34" height="42.8"/>
				<rect x="116.7" y="72.9" class="st12" width="24.2" height="1.5"/>
				<rect x="116.7" y="77.5" class="st12" width="24.2" height="1.5"/>
				<rect x="116.7" y="82.1" class="st12" width="24.2" height="1.5"/>
				<rect x="116.7" y="86.7" class="st12" width="24.2" height="1.5"/>
				<rect x="116.7" y="91.2" class="st12" width="24.2" height="1.5"/>
				<rect x="116.7" y="95.8" class="st12" width="24.2" height="1.5"/>
				<rect x="116.7" y="100.4" class="st12" width="24.2" height="1.5"/>
			</g>
			<g>
				<rect x="140.1" y="88.7" class="st2" width="37" height="46.5"/>
				<rect x="145.4" y="97.3" class="st12" width="26.3" height="1.7"/>
				<rect x="145.4" y="102.3" class="st12" width="26.3" height="1.7"/>
				<rect x="145.4" y="107.3" class="st12" width="26.3" height="1.7"/>
				<rect x="145.4" y="112.3" class="st12" width="26.3" height="1.7"/>
				<rect x="145.4" y="117.2" class="st12" width="26.3" height="1.7"/>
				<rect x="145.4" y="122.2" class="st12" width="26.3" height="1.7"/>
				<rect x="145.4" y="127.2" class="st12" width="26.3" height="1.7"/>
			</g>
			<g>
				<path class="st9" d="M59.9,126.1c0-9.2-7.4-16.6-16.6-16.6s-16.6,7.4-16.6,16.6c0,5.8,2.9,10.8,7.4,13.8
				c0.5-4.8,2.5-12.1,9.1-12.4l0,0c0.1,0,0.1,0,0.2,0c0.1,0,0.1,0,0.2,0l0,0c6.6,0.2,8.5,7.6,9.1,12.4
				C57,136.9,59.9,131.9,59.9,126.1z M43.3,126.4c-3,0-5.4-2.4-5.4-5.4s2.4-5.4,5.4-5.4s5.4,2.4,5.4,5.4S46.3,126.4,43.3,126.4z"/>
				<path class="st13" d="M43.3,115.6c-3,0-5.4,2.4-5.4,5.4s2.4,5.4,5.4,5.4s5.4-2.4,5.4-5.4S46.3,115.6,43.3,115.6z"/>
				<path class="st13" d="M43.5,127.5L43.5,127.5c-0.1,0-0.1,0-0.2,0c-0.1,0-0.1,0-0.2,0l0,0c-6.6,0.2-8.5,7.6-9.1,12.4
				c2.6,1.8,5.8,2.8,9.2,2.8s6.6-1,9.2-2.8C52,135.1,50.1,127.8,43.5,127.5z"/>
			</g>
		</g>
	</g>
</svg>
