<?xml version="1.0" encoding="UTF-8"?>
<svg id="Layer_1" data-name="Layer 1"
  xmlns="http://www.w3.org/2000/svg" viewBox="0 0 315 170">
  <defs>
    <style>
      .cls-1 {
        fill: none;
      }

      .cls-1, .cls-2, .cls-3 {
        opacity: .53;
      }

      .cls-4, .cls-5 {
        fill: #fff;
      }

      .cls-6 {
        fill: #ffcb5d;
      }

      .cls-7 {
        fill: #ccc;
      }

      .cls-8 {
        fill: #96b2ea;
      }

      .cls-9 {
        fill: #8680ee;
      }

      .cls-10 {
        fill: #9ab4ef;
      }

      .cls-11 {
        fill: #33bca8;
      }

      .cls-12 {
        fill: #258e7a;
      }

      .cls-13 {
        fill: #5783c4;
      }

      .cls-14, .cls-15, .cls-2 {
        fill: #615efa;
      }

      .cls-15 {
        stroke: #615efa;
      }

      .cls-15, .cls-5 {
        stroke-miterlimit: 10;
        stroke-width: .38px;
      }

      .cls-5 {
        stroke: #fff;
      }

      .cls-3 {
        fill: #9797ef;
      }
    </style>
  </defs>
  <g>
    <path class="cls-11" d="m79.57,163.78c1.41-21.57-10.35-27.85-26.64-37.27-16.89-9.76-29.63-17.68-24.22-38.35,1.88-7.18,3.19-12.77,2.24-20.26,35.97,16.21,74.96,40.21,54.26,84.61-1.83,3.92-3.78,6.41-3.55,11.14l-2.08.12Z"/>
    <path class="cls-11" d="m63.8,165.73c-9.1.22-19.77-2.07-25.73-7.96-6.88-6.8-9.46-16.64-16.07-23.73,17.13,3.28,38.31,5.37,47.11,22.69,1.3,2.55,2.33,5.21,2.99,8,0,0-.01,0-.02,0-2.44.59-5.28.93-8.29,1.01Z"/>
    <path class="cls-11" d="m94.85,162c19.13-7.65,31.25-15.71,26.71-38.29-16.35,12.17-32.6,13.98-35.07,38.15l8.36.14Z"/>
    <path class="cls-12" d="m80.49,163.82s-.07,0-.1,0c-.15-.04-.25-.19-.21-.34,8.46-36.89-27.92-62.83-39.27-69.9-.13-.08-.18-.26-.09-.39.08-.13.26-.18.39-.09,7.24,4.51,20.81,14.16,30.32,28.07,9.41,13.76,12.5,28.04,9.2,42.45-.03.12-.12.2-.24.22Z"/>
    <path class="cls-12" d="m68.49,117.8s0,0-.01,0c-.16.02-.3-.1-.31-.26l-.06-.58c-.69-6.7-1.97-19.18-12.98-28.92-.12-.1-.13-.29-.02-.4.1-.12.29-.13.4-.02,11.17,9.88,12.47,22.51,13.17,29.29l.06.58c.02.15-.09.29-.24.31Z"/>
    <path class="cls-12" d="m75.77,129.6s-.09,0-.13-.01c-5.32-1.76-15.29-5.88-20.13-8.31-.14-.07-.2-.24-.13-.38.07-.14.24-.2.38-.13,4.82,2.42,14.75,6.52,20.05,8.28.15.05.23.21.18.36-.04.11-.13.18-.23.19Z"/>
    <path class="cls-12" d="m69.01,165.75c-.13.02-.25-.05-.3-.17-2.05-4.91-8.1-11.46-15.06-16.31-7.98-5.56-15.65-7.94-21.04-6.52-.16.04-.31-.05-.35-.2-.04-.15.05-.31.2-.35,5.55-1.45,13.39.96,21.51,6.61,7.03,4.9,13.17,11.55,15.26,16.55.06.15,0,.31-.15.37-.02,0-.05.02-.07.02Z"/>
    <path class="cls-12" d="m88.67,160.22c-.05,0-.1,0-.16-.02-.14-.06-.21-.23-.15-.38,3.45-7.92,9.59-12.09,16.09-16.5,3.34-2.27,6.8-4.61,9.85-7.52.11-.11.3-.1.4.01.11.11.1.3-.01.4-3.09,2.94-6.56,5.3-9.92,7.58-6.43,4.36-12.51,8.49-15.89,16.26-.04.09-.13.16-.22.17Z"/>
    <path class="cls-12" d="m78.16,133.92c-.05,0-.1,0-.15-.02-.15-.06-.21-.23-.15-.38,2.42-5.66.85-12.2-.67-18.52-.58-2.42-1.18-4.91-1.53-7.27-.02-.16.09-.3.24-.32h0c.16-.02.3.09.32.24.34,2.33.91,4.71,1.52,7.22,1.54,6.41,3.14,13.04.64,18.88-.04.1-.13.16-.22.17Z"/>
  </g>
  <g>
    <rect class="cls-8" x="155.71" y="26.57" width="1.04" height="30.39"/>
    <rect class="cls-8" x="165.4" y="34.32" width="1.04" height="22.63"/>
    <path class="cls-8" d="m175.82,57.47c-2.1,0-3.8-1.71-3.8-3.82s1.71-3.8,3.8-3.8,3.8,1.71,3.8,3.8-1.71,3.82-3.8,3.82Zm0-6.58c-1.53,0-2.76,1.24-2.76,2.76s1.24,2.77,2.76,2.77,2.76-1.25,2.76-2.77-1.24-2.76-2.76-2.76Z"/>
  </g>
  <path class="cls-8" d="m193.88,19.38c-2.1,0-3.8-1.7-3.8-3.8s1.71-3.8,3.8-3.8,3.8,1.71,3.8,3.8-1.71,3.8-3.8,3.8Zm0-6.57c-1.53,0-2.76,1.25-2.76,2.78s1.24,2.77,2.76,2.77,2.76-1.24,2.76-2.77-1.24-2.78-2.76-2.78Z"/>
  <path class="cls-8" d="m196.64,89.07c-2.1,0-3.8-1.71-3.8-3.8s1.7-3.8,3.8-3.8,3.8,1.71,3.8,3.8-1.71,3.8-3.8,3.8Zm0-6.58c-1.53,0-2.77,1.25-2.77,2.78s1.24,2.77,2.77,2.77,2.77-1.25,2.77-2.77-1.25-2.78-2.77-2.78Z"/>
  <path class="cls-8" d="m194.27,75.62h-.78v-2.59h.78v2.59Zm0-6.2h-.78v-2.59h.78v2.59Zm0-6.2h-.78v-2.59h.78v2.59Zm0-6.2h-.78v-2.59h.78v2.59Zm0-6.2h-.78v-2.59h.78v2.59Zm0-6.2h-.78v-2.59h.78v2.59Zm0-6.2h-.78v-2.59h.78v2.59Zm0-6.2h-.78v-2.59h.78v2.59Zm0-6.2h-.78v-2.59h.78v2.59Z"/>
  <path class="cls-8" d="m109.84,23.41h.78v2.59h-.78v-2.59Zm0,6.2h.78v2.59h-.78v-2.59Zm0,6.2h.78v2.59h-.78v-2.59Zm0,6.2h.78v2.59h-.78v-2.59Zm0,6.2h.78v2.59h-.78v-2.59Zm0,6.2h.78v2.59h-.78v-2.59Zm0,6.2h.78v2.59h-.78v-2.59Zm0,6.2h.78v2.59h-.78v-2.59Zm0,6.2h.78v2.59h-.78v-2.59Z"/>
  <g>
    <path class="cls-8" d="m144.51,7.6c-2.11,0-3.82-1.71-3.82-3.8s1.71-3.8,3.82-3.8,3.8,1.7,3.8,3.8-1.71,3.8-3.8,3.8Zm0-6.57c-1.53,0-2.77,1.24-2.77,2.77s1.25,2.77,2.77,2.77,2.76-1.25,2.76-2.77-1.24-2.77-2.76-2.77Z"/>
    <path class="cls-8" d="m144.9,56.49h-.78v-2.59h.78v2.59Zm0-6.2h-.78v-2.59h.78v2.59Zm0-6.2h-.78v-2.59h.78v2.59Zm0-6.2h-.78v-2.59h.78v2.59Zm0-6.2h-.78v-2.59h.78v2.59Zm0-6.2h-.78v-2.59h.78v2.59Zm0-6.2h-.78v-2.59h.78v2.59Zm0-6.2h-.78v-2.59h.78v2.59Z"/>
  </g>
  <path class="cls-10" d="m249.92,17.09l-2.31-5.04-7.16,1.15c-.96-1.15-2.04-2.16-3.23-3.02l.61-7.21-5.2-1.93-4.21,5.83c-1.48-.14-2.99-.09-4.49.16l-4.63-5.48-5.04,2.31,1.14,7.09c-1.17.98-2.19,2.09-3.05,3.3l-7.16-.6-1.93,5.2,5.86,4.24c-.12,1.46-.06,2.94.19,4.42l-5.54,4.68,2.31,5.04,7.22-1.16c.95,1.11,2.02,2.09,3.18,2.92l-.62,7.31,5.2,1.93,4.32-5.98c1.4.11,2.83.06,4.25-.17l4.77,5.64,5.04-2.31-1.17-7.29c1.1-.93,2.07-1.97,2.9-3.11l7.35.62,1.93-5.2-5.95-4.3c.13-1.43.08-2.88-.14-4.32l5.58-4.72Zm-18.73,17.05c-5.29,2.43-11.55.11-13.98-5.18-2.43-5.29-.11-11.55,5.18-13.98,5.29-2.43,11.55-.11,13.98,5.18,2.43,5.29.11,11.55-5.18,13.98Z"/>
  <path class="cls-10" d="m269.24,55.48l.34-3.48-4.27-1.64c-.16-.93-.43-1.83-.8-2.67l2.62-3.74-2.23-2.7-4.15,1.84c-.77-.54-1.6-1-2.5-1.34l-.79-4.46-3.48-.34-1.63,4.23c-.95.16-1.86.44-2.71.83l-3.72-2.6-2.7,2.23,1.85,4.17c-.53.76-.97,1.58-1.3,2.47l-4.51.79-.34,3.48,4.3,1.66c.16.91.44,1.78.81,2.61l-2.66,3.79,2.23,2.7,4.26-1.89c.73.51,1.52.93,2.37,1.26l.81,4.59,3.48.34,1.67-4.35c.89-.16,1.75-.42,2.57-.78l3.81,2.67,2.7-2.23-1.88-4.23c.52-.74.96-1.54,1.29-2.4l4.54-.8Zm-15.62,3.35c-3.66-.35-6.33-3.61-5.98-7.26.35-3.66,3.61-6.33,7.26-5.98,3.66.35,6.33,3.61,5.98,7.26s-3.61,6.33-7.26,5.98Z"/>
  <path class="cls-10" d="m130.32,26.02c.15-.67.24-1.36.24-2.08,0-5.08-4.12-9.21-9.21-9.21-1.77,0-3.42.5-4.82,1.36-2.26-4.23-6.72-7.1-11.85-7.1-7.42,0-13.43,6.01-13.43,13.43,0,.15,0,.31.01.46-4.59.53-8.15,4.42-8.15,9.15s3.91,8.99,8.81,9.2h0s37.57.01,37.57.01h0c.07,0,.15,0,.22,0,4.21,0,7.63-3.42,7.63-7.63s-3.09-7.29-7.02-7.6Z"/>
  <g>
    <path class="cls-5" d="m94.36,158.66c0,2.49,2.02,4.51,4.51,4.51h152.37c2.49,0,4.51-2.02,4.51-4.51v-89.21H94.36v89.21Z"/>
    <path class="cls-15" d="m251.7,59.76H98.41c-2.24,0-4.05,1.81-4.05,4.05v5.63h161.39v-5.63c0-2.24-1.81-4.05-4.05-4.05Z"/>
    <circle class="cls-3" cx="100.99" cy="64.97" r="2.16"/>
    <circle class="cls-6" cx="110.17" cy="64.97" r="2.16"/>
    <path class="cls-9" d="m119.36,62.8c-1.19,0-2.16.97-2.16,2.16s.97,2.16,2.16,2.16,2.16-.97,2.16-2.16-.97-2.16-2.16-2.16Z"/>
  </g>
  <rect class="cls-2" x="171.98" y="82.39" width="67.83" height="67.83"/>
  <g>
    <g>
      <rect class="cls-2" x="110.23" y="84.13" width="6.97" height="27.23"/>
      <rect class="cls-2" x="121.45" y="84.13" width="6.97" height="27.23"/>
      <rect class="cls-2" x="132.66" y="84.13" width="6.97" height="27.23"/>
      <rect class="cls-2" x="110.23" y="93.24" width="6.97" height="18.13"/>
      <rect class="cls-14" x="121.45" y="99.21" width="6.97" height="12.16"/>
      <rect class="cls-9" x="132.66" y="89.95" width="6.97" height="21.41"/>
      <rect class="cls-2" x="143.88" y="84.13" width="6.97" height="27.23"/>
      <rect class="cls-6" x="143.88" y="93.24" width="6.97" height="18.13"/>
    </g>
    <g class="cls-1">
      <rect class="cls-14" x="103.55" y="117.11" width="53.97" height="3.15"/>
      <rect class="cls-14" x="103.55" y="123.32" width="53.97" height="3.15"/>
      <rect class="cls-14" x="103.55" y="129.54" width="53.97" height="3.15"/>
      <rect class="cls-14" x="103.55" y="135.76" width="53.97" height="3.15"/>
    </g>
  </g>
  <path class="cls-13" d="m291.95,163.29H23.1c-1.3,0-2.36,1.21-2.36,2.71v1.3c0,1.49,1.06,2.71,2.36,2.71h268.85c1.3,0,2.36-1.21,2.36-2.71v-1.3c0-1.49-1.06-2.71-2.36-2.71Z"/>
  <g>
    <rect class="cls-14" x="170.04" y="75.92" width="39.89" height="50.14"/>
    <rect class="cls-7" x="175.82" y="85.18" width="28.34" height="1.79"/>
    <rect class="cls-7" x="175.82" y="90.56" width="28.34" height="1.79"/>
    <rect class="cls-7" x="175.82" y="95.93" width="28.34" height="1.79"/>
    <rect class="cls-7" x="175.82" y="101.31" width="28.34" height="1.79"/>
    <rect class="cls-7" x="175.82" y="106.68" width="28.34" height="1.79"/>
    <rect class="cls-7" x="175.82" y="112.06" width="28.34" height="1.79"/>
    <rect class="cls-7" x="175.82" y="117.43" width="28.34" height="1.79"/>
  </g>
  <g>
    <rect class="cls-10" x="203.26" y="103.7" width="43.38" height="54.54"/>
    <rect class="cls-7" x="209.54" y="113.78" width="30.82" height="1.95"/>
    <rect class="cls-7" x="209.54" y="119.62" width="30.82" height="1.95"/>
    <rect class="cls-7" x="209.54" y="125.47" width="30.82" height="1.95"/>
    <rect class="cls-7" x="209.54" y="131.32" width="30.82" height="1.95"/>
    <rect class="cls-7" x="209.54" y="137.16" width="30.82" height="1.95"/>
    <rect class="cls-7" x="209.54" y="143.01" width="30.82" height="1.95"/>
    <rect class="cls-7" x="209.54" y="148.85" width="30.82" height="1.95"/>
  </g>
  <g>
    <path class="cls-14" d="m109.28,147.55c0-10.75-8.72-19.47-19.47-19.47s-19.47,8.72-19.47,19.47c0,6.75,3.43,12.69,8.64,16.18.64-5.62,2.89-14.24,10.63-14.52h0c.07,0,.13,0,.19,0,.07,0,.13,0,.19,0h0c7.74.29,9.99,8.92,10.63,14.53,5.21-3.49,8.64-9.43,8.64-16.18Zm-19.47.32c-3.47,0-6.29-2.82-6.29-6.29s2.82-6.29,6.29-6.29,6.29,2.82,6.29,6.29-2.82,6.29-6.29,6.29Z"/>
    <path class="cls-4" d="m89.81,135.29c-3.47,0-6.29,2.82-6.29,6.29s2.82,6.29,6.29,6.29,6.29-2.82,6.29-6.29-2.82-6.29-6.29-6.29Z"/>
    <path class="cls-4" d="m90.01,149.2h0c-.07,0-.13,0-.19,0-.07,0-.13,0-.19,0h0c-7.74.29-9.99,8.92-10.63,14.53,3.1,2.07,6.82,3.29,10.82,3.29s7.73-1.21,10.82-3.29c-.64-5.62-2.89-14.24-10.63-14.52Z"/>
  </g>
</svg>