<svg xmlns="http://www.w3.org/2000/svg" width="24" height="24" viewBox="0 0 24 24">
  <g fill="none" fill-rule="evenodd">
    <rect width="24" height="24"/>
    <path fill="#28333F" d="M4.5,11.5 L4.5,15.5 C4.5,16.33 5.17,17 6,17 C6.83,17 7.5,16.33 7.5,15.5 L7.5,11.5 C7.5,10.67 6.83,10 6,10 C5.17,10 4.5,10.67 4.5,11.5 Z M10.5,11.5 L10.5,15.5 C10.5,16.33 11.17,17 12,17 C12.83,17 13.5,16.33 13.5,15.5 L13.5,11.5 C13.5,10.67 12.83,10 12,10 C11.17,10 10.5,10.67 10.5,11.5 Z M4,22 L20,22 C20.83,22 21.5,21.33 21.5,20.5 C21.5,19.67 20.83,19 20,19 L4,19 C3.17,19 2.5,19.67 2.5,20.5 C2.5,21.33 3.17,22 4,22 Z M16.5,11.5 L16.5,15.5 C16.5,16.33 17.17,17 18,17 C18.83,17 19.5,16.33 19.5,15.5 L19.5,11.5 C19.5,10.67 18.83,10 18,10 C17.17,10 16.5,10.67 16.5,11.5 Z M11.07,1.49 L3.17,5.65 C2.76,5.86 2.5,6.29 2.5,6.75 C2.5,7.44 3.06,8 3.75,8 L20.26,8 C20.94,8 21.5,7.44 21.5,6.75 C21.5,6.29 21.24,5.86 20.83,5.65 L12.93,1.49 C12.35,1.18 11.65,1.18 11.07,1.49 Z"/>
  </g>
</svg>
