<svg xmlns="http://www.w3.org/2000/svg" width="24" height="24" viewBox="0 0 24 24">
  <g fill="none" fill-rule="evenodd">
    <rect width="24" height="24"/>
    <path fill="#28333F" d="M13,16 L11,16 C10.45,16 10,15.55 10,15 L3.01,15 L3.01,19 C3.01,20.1 3.91,21 5.01,21 L19,21 C20.1,21 21,20.1 21,19 L21,15 L14,15 C14,15.55 13.55,16 13,16 Z M20,7 L16,7 C16,4.79 14.21,3 12,3 C9.79,3 8,4.79 8,7 L4,7 C2.9,7 2,7.9 2,9 L2,12 C2,13.11 2.89,14 4,14 L10,14 L10,13 C10,12.45 10.45,12 11,12 L13,12 C13.55,12 14,12.45 14,13 L14,14 L20,14 C21.1,14 22,13.1 22,12 L22,9 C22,7.9 21.1,7 20,7 Z M10,7 C10,5.9 10.9,5 12,5 C13.1,5 14,5.9 14,7 L9.99,7 L10,7 Z"/>
  </g>
</svg>
