<svg xmlns="http://www.w3.org/2000/svg" width="24" height="24" viewBox="0 0 24 24">
  <g fill="none" fill-rule="evenodd">
    <rect width="24" height="24"/>
    <path fill="#28333F" d="M17.17,2 C18.73,2 20,3.27 20,4.83 L20,4.83 L20,13 L21,13 C21.55,13 22,13.45 22,14 L22,14 L22,19 C22,20.1 21.1,21 20,21 C20,21.55 19.55,22 19,22 L19,22 L5,22 C4.45,22 4,21.55 4,21 C2.9,21 2,20.1 2,19 L2,19 L2,14 C2,13.45 2.45,13 3,13 L3,13 L5,13 L5,12.25 C5,11.01 6,10.01 7.24,10 C7.59,10 7.93,10.08 8.24,10.23 C8.5,10.35 8.74,10.52 8.93,10.73 L8.93,10.73 L10.33,12.28 C10.58,12.55 10.85,12.79 11.15,13 L11.15,13 L18,13 L18,4.83 C18,4.37 17.63,4 17.17,4 C16.95,4 16.74,4.09 16.59,4.24 L16.59,4.24 L15.34,5.49 C15.38,5.66 15.41,5.82 15.41,6 C15.41,6.4 15.29,6.77 15.09,7.08 L15.09,7.08 L12.33,4.32 C12.64,4.12 13.01,4 13.41,4 C13.59,4 13.76,4.03 13.92,4.08 L13.92,4.08 L15.17,2.83 C15.7,2.3 16.42,2 17.17,2 Z M7,5 C8.1045695,5 9,5.8954305 9,7 C9,8.1045695 8.1045695,9 7,9 C5.8954305,9 5,8.1045695 5,7 C5,5.8954305 5.8954305,5 7,5 Z"/>
  </g>
</svg>
