<svg width="24" height="24" viewBox="0 0 24 24" fill="none" xmlns="http://www.w3.org/2000/svg">
<path fill-rule="evenodd" clip-rule="evenodd" d="M14.9004 8.04995L15.9504 9.14995L19.5504 5.49995V8.09995H21.0504V2.94995H15.9004V4.44995H18.5004L14.9004 8.04995ZM17.6504 19.5V10.25H19.2504V19.65C19.2504 20 19.1004 20.35 18.8004 20.65C18.5004 20.95 18.1504 21.1 17.7504 21.1H4.35039C4.00039 21.1 3.65039 20.95 3.35039 20.65C3.05039 20.35 2.90039 20 2.90039 19.6V6.2C2.90039 5.85 3.05039 5.5 3.35039 5.2C3.65039 4.9 4.00039 4.75 4.40039 4.75H13.6504V6.35H4.50039V19.5H17.6504Z" fill="white"/>
</svg>
