<svg width="31" height="32" viewBox="0 0 31 32" fill="none" xmlns="http://www.w3.org/2000/svg">
<rect width="31" height="32" rx="15.5" fill="white"/>
<path fill-rule="evenodd" clip-rule="evenodd" d="M15.4993 15.9999C17.2835 15.9999 18.7285 14.5083 18.7285 12.6666C18.7285 10.8249 17.2835 9.33325 15.4993 9.33325C13.7152 9.33325 12.2702 10.8249 12.2702 12.6666C12.2702 14.5083 13.7152 15.9999 15.4993 15.9999ZM15.4993 17.6666C13.3439 17.6666 9.04102 18.7833 9.04102 20.9999V21.8333C9.04102 22.2916 9.4043 22.6666 9.84831 22.6666H21.1504C21.5944 22.6666 21.9577 22.2916 21.9577 21.8333V20.9999C21.9577 18.7833 17.6548 17.6666 15.4993 17.6666Z" fill="#28333F"/>
</svg>
