<?xml version="1.0" encoding="UTF-8"?>
<svg width="1440px" height="900px" viewBox="0 0 1440 900" version="1.1" xmlns="http://www.w3.org/2000/svg" xmlns:xlink="http://www.w3.org/1999/xlink">
    <title>Doc site - Homepage bg</title>
    <defs>
        <linearGradient x1="27.075571%" y1="32.4977227%" x2="64.0602046%" y2="68.5052628%" id="linearGradient-1">
            <stop stop-color="#131E2E" offset="0%"></stop>
            <stop stop-color="#284063" offset="77.1579983%"></stop>
            <stop stop-color="#131F2F" offset="100%"></stop>
        </linearGradient>
        <linearGradient x1="-1.725277%" y1="31.557842%" x2="47.2485195%" y2="51.8818809%" id="linearGradient-2">
            <stop stop-color="#131E2E" stop-opacity="0.5" offset="0%"></stop>
            <stop stop-color="#284063" stop-opacity="0.8" offset="24.8946753%"></stop>
            <stop stop-color="#273F62" stop-opacity="0.791956078" offset="43.2113799%"></stop>
            <stop stop-color="#131F2F" stop-opacity="0" offset="100%"></stop>
        </linearGradient>
        <linearGradient x1="-20.7803742%" y1="32.6870202%" x2="57.3739506%" y2="44.3254667%" id="linearGradient-3">
            <stop stop-color="#131E2E" stop-opacity="0" offset="0%"></stop>
            <stop stop-color="#284063" stop-opacity="0.8" offset="30.1824891%"></stop>
            <stop stop-color="#131F2F" stop-opacity="0" offset="100%"></stop>
        </linearGradient>
        <linearGradient x1="-2.18979381e-05%" y1="49.9999555%" x2="100.000044%" y2="49.9999555%" id="linearGradient-4">
            <stop stop-color="#FFFFFF" offset="0%"></stop>
            <stop stop-color="#FFFFFF" stop-opacity="0" offset="100%"></stop>
        </linearGradient>
        <linearGradient x1="4.7485598e-05%" y1="50%" x2="100%" y2="50%" id="linearGradient-5">
            <stop stop-color="#FFFFFF" offset="0%"></stop>
            <stop stop-color="#FFFFFF" stop-opacity="0" offset="100%"></stop>
        </linearGradient>
    </defs>
    <g id="Doc-site---Homepage-bg" stroke="none" stroke-width="1" fill="none" fill-rule="evenodd">
        <rect fill="#FFFFFF" x="0" y="0" width="1440" height="900"></rect>
        <g id="Group-6" transform="translate(719.500000, 455.500000) scale(-1, 1) translate(-719.500000, -455.500000) translate(-2.000000, 1.000000)">
            <rect id="Background" fill="url(#linearGradient-1)" x="0.866018909" y="1.75025455" width="1440" height="900"></rect>
            <rect id="Background-gradient" fill="url(#linearGradient-2)" opacity="0.850767624" x="0.866018909" y="0.750254545" width="1440" height="900"></rect>
            <rect id="Background-gradient" fill-opacity="0.8" fill="url(#linearGradient-3)" opacity="0.850767624" x="0.866018909" y="0.750254545" width="1440" height="900"></rect>
            <path d="M550.467833,884.294585 C535.659494,877.911381 520.470989,872.44902 504.989088,867.938706 C466.137118,856.305465 426.013993,845.575715 385.462872,839.874369 C384.903834,839.796017 384.344796,839.718384 383.785758,839.641469 C341.354789,833.823869 299.463662,835.840049 256.97246,839.892488 C253.818811,840.193358 250.663302,840.479243 247.505148,840.731339 C231.235162,842.031582 214.93932,842.965042 198.63104,843.619278 C149.003663,845.489452 99.3109665,842.628521 50.2261207,835.075241 C22.1617833,830.668849 4.02810861,826.126714 4.02810861,826.126714 L4.02810861,905.115717 L50.8568504,904.478229 L50.8568504,904.432394 L585.787227,904.478229 C575.114771,896.072581 562.858929,889.746675 550.467833,884.294585 Z M343.322195,836.292236 C343.322195,836.292236 345.167178,836.49213 348.529927,836.898676 C346.794049,836.696334 345.058563,836.47832 343.322195,836.292236 Z" id="Shape" fill="#CBD8F4" fill-rule="nonzero" opacity="0.8"></path>
            <polygon id="Path" fill="#494829" fill-rule="nonzero" points="153.382703 815.843375 153.382703 845.785406 152.874397 845.785406 152.874397 816.128378"></polygon>
            <polygon id="Path" fill="#90DFDB" fill-rule="nonzero" points="156.108356 820.274153 155.114271 817.223341 154.010494 816.457455 153.445384 813.834638 152.767643 813.293033 150.146785 820.274153 153.12904 819.440688"></polygon>
            <polygon id="Path" fill="#55A6A9" fill-rule="nonzero" points="153.179968 816.715035 150.146785 820.274153 152.767643 813.293033"></polygon>
            <polygon id="Path" fill="#FFFFFF" fill-rule="nonzero" points="155.635309 818.82465 155.114271 817.223341 154.010494 816.457455 153.179968 816.715035"></polygon>
            <polygon id="Path" fill="#90DFDB" fill-rule="nonzero" points="156.915376 822.035103 153.12904 819.767806 149.503323 821.937164 149.503323 821.938143 148.640477 825.379733 153.127081 823.370996 157.803687 825.607932"></polygon>
            <polygon id="Path" fill="#FFFFFF" fill-rule="nonzero" points="157.327701 823.694196 156.915376 822.035103 153.12904 819.767806 153.375847 820.543486"></polygon>
            <polygon id="Path" fill="#55A6A9" fill-rule="nonzero" points="152.985069 820.695292 153.12904 819.767806 149.503323 821.937164 149.503323 821.938143 148.640477 825.379733 153.127081 823.370996 154.931124 824.232863"></polygon>
            <polygon id="Path" fill="#90DFDB" fill-rule="nonzero" points="157.715541 827.255273 155.737166 825.580509 153.127081 823.370996 148.5396 827.255273 147.604278 831.373624 153.127081 828.711632 157.16806 830.659646 158.649883 831.373624"></polygon>
            <polygon id="Path" fill="#55A6A9" fill-rule="nonzero" points="153.126101 823.370996 151.830363 827.884044 153.005636 827.251355 155.626494 829.917265 153.092802 828.751787 147.604278 831.373624 148.5396 827.255273"></polygon>
            <polygon id="Path" fill="#FFFFFF" fill-rule="nonzero" points="157.715541 827.255273 155.737166 825.580509 157.16806 830.659646 158.649883 831.373624"></polygon>
            <polygon id="Path" fill="#90DFDB" fill-rule="nonzero" points="160.688981 838.933566 160.693878 838.935525 160.688002 838.931607 160.123871 837.115811 158.91334 833.221741 153.132957 829.422672 153.132957 829.420713 153.130998 829.421692 153.12904 829.420713 153.12904 829.420713 153.12904 829.422672 153.12904 829.422672 153.125122 829.426589 147.341801 833.219782 145.560283 838.935525 145.71111 838.876761 153.126101 835.975796 157.315949 837.614322 160.67429 838.92769 160.69094 838.938463"></polygon>
            <polygon id="Path" fill="#FFFFFF" fill-rule="nonzero" points="160.12583 837.112873 158.912361 833.219782 155.418863 830.928 155.264118 832.305028"></polygon>
            <polygon id="Path" fill="#55A6A9" fill-rule="nonzero" points="157.315949 837.614322 160.693878 838.935525 153.083987 833.807418 153.125122 829.426589 147.341801 833.219782 145.560283 838.935525 145.71111 838.876761 153.126101 835.975796"></polygon>
            <polygon id="Path" fill="#494829" fill-rule="nonzero" points="52.3964141 815.843375 52.3964141 845.785406 51.8881086 845.785406 51.8881086 816.128378"></polygon>
            <polygon id="Path" fill="#90DFDB" fill-rule="nonzero" points="55.1220674 820.274153 54.1279825 817.223341 53.0242056 816.457455 52.4590953 813.834638 51.7813547 813.293033 49.1604965 820.274153 52.142751 819.440688"></polygon>
            <polygon id="Path" fill="#55A6A9" fill-rule="nonzero" points="52.1936795 816.715035 49.1604965 820.274153 51.7813547 813.293033"></polygon>
            <polygon id="Path" fill="#FFFFFF" fill-rule="nonzero" points="54.6490201 818.82465 54.1279825 817.223341 53.0242056 816.457455 52.1936795 816.715035"></polygon>
            <polygon id="Path" fill="#90DFDB" fill-rule="nonzero" points="55.929088 822.035103 52.142751 819.767806 48.5170347 821.937164 48.5170347 821.938143 47.6541886 825.379733 52.1407922 823.370996 56.8173983 825.607932"></polygon>
            <polygon id="Path" fill="#FFFFFF" fill-rule="nonzero" points="56.3414128 823.694196 55.929088 822.035103 52.142751 819.767806 52.3895583 820.543486"></polygon>
            <polygon id="Path" fill="#55A6A9" fill-rule="nonzero" points="51.9987801 820.695292 52.142751 819.767806 48.5170347 821.937164 48.5170347 821.938143 47.6541886 825.379733 52.1407922 823.370996 53.9448359 824.232863"></polygon>
            <polygon id="Path" fill="#90DFDB" fill-rule="nonzero" points="56.7292528 827.255273 54.7508771 825.580509 52.1407922 823.370996 47.553311 827.255273 46.6179898 831.373624 52.1407922 828.711632 56.1817716 830.659646 57.6635947 831.373624"></polygon>
            <polygon id="Path" fill="#55A6A9" fill-rule="nonzero" points="52.1398128 823.370996 50.8440747 827.884044 52.0193474 827.251355 54.6402056 829.917265 52.1065135 828.751787 46.6179898 831.373624 47.553311 827.255273"></polygon>
            <polygon id="Path" fill="#FFFFFF" fill-rule="nonzero" points="56.7292528 827.255273 54.7508771 825.580509 56.1817716 830.659646 57.6635947 831.373624"></polygon>
            <polygon id="Path" fill="#90DFDB" fill-rule="nonzero" points="59.7026928 838.933566 59.7075898 838.935525 59.7017135 838.931607 59.1375825 837.115811 57.9270516 833.221741 52.1466686 829.422672 52.1466686 829.420713 52.1447098 829.421692 52.1437304 829.420713 52.1437304 829.420713 52.1437304 829.422672 52.142751 829.422672 52.1388335 829.426589 46.3555122 833.219782 44.5739947 838.935525 44.7248213 838.876761 52.1398128 835.975796 56.3296601 837.614322 59.6880019 838.92769 59.7046516 838.938463"></polygon>
            <polygon id="Path" fill="#FFFFFF" fill-rule="nonzero" points="59.1395413 837.112873 57.9260722 833.219782 54.4325741 830.928 54.2778298 832.305028"></polygon>
            <polygon id="Path" fill="#55A6A9" fill-rule="nonzero" points="56.3296601 837.614322 59.7075898 838.935525 52.0976989 833.807418 52.1388335 829.426589 46.3555122 833.219782 44.5739947 838.935525 44.7248213 838.876761 52.1398128 835.975796"></polygon>
            <polygon id="Path" fill="#494829" fill-rule="nonzero" points="31.3081038 801.396335 31.3081038 846.7648 30.5383001 846.7648 30.5383001 801.827268"></polygon>
            <polygon id="Path" fill="#90DFDB" fill-rule="nonzero" points="35.4372286 808.109101 33.9309207 803.48832 32.2590953 802.326759 31.4021256 798.353358 30.3757207 797.531646 26.4042783 808.109101 30.9241813 806.847641"></polygon>
            <polygon id="Path" fill="#55A6A9" fill-rule="nonzero" points="31.0005741 802.717537 26.4042783 808.109101 30.3757207 797.531646"></polygon>
            <polygon id="Path" fill="#FFFFFF" fill-rule="nonzero" points="34.722271 805.913299 33.9309207 803.48832 32.2590953 802.326759 31.0005741 802.717537"></polygon>
            <polygon id="Path" fill="#90DFDB" fill-rule="nonzero" points="36.6604916 810.778928 30.9241813 807.342235 25.4297813 810.630061 25.4297813 810.63104 24.1222904 815.846313 30.9212432 812.801377 38.0071583 816.192039"></polygon>
            <polygon id="Path" fill="#FFFFFF" fill-rule="nonzero" points="37.2863244 813.292053 36.6604916 810.778928 30.9241813 807.342235 31.2973304 808.518487"></polygon>
            <polygon id="Path" fill="#55A6A9" fill-rule="nonzero" points="30.7047971 808.747665 30.9241813 807.342235 25.4297813 810.630061 25.4297813 810.63104 24.1222904 815.846313 30.9212432 812.801377 33.6547316 814.107888"></polygon>
            <polygon id="Path" fill="#90DFDB" fill-rule="nonzero" points="37.8729813 818.687535 34.8750565 816.149925 30.9202638 812.802356 23.969505 818.687535 22.5533013 824.928233 30.9212432 820.894109 37.0434347 823.846002 39.289185 824.928233"></polygon>
            <polygon id="Path" fill="#55A6A9" fill-rule="nonzero" points="30.918305 812.803336 28.9565789 819.640485 30.7361377 818.681658 34.7075801 822.721658 30.8683559 820.955811 22.5533013 824.928233 23.969505 818.687535"></polygon>
            <polygon id="Path" fill="#FFFFFF" fill-rule="nonzero" points="37.8729813 818.687535 34.8750565 816.149925 37.0434347 823.846002 39.289185 824.928233"></polygon>
            <polygon id="Path" fill="#90DFDB" fill-rule="nonzero" points="42.3781935 836.383224 42.387008 836.386162 42.3772141 836.380286 41.5222032 833.628189 39.6887777 827.727341 30.9290783 821.972422 30.9290783 821.969484 30.9271195 821.970463 30.9241813 821.969484 30.9241813 821.969484 30.9241813 821.972422 30.9241813 821.972422 30.918305 821.977319 22.154688 827.725382 19.4554783 836.386162 19.6836771 836.297038 30.918305 831.901518 37.2686953 834.384281 42.3566468 836.37441 42.3811316 836.391059"></polygon>
            <polygon id="Path" fill="#FFFFFF" fill-rule="nonzero" points="41.5261207 833.624272 39.6868189 827.725382 34.3922153 824.252451 34.1581401 826.33856"></polygon>
            <polygon id="Path" fill="#55A6A9" fill-rule="nonzero" points="37.2686953 834.384281 42.387008 836.386162 30.8546444 828.615651 30.918305 821.977319 22.154688 827.725382 19.4554783 836.386162 19.6836771 836.297038 30.918305 831.901518"></polygon>
            <polygon id="Path" points="894.526596 811.938111 894.526596 821.938111 910.526596 818.079335 908.398238 817.261873"></polygon>
            <polygon id="Path" fill="#494829" fill-rule="nonzero" points="894.127596 739.938111 894.127596 845.938111 892.925596 845.938111 892.925596 740.947948"></polygon>
            <polygon id="Path" fill="#90DFDB" fill-rule="nonzero" points="903.526596 755.938111 900.19279 745.451205 896.489822 742.817839 894.592903 733.80329 892.318304 731.938111 883.526596 755.938111 893.533696 753.074871"></polygon>
            <polygon id="Path" fill="#55A6A9" fill-rule="nonzero" points="893.526596 743.705327 883.526596 755.938111 892.1674 731.938111"></polygon>
            <polygon id="Path" fill="#FFFFFF" fill-rule="nonzero" points="902.526596 750.938111 900.828457 745.526598 897.230938 742.938111 894.526596 743.810474"></polygon>
            <polygon id="Path" fill="#90DFDB" fill-rule="nonzero" points="906.423244 762.703328 893.202961 754.938111 880.541282 762.367096 880.541282 762.369995 877.526596 774.155502 893.194094 767.274342 909.526596 774.938111"></polygon>
            <polygon id="Path" fill="#FFFFFF" fill-rule="nonzero" points="907.526596 767.938111 906.152 762.024786 893.526596 753.938111 894.347967 756.706114"></polygon>
            <polygon id="Path" fill="#55A6A9" fill-rule="nonzero" points="892.719116 757.241278 893.225238 753.938111 880.545566 761.669634 880.545566 761.672651 877.526596 773.938111 893.216358 766.776723 899.526596 769.850629"></polygon>
            <polygon id="Path" fill="#90DFDB" fill-rule="nonzero" points="909.311637 780.527957 902.506058 774.667354 893.52514 766.938111 877.741555 780.527957 874.526596 794.938111 893.52514 785.621558 907.427508 792.438692 912.526596 794.938111"></polygon>
            <polygon id="Path" fill="#55A6A9" fill-rule="nonzero" points="893.79894 766.938111 889.275568 782.728274 893.376443 780.51315 902.526596 789.841548 893.683714 785.763705 874.526596 794.938111 877.788388 780.527957"></polygon>
            <polygon id="Path" fill="#FFFFFF" fill-rule="nonzero" points="909.318227 780.720433 902.526596 774.938111 907.437959 792.472077 912.526596 794.938111"></polygon>
            <polygon id="Path" fill="#90DFDB" fill-rule="nonzero" points="920.505457 821.919969 920.526596 821.926016 920.502437 821.913922 918.48812 815.425349 914.169569 801.513922 893.546226 787.947181 893.546226 787.938111 893.540186 787.944158 893.534146 787.938111 893.534146 787.941134 893.534146 787.947181 893.534146 787.947181 893.522066 787.959276 872.883623 801.507875 866.526596 821.926016 867.06415 821.71739 893.522066 811.355629 908.470895 817.209253 920.454117 821.898804 920.511497 821.938111"></polygon>
            <polygon id="Path" fill="#FFFFFF" fill-rule="nonzero" points="918.526596 815.938111 914.032864 802.088377 901.096931 793.938111 900.526596 798.83369"></polygon>
            <polygon id="Path" fill="#55A6A9" fill-rule="nonzero" points="908.470895 817.216729 920.526596 821.938111 893.371068 803.600386 893.522066 787.938111 872.883623 801.499976 866.526596 821.938111 867.06415 821.72928 893.522066 811.357373"></polygon>
            <polygon id="Path" fill="#494829" fill-rule="nonzero" points="580.449596 738.938111 580.449596 900.938111 578.603596 900.938111 578.603596 740.477848"></polygon>
            <polygon id="Path" fill="#90DFDB" fill-rule="nonzero" points="595.526596 762.938111 590.190801 746.336518 584.264109 742.1629 581.23281 727.889305 577.595842 724.938111 563.526596 762.938111 579.539892 758.404956"></polygon>
            <polygon id="Path" fill="#55A6A9" fill-rule="nonzero" points="579.526596 743.568088 563.526596 762.938111 577.352036 724.938111"></polygon>
            <polygon id="Path" fill="#FFFFFF" fill-rule="nonzero" points="593.526596 754.938111 590.552145 746.824649 584.258107 742.938111 579.526596 744.246643"></polygon>
            <polygon id="Path" fill="#90DFDB" fill-rule="nonzero" points="600.676164 772.362279 580.022031 759.938111 560.235871 771.825376 560.235871 771.828392 555.526596 790.689359 580.007014 779.679839 605.526596 791.938111"></polygon>
            <polygon id="Path" fill="#FFFFFF" fill-rule="nonzero" points="601.526596 781.938111 599.363229 772.643943 579.526596 759.938111 580.815963 764.287522"></polygon>
            <polygon id="Path" fill="#55A6A9" fill-rule="nonzero" points="579.004416 764.893481 579.789786 759.938111 560.191221 771.534972 560.191221 771.537914 555.526596 789.938111 579.774912 779.197551 589.526596 783.805693"></polygon>
            <polygon id="Path" fill="#90DFDB" fill-rule="nonzero" points="604.449351 800.293544 593.702815 791.088042 579.523606 778.938111 554.600851 800.293544 549.526596 822.938111 579.523606 808.29767 601.474169 819.010188 609.526596 822.938111"></polygon>
            <polygon id="Path" fill="#55A6A9" fill-rule="nonzero" points="579.812075 778.938111 572.707217 803.751096 579.150807 800.270802 593.526596 814.930407 579.630906 808.523639 549.526596 822.938111 554.653689 800.291986"></polygon>
            <polygon id="Path" fill="#FFFFFF" fill-rule="nonzero" points="604.39281 800.186947 593.526596 790.938111 601.384495 818.991697 609.526596 822.938111"></polygon>
            <polygon id="Path" fill="#90DFDB" fill-rule="nonzero" points="620.496773 863.908039 620.526596 863.920068 620.49379 863.899017 617.433889 853.975353 610.875678 832.702626 579.554929 811.953146 579.554929 811.938111 579.545982 811.944125 579.540017 811.938111 579.540017 811.941118 579.540017 811.953146 579.540017 811.953146 579.51914 811.968182 548.180497 832.693604 538.526596 863.920068 539.343763 863.5983 579.51914 847.750509 602.22385 856.702857 620.419231 863.877967 620.50572 863.938111"></polygon>
            <polygon id="Path" fill="#FFFFFF" fill-rule="nonzero" points="617.526596 853.938111 611.036897 832.537203 592.353628 819.938111 591.526596 827.508459"></polygon>
            <polygon id="Path" fill="#55A6A9" fill-rule="nonzero" points="602.22385 856.714216 620.526596 863.938111 579.289499 835.89435 579.51914 811.938111 548.180497 832.682727 538.526596 863.938111 539.343763 863.616045 579.51914 847.753577"></polygon>
            <g id="Group-2" transform="translate(451.526596, 698.938111)" fill-rule="nonzero">
                <polygon id="Path" fill="#494829" points="49 16 49 202 45 202 45 17.7704934"></polygon>
                <polygon id="Path" fill="#90DFDB" points="66 44 59.661578 24.7775491 52.6270288 19.9440099 49.027318 3.41759297 44.7070545 0 28 44 47.0152659 38.7498285"></polygon>
                <polygon id="Path" fill="#55A6A9" points="47 21.5743104 29 44 44.5552748 0"></polygon>
                <polygon id="Path" fill="#FFFFFF" points="63 34 59.6015214 24.5325779 52.4082309 20 47 21.5269122"></polygon>
                <polygon id="Path" fill="#90DFDB" points="70.5700695 53.9783465 47.4365166 40 25.2777168 53.3700787 25.2747896 53.3759843 20 74.5944882 47.4218807 62.2076772 76 76"></polygon>
                <polygon id="Path" fill="#FFFFFF" points="73 64 70.443012 53.8623719 47 40 48.5247005 44.7437775"></polygon>
                <polygon id="Path" fill="#55A6A9" points="46.6229633 46.6153977 47.5457591 41 24.4910918 54.1403209 24.4880463 54.146125 19 75 47.5305314 62.8260498 59 68.0496757"></polygon>
                <polygon id="Path" fill="#90DFDB" points="75.2463353 86.2698109 63.0666146 75.8077568 46.9970509 62 18.7536647 86.2698109 13 112 47 95.3672492 71.8784804 107.535073 81 112"></polygon>
                <polygon id="Path" fill="#55A6A9" points="47.4141885 62 39.3406187 90.1964564 46.6647558 86.242787 63 102.901473 47.2081691 95.6196576 13 112 18.8252717 86.2667305"></polygon>
                <polygon id="Path" fill="#FFFFFF" points="76.224963 86.4064826 64 76 72.8445979 107.558789 82 112"></polygon>
                <polygon id="Path" fill="#90DFDB" points="93.9642981 159.966784 94 159.978863 93.961323 159.954706 90.4536161 148.507297 82.9383763 123.957725 47.0312391 100.015098 47.0312391 100 47.0223137 100.006039 47.0133882 100 47.0133882 100.00302 47.0133882 100.015098 47.0133882 100.015098 46.989587 100.033216 11.0645988 123.948666 0 159.978863 0.934198449 159.610468 46.989587 141.323603 73.0162367 151.653749 93.8750435 159.930549 93.9761988 160"></polygon>
                <polygon id="Path" fill="#FFFFFF" points="91 148 83.514038 124.082249 61.9545858 110 61 118.458178"></polygon>
                <polygon id="Path" fill="#55A6A9" points="73.0162367 151.667338 94 160 46.7277734 127.642555 46.989587 100 11.0645988 123.937135 0 160 0.934198449 159.631271 46.989587 141.327826"></polygon>
            </g>
            <polygon id="Path" fill="#A2BCF7" fill-rule="nonzero" points="547.608264 905.163452 1441.98493 685.288533 1441.98493 905.163452 878.203667 905.163452"></polygon>
            <polygon id="Path" fill="url(#linearGradient-4)" fill-rule="nonzero" opacity="0.62" points="547.608264 905.163452 1442.11617 685.469721 1442.11617 905.343661 878.334906 905.343661"></polygon>
            <path d="M962.169069,816.539172 C986.291541,814.273442 1056.75071,805.762998 1104.47638,817.76978 C1173.17215,835.051872 1203.12505,825.590437 1271.90838,800.077714 C1340.6917,774.564992 1409.42057,782.90649 1409.42057,782.90649 L1385.56009,736.581744 C1368.59806,734.709045 1373.63323,723.064541 1361.72595,722.203458 C1325.79365,719.605322 1320.06782,725.918691 1293.76502,728.092456 C1282.1592,729.051674 1265.00766,723.847371 1242.89834,719.021407 C1213.0897,725.248688 1158.29633,742.894036 1091.03547,760.260552 C1015.19718,779.842064 1051.21224,771.119484 974.040303,780.305122 C887.900353,790.558299 826.097265,830.579372 790.668375,845.406906 C838.431655,844.094714 944.088771,818.236364 962.169069,816.539172 Z" id="Path" fill="#C1D4F7" fill-rule="nonzero"></path>
            <path d="M962.169069,816.539172 C986.291541,814.273442 1056.75071,805.762998 1104.47638,817.76978 C1173.17215,835.051872 1203.12505,825.590437 1271.90838,800.077714 C1340.6917,774.564992 1409.42057,782.90649 1409.42057,782.90649 L1385.56009,736.581744 C1368.59806,734.709045 1373.63323,723.064541 1361.72595,722.203458 C1325.79365,719.605322 1320.06782,725.918691 1293.76502,728.092456 C1282.1592,729.051674 1265.00766,723.847371 1242.89834,719.021407 C1213.0897,725.248688 1158.29633,742.894036 1091.03547,760.260552 C1015.19718,779.842064 1051.21224,771.119484 974.040303,780.305122 C887.900353,790.558299 826.097265,830.579372 790.668375,845.406906 C838.431655,844.094714 944.088771,818.236364 962.169069,816.539172 Z" id="Path" fill="url(#linearGradient-5)" fill-rule="nonzero" opacity="0.4" style="mix-blend-mode: overlay;"></path>
            <path d="M1044.18881,811.199614 C1040.88252,814.72012 1037.78642,818.432279 1034.91659,822.316813 C1032.11552,826.254956 1028.74083,829.803398 1026.46981,834.026055 C1025.28411,836.08653 1024.60336,838.398565 1024.4833,840.772806 C1024.46369,843.136955 1025.16789,845.450508 1026.50134,847.402813 C1027.86316,849.371517 1029.41042,851.205252 1031.12193,852.878898 C1032.84852,854.62382 1034.3636,856.566015 1035.63586,858.665354 C1036.26601,859.756485 1036.72289,860.938861 1036.99016,862.170213 C1037.25281,863.423627 1037.25394,864.71776 1036.99349,865.971632 C1036.40569,868.435191 1035.15319,870.690234 1033.37238,872.491164 C1031.62959,874.253311 1029.63586,875.748127 1027.45586,876.927133 C1025.31588,878.094962 1023.14489,879.188619 1020.94289,880.208103 C1012.11997,884.30836 1002.65569,886.855425 992.966601,887.737194 L992.954162,887.621429 C1002.49057,886.181187 1011.75896,883.327201 1020.45368,879.153589 C1022.62578,878.1312 1024.77007,877.033691 1026.8647,875.87262 C1028.94845,874.76017 1030.86039,873.352251 1032.54117,871.692566 C1034.20454,870.063442 1035.39116,868.010795 1035.97287,865.756362 C1036.4227,863.476454 1036.01177,861.110731 1034.81943,859.116071 C1033.60632,857.065557 1032.15669,855.164538 1030.50031,853.45204 C1028.77634,851.723235 1027.22233,849.83292 1025.85964,847.807107 C1024.47557,845.719406 1023.76146,843.259086 1023.81271,840.754785 C1023.96312,838.282473 1024.69787,835.881105 1025.9566,833.747907 C1028.35534,829.462079 1031.78224,825.988365 1034.63717,822.103696 C1037.57459,818.259333 1040.736,814.591413 1044.10497,811.11901 L1044.18881,811.199614 Z" id="Path" fill="#FFFFFF" fill-rule="nonzero"></path>
            <path d="M1037.01504,811.512922 C1031.64943,815.626377 1025.97002,819.30263 1020.53556,823.312464 C1017.79593,825.283189 1015.16923,827.406337 1012.66789,829.671865 C1010.11487,831.87263 1007.8083,834.344048 1005.78873,837.042686 C1003.87538,839.759427 1002.63439,843.132264 1003.20391,846.445358 C1003.77735,849.751792 1005.59314,852.688994 1006.6361,855.933236 C1007.22701,857.561763 1007.40304,859.311811 1007.14832,861.025399 C1006.77769,862.723539 1005.94698,864.286969 1004.74714,865.544519 C1002.48554,868.104264 999.785263,870.239849 996.773309,871.850836 C993.810251,873.518842 990.70802,874.878927 987.622048,876.258109 C984.526576,877.620544 981.407108,878.929896 978.254243,880.156097 C975.105198,881.390133 971.918348,882.531421 968.737178,883.664776 C965.552287,884.7948 962.367298,885.926294 959.16135,886.997457 C952.749356,889.139392 946.295345,891.164191 939.768566,892.936013 C936.501406,893.805421 933.22504,894.645153 929.915863,895.343853 C926.604728,896.030114 923.274397,896.624508 919.92105,897.050153 L919.912529,896.986492 C926.58001,895.912712 933.175505,894.431775 939.662008,892.551992 C946.158622,890.712788 952.581096,888.621488 958.962043,886.412563 C971.706505,881.985703 984.535292,877.57559 996.51994,871.399336 C999.490269,869.832652 1002.15654,867.747488 1004.3929,865.242278 C1005.54795,864.050523 1006.35181,862.563202 1006.71602,860.944012 C1006.96547,859.301205 1006.8023,857.622146 1006.24121,856.058109 C1005.24027,852.87028 1003.42398,849.910551 1002.84536,846.50324 C1002.27388,843.062433 1003.57706,839.606837 1005.53389,836.86522 C1007.58332,834.162856 1009.92021,831.691094 1012.50345,829.49342 C1015.02435,827.237121 1017.66987,825.124055 1020.42753,823.164184 C1025.89079,819.183046 1031.58969,815.540876 1036.97537,811.4617 L1037.01504,811.512922 Z" id="Path" fill="#FFFFFF" fill-rule="nonzero"></path>
            <path d="M999.753115,813.003462 C999.00441,814.105506 998.154248,815.135091 997.213743,816.078759 L995.791956,817.478509 L994.299458,818.80216 C993.289997,819.666377 992.237344,820.481722 991.184985,821.293248 C990.095116,822.054531 989.035901,822.860866 987.921155,823.585813 C983.471456,826.502928 978.813682,829.089565 973.985359,831.324886 C964.316928,835.767519 954.316087,839.447762 944.074178,842.332001 C933.851732,845.280553 923.45887,847.602507 912.953544,849.284914 C902.477163,851.10453 891.962585,852.67254 881.501483,854.537208 C871.036169,856.369654 860.621489,858.503754 850.346961,861.190133 C840.068363,863.860041 829.989695,867.247623 820.185154,871.327938 C800.503229,879.443711 782.389837,890.934363 766.661275,905.282057 L766.618182,905.235144 C774.378356,897.949295 782.782307,891.381074 791.7271,885.610929 C796.177466,882.691846 800.810881,880.064034 805.497379,877.543857 L809.058161,875.73903 L810.839091,874.837988 L812.648718,873.995709 L816.268753,872.311152 L819.93864,870.740204 C829.777566,866.66886 839.889942,863.292635 850.201326,860.636384 C860.502199,857.966458 870.935977,855.847931 881.413827,854.038893 C891.888739,852.20439 902.408605,850.668406 912.884007,848.881796 C923.38141,847.232812 933.76861,844.94587 943.987893,842.033678 C954.228402,839.19234 964.231312,835.555397 973.905342,831.156039 C978.735444,828.942546 983.396562,826.377511 987.851128,823.481606 C988.967637,822.762339 990.028027,821.961293 991.118876,821.205298 C992.172312,820.398963 993.226826,819.589298 994.238246,818.730468 L995.732703,817.414848 L997.15684,816.024109 C998.097016,815.088183 998.947632,814.066407 999.697584,812.972121 L999.753115,813.003462 Z" id="Path" fill="#FFFFFF" fill-rule="nonzero"></path>
            <polygon id="Path" fill="#A2BCF7" fill-rule="nonzero" points="872.678906 905.163452 1441.63529 905.163452 1441.63529 795.511486"></polygon>
            <g id="Group-2-Copy" transform="translate(1238.526596, 529.938111)" fill-rule="nonzero">
                <polygon id="Path" fill="#494829" points="91.3394225 30.812144 91.3394225 378.812144 84.3394225 378.812144 84.3394225 34.12468"></polygon>
                <polygon id="Path" fill="#90DFDB" points="123.339423 82.812144 111.496581 46.9884854 98.3530816 37.9805261 91.6273062 7.18129454 83.5552349 0.812144 52.3394225 82.812144 87.8679458 73.0277334"></polygon>
                <polygon id="Path" fill="#55A6A9" points="87.3394225 41.0188134 54.3394225 82.812144 82.8574263 0.812144"></polygon>
                <polygon id="Path" fill="#FFFFFF" points="119.339423 63.812144 112.967275 46.2297887 99.4798555 37.812144 89.3394225 40.6478381"></polygon>
                <polygon id="Path" fill="#90DFDB" points="132.06134 101.215687 88.2728291 74.812144 46.3293865 100.066737 46.3238457 100.077892 36.3394225 140.157288 88.2451253 116.759979 142.339423 142.812144"></polygon>
                <polygon id="Path" fill="#FFFFFF" points="138.339423 119.812144 133.520484 100.804091 89.3394225 74.812144 92.2128966 83.7067267"></polygon>
                <polygon id="Path" fill="#55A6A9" points="87.1324787 87.3823045 88.8627209 76.812144 45.6352197 101.546866 45.6295093 101.557791 35.3394225 140.812144 88.834169 117.896473 110.339423 127.729181"></polygon>
                <polygon id="Path" fill="#90DFDB" points="141.593608 162.439388 118.846188 142.770727 88.8339147 116.812144 36.0852374 162.439388 25.3394225 210.812144 88.8394225 179.542573 135.303643 202.418081 152.339423 210.812144"></polygon>
                <polygon id="Path" fill="#55A6A9" points="88.0380969 116.812144 72.8597856 169.821482 86.6291634 162.388584 117.339423 193.706912 87.6507805 180.0171 23.3394225 210.812144 34.2909334 162.433597"></polygon>
                <polygon id="Path" fill="#FFFFFF" points="142.751855 162.468833 120.339423 142.812144 136.554519 202.423191 153.339423 210.812144"></polygon>
                <polygon id="Path" fill="#90DFDB" points="177.272197 300.749587 177.339423 300.772335 177.266595 300.72684 170.661657 279.167554 156.510621 232.932526 88.8982451 187.840579 88.8982451 187.812144 88.8814387 187.823518 88.8646322 187.812144 88.8646322 187.817831 88.8646322 187.840579 88.8646322 187.840579 88.819815 187.874701 21.1738267 232.915466 0.339422545 300.772335 2.09849835 300.078525 88.819815 265.638264 137.827443 285.093372 177.104132 300.681344 177.294605 300.812144"></polygon>
                <polygon id="Path" fill="#FFFFFF" points="171.339423 277.812144 157.365627 233.123715 117.121316 206.812144 115.339423 222.615583"></polygon>
                <polygon id="Path" fill="#55A6A9" points="137.827443 285.118964 177.339423 300.812144 88.3268256 239.872289 88.819815 187.812144 21.1738267 232.893748 0.339422545 300.812144 2.09849835 300.117705 88.819815 265.646216"></polygon>
            </g>
            <polygon id="overlay" fill-opacity="0.15" fill="#131E2E" points="1.86601891 905.750255 1441.86602 905.750255 1441.86602 4.75025455 1.86601891 4.75025455"></polygon>
        </g>
    </g>
</svg>