
<!-- Generated by IcoMoon.io -->
<svg version="1.1" xmlns="http://www.w3.org/2000/svg" width="340" height="32" viewBox="0 0 340 32">
    <title>Documentation_logo_Avenir</title>
    <path fill="#fff" d="M56.7 18h4.1v5.7c-1.3 0.7-3 1.2-4.7 1.2-4.4 0-7-3.4-7-7.3s2.6-7.3 7-7.3c2.1 0 3.7 0.7 4.8 2l1.3-1.3c-1.5-1.5-3.5-2.3-6.1-2.3-5.1 0-8.9 3.8-8.9 8.9 0 5.2 3.8 8.9 8.9 8.9 2.1 0 4.5-0.6 6.4-1.7v-8.3h-5.8v1.5z"></path>
    <path fill="#fff" d="M76.5 14.8h-1.6v5.8c0 4.1-3.1 4.3-3.4 4.3-2.4 0-3-1.4-3-3.9v-6.2h-1.6v7.1c0 2.8 1.4 4.4 4.2 4.4 1.5 0 3.1-0.9 3.8-2.1v0c0 0.6 0 1.2 0.1 1.8h1.6c0-0.8-0.1-1.9-0.1-2.5v-8.7z"></path>
    <path fill="#fff" d="M81.8 9.3c-0.6 0-1.2 0.5-1.2 1.2s0.6 1.2 1.2 1.2 1.2-0.5 1.2-1.2c0-0.7-0.6-1.2-1.2-1.2z"></path>
    <path fill="#fff" d="M81 14.8h1.6v11.2h-1.6v-11.2z"></path>
    <path fill="#fff" d="M96.5 16.6v0c-1.1-1.5-2.9-2.2-4.4-2.2-3.5 0-6 2.5-6 5.9s2.5 5.9 6 5.9c1.5 0 3.3-0.6 4.4-2.2v0 2h1.6v-18.1h-1.6v8.7zM92.1 24.8c-2.6 0-4.2-1.9-4.2-4.5 0-2.5 1.6-4.5 4.2-4.5s4.5 1.9 4.5 4.5c0 2.6-1.9 4.5-4.5 4.5z"></path>
    <path fill="#fff" d="M107.1 14.5c-3.2 0-5.7 2.5-5.7 5.9s2.5 5.9 5.8 5.9c1.8 0 3.5-0.7 4.8-2.4l-1.2-1c-0.6 1-1.9 1.9-3.6 1.9-2.2 0-3.9-1.8-4.1-4h9.4v-0.7c0-3.1-2-5.6-5.4-5.6zM103.2 19.5c0-1.8 1.9-3.6 3.9-3.6 2.3 0 3.6 1.5 3.6 3.6h-7.5z"></path>
    <path fill="#fff" d="M126.6 23.9v0l-3-9.1h-1.7l-3 9.1-2.6-9.1h-1.9l3.6 11.2h1.8l2.9-9.2h0.1l3 9.2h1.7l3.6-11.2h-1.9z"></path>
    <path fill="#fff" d="M134.8 9.3c-0.6 0-1.2 0.5-1.2 1.2s0.6 1.2 1.2 1.2 1.2-0.5 1.2-1.2c-0.1-0.7-0.6-1.2-1.2-1.2z"></path>
    <path fill="#fff" d="M134 14.8h1.6v11.2h-1.6v-11.2z"></path>
    <path fill="#fff" d="M141.5 16.9v0-2.1h-1.6c0 1.6 0.1 2.5 0.1 3.5v7.7h1.6v-6.3c0-1.5 1.1-3.6 3.5-3.6 0.4 0 0.7 0 0.9 0.1l0.3-1.6c-0.3-0.1-0.7-0.1-1.2-0.1-1.9 0-3.1 1.2-3.6 2.4z"></path>
    <path fill="#fff" d="M153 14.5c-3.2 0-5.7 2.5-5.7 5.9s2.5 5.9 5.8 5.9c1.8 0 3.5-0.7 4.8-2.4l-1.2-1c-0.6 1-1.9 1.9-3.6 1.9-2.2 0-3.9-1.8-4.1-4h9.4v-0.7c-0.1-3.1-2-5.6-5.4-5.6zM149 19.5c0-1.8 1.9-3.6 3.9-3.6 2.3 0 3.6 1.5 3.6 3.6h-7.5z"></path>
    <path fill="#fff" d="M174.8 9h-5.6v17h5.6c4.2 0 8.9-2.8 8.9-8.5 0.1-5.7-4.6-8.5-8.9-8.5zM174.3 24.4h-3.4v-13.8h3.4c5.2 0 7.6 3.4 7.6 6.9s-2.4 6.9-7.6 6.9z"></path>
    <path fill="#fff" d="M192.5 14.5c-3.5 0-6 2.5-6 5.9s2.5 5.9 6 5.9c3.5 0 6-2.5 6-5.9-0.1-3.4-2.5-5.9-6-5.9zM192.5 24.8c-2.6 0-4.2-1.9-4.2-4.5 0-2.5 1.6-4.5 4.2-4.5s4.2 1.9 4.2 4.5c0 2.6-1.6 4.5-4.2 4.5z"></path>
    <path fill="#fff" d="M207.2 15.9c1.2 0 2.3 0.7 2.8 1.5l1.3-1c-1.1-1.3-2.6-1.9-4.1-1.9-3.7 0-6 2.5-6 5.9s2.3 6 6 5.9c1.5 0 3-0.6 4.1-1.9l-1.3-1c-0.5 0.8-1.6 1.5-2.8 1.5-2.6 0-4.2-1.9-4.2-4.5s1.6-4.5 4.2-4.5z"></path>
    <path fill="#fff" d="M223.5 14.8h-1.6v5.8c0 4.1-3.1 4.3-3.4 4.3-2.4 0-3-1.4-3-3.9v-6.2h-1.6v7.1c0 2.8 1.4 4.4 4.2 4.4 1.5 0 3.1-0.9 3.8-2.1v0c0 0.6 0 1.2 0.1 1.8h1.6c0-0.8-0.1-1.9-0.1-2.5v-8.7z"></path>
    <path fill="#fff" d="M240.2 14.5c-1.5 0-3 0.9-3.7 2.3-0.7-1.9-2.4-2.3-3.6-2.3-1.3 0-2.9 0.7-3.6 2v0-1.7h-1.7c0 0.8 0.1 1.7 0.1 2.5v8.7h1.6v-5.8c0-4.1 2.8-4.3 3.2-4.3 2.2 0 2.8 1.2 2.8 3.5v6.6h1.6v-6c0-2.1 0.8-4.1 3.2-4.1 2.2 0 2.8 1.2 2.8 3.5v6.6h1.6v-7.1c-0.1-2.8-1.5-4.4-4.3-4.4z"></path>
    <path fill="#fff" d="M253.7 14.5c-3.2 0-5.7 2.5-5.7 5.9s2.5 5.9 5.8 5.9c1.8 0 3.5-0.7 4.8-2.4l-1.2-1c-0.6 1-1.9 1.9-3.6 1.9-2.2 0-3.9-1.8-4.1-4h9.4v-0.7c-0.1-3.1-2-5.6-5.4-5.6zM249.7 19.5c0-1.8 1.9-3.6 3.9-3.6 2.3 0 3.6 1.5 3.6 3.6h-7.5z"></path>
    <path fill="#fff" d="M267.8 14.5c-1.5 0-3.1 0.9-3.8 2.1v0c0-0.6 0-1.2-0.1-1.8h-1.6c0 0.8 0.1 1.9 0.1 2.5v8.7h1.6v-5.8c0-4.1 3.1-4.3 3.4-4.3 2.4 0 3 1.4 3 3.9v6.2h1.6v-7.1c0-2.8-1.3-4.4-4.2-4.4z"></path>
    <path fill="#fff" d="M280.4 24.8c-1 0-1.6-0.3-1.6-2v-6.6h3.2v-1.4h-3.2v-3.2h-1.6v3.2h-2.4v1.4h2.4v7.1c0 2.5 1.6 3 2.8 3 0.8 0 1.6-0.1 2.1-0.4l-0.1-1.5c-0.4 0.3-1 0.4-1.6 0.4z"></path>
    <path fill="#fff" d="M293.5 18.5c0-2.7-1.9-4-4.1-4-2.1 0-3.7 0.6-4.8 1.6l1 1.1c1-0.9 2.1-1.3 3.4-1.3 1.9 0 2.9 1 2.9 2.9v0.3h-0.8c-2.7 0-7 0.2-7 3.9 0 2.2 1.9 3.3 3.9 3.3 1.8 0 3-0.6 4-2.1v0c0 0.6 0 1.3 0.1 1.8h1.5c-0.1-0.6-0.2-1.7-0.2-2.5v-5zM291.9 21.2c0 2-1.1 3.6-3.4 3.6-1.3 0-2.6-0.6-2.6-2.1 0-2.3 3.6-2.4 5.2-2.4h0.8v0.9z"></path>
    <path fill="#fff" d="M301.8 24.8c-1 0-1.6-0.3-1.6-2v-6.6h3.2v-1.4h-3.2v-3.2h-1.6v3.2h-2.4v1.4h2.4v7.1c0 2.5 1.6 3 2.8 3 0.8 0 1.6-0.1 2.1-0.4l-0.1-1.5c-0.4 0.3-1 0.4-1.6 0.4z"></path>
    <path fill="#fff" d="M307.2 9.3c-0.6 0-1.2 0.5-1.2 1.2s0.6 1.2 1.2 1.2c0.6 0 1.2-0.5 1.2-1.2s-0.6-1.2-1.2-1.2z"></path>
    <path fill="#fff" d="M306.4 14.8h1.6v11.2h-1.6v-11.2z"></path>
    <path fill="#fff" d="M317.7 14.5c-3.5 0-6 2.5-6 5.9s2.5 5.9 6 5.9c3.5 0 6-2.5 6-5.9s-2.5-5.9-6-5.9zM317.7 24.8c-2.6 0-4.2-1.9-4.2-4.5 0-2.5 1.6-4.5 4.2-4.5s4.2 1.9 4.2 4.5c0 2.6-1.6 4.5-4.2 4.5z"></path>
    <path fill="#fff" d="M332.4 14.5c-1.5 0-3.1 0.9-3.8 2.1v0c0-0.6 0-1.2-0.1-1.8h-1.6c0 0.8 0.1 1.9 0.1 2.5v8.7h1.6v-5.8c0-4.1 3.1-4.3 3.4-4.3 2.4 0 3 1.4 3 3.9v6.2h1.6v-7.1c0-2.8-1.3-4.4-4.2-4.4z"></path>
    <path fill="#fff" d="M0 32h19.2v-6.4h-12.8v-19.2h25.6v-6.4h-32z"></path>
    <path fill="#fff" d="M12.8 19.2h12.8v12.8h6.4v-19.2h-19.2z"></path>
</svg>
