<?xml version="1.0" encoding="UTF-8"?>
<svg width="1440px" height="312px" viewBox="0 0 1440 312" version="1.1" xmlns="http://www.w3.org/2000/svg" xmlns:xlink="http://www.w3.org/1999/xlink">
    <title>doc site - hero graphic</title>
    <defs>
        <linearGradient x1="100%" y1="50.3011873%" x2="-9.09236696%" y2="47.9046238%" id="linearGradient-1">
            <stop stop-color="#719FE8" offset="0%"></stop>
            <stop stop-color="#324C76" offset="100%"></stop>
        </linearGradient>
    </defs>
    <g id="doc-site---hero-graphic" stroke="none" stroke-width="1" fill="none" fill-rule="evenodd">
        <rect fill="#FFFFFF" x="0" y="0" width="1440" height="312"></rect>
        <g id="hero-background" opacity="0.8" fill="url(#linearGradient-1)" fill-rule="nonzero">
            <rect x="0" y="0" width="1440" height="312"></rect>
        </g>
        <g id="hero-illustration" transform="translate(932.000000, 29.000000)">
            <path d="M234,277 C234,277 245.705004,238.95693 297.738012,262.924222 C318.549665,272.510484 325.381589,265.350494 332.386711,264.468029 C343.317663,263.091468 347.860948,270.406462 351,276.999688 L234,277 Z" id="Path" fill="#EDF3F9" fill-rule="nonzero"></path>
            <path d="M142.634732,277 L174,277 C174,277 156.229228,243.332383 131.436592,243.004872 C106.194171,242.671344 98.8898029,259.567044 87.5262712,260.974303 C72.6877999,262.811756 64.7039121,252.748857 53.9440573,253.575723 C32.3113306,255.238286 22,277 22,277 L142.634732,277 Z" id="Path" fill="#EDF3F9" fill-rule="nonzero"></path>
            <path d="M59.7288907,277 C52.7232604,262.895016 42.229241,257.852726 37.6692912,250.820279 C36.2978083,248.705096 35.1020751,246.416497 35.0103999,244.052383 C34.8617641,241.542507 36.3186353,239.229223 38.5931012,238.363613 C40.6782081,237.612234 43.1715877,238.131187 45.3451123,238.959855 C51.7744576,241.549362 57.0899129,246.456432 60.3179543,252.782337 C63.3955889,258.654664 66.4504209,267.86187 65.9448112,277" id="Path" stroke="#9ABFE2" stroke-width="0.796005" fill="#FFFFFF" fill-rule="nonzero" stroke-linejoin="round"></path>
            <path d="M37,241 C37,241 59.8656955,252.364906 65,278" id="Path" stroke="#9ABFE2" stroke-width="0.796005" stroke-linejoin="round"></path>
            <path d="M65.9871609,277 C65.957026,263.826647 62.8161435,253.898945 58.8951368,242.4526 C56.9431341,236.754371 54.4703771,230.982324 53.0309101,225.204507 C51.9847281,221.005279 51.1293472,215.683243 53.6395714,212.28356 C56.4976366,208.412506 62.0058037,210.093756 66.0298655,212.681968 C70.8342126,215.772029 74.2367211,220.586214 76.4107878,225.539931 C80.2548454,234.298677 80.8885657,243.957369 81,252.888231 C80.9375248,261.044149 79.7375742,269.154604 77.4326362,277" id="Path" stroke="#9ABFE2" stroke-width="0.796005" fill="#FFFFFF" fill-rule="nonzero" stroke-linejoin="round"></path>
            <path d="M58,210 C58,210 73.4549447,239.391113 70.662537,277" id="Path" stroke="#9ABFE2" stroke-width="0.796005" stroke-linejoin="round"></path>
            <path d="M234.221979,278 C233.374505,263.75766 234.923432,246.290102 239.389601,235.083461 C242.858105,226.380161 248.660695,218.210259 256.534828,213.060113 C262.208386,209.349238 273.061689,203.390385 278.817948,209.904103 C287.273846,219.475066 268.766946,234.782919 263.849127,241.3942 C255.680173,252.376157 248.936983,264.265105 246.232789,278" id="Path" stroke="#9ABFE2" stroke-width="0.796005" fill="#FFFFFF" fill-rule="nonzero" stroke-linejoin="round"></path>
            <path d="M214.487194,277 C213.516011,265.438407 206.312571,254.654338 199.07335,245.571787 C191.834128,236.489235 184.053416,227.178413 181.545497,215.849765 C180.773614,212.363134 180.597908,208.473406 182.524649,205.463963 C185.469369,200.864724 192.098896,200.209047 197.350049,201.743218 C204.615755,203.86583 210.679026,209.13547 214.864776,215.426255 C219.050525,221.71704 221.513288,228.994378 223.295651,236.331783 C226.457403,249.642746 227.605084,263.350406 226.700611,277" id="Path" stroke="#9ABFE2" stroke-width="0.796005" fill="#FFFFFF" fill-rule="nonzero" stroke-linejoin="round"></path>
            <path d="M306,278 C306.580461,260.806219 309.76996,246.690678 322.324699,234.031692 C326.263088,230.060601 333.606388,224.907324 340.227644,227.88811 C343.507003,229.36457 343.565909,234.418562 342.013564,237.47013 C337.828019,245.698383 319.738641,255.233189 313.077429,278" id="Path" stroke="#9ABFE2" stroke-width="0.796005" fill="#FFFFFF" fill-rule="nonzero" stroke-linejoin="round"></path>
            <path d="M294.653847,278 C288.941873,236.760833 299.383825,220.136701 305.381137,214.069043 C309.353405,210.050156 316.882746,204.223892 323.605423,208.497827 C331.620503,213.593363 327.14051,225.130185 322.257741,233.902999 C316.651819,243.974532 309.104683,259.398884 307.877447,278" id="Path" stroke="#9ABFE2" stroke-width="0.796005" fill="#FFFFFF" fill-rule="nonzero" stroke-linejoin="round"></path>
            <path d="M316,277 C317.311656,270.484937 323.925193,256.451428 333.813937,252.069576 C336.472914,250.927621 339.476772,250.691563 342.302979,251.402465 C344.794951,252.131756 346.604205,254.147606 346.936243,256.564794 C347.348759,259.39755 345.711811,261.799027 343.405919,263.507233 C337.836625,267.632828 331.196608,271.650412 326.207312,277" id="Path" stroke="#9ABFE2" stroke-width="0.796005" fill="#FFFFFF" fill-rule="nonzero" stroke-linejoin="round"></path>
            <path d="M185,203 C185,203 213.743943,224.662656 222,278" id="Path" stroke="#9ABFE2" stroke-width="0.796005" stroke-linejoin="round"></path>
            <path d="M237,278 C237,278 242.392926,233.571102 278,211" id="Path" stroke="#9ABFE2" stroke-width="0.796005" stroke-linejoin="round"></path>
            <path d="M324,210 C324,210 301.695068,229.870742 302.003163,278" id="Path" stroke="#9ABFE2" stroke-width="0.796005" stroke-linejoin="round"></path>
            <path d="M309,278 C312.052458,261.044857 321.328505,244.74975 340,229" id="Path" stroke="#9ABFE2" stroke-width="0.796005" stroke-linejoin="round"></path>
            <path d="M323,278 C323,278 329.505353,261.698168 345,253" id="Path" stroke="#9ABFE2" stroke-width="0.796005" stroke-linejoin="round"></path>
            <path d="M229.008907,10 L276.584533,10 C288.387479,9.97931611 297.972455,19.5654757 297.993269,31.4114441 L297.993269,31.4114441 C297.972499,43.2574434 288.387509,52.8436512 276.584533,52.8229001 L62.1139214,52.8229001 C47.0480226,52.7963387 34.8132332,65.0326279 34.7867279,80.1534432 L34.7867279,80.1534432 C34.8132767,95.2742407 47.0480405,107.510505 62.1139214,107.483987 L323.495237,107.483987 C338.659013,107.457294 350.973277,119.773066 351,134.992115 L351,134.992115 C350.973321,150.211195 338.659044,162.527014 323.495237,162.500321 L21.7478528,162.500321 C13.0658004,162.485031 6.01525144,169.536476 6,178.250176 L6,178.250176 C6.00732399,182.434635 7.67058413,186.444789 10.6238808,189.398446 C13.5771775,192.352103 17.578591,194.007315 21.7478528,194 L105.942791,194" id="Path" stroke="#9ABFE2" stroke-width="1.05" stroke-linejoin="round" stroke-dasharray="3.675"></path>
            <rect id="Rectangle" fill="#DDE3E9" fill-rule="nonzero" x="156" y="139" width="44" height="3"></rect>
            <rect id="Rectangle" fill="#DDE3E9" fill-rule="nonzero" x="152" y="135" width="53" height="12"></rect>
            <rect id="Rectangle" fill="#DDE3E9" fill-rule="nonzero" x="156" y="132" width="44" height="3"></rect>
            <rect id="Rectangle" fill="#DDE3E9" fill-rule="nonzero" x="152" y="127" width="53" height="12"></rect>
            <rect id="Rectangle" stroke="#DBDBDD" stroke-width="1.08633" fill="#FFFFFF" fill-rule="nonzero" x="91" y="64" width="227" height="139"></rect>
            <rect id="Rectangle" fill="#DDE3E9" fill-rule="nonzero" x="144" y="69" width="35" height="7"></rect>
            <circle id="Oval" fill="#DDE3E9" fill-rule="nonzero" cx="157.5" cy="92.5" r="10.5"></circle>
            <rect id="Rectangle" fill="#DDE3E9" fill-rule="nonzero" x="145" y="109" width="24" height="4"></rect>
            <rect id="Rectangle" fill="#DDE3E9" fill-rule="nonzero" x="144" y="119" width="44" height="3"></rect>
            <rect id="Rectangle" fill="#DDE3E9" fill-rule="nonzero" x="203" y="91" width="83" height="3"></rect>
            <rect id="Rectangle" fill="#DDE3E9" fill-rule="nonzero" x="205" y="97" width="23" height="3"></rect>
            <rect id="Rectangle" fill="#DDE3E9" fill-rule="nonzero" x="204" y="81" width="17" height="4"></rect>
            <rect id="Rectangle" fill="#DDE3E9" fill-rule="nonzero" x="203" y="127" width="83" height="3"></rect>
            <rect id="Rectangle" fill="#DDE3E9" fill-rule="nonzero" x="205" y="134" width="23" height="3"></rect>
            <rect id="Rectangle" fill="#DDE3E9" fill-rule="nonzero" x="204" y="118" width="17" height="4"></rect>
            <rect id="Rectangle" fill="#3E4D5E" fill-rule="nonzero" x="90" y="44" width="228" height="21"></rect>
            <path d="M224.693852,13.1968845 C225.327917,10.3940648 224.257363,7.4751728 221.978912,5.79452859 C219.70046,4.11388437 216.660053,4.00042648 214.268392,5.5067976 C212.073441,1.29438912 207.363562,-0.846993325 202.843691,0.312469632 C198.323819,1.47193259 195.153383,5.63481805 195.153198,10.4103353 C195.153198,10.5296157 195.158085,10.648419 195.162043,10.7671427 C191.554864,11.1967614 188.874833,14.3945215 189.004512,18.1141895 C189.134191,21.8338574 192.030068,24.8274053 195.657965,24.9920461 L195.657965,25 L224.064097,25 L224.064097,24.99141 C224.119569,24.9930799 224.173723,25 224.229585,25 C227.325558,25.0017288 229.870525,22.4976829 229.995239,19.3270523 C230.119953,16.1564217 227.779914,13.4505222 224.693852,13.196805 L224.693852,13.1968845 Z" id="Path" stroke="#9ABFE2" stroke-width="0.81249" fill="#FFFFFF" fill-rule="nonzero" stroke-linejoin="round"></path>
            <path d="M234.364971,25.9181704 C233.962832,24.2364629 234.641705,22.4850872 236.086591,21.4766803 C237.531477,20.4682734 239.45957,20.4002102 240.976236,21.3040719 C242.368136,18.7766558 245.354834,17.4918261 248.221062,18.1874638 C251.08729,18.8831017 253.097823,21.3807668 253.098007,24.246044 C253.098007,24.3178558 253.094928,24.3889212 253.092465,24.4601358 C255.37991,24.7179715 257.079382,26.6366313 256.997138,28.868412 C256.914895,31.1001927 255.078528,32.8963143 252.77794,32.9951467 L252.77794,33 L234.764324,33 L234.764324,32.9948481 C234.729068,32.9958185 234.695044,33 234.659328,33 C232.696005,33.0010686 231.082091,31.4986212 231.003018,29.5962151 C230.923945,27.6938092 232.407928,26.0702685 234.364971,25.9180957 L234.364971,25.9181704 Z" id="Path" stroke="#9ABFE2" stroke-width="0.81249" fill="#FFFFFF" fill-rule="nonzero" stroke-linejoin="round"></path>
            <circle id="Oval" fill="#EDF3F9" fill-rule="nonzero" cx="6" cy="217" r="4"></circle>
            <circle id="Oval" fill="#EDF3F9" fill-rule="nonzero" cx="177" cy="259" r="3"></circle>
            <circle id="Oval" stroke="#9ABFE2" stroke-width="0.948255" stroke-linejoin="round" cx="138" cy="31" r="4"></circle>
            <circle id="Oval" fill="#EDF3F9" fill-rule="nonzero" cx="366" cy="90" r="2"></circle>
            <path d="M184,11.9999052 C184,12.8088298 183.51276,13.538116 182.765415,13.8476903 C182.018072,14.1572646 181.157833,13.9861597 180.585836,13.4141636 C180.01384,12.8421676 179.842735,11.9819286 180.15231,11.2345848 C180.461884,10.487241 181.19117,10 182.000095,10 C183.104597,10 184,10.895403 184,11.9999052 L184,11.9999052 Z" id="Path" fill="#EDF3F9" fill-rule="nonzero"></path>
            <path d="M244,214 C244,215.104569 243.10457,216 242,216 C240.895431,216 240,215.104569 240,214 C240,212.895431 240.895431,212 242,212 C243.10457,212 244,212.895431 244,214 L244,214 Z" id="Path" stroke="#9ABFE2" stroke-width="0.948255" stroke-linejoin="round"></path>
            <path d="M20,137 C20,138.104569 19.1045695,139 18,139 C16.8954305,139 16,138.104569 16,137 C16,135.89543 16.8954305,135 18,135 C19.1045695,135 20,135.89543 20,137 Z" id="Path" stroke="#9ABFE2" stroke-width="0.948255" stroke-linejoin="round"></path>
            <path d="M358,60.9999415 C358,62.6177741 357.025437,64.0763029 355.530752,64.6954132 C354.036066,65.3145235 352.315614,64.972291 351.171645,63.8282994 C350.027676,62.6843078 349.685477,60.9638487 350.304617,59.4691755 C350.923757,57.9745023 352.382305,57 354.000137,57 C356.209213,57 358,58.7908656 358,60.9999415 L358,60.9999415 Z" id="Path" stroke="#9ABFE2" stroke-width="0.948255" stroke-linejoin="round"></path>
            <line x1="0" y1="121.5" x2="12" y2="121.5" id="Path" stroke="#9ABFE2" stroke-width="0.866985" stroke-linejoin="round"></line>
            <line x1="357" y1="107.5" x2="369" y2="107.5" id="Path" stroke="#9ABFE2" stroke-width="0.948255" stroke-linejoin="round"></line>
            <line x1="310" y1="38.5" x2="329" y2="38.5" id="Path" stroke="#9ABFE2" stroke-width="0.948255" stroke-linejoin="round"></line>
            <line x1="15" y1="108.5" x2="21" y2="108.5" id="Path" stroke="#9ABFE2" stroke-width="0.866985" stroke-linejoin="round"></line>
            <line x1="330" y1="23.5" x2="336" y2="23.5" id="Path" stroke="#9ABFE2" stroke-width="0.948255" stroke-linejoin="round"></line>
            <line x1="159" y1="27.5" x2="165" y2="27.5" id="Path" stroke="#9ABFE2" stroke-width="0.948255" stroke-linejoin="round"></line>
            <line x1="170" y1="32.5" x2="176" y2="32.5" id="Path" stroke="#9ABFE2" stroke-width="0.948255" stroke-linejoin="round"></line>
            <path d="M321.200873,178.762168 L317.047214,177.486887 C316.658345,176.175387 316.166357,174.898713 315.576133,173.66954 L317.687888,169.588227 C318.516115,168.005794 318.257173,166.053511 317.047214,164.757898 L313.985244,161.473645 C312.751237,160.188091 310.837595,159.905116 309.302316,160.78117 L305.573074,162.999234 C304.457552,162.388672 303.294086,161.875974 302.095013,161.466577 L300.895158,156.9859 C300.44056,155.238265 298.910639,154.017137 297.154197,154 L292.845804,154 C291.089846,154.017076 289.560137,155.237386 289.104844,156.984312 L287.904989,161.466736 C286.705883,161.876627 285.542418,162.389801 284.426927,163.000822 L280.694293,160.779344 C279.158271,159.906041 277.245861,160.191049 276.013139,161.476981 L272.952787,164.757818 C271.743166,166.053472 271.483617,168.005164 272.310417,169.588147 L274.423868,173.66946 C273.834269,174.898317 273.342299,176.174357 272.952787,177.48506 L268.799128,178.762089 C267.129816,179.297845 265.994655,180.892019 266.000019,182.692995 L266.000019,187.307323 C265.994833,189.109053 267.130663,190.703761 268.800747,191.239499 L272.952787,192.513113 C273.341932,193.825052 273.833911,195.102258 274.423868,196.332127 L272.310417,200.411693 C271.485202,201.99556 271.744584,203.946704 272.952787,205.24377 L276.013139,208.52286 C277.242689,209.81825 279.162779,210.103517 280.697608,209.218829 L284.428624,207.000765 C285.543939,207.610509 286.706773,208.123178 287.904989,208.533422 L289.104844,213.014099 C289.559441,214.761734 291.089363,215.982863 292.845804,216 L297.154197,216 C298.910155,215.982923 300.439865,214.762613 300.895158,213.015688 L302.095013,208.533343 C303.29381,208.124679 304.456772,207.611954 305.571378,207.000686 L309.305709,209.220418 C310.840224,210.102175 312.757911,209.81638 313.986863,208.52278 L317.047214,205.242022 C318.255869,203.945727 318.514688,201.994339 317.687888,200.411614 L315.576133,196.332048 C316.166472,195.102955 316.658465,193.826297 317.047214,192.514781 L321.200873,191.23942 C322.870225,190.702953 324.005238,189.108469 323.999982,187.307243 L323.999982,182.692915 C324.005278,180.891998 322.870131,179.297907 321.200873,178.762168 Z M294.999962,198.679632 C289.628301,198.679632 284.78557,195.346631 282.729931,190.234803 C280.674293,185.122976 281.810571,179.239013 285.60892,175.326604 C289.407269,171.414194 295.119667,170.243822 300.082425,172.361231 C305.045184,174.47864 308.28094,179.466842 308.28094,184.999841 C308.28094,188.627961 306.881695,192.107482 304.391027,194.672943 C301.900358,197.238403 298.522289,198.679632 294.999962,198.679632 L294.999962,198.679632 Z" id="Shape" fill="#317299" fill-rule="nonzero"></path>
            <polygon id="Rectangle" fill="#DDE3E9" fill-rule="nonzero" transform="translate(168.773105, 139.794248) rotate(-0.945300) translate(-168.773105, -139.794248) " points="156.571662 137.662254 180.974553 137.662219 180.974547 141.926242 156.571656 141.926277"></polygon>
            <polygon id="Rectangle" fill="#DDE3E9" fill-rule="nonzero" transform="translate(178.843051, 147.773964) rotate(-0.945300) translate(-178.843051, -147.773964) " points="156.562141 146.175016 201.123966 146.174953 201.123961 149.372911 156.562137 149.372974"></polygon>
            <path d="M299.533206,115.507136 C295.878531,111.441854 296.007563,105.080698 299.823827,101.179876 C303.64009,97.2790527 309.747703,97.2653729 313.580033,101.149064 L320,94.7588201 C312.809797,87.2168756 301.145956,87.0632384 293.774998,94.4133813 C286.404039,101.763524 286.041729,113.909353 292.960379,121.722085 C299.879028,129.534815 311.529522,130.135918 319.155369,123.073605 L313.085188,116.31865 C309.082683,119.855463 303.120319,119.498427 299.533206,115.507136 L299.533206,115.507136 Z" id="Path" fill="#57B6DB" fill-rule="nonzero"></path>
            <path d="M322.090408,96.4093485 C321.967701,96.2702914 321.843364,96.1338424 321.717394,96 L315.480437,102.319202 C315.587109,102.429442 315.692502,102.541837 315.79541,102.658384 C319.404546,106.746538 319.204985,113.163104 315.349676,116.990221 C315.2351,117.104 315.118541,117.213974 315,117.320143 L320.897143,124 C321.013375,123.890318 321.128604,123.778801 321.242829,123.665448 C328.574803,116.387068 328.954277,104.184101 322.090408,96.4093485 L322.090408,96.4093485 Z" id="Path" fill="#317299" fill-rule="nonzero"></path>
            <path d="M316.715107,272.811971 C316.741351,272.418606 316.803642,272.02554 316.816685,271.632251 L316.909251,268.843514 L316.937314,268 L314.21952,268.039681 L314.711681,271.968682 C314.876461,272.673851 314.898591,273.402304 314.776896,274.115311 C314.642513,274.565386 314.2943,274.716611 313.905931,274.943449 C312.963268,275.246548 311.989044,275.452763 311,275.55855 C311,275.55855 315.599247,276.054532 315.620195,275.995047 C315.641142,275.935563 316.958183,275.796639 317,275.181613 C316.9683,274.628721 316.877238,274.080342 316.728228,273.544992 C316.699835,273.301571 316.695441,273.056167 316.715107,272.811971 Z" id="Path" fill="#F5B690" fill-rule="nonzero"></path>
            <path d="M326.265689,272.105375 C326.218613,271.686556 326.207981,271.261883 326.147595,270.84539 L325.71921,267.892967 L325.589348,267 L322.848352,267.518732 L324.08156,271.569081 C324.380227,272.282616 324.538984,273.045708 324.549391,273.817778 C324.497933,274.314941 324.173925,274.535537 323.823621,274.842494 C322.927054,275.327049 321.980422,275.715109 321,276 C321,276 325.743966,275.715014 325.753949,275.648699 C325.763932,275.582384 327.069945,275.205021 326.997059,274.550131 C326.861533,273.973567 326.666784,273.412177 326.415842,272.874694 C326.34168,272.623427 326.291411,272.365871 326.265689,272.105375 L326.265689,272.105375 Z" id="Path" fill="#F5B690" fill-rule="nonzero"></path>
            <path d="M309.684252,276.584472 C310.555857,276.178635 311.526872,276.052847 312.469535,276.223658 C313.404069,276.376089 314.346313,276.473808 315.291689,276.516341 C315.585298,276.529122 315.878974,276.492709 316.161148,276.408537 C316.456903,276.31034 316.7389,276.173002 317,276 L316.979066,278 L315.90257,277.992764 L315.90257,277.763496 L315.154589,277.964146 L315.154589,277.964146 L309.093987,277.956991 C308.907646,277.956504 309.0499,277.333415 309.085106,277.238781 C309.200366,276.953094 309.413432,276.720411 309.684252,276.584472 L309.684252,276.584472 Z" id="Path" fill="#1D8BAD" fill-rule="nonzero"></path>
            <path d="M318.500397,276.687212 C319.298455,276.187935 320.243159,275.921189 321.210223,275.922069 C322.166071,275.907985 323.120264,275.844126 324.068164,275.7308 C324.362494,275.695311 324.648518,275.616163 324.914965,275.496476 C325.192498,275.362093 325.449671,275.195193 325.679977,275 L326,276.777281 L324.927622,276.942919 L324.88853,276.739423 L324.17855,277.036942 L324.17855,277.036942 L318.146969,277.99892 C317.961444,278.028211 317.996851,277.452796 318.015756,277.36324 C318.081711,277.091412 318.25407,276.850989 318.500397,276.687212 L318.500397,276.687212 Z" id="Path" fill="#1D8BAD" fill-rule="nonzero"></path>
            <path d="M316,219 L323.535685,219.083344 C324.697346,220.977855 325.46229,223.072827 325.787367,225.250079 C326.047252,228.250063 323.015587,248.583202 322.84233,250.750141 C322.669073,252.917082 324.574733,255.666877 325.61411,259.249953 C326.34942,262.345981 326.813015,265.49598 327,268.666703 L323.275472,269 C323.275472,269 318.771288,260.25 318.424857,256.749952 C318.078425,253.249906 316.86571,247.916609 316.86571,245.499874 C316.86571,243.083139 316,219 316,219 Z" id="Path" fill="#4688C8" fill-rule="nonzero"></path>
            <path d="M312.728107,219.164294 C312.728107,219.164294 312.283493,229.112113 312.016674,233.88077 C311.749855,238.649428 314.77355,268 314.77355,268 L318.953124,267.917776 C318.953124,267.917776 319.753496,247.117353 320.287134,244.157644 C321.211837,239.026668 323.751492,234.1855 323.98292,228.940047 C324.127005,225.673587 323.325204,222.241823 322.866046,219 L312.728107,219.164294 Z" id="Path" fill="#4688C8" fill-rule="nonzero"></path>
            <path d="M315,200.927113 C317.696394,201.452466 322,198.965619 322,198.965619 C320.27476,197.810182 319.225888,195.97507 319.161864,194 L317.655828,195.376613 L316.037991,196.85538 C316.1178,197.416765 316.23041,197.973702 316.375322,198.523724 C316.443979,198.795936 316.525596,199.098434 316.622746,199.426733 C315.987681,199.830509 315.437673,200.339043 315,200.927113 L315,200.927113 Z" id="Path" fill="#FAAF7C" fill-rule="nonzero"></path>
            <path d="M315.289276,197 C316.518961,196.601117 317.512644,195.656932 318,194.424304 C317.45561,194.311755 316.917232,194.170131 316.387036,194 L315,195.409643 C315.068446,195.944787 315.165014,196.47569 315.289276,197 Z" id="Path" fill="#EA8E50" fill-rule="nonzero"></path>
            <path d="M314.232028,196.960791 C314.232028,196.960791 319.371374,197.546949 319.670397,194.186517 C319.969421,190.826084 320.834049,188.638464 317.5656,188.122144 C314.297151,187.605825 313.544329,188.825749 313.184298,189.922006 C312.824267,191.018262 312.902841,196.721999 314.232028,196.960791 Z" id="Path" fill="#FAAF7C" fill-rule="nonzero"></path>
            <path d="M316.205097,188.009995 C316.619994,187.085647 317.22461,186.287494 317.968202,185.682517 C318.722388,185.078157 319.666613,184.861936 320.568873,185.086982 C321.477078,185.338988 322.162773,186.18412 322.307846,187.230298 C322.371995,187.907217 322.16721,188.636181 322.427818,189.249355 C322.861597,190.269974 324.160159,190.200116 325.019622,190.779322 C325.638987,191.19672 326.185721,192.024445 326.88805,191.841418 C327.371714,191.715413 327.647896,191.15044 327.844892,190.634629 C328.197676,192.107301 327.941617,193.681713 327.148679,194.915378 C326.355741,196.149043 325.11152,196.908792 323.765702,196.981098 C323.035027,197.083143 322.307291,196.767699 321.823487,196.139228 C321.466656,195.572071 321.414843,194.733345 320.887461,194.375325 C320.351367,194.010494 319.627991,194.365021 319.050261,194.093974 C318.667235,193.87744 318.385956,193.483414 318.279235,193.013889 C318.17671,192.550216 318.099207,192.079904 318.047156,191.605561 C318.517482,194.437847 315.029282,187.10176 316.26755,188.233889" id="Path" fill="#3D382B" fill-rule="nonzero"></path>
            <path d="M311.566338,191.077398 C313.133534,192.3738 315.158989,192.238684 317.065202,192.061375 C317.432325,192.027315 317.397816,192.255916 317.462426,192.537178 C317.600295,193.134087 318.458524,192.756359 318.729188,193.264371 C318.916034,193.615044 318.592567,194.005171 318.256044,194.115648 C318.130272,194.135462 318.012157,194.187164 317.913701,194.265499 C317.850661,194.354837 317.822971,194.463179 317.835703,194.570676 C317.842272,195.014432 317.946131,196.133283 318.667239,195.986894 C319.284821,195.861441 319.792224,195.174993 320.134234,194.709335 C320.531177,194.166087 320.801196,193.545653 320.925524,192.891152 C321.442406,190.184251 319.192105,187.671568 316.553225,187.100104 C314.733659,186.706111 311.627955,187.472437 311.07806,189.446913 C310.94134,189.856665 310.985546,190.302912 311.200213,190.680024 C311.301222,190.829336 311.424615,190.963261 311.566338,191.077398 L311.566338,191.077398 Z" id="Path" fill="#3D382B" fill-rule="nonzero"></path>
            <path d="M307.615941,211 C307.615941,211 306.42029,214.47808 306.192477,215.087063 C306.124828,215.267892 306.037964,215.74676 305.835178,215.81268 C305.724802,215.836839 305.609992,215.829095 305.503711,215.790323 C303.418202,215.241671 301.126434,214.881575 299.165083,213.953676 C298.296376,213.542701 297.765271,212.624255 296.997232,212.065658 C296.241793,211.534177 295.314617,211.318679 294.407499,211.463744 C294.028074,211.474037 293.655493,211.569016 293.316066,211.741974 C293.137078,211.869049 293.022456,212.070221 293.002957,212.291504 C292.983459,212.512787 293.061082,212.73152 293.214995,212.889005 C293.695547,213.269975 294.244702,213.551472 294.831479,213.717612 C295.632044,214.027736 296.404563,214.408256 297.14028,214.854862 C297.916785,215.428472 298.722488,215.959944 299.554027,216.447061 C300.591777,216.988644 301.643169,217.490937 302.641685,218.097701 C303.410485,218.574012 304.207676,219.001102 305.028631,219.37649 C305.79438,219.845652 306.685227,220.058817 307.576062,219.986048 C308.770998,219.552753 309.775583,218.700782 310.410157,217.582502 C310.76351,217.00016 311.064498,216.386522 311.309459,215.749061 C311.570794,215.154556 311.801291,214.546489 312,213.927374 L307.615941,211 Z" id="Path" fill="#FAAF7C" fill-rule="nonzero"></path>
            <path d="M324.663309,209 C324.663309,209 326.082012,213.631144 325.996264,214.114457 C325.894215,214.907518 325.378838,215.601504 324.620557,215.96693 C323.717725,216.248634 318,214.637971 318,214.637971 L324.663309,209 Z" id="Path" fill="#FAAF7C" fill-rule="nonzero"></path>
            <path d="M307,211.049482 L311.94502,216 C312.304914,214.734193 312.690411,212.959812 313.016868,211.686074 C313.569553,209.529468 314.330778,207.247384 313.8448,205.022962 C313.768645,204.580132 313.593029,204.1577 313.329679,203.783885 C313.010439,203.296326 312.445501,202.999597 311.837255,203 C311.22901,203.000405 310.664516,203.297885 310.346007,203.785868 C309.184126,205.795104 308.201572,207.891798 307.408491,210.054303 C307.270699,210.385448 307.133665,210.71691 307,211.049482 Z" id="Path" fill="#2B4F97" fill-rule="nonzero"></path>
            <path d="M322,199 C323.379067,201.180148 324.453128,203.582515 325.185225,206.124434 L326,209.562217 L322.70372,213 C322.70372,213 322.629777,199.372831 322,199 Z" id="Path" fill="#2B4F97" fill-rule="nonzero"></path>
            <path d="M320.63056,197 C322.374833,198.142112 323.641316,199.92866 324.176738,202.002377 C325.519578,207.847516 324.815548,219.551442 324.815548,219.551442 L313.277473,220 C312.78289,217.441337 312.677288,214.817496 312.964538,212.224624 C313.334262,209.48925 314.033634,204.693882 313.681804,203.715195 C313.249655,202.859895 312.680918,202.087603 312,201.431463 C312,201.431463 315.402799,198.821527 315.989478,198.699172 C316.576157,198.576817 318.739713,199.093453 320.63056,197 Z" id="Path" fill="#2B4F97" fill-rule="nonzero"></path>
            <rect id="Rectangle" fill="#D6ECEB" fill-rule="nonzero" transform="translate(55.500000, 83.000000) rotate(-180.000000) translate(-55.500000, -83.000000) " x="33" y="81" width="45" height="4"></rect>
            <rect id="Rectangle" fill="#D6ECEB" fill-rule="nonzero" transform="translate(43.500000, 87.000000) rotate(-180.000000) translate(-43.500000, -87.000000) " x="37" y="86" width="13" height="2"></rect>
            <rect id="Rectangle" fill="#D6ECEB" fill-rule="nonzero" transform="translate(42.500000, 99.000000) rotate(-180.000000) translate(-42.500000, -99.000000) " x="36" y="98" width="13" height="2"></rect>
            <rect id="Rectangle" fill="#D6ECEB" fill-rule="nonzero" transform="translate(41.500000, 109.000000) rotate(-180.000000) translate(-41.500000, -109.000000) " x="35" y="108" width="13" height="2"></rect>
            <rect id="Rectangle" fill="#D6ECEB" fill-rule="nonzero" transform="translate(41.500000, 120.000000) rotate(-180.000000) translate(-41.500000, -120.000000) " x="35" y="119" width="13" height="2"></rect>
            <rect id="Rectangle" fill="#D6ECEB" fill-rule="nonzero" transform="translate(39.500000, 132.000000) rotate(-180.000000) translate(-39.500000, -132.000000) " x="33" y="131" width="13" height="2"></rect>
            <rect id="Rectangle" fill="#D6ECEB" fill-rule="nonzero" transform="translate(38.500000, 143.000000) rotate(-180.000000) translate(-38.500000, -143.000000) " x="32" y="142" width="13" height="2"></rect>
            <rect id="Rectangle" fill="#D6ECEB" fill-rule="nonzero" transform="translate(37.500000, 154.000000) rotate(-180.000000) translate(-37.500000, -154.000000) " x="31" y="153" width="13" height="2"></rect>
            <rect id="Rectangle" fill="#D6ECEB" fill-rule="nonzero" transform="translate(35.500000, 165.000000) rotate(-180.000000) translate(-35.500000, -165.000000) " x="29" y="164" width="13" height="2"></rect>
            <rect id="Rectangle" fill="#D6ECEB" fill-rule="nonzero" transform="translate(34.500000, 176.000000) rotate(-180.000000) translate(-34.500000, -176.000000) " x="28" y="175" width="13" height="2"></rect>
            <rect id="Rectangle" fill="#D6ECEB" fill-rule="nonzero" transform="translate(33.500000, 187.000000) rotate(-180.000000) translate(-33.500000, -187.000000) " x="27" y="186" width="13" height="2"></rect>
            <rect id="Rectangle" fill="#D6ECEB" fill-rule="nonzero" transform="translate(32.500000, 197.000000) rotate(-180.000000) translate(-32.500000, -197.000000) " x="26" y="196" width="13" height="2"></rect>
            <rect id="Rectangle" fill="#D6ECEB" fill-rule="nonzero" transform="translate(31.500000, 210.000000) rotate(-180.000000) translate(-31.500000, -210.000000) " x="25" y="209" width="13" height="2"></rect>
            <rect id="Rectangle" fill="#D6ECEB" fill-rule="nonzero" transform="translate(30.500000, 222.000000) rotate(-180.000000) translate(-30.500000, -222.000000) " x="24" y="221" width="13" height="2"></rect>
            <rect id="Rectangle" fill="#D6ECEB" fill-rule="nonzero" transform="translate(28.500000, 232.000000) rotate(-180.000000) translate(-28.500000, -232.000000) " x="22" y="231" width="13" height="2"></rect>
            <rect id="Rectangle" fill="#D6ECEB" fill-rule="nonzero" transform="translate(27.500000, 243.000000) rotate(-180.000000) translate(-27.500000, -243.000000) " x="21" y="242" width="13" height="2"></rect>
            <rect id="Rectangle" fill="#D6ECEB" fill-rule="nonzero" transform="translate(26.500000, 254.000000) rotate(-180.000000) translate(-26.500000, -254.000000) " x="20" y="253" width="13" height="2"></rect>
            <rect id="Rectangle" fill="#D6ECEB" fill-rule="nonzero" transform="translate(26.500000, 266.000000) rotate(-180.000000) translate(-26.500000, -266.000000) " x="20" y="265" width="13" height="2"></rect>
            <rect id="Rectangle" fill="#D6ECEB" fill-rule="nonzero" transform="translate(34.500000, 176.000000) rotate(-180.000000) translate(-34.500000, -176.000000) " x="28" y="175" width="13" height="2"></rect>
            <polygon id="Path" fill="#D6ECEB" fill-rule="nonzero" points="29 277 30.6241345 277 51 83.1624084 49.4290249 83"></polygon>
            <polygon id="Path" fill="#D6ECEB" fill-rule="nonzero" points="17 276.979546 18.6239643 277 39 82.1620658 37.4307227 82"></polygon>
            <rect id="Rectangle" fill="#D6ECEB" fill-rule="nonzero" x="319" y="161" width="32" height="4"></rect>
            <rect id="Rectangle" fill="#D6ECEB" fill-rule="nonzero" x="140" y="243" width="22" height="4"></rect>
            <rect id="Rectangle" fill="#D6ECEB" fill-rule="nonzero" x="140" y="253" width="22" height="2"></rect>
            <rect id="Rectangle" fill="#D6ECEB" fill-rule="nonzero" x="140" y="261" width="22" height="2"></rect>
            <rect id="Rectangle" fill="#D6ECEB" fill-rule="nonzero" x="140" y="271" width="22" height="2"></rect>
            <rect id="Rectangle" fill="#D6ECEB" fill-rule="nonzero" x="333" y="169" width="13" height="2"></rect>
            <rect id="Rectangle" fill="#D6ECEB" fill-rule="nonzero" x="334" y="179" width="13" height="2"></rect>
            <rect id="Rectangle" fill="#D6ECEB" fill-rule="nonzero" x="336" y="191" width="13" height="2"></rect>
            <rect id="Rectangle" fill="#D6ECEB" fill-rule="nonzero" x="337" y="202" width="13" height="2"></rect>
            <rect id="Rectangle" fill="#D6ECEB" fill-rule="nonzero" x="338" y="213" width="13" height="2"></rect>
            <rect id="Rectangle" fill="#D6ECEB" fill-rule="nonzero" x="339" y="224" width="13" height="2"></rect>
            <rect id="Rectangle" fill="#D6ECEB" fill-rule="nonzero" x="342" y="235" width="13" height="2"></rect>
            <rect id="Rectangle" fill="#D6ECEB" fill-rule="nonzero" x="342" y="247" width="13" height="2"></rect>
            <rect id="Rectangle" fill="#D6ECEB" fill-rule="nonzero" x="343" y="257" width="13" height="2"></rect>
            <rect id="Rectangle" fill="#D6ECEB" fill-rule="nonzero" x="343" y="257" width="13" height="2"></rect>
            <polygon id="Path" fill="#D6ECEB" fill-rule="nonzero" points="346 277 344.441342 276.996095 333 166.160874 334.509854 166"></polygon>
            <polygon id="Path" fill="#D6ECEB" fill-rule="nonzero" points="359 278 357.587882 277.992869 346 164.16324 347.532052 164"></polygon>
            <path d="M340.022097,92.8841985 C341.667266,93.3189183 343.391402,92.49568 344,90.9848346 C344,90.9848346 341.833219,89.0633043 341.552157,85 L339.8396,86.5950974 L338,88.3084415 C338.090708,88.9588788 338.218732,89.6041617 338.383504,90.2414294 C338.46166,90.5568542 338.690433,91.8597415 338.800865,92.2400937 C339.056321,92.6467331 339.522408,92.8925579 340.022097,92.8841985 L340.022097,92.8841985 Z" id="Path" fill="#C88F68" fill-rule="nonzero"></path>
            <path d="M337.385535,90 C339.025099,89.468172 340.350052,88.2092801 341,86.5657473 C340.274134,86.4156827 339.556284,86.2268461 338.849341,86 L337,87.879719 C337.091203,88.5931789 337.219905,89.3009847 337.385535,90 Z" id="Path" fill="#B27F5E" fill-rule="nonzero"></path>
            <path d="M336.717914,88.7413135 C336.717914,88.7413135 341.525481,90.0599418 342.223373,86.7429529 C342.921265,83.425964 344.011895,81.3622477 340.971911,80.3800894 C337.931926,79.3979311 337.067123,80.5102212 336.590179,81.5547528 C336.113234,82.5992844 335.48544,88.3128158 336.717914,88.7413135 Z" id="Path" fill="#C88F68" fill-rule="nonzero"></path>
            <path d="M334.058343,78.6550485 C333.977307,78.3895277 333.980777,78.1020962 334.068196,77.8389786 C334.304663,77.1063313 335.109666,77.0480939 335.693289,76.8317138 C336.327346,76.5821604 336.976539,76.3806377 337.636212,76.2285934 C338.901368,75.9010986 340.222083,75.925849 341.476103,76.3005526 C342.119648,76.5307062 342.703017,76.9253065 343.177248,77.4512341 C343.678072,78.0092234 344.231017,78.5089712 344.827126,78.9423845 C346.285569,79.9966734 346.298347,82.2404697 345.336162,83.681917 C344.868235,84.3107785 344.302373,84.845454 343.664344,85.2615945 C343.050135,85.7274763 342.524319,86.3177174 342.115687,87 C342.115687,87 341.438308,86.5847275 341.596722,86.0398437 C341.746978,85.5227403 342.235614,85.1904715 342.397723,84.6737025 C342.49527,84.4467956 342.444296,84.1771982 342.272331,84.0105043 C341.949036,83.6841762 341.600956,83.8371324 341.253337,84.0217997 C341.013176,84.1494026 340.58635,84.4096278 340.44972,84.0013838 C340.329947,83.6432601 340.444024,83.238614 340.31994,82.8661816 C339.948998,81.7524838 338.664981,81.5845509 337.760141,81.2958763 C336.828899,80.9985 334.460075,80.0082204 334.058343,78.6550485 Z" id="Path" fill="#212121" fill-rule="nonzero"></path>
            <rect id="Rectangle" fill="#C88F68" fill-rule="nonzero" transform="translate(335.000000, 158.000000) rotate(-180.000000) translate(-335.000000, -158.000000) " x="334" y="157" width="2" height="2"></rect>
            <path d="M336.761855,160.00343 C335.532089,160.232522 334.262065,160.244636 333.026831,160.039059 C332.983509,160.030103 332.937874,160.03945 332.90368,160.064284 C331.85601,160.870765 330.626251,161.477556 329.293361,161.845697 C327.574243,162.167634 325.688769,162.344493 325.374469,162.650896 C325.146287,163.016446 325.018379,163.423032 325.000762,163.838814 C324.9964,163.876776 325.010913,163.914547 325.040632,163.942579 C325.070351,163.970611 325.112432,163.98622 325.156235,163.98546 C326.543541,163.977764 331.445511,164.039472 331.820608,163.954748 C332.23793,163.860618 332.487341,163.470203 332.87054,163.325981 C333.178519,163.219773 333.505971,163.162806 333.83717,163.157815 C333.893959,163.15525 334.654383,163.123541 334.654383,163.133802 L334.654383,163.761643 L336.84401,163.761643 C336.885739,163.761627 336.925722,163.747058 336.955028,163.72119 C336.984333,163.695321 337.000521,163.66031 337,163.623976 L336.949077,160.134827 C336.949709,160.093958 336.928731,160.055103 336.892185,160.029454 C336.85564,160.003806 336.807583,159.99421 336.761855,160.00343 Z" id="Path" fill="#A66E52" fill-rule="nonzero"></path>
            <polygon id="Rectangle" fill="#C88F68" fill-rule="nonzero" transform="translate(344.045967, 158.120671) rotate(177.110985) translate(-344.045967, -158.120671) " points="342.91786 156.867133 345.174084 156.867123 345.174073 159.374209 342.91785 159.374219"></polygon>
            <path d="M346.551123,159.004595 C345.333387,159.256443 344.062765,159.316909 342.814318,159.182422 C342.770463,159.17612 342.725331,159.186133 342.692457,159.209457 C341.690506,159.967755 340.494666,160.555544 339.181728,160.935079 C337.47952,161.288637 335.602337,161.51986 335.305504,161.804208 C335.098279,162.138248 334.993813,162.50487 335.000283,162.875363 C334.998138,162.909247 335.014813,162.942224 335.046107,162.965986 C335.077402,162.989746 335.12033,163.002025 335.164075,162.999727 C336.552416,162.938896 341.46319,162.801825 341.833752,162.711864 C342.245895,162.611764 342.47302,162.254555 342.848212,162.111536 C343.150374,162.005041 343.474879,161.941573 343.806152,161.924179 C343.862846,161.919719 344.622227,161.861726 344.622838,161.870851 L344.659265,162.429274 L346.851188,162.343638 C346.892999,162.342073 346.932253,162.327603 346.960165,162.303466 C346.988076,162.27933 347.002314,162.247542 346.999693,162.215218 L346.746362,159.113751 C346.744484,159.077411 346.721139,159.043751 346.683039,159.022449 C346.644939,159.001148 346.596306,158.994566 346.551123,159.004595 Z" id="Path" fill="#A66E52" fill-rule="nonzero"></path>
            <path d="M335.004301,116 L346.650213,117.98544 C346.855745,119.432078 346.969083,120.889501 346.98959,122.349508 C347.027598,123.519285 346.961481,124.690049 346.791963,125.848937 C346.359134,128.526632 345.187398,131.014223 344.451396,133.615051 C344.02288,134.923982 343.846804,136.297515 343.931887,137.667616 C344.07654,139.120984 344.488244,140.532617 344.748522,141.967642 C345.060646,143.689845 345.362772,145.413989 345.627404,147.143808 C346.212708,150.6835 346.316929,154.281624 345.937432,157.847279 L342.610017,158 C340.26445,151.271684 337.529192,144.468445 335.841819,137.559119 C334.769422,133.167927 335.065097,128.375544 335.025023,123.885958 C335.001425,121.257357 334.994518,118.628704 335.004301,116 Z" id="Path" fill="#E0B762" fill-rule="nonzero"></path>
            <path d="M331.768766,116 L339,117.169908 C339,117.169908 336.129205,136.759477 336.291698,140.659197 C336.454191,144.558917 336.318739,154.568227 336.07504,158 L332.012712,158 C332.012712,158 327.586532,137.583922 328.031424,134.445698 C328.654356,130.051994 330.062712,118.573591 331.768766,116 Z" id="Path" fill="#E0B762" fill-rule="nonzero"></path>
            <path d="M327.665444,117.332134 C327.635553,117.340759 327.604377,117.343445 327.573536,117.340053 C326.880264,117.309673 326.202736,117.114775 325.5924,116.770158 C325.264711,116.587859 324.999479,116.302195 324.666142,116.129921 C324.45054,116.017575 324.207204,115.97669 323.968726,116.012741 C323.190296,116.201358 324.751433,117.314528 324.954695,117.466921 C324.985219,117.485604 325.010038,117.512947 325.026268,117.545772 C325.041594,117.60036 325.020757,117.658976 324.975029,117.689909 C324.929689,117.718994 324.877592,117.734579 324.824379,117.734979 C324.253716,117.763741 323.682065,117.706341 323.127114,117.564558 C322.60278,117.357991 322.05305,117.230047 321.494322,117.184543 C321.298199,117.191915 321.121244,117.309488 321.031799,117.491857 C320.924399,117.760335 321.107972,118.054845 321.300179,118.265449 C321.715793,118.695126 322.173052,119.078548 322.664591,119.409535 C322.895476,119.5834 323.144129,119.729979 323.405984,119.846582 C324.057971,120.055614 324.75567,120.050939 325.405034,119.833187 C326.621003,119.513153 327.820831,119.129653 329,118.68413 L328.365765,117.125658" id="Path" fill="#C88F68" fill-rule="nonzero"></path>
            <path d="M342.722229,89 C342.722229,89 347.586607,95.1375707 347.905569,102.003379 C348.224531,108.869187 347.692928,116.983266 346.948601,120 L331,118.101549 C331.909733,118.201204 336.136348,99.8413764 336.621934,98.0187581 C336.965325,96.7300695 337.411385,95.4605175 337.818002,94.1883446 L338.565656,91.8491867 L342.722229,89 Z" id="Path" fill="#40649B" fill-rule="nonzero"></path>
            <path d="M342.622154,95.0115049 C342.825668,95.0616901 343.012013,95.1631314 343.162447,95.3056266 C344.420072,96.4859517 345.087474,98.1404012 344.990778,99.837952 C344.870585,101.642478 344.637207,103.438174 344.291949,105.215008 C343.985358,106.810541 343.708346,108.864493 342.552272,110.11127 C341.37274,111.19809 340.070213,112.151102 338.669709,112.951998 C337.373626,113.816442 336.065163,114.663018 334.744323,115.491726 C333.583211,116.223236 332.416167,116.946522 331.232708,117.643639 C330.661038,118.041831 330.044548,118.37527 329.395195,118.637487 C328.876205,118.808231 328.341431,118.929636 327.798371,119 L327,116.876629 C327,116.876629 336.154982,108.227782 336.634086,107.088375 C337.11319,105.948969 337.697687,100.829665 337.698581,100.821837 C337.725611,99.9199718 337.864764,99.0246076 338.113003,98.155289 C338.461036,97.1612324 339.143067,96.3102255 340.049083,95.7395353 C340.78674,95.1994958 341.701897,94.9405587 342.622154,95.0115049 Z" id="Path" fill="#40649B" fill-rule="nonzero"></path>
            <path d="M82.7299475,221.534427 C82.7610582,221.528983 82.7905951,221.518791 82.816972,221.504397 C83.4320866,221.215041 83.9574571,220.816221 84.3531599,220.338246 C84.5669489,220.083492 84.6766041,219.780426 84.9000367,219.53051 C85.0441534,219.368293 85.2462041,219.245537 85.4791107,219.178692 C86.2718191,219.01007 85.3658781,220.395291 85.2512457,220.580875 C85.23208,220.605789 85.2220989,220.634597 85.2224705,220.663929 C85.2334731,220.708296 85.2792955,220.741529 85.3350813,220.745601 C85.3895466,220.74844 85.4439393,220.739231 85.4924095,220.718963 C86.0234812,220.518516 86.5159238,220.257147 86.9544823,219.942954 C87.3355265,219.595102 87.7756735,219.29263 88.2617932,219.044561 C88.4431289,218.973906 88.6575945,218.988039 88.8223581,219.081502 C89.0094579,219.262312 89.0525919,219.513468 88.9334908,219.728595 C88.7534142,220.190968 88.5143356,220.636969 88.2201086,221.05941 C88.0903602,221.270779 87.931958,221.469855 87.7478125,221.652977 C87.2521417,222.05186 86.6169939,222.318381 85.9279982,222.41661 C84.6779875,222.662117 83.4135211,222.856825 82.1393638,223 C82.0927019,222.553442 82.0462473,222.106885 82,221.660327" id="Path" fill="#FDCDAD" fill-rule="nonzero"></path>
            <rect id="Rectangle" fill="#D6ECEB" fill-rule="nonzero" x="140" y="246" width="2" height="31"></rect>
            <rect id="Rectangle" fill="#D6ECEB" fill-rule="nonzero" x="160" y="246" width="2" height="31"></rect>
            <path d="M159,169.892747 C156.356066,170.52532 152,168.153173 152,168.153173 C153.658069,166.915322 154.619591,165.010869 154.601738,163 L156.146918,164.345012 L157.806784,165.789857 C157.750963,166.363649 157.66253,166.934115 157.541874,167.498725 C157.485114,167.778021 157.417035,168.088659 157.334308,168.426025 C157.978686,168.813485 158.543255,169.310616 159,169.892747 L159,169.892747 Z" id="Path" fill="#ECBE93" fill-rule="nonzero"></path>
            <path d="M156.772878,169 C155.543397,168.644875 154.526947,167.726914 154,166.4958 C154.533656,166.359587 155.060296,166.194098 155.577799,166 L157,167.374423 C156.952125,167.920251 156.876306,168.462912 156.772878,169 Z" id="Path" fill="#E2AE81" fill-rule="nonzero"></path>
            <path d="M154.284892,240.812064 C154.2587,240.418691 154.196401,240.025631 154.183346,239.632336 L154.090805,236.843515 L154.062795,236 L156.780506,236.039674 L156.288308,239.968785 C156.123574,240.67397 156.101452,241.402426 156.223116,242.115443 C156.3573,242.565663 156.70573,242.716756 157.094069,242.94359 C158.036738,243.246644 159.010962,243.45281 160,243.558545 C160,243.558545 155.400829,244.054555 155.379843,243.995043 C155.358856,243.935531 154.041808,243.796592 154,243.181559 C154.031652,242.628666 154.122709,242.080285 154.271755,241.544945 C154.300157,241.301572 154.304555,241.056214 154.284892,240.812064 Z" id="Path" fill="#ECBE93" fill-rule="nonzero"></path>
            <path d="M161.315757,243.584675 C160.444162,243.178775 159.473167,243.052934 158.530503,243.223705 C157.595982,243.376216 156.65374,243.473948 155.708367,243.516425 C155.414737,243.529178 155.121045,243.492747 154.83885,243.408567 C154.543105,243.310347 154.261111,243.172999 154,243 L154.020969,245 L155.097442,244.992776 L155.097442,244.763292 L155.84537,244.964048 L155.84537,244.964048 L161.906044,244.956908 C162.092362,244.956398 161.950054,244.33322 161.914912,244.238622 C161.799586,243.953043 161.586519,243.720491 161.315757,243.584675 Z" id="Path" fill="#A66E52" fill-rule="nonzero"></path>
            <path d="M143.898513,238.918422 C143.971767,238.514552 144.00848,238.103182 144.095092,237.701922 L144.709563,234.85967 L144.895455,234 L147.643338,234.659855 L146.14577,238.522215 C145.799388,239.197997 145.591891,239.92988 145.534316,240.678931 C145.556033,241.164977 145.871197,241.397239 146.207734,241.715264 C147.087221,242.236774 148.023338,242.667485 149,243 C149,243 144.206782,242.452974 144.200664,242.388 C144.194545,242.323025 142.893211,241.882552 143.007056,241.250496 C143.179676,240.698424 143.411381,240.16445 143.698573,239.656866 C143.789346,239.417134 143.856282,239.169915 143.898513,238.918422 L143.898513,238.918422 Z" id="Path" fill="#ECBE93" fill-rule="nonzero"></path>
            <path d="M149.607824,243.436943 C148.93379,242.800357 148.117321,242.427214 147.265842,242.366609 C146.425118,242.289222 145.588699,242.153516 144.760659,241.960152 C144.503555,241.899648 144.256271,241.788488 144.02854,241.631047 C143.791907,241.455721 143.575039,241.243585 143.383414,241 L143,243.064395 L143.934607,243.327031 L143.980687,243.090838 L144.588743,243.485062 L144.588743,243.485062 L149.843987,244.99774 C150.005563,245.043972 150.007336,244.366693 149.99589,244.2602 C149.953187,243.937368 149.815195,243.644626 149.607824,243.436943 L149.607824,243.436943 Z" id="Path" fill="#A66E52" fill-rule="nonzero"></path>
            <path d="M159.007065,166.654788 C159.004608,166.647377 159.002721,166.639791 159.001421,166.632096 C158.975411,166.471384 159.314031,166.04504 159.394515,165.898724 L159.842001,165.085403 L160.70262,163.521548 L164.144933,157.265886 L164.420327,156.765449 C165.545218,154.721247 166.699962,152.56749 166.713212,150.237324 C166.715666,149.80854 166.709941,149.308022 167.049869,149.04418 C167.179549,149.525007 167.212102,150.026623 167.145648,150.520034 L168.062213,148.739429 C168.165445,148.486018 168.33549,148.264978 168.554439,148.099589 C168.999143,147.879699 169.539109,148.03494 169.797192,148.456881 C170.031536,148.879688 170.06451,149.384264 169.887164,149.833672 C169.709059,150.275485 169.481322,150.695874 169.208288,151.086838 C168.213688,152.85521 167.404151,154.720377 166.792387,156.653048 C165.268214,160.850492 163.537706,164.966142 161.600864,169 L160.271575,167.805231 L159.633594,167.231758 C159.497983,167.110411 159.067837,166.839656 159.007065,166.654788 Z" id="Path" fill="#ECBE93" fill-rule="nonzero"></path>
            <polygon id="Path" fill="#2B4F97" fill-rule="nonzero" points="158.516918 164 161 166.55331 157.193233 175 153 172.326048"></polygon>
            <path d="M158.945393,166.926731 C158.945393,166.926731 153.874521,167.634792 153.455776,164.648647 C153.037031,161.662502 152.100471,159.743053 155.320366,159.164363 C158.540262,158.585673 159.330679,159.646798 159.727117,160.611281 C160.123555,161.575764 160.253624,166.665589 158.945393,166.926731 Z" id="Path" fill="#ECBE93" fill-rule="nonzero"></path>
            <path d="M164.007073,166.654789 C164.004578,166.64739 164.002691,166.639801 164.00143,166.632098 C163.975338,166.471385 164.313957,166.045042 164.394523,165.898726 L164.842007,165.085406 L165.702542,163.521552 L169.144925,157.265896 L169.420237,156.765459 C170.545123,154.721259 171.699945,152.567504 171.713196,150.23734 C171.715568,149.808557 171.709842,149.30804 172.04977,149.044199 C172.179449,149.525024 172.212002,150.026639 172.145548,150.52005 L173.06211,148.739447 C173.165343,148.486014 173.335421,148.264968 173.554417,148.099608 C173.999099,147.879704 174.539057,148.034907 174.797166,148.456818 C175.031545,148.879642 175.06452,149.384259 174.887137,149.833689 C174.709033,150.275502 174.481297,150.69589 174.208263,151.086854 C173.213693,152.855227 172.404186,154.720392 171.792452,156.653058 C170.268229,160.850499 168.5377,164.966146 166.600864,169 L165.271579,167.805232 L164.633601,167.231678 C164.49799,167.110412 164.067845,166.839657 164.007073,166.654789 Z" id="Path" fill="#ECBE93" fill-rule="nonzero"></path>
            <path d="M157.006608,170.749839 L164.647035,164 L168,167.347452 C168,167.347452 161.953596,173.383915 161.73365,174.426512 C161.513704,175.469108 159.689604,187.463366 159.524761,187.957236 C159.359919,188.451105 156.84161,184.55127 156.291979,182.246414 C155.742349,179.941559 155.962216,174.646018 157.006608,170.749839 Z" id="Path" fill="#2B4F97" fill-rule="nonzero"></path>
            <path d="M157,189.32695 L150.03132,189 C148.849599,190.720712 148.02304,192.651482 147.598271,194.68339 C147.186914,197.493329 148.828146,216.795812 148.864592,218.84486 C148.901037,220.893909 146.983136,223.379692 145.818151,226.696711 C144.961972,229.571326 144.353783,232.511357 144,235.485778 L147.4227,236 C147.4227,236 152.084385,228.005987 152.604287,224.730041 C153.124189,221.454095 154.549125,216.49922 154.687063,214.224388 C154.825001,211.949557 157,189.32695 157,189.32695 Z" id="Path" fill="#6399D1" fill-rule="nonzero"></path>
            <path d="M160.332262,189.157706 C160.332262,189.157706 160.739824,198.699704 160.984683,203.273492 C161.229541,207.847281 158.457641,236 158.457641,236 L154.626242,235.921147 C154.626242,235.921147 153.892632,215.969768 153.403478,213.130825 C152.555573,208.209366 150.227802,203.565763 150.015644,198.53444 C149.88363,195.401278 150.618528,192.109631 151.03946,189 L160.332262,189.157706 Z" id="Path" fill="#6399D1" fill-rule="nonzero"></path>
            <path d="M152.233055,168 L157.635871,169.284211 C159.109946,171.598358 160.141901,174.152016 160.682095,176.822343 C161.429267,180.954305 160.625047,190 160.625047,190 L150.221853,189.21831 C150.221853,189.21831 149.014463,184.025408 152.233055,168 Z" id="Path" fill="#2B4F97" fill-rule="nonzero"></path>
            <path d="M158.91787,160.146922 C158.556218,158.986181 157.31588,158.383494 156.208059,158.152843 C153.794417,157.615308 151.287458,158.520534 149.774343,160.475965 C148.968649,161.582463 148.346409,162.811446 147.931512,164.115729 C147.618354,165.478641 147.216328,166.819605 146.72801,168.130026 C146.480719,168.608464 146.264838,169.102488 146.081736,169.608965 C145.991913,170.10678 145.803524,170.581638 145.527629,171.005663 C144.769753,171.884802 144.879404,172.709868 145.142018,173.754114 C145.347294,175.016491 145.102327,176.310845 144.449933,177.410965 C144.194185,177.90059 143.986981,178.06359 144.000639,178.623362 C144.041924,180.315551 146.139019,180.007341 146.849211,179.923461 C147.370413,179.859298 147.863593,179.651827 148.273887,179.324129 C149.087602,178.836821 149.746597,178.129016 150.174548,177.282688 C150.490099,176.874716 150.732985,176.415437 150.892544,175.925004 C151.300729,174.879394 151.63536,173.806554 151.893994,172.714316 C152.363572,170.962375 152.705259,169.178649 152.916358,167.377213 C152.963183,166.920828 152.996274,166.463118 153.013599,166.004704 C153.026242,165.673164 153.145336,165.104419 152.923382,164.844118 C152.656162,164.530681 151.564417,164.363467 151.844202,163.76593 C151.989674,163.45499 152.564305,163.311106 152.841748,163.215678 C153.240783,163.146858 153.39882,164.558537 153.571061,164.563921 C154.319416,164.587329 154.41736,163.410904 155.10531,163.167222 C156.072576,162.824993 157.637573,162.436726 158.444148,161.757026 C158.933095,161.378809 159.124106,160.729595 158.91787,160.146922 L158.91787,160.146922 Z" id="Path" fill="#D6AA54" fill-rule="nonzero"></path>
            <path d="M113.676738,278 C112.505712,268.308529 112.609684,257.698584 115.965992,248.499264 C119.322301,239.299942 126.298102,231.007034 135.740267,227.616619 C137.373716,227.030107 139.308668,226.622939 140.772737,227.537786 C142.117538,228.377901 142.595093,230.049459 142.80084,231.587001 C143.82315,239.21638 140.764682,246.810994 136.944649,253.555481 C132.652444,261.445444 128.927262,269.613019 125.795653,278" id="Path" stroke="#9ABFE2" stroke-width="0.796005" fill="#FFFFFF" fill-rule="nonzero" stroke-linejoin="round"></path>
            <path d="M140,227 C140,227 122.941484,244.898232 120,277" id="Path" stroke="#9ABFE2" stroke-width="0.796005" stroke-linejoin="round"></path>
            <rect id="Rectangle" stroke="#9ABFE2" stroke-width="0.80073" stroke-linejoin="round" x="11" y="277" width="353" height="1"></rect>
            <polygon id="Rectangle" fill="#FDCDAD" fill-rule="nonzero" transform="translate(47.179632, 272.146994) rotate(6.249200) translate(-47.179632, -272.146994) " points="45.9006939 270.725826 48.4585436 270.72585 48.45857 273.568161 45.9007204 273.568137"></polygon>
            <path d="M45.6954289,273.008788 C46.898261,273.416494 48.1687235,273.573379 49.4317855,273.470176 C49.4763173,273.464505 49.5208583,273.48063 49.5520008,273.513698 C50.4997131,274.580673 51.6549708,275.433008 52.9435904,276.015973 C54.624823,276.587872 56.491181,277.007956 56.7672425,277.403307 C56.9497199,277.859227 57.0266031,278.352191 56.9918715,278.843596 C56.9914267,278.888689 56.9721769,278.931439 56.9389702,278.961077 C56.9057635,278.990717 56.8617647,279.004421 56.818055,278.99874 C55.4295374,278.834005 50.5120191,278.356603 50.1470355,278.21454 C49.740999,278.05686 49.5403045,277.568994 49.1746238,277.356534 C48.8795513,277.196938 48.5587748,277.093117 48.227696,277.050052 C48.171074,277.040697 47.4134542,276.917977 47.4122149,276.930107 L47.3331299,277.669119 L45.1400528,277.423363 C45.0982669,277.41868 45.0600559,277.397058 45.0339582,277.363332 C45.0078606,277.329605 44.9960516,277.286584 45.0011701,277.243882 L45.4916361,273.14229 C45.4961806,273.094189 45.5220565,273.050889 45.5618247,273.024837 C45.6015928,272.998786 45.6508476,272.992869 45.6954289,273.008788 Z" id="Path" fill="#A66E52" fill-rule="nonzero"></path>
            <polygon id="Rectangle" fill="#FDCDAD" fill-rule="nonzero" transform="translate(37.544884, 270.331233) rotate(6.484100) translate(-37.544884, -270.331233) " points="36.3441133 268.996908 38.7456287 268.996931 38.7456544 271.665557 36.344139 271.665534"></polygon>
            <path d="M35.7127111,271.00891 C36.9144407,271.418515 38.1848543,271.579477 39.4488984,271.482286 C39.4934773,271.476876 39.5379649,271.493077 39.5689892,271.526021 C40.5128523,272.588618 41.6652228,273.439073 42.9520846,274.022761 C44.6317882,274.597347 46.4971169,275.021961 46.7718814,275.415323 C46.9526458,275.868473 47.0276202,276.357948 46.9909337,276.845419 C46.990321,276.890176 46.9708886,276.932533 46.9375347,276.961813 C46.9041808,276.991092 46.8600873,277.0045 46.8163687,276.998658 C45.4278544,276.829416 40.5105675,276.335012 40.1455078,276.192832 C39.7399226,276.034649 39.5410918,275.549628 39.1761972,275.337404 C38.8816212,275.177772 38.5610853,275.07341 38.2299969,275.029333 C38.1733767,275.019782 37.4159378,274.894861 37.4146172,274.906842 L37.3325758,275.639862 L35.139494,275.386836 C35.0977059,275.381999 35.0595658,275.360378 35.0335898,275.3268 C35.0076137,275.293222 34.9959653,275.250483 35.0012451,275.208126 L35.5083504,271.140282 C35.5131738,271.092638 35.5392567,271.04987 35.5791188,271.024245 C35.6189808,270.99862 35.6682186,270.992968 35.7127111,271.00891 L35.7127111,271.00891 Z" id="Path" fill="#A66E52" fill-rule="nonzero"></path>
            <path d="M59.7889736,204.841776 C58.0265744,204.51355 56.826643,203.006764 57.0205135,201.365347 C57.0205135,201.365347 60.0242382,200.57105 62.3436362,197 L63.1421919,199.203263 L64,201.57021 C63.5858335,202.121761 63.1392817,202.65221 62.6623255,203.159204 C62.4295043,203.411578 61.5558141,204.495744 61.2598136,204.792984 C60.8145908,205.050391 60.253269,205.069012 59.7889736,204.841776 L59.7889736,204.841776 Z" id="Path" fill="#FCC8A3" fill-rule="nonzero"></path>
            <path d="M62.1496172,204 C61.3334645,202.95376 60.9170864,201.487459 61.0137577,200 C61.4880907,200.174512 61.9690433,200.316804 62.4546765,200.426302 L63,202.564542 C62.7367071,203.0628 62.4528265,203.541994 62.1496172,204 Z" id="Path" fill="#FCBF95" fill-rule="nonzero"></path>
            <path d="M65.0230635,202.99296 C65.0230635,202.99296 60.3541002,201.842289 61.075809,198.775551 C61.7975179,195.708814 61.6810126,193.49495 64.6925719,194.099969 C67.7041312,194.704988 68.0056297,196.027393 67.9999223,197.112576 C67.994215,198.197759 66.2561477,203.213267 65.0230635,202.99296 Z" id="Path" fill="#FDCDAD" fill-rule="nonzero"></path>
            <path d="M70.6726451,196.024937 C70.8481763,195.855383 70.9604268,195.632919 70.9913522,195.393306 C71.0833493,194.729053 70.4201359,194.340537 70.0091228,193.924925 C69.5684083,193.462321 69.0955244,193.030183 68.5938658,192.631613 C67.6460992,191.839688 66.509785,191.294818 65.2900806,191.047426 C64.6488794,190.949483 63.9930549,191.003733 63.377684,191.205618 C62.7268756,191.420762 62.0549628,191.56888 61.3728268,191.64757 C59.7062965,191.835432 58.7959809,193.554953 59.0388347,195.073971 C59.1858052,195.757259 59.4540775,196.409953 59.8314311,197.002319 C60.1685522,197.622713 60.3804118,198.300991 60.4554047,199 C60.4554047,199 61.1994922,198.969724 61.282838,198.483417 C61.3620127,198.02171 61.078297,197.557504 61.1473528,197.091103 C61.1551366,196.875018 61.3066642,196.689526 61.5201303,196.63477 C61.926586,196.521689 62.1622562,196.788193 62.3846405,197.078539 C62.5383552,197.279193 62.7980481,197.66135 63.0782106,197.405973 C63.3239225,197.18178 63.3888843,196.822027 63.6439426,196.588523 C64.4068002,195.890664 65.5693934,196.30991 66.4566132,196.474156 C67.3703275,196.643626 69.7875882,196.893704 70.6726451,196.024937 Z" id="Path" fill="#243962" fill-rule="nonzero"></path>
            <polygon id="Path" fill="#2B4F97" fill-rule="nonzero" points="61.2627986 204 58 200.729608 59.0311718 200 62 202.960263"></polygon>
            <path d="M57.6315061,202.600965 C57.4772118,202.751153 57.3622164,202.942515 57.2980597,203.155847 C56.7574524,204.92989 56.9586786,206.870126 57.8493195,208.471128 C58.8112245,210.1645 59.868075,211.792823 61.0139617,213.346991 C62.0398461,214.744233 63.2575451,216.601701 64.8618215,217.23647 C66.4105678,217.704113 68.0034785,217.980413 69.6099563,218.060062 C71.1552068,218.253454 72.7028003,218.423373 74.2527365,218.569819 C75.6166772,218.701359 76.9820547,218.82278 78.3490183,218.909113 C79.0386099,219.010794 79.7366934,219.027221 80.4297328,218.958073 C80.9652148,218.865099 81.4910943,218.716326 82,218.513841 L81.6909644,216.052612 C81.6909644,216.052612 69.5683888,212.215522 68.6085589,211.347457 C67.6487291,210.479393 64.7058302,205.797004 64.70122,205.789823 C64.2492328,204.927124 63.702209,204.126653 63.0720788,203.405871 C62.2954581,202.613568 61.2942441,202.126893 60.2299999,202.024377 C59.4591129,201.959015 58.2526748,201.986678 57.6315061,202.600965 Z" id="Path" fill="#2B4F97" fill-rule="nonzero"></path>
            <path d="M82.7299475,215.534318 C82.7610463,215.528877 82.7905788,215.518708 82.816972,215.504351 C83.4320518,215.214961 83.9574126,214.816153 84.3531599,214.338213 C84.5669489,214.083462 84.6766041,213.780337 84.9000367,213.530423 C85.0441534,213.368208 85.2462041,213.245454 85.4791107,213.178609 C86.2718191,213.010053 85.3658781,214.395195 85.2512457,214.580777 C85.2320778,214.605712 85.2220967,214.634542 85.2224705,214.663893 C85.2334501,214.70827 85.2792852,214.741512 85.3350813,214.745564 C85.3895399,214.748425 85.4439333,214.739238 85.4924095,214.718989 C86.0234486,214.518498 86.5158838,214.257136 86.9544823,213.942988 C87.3355051,213.595123 87.775655,213.292653 88.2617932,213.044606 C88.4431089,212.973906 88.6575915,212.988016 88.8223581,213.081483 C89.0094579,213.262292 89.0525919,213.513445 88.9334908,213.72857 C88.7534142,214.190938 88.5143356,214.636933 88.2201086,215.059369 C88.0903602,215.270735 87.931958,215.469809 87.7478125,215.65293 C87.2521417,216.051808 86.6169939,216.318326 85.9279982,216.416554 C84.677989,216.662079 83.4135226,216.856806 82.1393638,217 C82.0927019,216.553447 82.0462473,216.106874 82,215.66028" id="Path" fill="#FAB58F" fill-rule="nonzero"></path>
            <path d="M82.7299475,221.534427 C82.7610582,221.528983 82.7905951,221.518791 82.816972,221.504397 C83.4320866,221.215041 83.9574571,220.816221 84.3531599,220.338246 C84.5669489,220.083492 84.6766041,219.780426 84.9000367,219.53051 C85.0441534,219.368293 85.2462041,219.245537 85.4791107,219.178692 C86.2718191,219.01007 85.3658781,220.395291 85.2512457,220.580875 C85.23208,220.605789 85.2220989,220.634597 85.2224705,220.663929 C85.2334731,220.708296 85.2792955,220.741529 85.3350813,220.745601 C85.3895466,220.74844 85.4439393,220.739231 85.4924095,220.718963 C86.0234812,220.518516 86.5159238,220.257147 86.9544823,219.942954 C87.3355265,219.595102 87.7756735,219.29263 88.2617932,219.044561 C88.4431289,218.973906 88.6575945,218.988039 88.8223581,219.081502 C89.0094579,219.262312 89.0525919,219.513468 88.9334908,219.728595 C88.7534142,220.190968 88.5143356,220.636969 88.2201086,221.05941 C88.0903602,221.270779 87.931958,221.469855 87.7478125,221.652977 C87.2521417,222.05186 86.6169939,222.318381 85.9279982,222.41661 C84.6779875,222.662117 83.4135211,222.856825 82.1393638,223 C82.0927019,222.553442 82.0462473,222.106885 82,221.660327" id="Path" fill="#FDCDAD" fill-rule="nonzero"></path>
            <path d="M55.1727296,227 L46.9375046,227.429556 C46.9375046,227.429556 47.6488843,248.280875 46.9697527,252.350883 C46.2906211,256.420891 45.1651729,266.928183 45,270.552355 L49.5426924,271 C49.5426924,271 57.0962514,250.086394 56.9990703,246.747702 C56.863174,242.073154 56.7523596,229.886252 55.1727296,227 Z" id="Path" fill="#5884C3" fill-rule="nonzero"></path>
            <path d="M52.8546474,230.794829 L37.9744045,226 C37.6658214,227.56746 37.451355,229.152793 37.3322105,230.747093 C37.2146536,232.023062 37.2041973,233.306996 37.3009564,234.584795 C37.5666164,237.539893 38.6058159,240.33619 39.1894085,243.2274 C39.542675,244.686308 39.6317877,246.199101 39.4523337,247.690872 C39.2059731,249.269852 38.6872329,250.785342 38.3232005,252.336575 C37.8863461,254.198134 37.4597273,256.062732 37.071473,257.935486 C36.2315429,261.765328 35.8829365,265.690862 36.0344613,269.612911 L39.4494428,270 C42.31568,262.8014 46.2415881,255.405057 48.4420344,247.965537 C49.8406563,243.236915 51.98297,237.038701 52.8546474,230.794829 C53.2524342,227.945278 52.6895474,233.668368 52.8546474,230.794829 Z" id="Path" fill="#5884C3" fill-rule="nonzero"></path>
            <path d="M58.569808,201 C52.8820333,202.295325 47.9261194,205.687003 44.7365885,210.467038 C40.8955275,216.452047 37.7617453,224.275453 37,227.377303 L55.3853265,233 C54.5037393,232.674878 59.4172556,213.936337 59.844511,212.04595 C60.176473,210.711217 60.4226544,209.357502 60.581613,207.992735 C60.865325,204.982517 61,204.284348 61,204.284348 L58.569808,201 Z" id="Path" fill="#2B4F97" fill-rule="nonzero"></path>
            <path d="M57.6315061,206.600965 C57.4771954,206.751138 57.362197,206.942505 57.2980597,207.155848 C56.7574524,208.929893 56.9586786,210.870132 57.8493195,212.471136 C58.8112431,214.164471 59.8680929,215.792768 61.0139617,217.346924 C62.0398461,218.74425 63.2575451,220.601721 64.8618215,221.236408 C66.4105518,221.704131 68.0034708,221.980433 69.6099563,222.060001 C71.1552068,222.253476 72.7033293,222.420349 74.2527365,222.569841 C75.6166772,222.70138 76.9820547,222.822802 78.3490183,222.909054 C79.0386041,223.010817 79.7366962,223.027243 80.4297328,222.958014 C80.9652163,222.865085 81.4910964,222.71634 82,222.513863 L81.6909644,220.052549 C81.6909644,220.052549 69.5683888,216.215535 68.6085589,215.347469 C67.6487291,214.479404 64.7058302,209.797009 64.70122,209.789828 C64.2492522,208.927114 63.7022266,208.12664 63.0720788,207.405872 C62.2954781,206.613537 61.2942532,206.126856 60.2299999,206.024377 C59.4591129,205.959015 58.2526748,205.986677 57.6315061,206.600965 Z" id="Path" fill="#2B4F97" fill-rule="nonzero"></path>
            <rect id="Rectangle" fill="#ECEDED" fill-rule="nonzero" x="78" y="81" width="44" height="140"></rect>
            <rect id="Rectangle" fill="#DBDBDD" fill-rule="nonzero" x="84" y="87" width="32" height="4"></rect>
            <rect id="Rectangle" fill="#DBDBDD" fill-rule="nonzero" x="84" y="98" width="32" height="4"></rect>
            <rect id="Rectangle" fill="#DBDBDD" fill-rule="nonzero" x="84" y="109" width="32" height="4"></rect>
            <rect id="Rectangle" fill="#DBDBDD" fill-rule="nonzero" x="84" y="120" width="32" height="4"></rect>
            <rect id="Rectangle" fill="#DBDBDD" fill-rule="nonzero" x="84" y="133" width="32" height="4"></rect>
            <rect id="Rectangle" fill="#DBDBDD" fill-rule="nonzero" x="84" y="142" width="32" height="4"></rect>
            <rect id="Rectangle" fill="#DBDBDD" fill-rule="nonzero" x="84" y="153" width="32" height="4"></rect>
            <path d="M94.0481896,55.8266473 C94.0481896,55.8266473 90.3449411,51.9801279 92.8975237,49.822313 C95.4501055,47.664498 96.6911463,45.7147356 99.1634957,48.0793577 C101.635844,50.4439797 101.113387,51.7512157 100.445511,52.6686549 C99.7776367,53.5860939 95.0772371,56.7718735 94.0481896,55.8266473 Z" id="Path" fill="#FAAF7C" fill-rule="nonzero"></path>
            <path d="M103.96084,53.9746862 C104.024748,53.9649967 104.089114,53.9523677 104.153937,53.9367992 C104.536925,53.8610157 104.849007,53.5975449 104.973914,53.2445447 C105.019259,53.0038362 105.005347,52.7563919 104.933271,52.5216703 C104.625323,51.2167157 104.397712,49.8957405 104.251601,48.5654986 C104.228716,48.2165387 104.158124,47.8719128 104.041611,47.5403447 C103.654263,46.6413349 102.908312,45.9253131 101.96736,45.5493168 C100.965346,45.1194136 99.7704931,45.0669106 98.8817486,44.409277 C97.3143341,43.2498038 94.652045,44.7195586 94.0664082,46.7434926 C93.4789702,48.7741221 94.1109955,48.6863452 93,50.7878496 C93,50.7878496 93.7459799,51.2323687 94.158498,50.8240218 C94.5656142,50.4204925 95.0944879,48.9443687 95.8984305,49.7135405 C96.2385805,50.0396627 95.8871982,51.0526503 96.6414944,50.9446234 C97.0335196,50.8884461 97.3417722,50.5889427 97.7493168,50.5299892 C98.9678358,50.3537819 99.8157659,51.4894941 100.568176,52.2087758 C101.45392,53.055028 102.586437,54.1836363 103.96084,53.9746862 Z" id="Path" fill="#8E5728" fill-rule="nonzero"></path>
            <path d="M77.1485947,77.0023706 C78.0726018,77.168833 79.0250094,77.1700603 79.9495628,77.0059816 C79.9819929,76.9988779 80.016317,77.0056974 80.0421791,77.0243828 C80.8343937,77.6311364 81.7615333,78.0848432 82.7640531,78.3563648 C84.0558038,78.5903054 85.4710684,78.7130738 85.7092127,78.9436816 C85.8833634,79.2202258 85.98266,79.5286252 85.9993259,79.8447238 C86.0028722,79.8735291 85.9923134,79.9023007 85.9703089,79.9237915 C85.9483044,79.9452824 85.9169512,79.957445 85.8841454,79.9572157 C84.8438263,79.9602015 81.1685098,80.0381121 80.8865728,79.9761027 C80.5729517,79.9070801 80.3826096,79.6115472 80.0941472,79.5045412 C79.8623329,79.425706 79.6163192,79.3844466 79.3679213,79.3827449 C79.3252294,79.3811482 78.7546736,79.3619136 78.7546736,79.3696907 L78.7597847,79.8471545 L77.1179329,79.861042 C77.0866806,79.8612462 77.0566332,79.8504046 77.034482,79.8309321 C77.0123309,79.8114596 77,79.7849726 77,79.7573694 L77.0095134,77.1034043 C77.0087142,77.0723732 77.0240975,77.0427371 77.05124,77.0230201 C77.0783824,77.0033031 77.114275,76.9956898 77.1485947,77.0023706 Z" id="Path" fill="#40312B" fill-rule="nonzero"></path>
            <path d="M90.2533469,57 C88.4036289,54.2415567 89.1480436,48 89.1480436,48 C91.242231,49.3117329 93.7744891,49.4826724 96,48.4625399 L95.1767196,50.9268916 L94.2921493,53.5737969 C93.6306676,53.7940528 92.9587399,53.9747803 92.2793391,54.1151798 C91.9442177,54.1880707 91.5699253,54.2630816 91.1594391,54.3353203 C91.0086867,55.2767077 90.7015801,56.1798622 90.2533469,57 L90.2533469,57 Z" id="Path" fill="#FAAF7C" fill-rule="nonzero"></path>
            <path d="M91.0437438,54 C90.8313234,52.5377888 91.399631,51.0714961 92.5940682,50 C93.0320752,50.5149915 93.5013499,51.010401 94,51.484231 L93.0976197,53.5726532 C92.4226466,53.7464967 91.7370101,53.8891561 91.0437438,54 L91.0437438,54 Z" id="Path" fill="#EA8E50" fill-rule="nonzero"></path>
            <path d="M91.5285419,59 C91.5285419,59 94.8978988,64.3006826 99.5290897,66.2770572 C101.1073,66.9506259 102.685748,67.6244334 104.285412,68.2459504 C104.677153,68.3982322 105.07025,68.5470652 105.464702,68.6924493 C105.84369,68.7976612 106.214657,68.9297721 106.574768,69.087772 C106.595743,69.0992329 106.618473,69.1147529 106.621663,69.1384707 C106.626288,69.1731719 106.587848,69.1965713 106.554911,69.2085893 C106.280177,69.2945124 105.988253,69.3103828 105.705792,69.2547514 C105.422594,69.2117729 105.144418,69.1364809 104.859545,69.1060777 C104.812252,69.0946421 104.762312,69.1046331 104.72309,69.133377 C104.687221,69.1793199 104.691399,69.2447624 104.732819,69.2857915 C104.774311,69.3242566 104.824871,69.351634 104.879802,69.3653813 C105.636966,69.6212626 106.398836,69.8634544 107.156718,70.1135257 C107.719767,70.2995272 108.304507,70.933301 107.819376,71.4955235 C107.659609,71.668247 107.453359,71.7913752 107.225305,71.8501758 C106.610107,71.9925909 105.975745,72.0338568 105.347228,71.9723462 C104.378865,71.8974379 103.435791,71.6272747 102.575053,71.1781988 C100.775133,70.3071677 99.2086464,68.9978355 97.3541763,68.2344099 C95.6883193,67.5486639 89.4174302,65.419238 88,61.3069908 L91.5285419,59 Z" id="Path" fill="#F5B690" fill-rule="nonzero"></path>
            <path d="M81.0216253,58 C80.9855735,59.9483238 80.9915193,61.901193 81.0629452,63.8484801 C81.0941042,64.7002339 81.1336175,65.5550179 81.2340948,66.4015085 C81.5543787,68.24695 82.2478823,69.9970686 83.2669681,71.5316479 C84.4235694,73.5512235 85.7939878,75.4243 87.3516059,77.1144987 C87.7948596,77.5227214 88.2608263,77.9024038 88.746996,78.2514989 C89.6066583,78.9213546 89.8779085,80.2381798 90.5098226,81.1324381 C91.1098148,82.1520249 92.1166422,82.8252298 93.2434771,82.9602675 C93.7024672,83.0201267 94.1670721,83.0123171 94.6240399,82.9370619 C95.7653389,82.6042067 93.9760942,81.3262178 93.6367299,81.0078761 C93.2817861,80.6755803 92.3974372,80.366091 92.3296998,79.7957565 C92.2827357,79.3993453 92.8002492,79.5736671 92.9893115,79.6386591 C93.182965,79.7052456 94.3134262,80.1436032 94.1683179,79.5762984 C94.0926024,79.2812428 93.454592,79.0066819 93.2344451,78.8728698 C92.7463599,78.5762196 92.2484906,78.3071611 91.7457284,78.042887 C91.2979846,77.80756 91.111105,77.267768 90.8719165,76.8393792 C90.6048807,76.3612291 90.3389495,75.8823891 90.0741209,75.402857 C89.4253478,74.2282965 88.7818429,73.0503868 88.154896,71.8621899 C87.8379604,71.2620309 87.5377333,70.6507874 87.2280229,70.0489537 C86.8290384,69.3373135 86.6199895,68.5242085 86.6232039,67.6964835 C86.6212467,67.1063723 86.632988,66.5155435 86.6467615,65.9252728 C86.6788239,64.5501543 86.7290998,63.1755142 86.7841926,61.8011931 C86.8129439,61.0860422 86.8435506,60.3709976 86.8760148,59.6560593 L81.0216253,58 Z" id="Path" fill="#F5B690" fill-rule="nonzero"></path>
            <polygon id="Rectangle" fill="#F5B690" fill-rule="nonzero" transform="translate(79.101331, 76.076239) rotate(-0.547700) translate(-79.101331, -76.076239) " points="78.1635617 75.0341707 80.039101 75.0341692 80.0390995 77.1183067 78.1635602 77.1183082"></polygon>
            <polygon id="Rectangle" fill="#F5B690" fill-rule="nonzero" transform="translate(48.190376, 73.624408) rotate(8.910400) translate(-48.190376, -73.624408) " points="47.2525895 72.4922555 49.1281325 72.4922802 49.1281623 74.7565599 47.2526193 74.7565353"></polygon>
            <path d="M47.9923796,72.7461521 C47.7019395,73.633508 47.5560845,74.5849359 47.5634292,75.5442426 C47.5648978,75.5781692 47.5535419,75.6109798 47.5327853,75.6327827 C46.8655922,76.2933469 46.3158053,77.1217753 45.9187264,78.0648759 C45.5115642,79.3050769 45.1860767,80.6928443 44.9418177,80.8809617 C44.6661287,80.9952609 44.3730985,81.0278384 44.0857006,80.9761409 C44.0591995,80.9734949 44.0348642,80.9567491 44.0188317,80.9301259 C44.0027991,80.9035026 43.9965995,80.8695436 44.0017963,80.8368124 C44.1572454,79.7970459 44.6456361,76.1072361 44.7443845,75.8388964 C44.8542182,75.5404035 45.1495079,75.4140319 45.2897944,75.1488916 C45.3960537,74.934276 45.4706177,74.6973649 45.5099078,74.4495289 C45.5178077,74.4072984 45.6219077,73.8416656 45.614836,73.839826 L45.1837832,73.7417681 L45.4208431,72.0981378 C45.4253101,72.0667645 45.4396071,72.0389479 45.4605362,72.0209101 C45.4814653,72.0028723 45.5072799,71.9961185 45.5322059,72.0021594 L47.9225549,72.5849883 C47.9506891,72.5909221 47.9750871,72.6127678 47.9887183,72.6442302 C48.0023495,72.6756927 48.0036997,72.7132769 47.9923796,72.7461521 L47.9923796,72.7461521 Z" id="Path" fill="#40312B" fill-rule="nonzero"></path>
            <path d="M90,50.9532048 L87.1570355,62 L79.8941747,60.653038 L71.5318326,61.881598 L64,53.3905786 C64,53.3905786 81.246925,43.1016304 90,50.9532048 Z" id="Path" fill="#40649B" fill-rule="nonzero"></path>
            <path d="M63.4636927,53 L71.8051659,62.4866013 C71.8051659,62.4866013 72.3182594,73.220384 71.6791472,75.9115452 C71.4915614,77.1338748 71.0733738,78.3051637 70.4488365,79.3574825 C69.7740746,80.1812419 68.8476104,80.7366035 67.825967,80.9297416 C64.9704293,81.6510355 48,76.580856 48,76.580856 L48.2997162,73.0703292 C52.8847882,72.0151456 57.6702857,72.4665144 61.9999298,74.3625352 C62.9174283,74.7718498 62.712285,74.2083874 62.4506019,73.6270789 C62.1349667,72.9257594 61.8125875,72.2277143 61.4956192,71.5270497 C60.7061784,69.7819781 59.9049747,68.0315035 59.2465715,66.2263445 C59.0386579,65.7369587 58.888864,65.2228629 58.8005261,64.6955081 C58.6020381,63.1345399 58.6096372,61.5525237 58.8231107,59.993712 C59.311659,56.9259814 61.3270975,54.937122 63.4636927,53 Z" id="Path" fill="#222C55" fill-rule="nonzero"></path>
            <path d="M69,60.9774629 C71.7338614,59.7960327 74.5093377,58.6618345 77.3431731,57.719477 C79.4810466,57.0085564 82.0792289,56.5937806 84.2028204,57.5962015 C85.4308065,58.1159297 86.1524198,59.3518512 85.9727263,60.6275524 C85.4832791,63.7966633 80.6264008,76 80.6264008,76 L77.1500374,75.6987386 C76.1736611,72.2775262 76.3915671,68.6438617 77.7704852,65.3525647 C78.2081394,64.3377848 76.04753,63.8276791 75.183138,64.2241919 C74.3187463,64.6207046 71.4962378,66.0347525 70.9190464,66.2065196 C70.341855,66.3782867 69,60.9774629 69,60.9774629 Z" id="Path" fill="#222C55" fill-rule="nonzero"></path>
            <path d="M88.6131151,53 C88.8962423,55.2938382 89.3607855,57.5474017 90,59.7279742 L87.2081842,62 L86,54.6341404 L88.6131151,53 Z" id="Path" fill="#40649B" fill-rule="nonzero"></path>
            <polygon id="Rectangle" fill="#317299" fill-rule="nonzero" transform="translate(107.945603, 70.272818) rotate(-32.210500) translate(-107.945603, -70.272818) " points="90.3911355 67.075579 125.500318 67.0742178 125.50007 73.4700565 90.390888 73.4714177"></polygon>
        </g>
    </g>
</svg>