<!-- Generated by IcoMoon.io -->
<svg version="1.1" xmlns="http://www.w3.org/2000/svg" width="269" height="32" viewBox="0 0 269 32">
<title>Docs_logo</title>
<path fill="#fff" d="M50.7 17.6h2.8v3.4c-0.3 0.2-0.6 0.4-1 0.6-0.4 0.1-0.9 0.2-1.3 0.2-0.7 0-1.3-0.1-1.9-0.4-0.5-0.3-1-0.6-1.4-1.1s-0.6-1-0.8-1.7-0.3-1.4-0.3-2.2c0-0.8 0.1-1.5 0.3-2.2s0.5-1.2 0.9-1.7c0.4-0.5 0.8-0.8 1.4-1.1 0.5-0.2 1.1-0.4 1.8-0.4s1.2 0.1 1.6 0.4c0.4 0.2 0.8 0.5 1.1 0.9l0.9-1.1c-0.4-0.4-0.9-0.8-1.5-1.1s-1.4-0.5-2.3-0.5c-0.9 0-1.7 0.2-2.4 0.5s-1.4 0.8-1.9 1.3-1 1.3-1.3 2.1c-0.3 0.8-0.5 1.8-0.5 2.8 0 1.1 0.1 2 0.4 2.9 0.3 0.8 0.7 1.6 1.2 2.1s1.1 1 1.9 1.3c0.7 0.3 1.5 0.5 2.4 0.5s1.7-0.1 2.4-0.4c0.7-0.3 1.3-0.6 1.7-1.1v-5.5h-4.3v1.5z"></path>
<path fill="#fff" d="M63.9 20.2c-0.5 0.6-0.9 1-1.3 1.2-0.4 0.3-0.8 0.4-1.3 0.4-0.6 0-1.1-0.2-1.4-0.6s-0.4-1.1-0.4-2v-5.9h-1.7v6.2c0 1.3 0.2 2.2 0.7 2.8s1.2 1 2.3 1c0.7 0 1.3-0.2 1.8-0.5s1-0.7 1.4-1.3h0.1l0.1 1.5h1.4v-9.7h-1.6v6.9z"></path>
<path fill="#fff" d="M69.7 9.2c-0.3 0-0.6 0.1-0.8 0.3s-0.3 0.5-0.3 0.8c0 0.3 0.1 0.6 0.3 0.8s0.5 0.3 0.8 0.3 0.6-0.1 0.8-0.3c0.2-0.2 0.3-0.5 0.3-0.8s-0.1-0.6-0.3-0.8c-0.2-0.2-0.5-0.3-0.8-0.3z"></path>
<path fill="#fff" d="M68.9 13.3h1.6v9.7h-1.6v-9.7z"></path>
<path fill="#fff" d="M79.9 12.5l0.1 1.7c-0.4-0.3-0.8-0.6-1.3-0.8-0.4-0.2-0.9-0.3-1.5-0.3s-1.1 0.1-1.6 0.4c-0.5 0.2-1 0.6-1.3 1-0.4 0.4-0.7 1-0.9 1.6s-0.4 1.3-0.4 2.1c0 1.6 0.4 2.9 1.1 3.8s1.7 1.3 2.9 1.3c0.6 0 1.1-0.1 1.6-0.4s0.9-0.6 1.3-1h0.1l0.1 1.1h1.4v-14.2h-1.7v3.7zM79.9 20.5c-0.4 0.5-0.8 0.8-1.2 1s-0.8 0.3-1.3 0.3c-0.9 0-1.5-0.3-2-1s-0.7-1.6-0.7-2.7c0-0.6 0.1-1.1 0.2-1.5 0.1-0.5 0.3-0.8 0.6-1.2 0.3-0.3 0.5-0.6 0.9-0.8 0.3-0.2 0.7-0.3 1.1-0.3s0.8 0.1 1.2 0.2c0.4 0.2 0.8 0.4 1.2 0.8v5.2z"></path>
<path fill="#fff" d="M91.4 14.3c-0.3-0.4-0.7-0.7-1.2-0.9s-1-0.3-1.7-0.3c-0.6 0-1.1 0.1-1.6 0.3s-1 0.6-1.4 1c-0.4 0.4-0.7 1-1 1.6-0.2 0.6-0.4 1.4-0.4 2.2s0.1 1.5 0.4 2.1c0.2 0.6 0.6 1.2 1 1.6s0.9 0.8 1.5 1c0.6 0.2 1.2 0.4 1.8 0.4 0.7 0 1.3-0.1 1.8-0.3s1-0.4 1.4-0.7l-0.6-1.1c-0.4 0.2-0.7 0.4-1.1 0.5s-0.8 0.2-1.3 0.2c-0.9 0-1.7-0.3-2.3-0.9s-0.9-1.4-1-2.5h6.6c0-0.2 0.1-0.5 0.1-0.9 0-0.7-0.1-1.3-0.3-1.9-0.1-0.5-0.4-1-0.7-1.4zM85.8 17.4c0.1-0.5 0.2-0.9 0.3-1.3 0.2-0.4 0.4-0.7 0.6-1 0.3-0.3 0.5-0.5 0.9-0.6 0.3-0.1 0.6-0.2 1-0.2 0.8 0 1.4 0.3 1.8 0.8s0.6 1.3 0.6 2.3h-5.2z"></path>
<path fill="#fff" d="M104.2 18.9c-0.1 0.5-0.2 0.9-0.3 1.4-0.1 0.4-0.2 0.9-0.3 1.3h-0.1c-0.1-0.5-0.2-0.9-0.3-1.3s-0.2-0.9-0.4-1.4l-1.5-5.6h-1.6l-1.5 5.6c-0.1 0.5-0.2 0.9-0.3 1.3s-0.2 0.9-0.3 1.3h-0.1c-0.1-0.5-0.2-0.9-0.3-1.3s-0.2-0.9-0.3-1.4l-1.4-5.6h-1.7l2.7 9.7h1.9l1.4-5.2c0.1-0.5 0.3-0.9 0.4-1.4s0.2-0.9 0.3-1.4h0.1c0.1 0.5 0.2 1 0.3 1.4 0.1 0.5 0.2 0.9 0.3 1.4l1.4 5.2h2l2.6-9.7h-1.6l-1.4 5.7z"></path>
<path fill="#fff" d="M110.1 9.2c-0.3 0-0.6 0.1-0.8 0.3s-0.3 0.5-0.3 0.8c0 0.3 0.1 0.6 0.3 0.8s0.5 0.3 0.8 0.3 0.6-0.1 0.8-0.3c0.2-0.2 0.3-0.5 0.3-0.8s-0.1-0.6-0.3-0.8c-0.2-0.2-0.5-0.3-0.8-0.3z"></path>
<path fill="#fff" d="M109.3 13.3h1.6v9.7h-1.6v-9.7z"></path>
<path fill="#fff" d="M116.9 13.6c-0.5 0.4-0.9 0.8-1.2 1.5h-0.1l-0.1-1.8h-1.4v9.7h1.6v-6.2c0.3-0.8 0.7-1.4 1.2-1.7 0.4-0.3 0.9-0.5 1.3-0.5 0.2 0 0.4 0 0.5 0s0.3 0.1 0.4 0.1l0.3-1.4c-0.3-0.1-0.7-0.2-1-0.2-0.5-0.1-1 0.1-1.5 0.5z"></path>
<path fill="#fff" d="M127.4 14.3c-0.3-0.4-0.7-0.7-1.2-0.9s-1-0.3-1.7-0.3c-0.6 0-1.1 0.1-1.6 0.3s-1 0.6-1.4 1c-0.4 0.4-0.7 1-1 1.6-0.2 0.6-0.4 1.4-0.4 2.2s0.1 1.5 0.4 2.1c0.2 0.6 0.6 1.2 1 1.6s0.9 0.8 1.5 1c0.6 0.2 1.2 0.4 1.8 0.4 0.7 0 1.3-0.1 1.8-0.3s1-0.4 1.4-0.7l-0.6-1.1c-0.4 0.2-0.7 0.4-1.1 0.5s-0.8 0.2-1.3 0.2c-0.9 0-1.7-0.3-2.3-0.9s-0.9-1.4-1-2.5h6.6c0-0.2 0.1-0.5 0.1-0.9 0-0.7-0.1-1.3-0.3-1.9-0.1-0.5-0.3-1-0.7-1.4zM121.8 17.4c0.1-0.5 0.2-0.9 0.3-1.3 0.2-0.4 0.4-0.7 0.6-1 0.3-0.3 0.5-0.5 0.9-0.6 0.3-0.1 0.6-0.2 1-0.2 0.8 0 1.4 0.3 1.8 0.8s0.6 1.3 0.6 2.3h-5.2z"></path>
<path fill="#fff" d="M138.3 9.9h-3.3v13.1h3.4c1 0 1.9-0.2 2.6-0.5s1.4-0.7 1.9-1.3c0.5-0.6 0.9-1.3 1.2-2.1s0.4-1.8 0.4-2.8c0-2.1-0.5-3.7-1.6-4.8-1-1.1-2.6-1.6-4.6-1.6zM141.6 20.3c-0.8 0.9-1.9 1.4-3.5 1.4h-1.5v-10.5h1.5c1.5 0 2.7 0.4 3.5 1.3s1.1 2.2 1.1 3.8c0.1 1.7-0.3 3-1.1 4z"></path>
<path fill="#fff" d="M154.1 14.4c-0.4-0.4-0.9-0.8-1.4-1s-1.1-0.3-1.7-0.3c-0.6 0-1.2 0.1-1.7 0.3s-1 0.6-1.4 1c-0.4 0.4-0.7 1-1 1.6-0.2 0.6-0.4 1.4-0.4 2.2s0.1 1.5 0.4 2.1c0.2 0.6 0.6 1.2 1 1.6s0.9 0.8 1.4 1c0.5 0.2 1.1 0.3 1.7 0.3s1.2-0.1 1.7-0.3c0.5-0.2 1-0.6 1.4-1s0.7-1 1-1.6c0.2-0.6 0.4-1.3 0.4-2.1s-0.1-1.5-0.4-2.2c-0.3-0.6-0.6-1.2-1-1.6zM153.6 19.7c-0.1 0.5-0.3 0.8-0.6 1.2-0.2 0.3-0.5 0.6-0.9 0.8-0.3 0.2-0.7 0.3-1.1 0.3s-0.8-0.1-1.1-0.3c-0.3-0.2-0.6-0.4-0.9-0.8-0.2-0.3-0.4-0.7-0.6-1.2-0.1-0.5-0.2-1-0.2-1.5 0-0.6 0.1-1.1 0.2-1.5 0.1-0.5 0.3-0.9 0.6-1.2 0.2-0.3 0.5-0.6 0.9-0.8s0.7-0.3 1.1-0.3c0.4 0 0.8 0.1 1.1 0.3s0.6 0.4 0.9 0.8c0.2 0.3 0.4 0.7 0.6 1.2 0.1 0.5 0.2 1 0.2 1.5s-0.1 1-0.2 1.5z"></path>
<path fill="#fff" d="M163.3 21.6c-0.4 0.2-0.8 0.3-1.3 0.3-0.4 0-0.8-0.1-1.2-0.3s-0.7-0.4-0.9-0.8c-0.3-0.3-0.5-0.7-0.6-1.2s-0.2-1-0.2-1.5c0-0.6 0.1-1.1 0.2-1.5 0.2-0.5 0.4-0.9 0.6-1.2 0.3-0.3 0.6-0.6 1-0.8s0.8-0.3 1.2-0.3c0.4 0 0.7 0.1 1.1 0.2 0.3 0.2 0.6 0.4 0.9 0.6l0.8-1.1c-0.3-0.3-0.7-0.6-1.2-0.8s-1-0.3-1.6-0.3c-0.6 0-1.2 0.1-1.8 0.3s-1.1 0.6-1.5 1c-0.4 0.4-0.8 1-1 1.6-0.3 0.6-0.4 1.4-0.4 2.2s0.1 1.5 0.4 2.1c0.2 0.6 0.6 1.2 1 1.6s0.9 0.8 1.5 1 1.2 0.3 1.8 0.3c0.6 0 1.2-0.1 1.7-0.3s1-0.5 1.5-0.9l-0.7-1.1c-0.6 0.5-1 0.7-1.3 0.9z"></path>
<path fill="#fff" d="M173.1 20.2c-0.5 0.6-0.9 1-1.3 1.2-0.4 0.3-0.8 0.4-1.3 0.4-0.6 0-1.1-0.2-1.4-0.6s-0.4-1.1-0.4-2v-5.9h-1.7v6.2c0 1.3 0.2 2.2 0.7 2.8s1.2 1 2.3 1c0.7 0 1.3-0.2 1.8-0.5s1-0.7 1.4-1.3h0.1l0.1 1.5h1.4v-9.7h-1.6v6.9z"></path>
<path fill="#fff" d="M188.5 13c-0.6 0-1.2 0.2-1.7 0.5s-1 0.8-1.5 1.4c-0.2-0.6-0.5-1-0.9-1.4-0.4-0.3-1-0.5-1.8-0.5-0.6 0-1.1 0.2-1.6 0.5s-1 0.7-1.4 1.2h-0.1l-0.1-1.4h-1.4v9.7h1.6v-7c0.9-1 1.7-1.5 2.4-1.5 0.6 0 1.1 0.2 1.4 0.6s0.4 1.1 0.4 2v5.9h1.6v-7c0.9-1 1.7-1.5 2.4-1.5 0.6 0 1.1 0.2 1.4 0.6s0.4 1.1 0.4 2v5.9h1.6v-6.2c0-1.3-0.2-2.2-0.7-2.8s-1-1-2-1z"></path>
<path fill="#fff" d="M201.1 14.3c-0.3-0.4-0.7-0.7-1.2-0.9s-1-0.3-1.7-0.3c-0.6 0-1.1 0.1-1.6 0.3s-1 0.6-1.4 1c-0.4 0.4-0.7 1-1 1.6-0.2 0.6-0.4 1.4-0.4 2.2s0.1 1.5 0.4 2.1c0.2 0.6 0.6 1.2 1 1.6s0.9 0.8 1.5 1c0.6 0.2 1.2 0.4 1.8 0.4 0.7 0 1.3-0.1 1.8-0.3s1-0.4 1.4-0.7l-0.6-1.1c-0.4 0.2-0.7 0.4-1.1 0.5s-0.8 0.2-1.3 0.2c-0.9 0-1.7-0.3-2.3-0.9s-0.9-1.4-1-2.5h6.6c0-0.2 0.1-0.5 0.1-0.9 0-0.7-0.1-1.3-0.3-1.9-0.1-0.5-0.4-1-0.7-1.4zM195.5 17.4c0.1-0.5 0.2-0.9 0.3-1.3 0.2-0.4 0.4-0.7 0.6-1 0.3-0.3 0.5-0.5 0.8-0.6s0.6-0.2 1-0.2c0.8 0 1.3 0.3 1.8 0.8 0.4 0.5 0.6 1.3 0.6 2.3h-5.1z"></path>
<path fill="#fff" d="M209.3 13c-0.7 0-1.3 0.2-1.8 0.5s-1 0.7-1.5 1.2v0l-0.1-1.4h-1.4v9.7h1.6v-7c0.5-0.5 0.9-0.9 1.3-1.1 0.4-0.3 0.8-0.4 1.3-0.4 0.6 0 1.1 0.2 1.4 0.6s0.4 1.1 0.4 2v5.9h1.6v-6.2c0-1.3-0.2-2.2-0.7-2.8-0.3-0.6-1-1-2.1-1z"></path>
<path fill="#fff" d="M219.5 21.8c-0.2 0.1-0.4 0.1-0.6 0.1-0.6 0-1-0.2-1.2-0.5s-0.3-0.8-0.3-1.4v-5.4h2.6v-1.3h-2.6v-2.7h-1.4l-0.2 2.7-1.5 0.1v1.2h1.4v5.4c0 0.5 0 0.9 0.1 1.3s0.2 0.7 0.5 1c0.2 0.3 0.5 0.5 0.9 0.7s0.8 0.2 1.3 0.2c0.3 0 0.6 0 0.9-0.1s0.6-0.2 0.9-0.2l-0.3-1.2c-0.2 0-0.3 0.1-0.5 0.1z"></path>
<path fill="#fff" d="M225.6 13c-0.8 0-1.5 0.1-2.2 0.4s-1.2 0.6-1.7 0.8l0.7 1.1c0.4-0.3 0.8-0.5 1.3-0.7s1-0.3 1.6-0.3c0.4 0 0.7 0.1 1 0.2s0.5 0.3 0.6 0.5c0.2 0.2 0.3 0.5 0.3 0.8 0.1 0.3 0.1 0.6 0.1 0.9-2.1 0.2-3.6 0.6-4.6 1.2s-1.4 1.4-1.4 2.5c0 0.9 0.3 1.6 0.8 2 0.5 0.5 1.2 0.7 2 0.7 0.6 0 1.2-0.1 1.7-0.4s1-0.6 1.5-1v0l0.1 1.2h1.4v-6c0-1.2-0.3-2.2-0.8-2.9s-1.2-1-2.4-1zM227.4 20.6c-0.5 0.4-0.9 0.8-1.3 1s-0.9 0.3-1.3 0.3c-0.5 0-0.9-0.1-1.2-0.4-0.3-0.2-0.5-0.6-0.5-1.2 0-0.3 0.1-0.6 0.2-0.9s0.4-0.5 0.7-0.7c0.3-0.2 0.8-0.4 1.3-0.5 0.6-0.1 1.2-0.3 2.1-0.4v2.8z"></path>
<path fill="#fff" d="M236.1 21.8c-0.2 0.1-0.4 0.1-0.6 0.1-0.6 0-1-0.2-1.2-0.5s-0.3-0.8-0.3-1.4v-5.4h2.6v-1.3h-2.6v-2.7h-1.4l-0.2 2.7-1.5 0.1v1.2h1.4v5.4c0 0.5 0 0.9 0.1 1.3s0.2 0.7 0.5 1c0.2 0.3 0.5 0.5 0.9 0.7s0.8 0.2 1.3 0.2c0.3 0 0.6 0 0.9-0.1s0.6-0.2 0.9-0.2l-0.3-1.2c-0.1 0-0.3 0.1-0.5 0.1z"></path>
<path fill="#fff" d="M239.7 9.2c-0.3 0-0.6 0.1-0.8 0.3s-0.3 0.5-0.3 0.8c0 0.3 0.1 0.6 0.3 0.8s0.5 0.3 0.8 0.3c0.3 0 0.6-0.1 0.8-0.3s0.3-0.5 0.3-0.8c0-0.3-0.1-0.6-0.3-0.8s-0.5-0.3-0.8-0.3z"></path>
<path fill="#fff" d="M238.9 13.3h1.6v9.7h-1.6v-9.7z"></path>
<path fill="#fff" d="M250.7 14.4c-0.4-0.4-0.9-0.8-1.4-1s-1.1-0.3-1.7-0.3c-0.6 0-1.2 0.1-1.7 0.3s-1 0.6-1.4 1c-0.4 0.4-0.7 1-1 1.6-0.2 0.6-0.4 1.4-0.4 2.2s0.1 1.5 0.4 2.1c0.2 0.6 0.6 1.2 1 1.6s0.9 0.8 1.4 1c0.5 0.2 1.1 0.3 1.7 0.3s1.2-0.1 1.7-0.3c0.5-0.2 1-0.6 1.4-1s0.7-1 1-1.6c0.2-0.6 0.4-1.3 0.4-2.1s-0.1-1.5-0.4-2.2c-0.3-0.6-0.6-1.2-1-1.6zM250.2 19.7c-0.1 0.5-0.3 0.8-0.6 1.2-0.2 0.3-0.5 0.6-0.9 0.8-0.3 0.2-0.7 0.3-1.1 0.3s-0.8-0.1-1.1-0.3c-0.3-0.2-0.6-0.4-0.9-0.8-0.2-0.3-0.4-0.7-0.6-1.2-0.1-0.5-0.2-1-0.2-1.5 0-0.6 0.1-1.1 0.2-1.5 0.1-0.5 0.3-0.9 0.6-1.2 0.2-0.3 0.5-0.6 0.9-0.8s0.7-0.3 1.1-0.3c0.4 0 0.8 0.1 1.1 0.3s0.6 0.4 0.9 0.8c0.2 0.3 0.4 0.7 0.6 1.2 0.1 0.5 0.2 1 0.2 1.5s-0.1 1-0.2 1.5z"></path>
<path fill="#fff" d="M261.7 14c-0.5-0.6-1.2-1-2.2-1-0.7 0-1.3 0.2-1.8 0.5s-1 0.7-1.5 1.2h-0.1l-0.1-1.4h-1.4v9.7h1.6v-7c0.5-0.5 0.9-0.9 1.3-1.1 0.4-0.3 0.8-0.4 1.3-0.4 0.6 0 1.1 0.2 1.4 0.6s0.4 1.1 0.4 2v5.9h1.6v-6.2c0.2-1.2 0-2.2-0.5-2.8z"></path>
<path fill="#fff" d="M0 6.4v25.6h19.2v-6.4h-12.8v-19.2h25.6v-6.4h-32z"></path>
<path fill="#fff" d="M12.8 19.2h12.8v12.8h6.4v-19.2h-19.2z"></path>
</svg>
