<svg width="24" height="24" viewBox="0 0 24 24" fill="none" xmlns="http://www.w3.org/2000/svg">
<path d="M8.13223 11.7857C7.26917 10.8259 6.5496 9.78182 5.98225 8.68182H6.61228C7.13416 9.6476 7.77604 10.5662 8.53798 11.4101L8.90969 11.8218L9.28074 11.4095C10.5697 9.97726 11.519 8.33859 12.1192 6.60988L12.3497 5.94591H11.6468H2.5V5.22727H8.04545H8.54545V4.72727V3.5H9.27273V4.72727V5.22727H9.77273H15.3182V5.95455H13.2877H12.919L12.8101 6.30679C12.2019 8.27279 11.1697 10.1314 9.7204 11.7502L9.70417 11.7665L9.34852 12.1221L9.70628 12.4756L11.67 14.4161L11.3982 15.1456L9.26264 13.0101L8.90909 12.6565L8.55554 13.0101L4.59091 16.9747L4.07411 16.4579L8.11155 12.476L8.45151 12.1407L8.13223 11.7857ZM14.1945 17.1818H13.8475L13.7261 17.5069L12.8802 19.7727H12.2215L15.7329 10.4091H16.7671L20.2785 19.7727H19.6187L18.7647 17.5056L18.6428 17.1818H18.2968H14.1945ZM14.3826 15.7793L14.13 16.4545H14.8509H17.6491H18.37L18.1174 15.7793L16.7183 12.0398L16.25 10.7881L15.7817 12.0398L14.3826 15.7793Z" fill="white" stroke="white"/>
</svg>
