<svg width="24" height="24" viewBox="0 0 24 24" fill="none" xmlns="http://www.w3.org/2000/svg">
<path d="M8.1 8.5H6.65L4 15.1H5.65L6.2 13.65H8.45L9 15.1H10.75L8.1 8.5ZM7.9 12.15H6.75L7.35 10.65L7.9 12.15Z" fill="white"/>
<path d="M16.2 13.65L19.2 9.9V8.5H14.5V9.95H17.25L14.25 13.7V15.1H19.25V13.65H16.2Z" fill="white"/>
<path d="M22.8 5.44995C22.7 5.24995 22.5 5.09995 22.25 4.94995C21.55 4.59995 20.85 4.34995 20.1 4.19995C19.35 4.04995 18.6 3.94995 17.8 3.94995C16.75 3.94995 15.75 4.09995 14.8 4.39995C13.8 4.69995 12.9 5.09995 12.05 5.69995C11.2 5.09995 10.25 4.69995 9.25 4.39995C8.25 4.09995 7.25 3.94995 6.2 3.94995C5.4 3.94995 4.65 4.04995 3.9 4.19995C3.15 4.34995 2.4 4.59995 1.7 4.94995C1.45 5.04995 1.3 5.24995 1.2 5.44995C1.05 5.64995 1 5.89995 1 6.14995V17.75C1 18.2 1.2 18.5 1.55 18.75C1.9 19 2.3 19 2.65 18.85C3.25 18.65 3.8 18.45 4.4 18.3C5 18.15 5.6 18.05 6.2 18.05C7.25 18.05 8.25 18.2 9.25 18.55C10.25 18.9 11.2 19.4 12.05 20C12.9 19.4 13.8 18.9 14.75 18.55C15.7 18.2 16.75 18.05 17.8 18.05C18.4 18.05 19 18.1 19.6 18.25C20.2 18.4 20.75 18.6 21.35 18.8C21.7 19.05 22.1 19.05 22.45 18.8C22.8 18.55 23 18.2 23 17.75V6.14995C23 5.89995 22.95 5.64995 22.8 5.44995ZM21.5 17.05C21 16.9 20.45 16.75 19.75 16.65C19.05 16.55 18.4 16.5 17.8 16.5C16.9 16.5 16.05 16.6 15.25 16.8C14.6 16.95 13.95 17.2 13.35 17.45C12.9 17.65 12.05 18.25 12.05 18.25C11.65 17.95 11.25 17.7 10.8 17.5C10.15 17.2 9.5 17 8.8 16.8C7.95 16.6 7.1 16.5 6.2 16.5C5.55 16.5 4.9 16.55 4.25 16.65C3.6 16.75 3 16.95 2.5 17.15V6.29995C3.1 6.04995 3.75 5.84995 4.35 5.69995C4.95 5.54995 5.6 5.44995 6.2 5.44995C7.1 5.44995 8 5.59995 8.85 5.84995C9.7 6.09995 12.05 7.39995 12.05 7.39995C12.05 7.39995 14.35 6.09995 15.2 5.84995C16.05 5.59995 16.9 5.44995 17.8 5.44995C18.45 5.44995 19.05 5.49995 19.7 5.64995C20.35 5.79995 20.95 5.99995 21.5 6.24995V17.05Z" fill="white"/>
<path d="M12.8992 11.05H11.1992V12.5H12.8992V11.05Z" fill="white"/>
</svg>
