<?xml version="1.0" encoding="UTF-8"?>
<svg width="491px" height="373px" viewBox="0 0 491 373" version="1.1" xmlns="http://www.w3.org/2000/svg" xmlns:xlink="http://www.w3.org/1999/xlink">
    <title>hero illustration</title>
    <g id="Page-1" stroke="none" stroke-width="1" fill="none" fill-rule="evenodd">
        <g id="Desktop(Banff-Blue-Illustration)" transform="translate(-859.000000, -108.000000)">
            <g id="Hero-" transform="translate(261.000000, 56.000000)">
                <g id="hero-illustration" transform="translate(598.000000, 53.000000)">
                    <path d="M312.370695,370.003005 C312.370695,370.003005 327.927642,318.736173 397.083939,351.03449 C424.744398,363.952935 433.824607,354.304134 443.13501,353.114924 C457.663176,351.259871 463.701589,361.117555 467.873656,370.002584 L312.370695,370.003005 Z" id="Path" fill="#EDF3F9" fill-rule="nonzero"></path>
                    <path d="M190.294493,370.003005 L232.136094,370.003005 C232.136094,370.003005 208.429695,324.734862 175.356055,324.294504 C141.682397,323.846055 131.938293,346.563343 116.779221,348.455488 C96.9845426,350.926055 86.3339514,337.395879 71.9801907,338.507651 C43.1219035,340.743067 29.3664789,370.003005 29.3664789,370.003005 L190.294493,370.003005 Z" id="Path" fill="#EDF3F9" fill-rule="nonzero"></path>
                    <path d="M80.0881428,370.401334 C70.5981869,351.992646 56.3827947,345.411855 50.2058027,336.233673 C48.3479667,333.473106 46.7282044,330.486212 46.6040195,327.40076 C46.4026747,324.125073 48.3761793,321.105961 51.4572128,319.976237 C54.281737,318.995597 57.6593149,319.672893 60.6036114,320.754404 C69.3129211,324.134019 76.5133349,330.538331 80.8860993,338.794393 C85.0551198,346.458481 89.1932516,358.474984 88.5083433,370.401334" id="Path" stroke="#9ABFE2" stroke-width="0.796005" fill="#FFFFFF" fill-rule="nonzero" stroke-linejoin="round"></path>
                    <path d="M49.0951776,321.362458 C49.0951776,321.362458 78.4910742,336.42522 85.0916818,370.401334" id="Path" stroke="#9ABFE2" stroke-width="0.796005" stroke-linejoin="round"></path>
                    <path d="M87.5333551,370.401334 C87.4940614,352.64462 83.3985853,339.262806 78.2858854,323.833972 C75.7406197,316.153177 72.5163292,308.37288 70.6393717,300.584806 C69.2752286,294.924555 68.1598757,287.75084 71.4330206,283.168317 C75.1597242,277.95042 82.3419627,280.216622 87.5890387,283.705342 C93.8535485,287.870518 98.2901654,294.359686 101.124986,301.036933 C106.13735,312.843081 106.963674,325.86229 107.108976,337.900437 C107.027513,348.894017 105.462867,359.826315 102.4574,370.401334" id="Path" stroke="#9ABFE2" stroke-width="0.796005" fill="#FFFFFF" fill-rule="nonzero" stroke-linejoin="round"></path>
                    <path d="M77.1434261,280.021818 C77.1434261,280.021818 99.1986486,319.668901 95.2136992,370.401334" id="Path" stroke="#9ABFE2" stroke-width="0.796005" stroke-linejoin="round"></path>
                    <path d="M310.22467,370.40165 C309.0716,351.719457 311.179066,328.806629 317.255723,314.106472 C321.97496,302.690038 329.869949,291.973281 340.583473,285.217649 C348.302901,280.349959 363.069876,272.533516 370.901826,281.077796 C382.406898,293.632374 357.22646,313.71224 350.535288,322.384497 C339.420631,336.789927 330.245866,352.385091 326.566546,370.40165" id="Path" stroke="#9ABFE2" stroke-width="0.796005" fill="#FFFFFF" fill-rule="nonzero" stroke-linejoin="round"></path>
                    <path d="M285.449042,370.401334 C284.142999,354.808587 274.455839,340.264462 264.72056,328.015119 C254.985281,315.765775 244.521807,303.20857 241.149167,287.929989 C240.111141,283.227683 239.874853,277.981732 242.465927,273.922994 C246.425976,267.720149 255.34134,266.835859 262.403071,268.904945 C272.173967,271.767643 280.327832,278.874637 285.956813,287.358815 C291.585794,295.842993 294.897708,305.657703 297.294624,315.553424 C301.546536,333.50549 303.089933,351.992568 301.873602,370.401334" id="Path" stroke="#9ABFE2" stroke-width="0.796005" fill="#FFFFFF" fill-rule="nonzero" stroke-linejoin="round"></path>
                    <path d="M408.180419,370.401334 C408.95274,347.710944 413.196461,329.082864 429.90091,312.376979 C435.141051,307.136387 444.911527,300.33568 453.721302,304.269381 C458.084585,306.217844 458.162962,312.887526 456.097521,316.914637 C450.528531,327.773347 426.460084,340.356295 417.597146,370.401334" id="Path" stroke="#9ABFE2" stroke-width="0.796005" fill="#FFFFFF" fill-rule="nonzero" stroke-linejoin="round"></path>
                    <path d="M393.229373,370.401334 C385.641065,316.137416 399.513109,294.262809 407.480487,286.278776 C412.757611,280.990586 422.760276,273.324186 431.691295,278.947978 C442.33926,285.652859 436.387628,300.833408 429.90091,312.376979 C422.453491,325.629449 412.427186,345.925344 410.796813,370.401334" id="Path" stroke="#9ABFE2" stroke-width="0.796005" fill="#FFFFFF" fill-rule="nonzero" stroke-linejoin="round"></path>
                    <path d="M423.23884,370.401334 C424.919854,361.452316 433.395738,342.176044 446.069115,336.157181 C449.476849,334.588604 453.326582,334.264358 456.948639,335.240844 C460.142341,336.242591 462.461074,339.01154 462.886612,342.331762 C463.415291,346.222804 461.317385,349.521447 458.362162,351.86782 C451.224576,357.534691 442.714756,363.053199 436.320493,370.401334" id="Path" stroke="#9ABFE2" stroke-width="0.796005" fill="#FFFFFF" fill-rule="nonzero" stroke-linejoin="round"></path>
                    <path d="M246.825953,269.901767 C246.825953,269.901767 284.868251,298.929601 295.795054,370.401334" id="Path" stroke="#9ABFE2" stroke-width="0.796005" stroke-linejoin="round"></path>
                    <path d="M315.637116,370.799559 C315.637116,370.799559 322.906347,311.303244 370.901826,281.07748" id="Path" stroke="#9ABFE2" stroke-width="0.796005" stroke-linejoin="round"></path>
                    <path d="M431.688878,278.946296 C431.688878,278.946296 400.412137,305.787362 400.844158,370.799559" id="Path" stroke="#9ABFE2" stroke-width="0.796005" stroke-linejoin="round"></path>
                    <path d="M413.350378,370.401334 C417.325557,347.518136 429.405641,325.525743 453.721302,304.269381" id="Path" stroke="#9ABFE2" stroke-width="0.796005" stroke-linejoin="round"></path>
                    <path d="M429.112724,370.401334 C429.112724,370.401334 438.18768,348.350835 459.802686,336.585351" id="Path" stroke="#9ABFE2" stroke-width="0.796005" stroke-linejoin="round"></path>
                    <path d="M305.242354,13.6420587 L368.719029,13.6420587 C384.466836,13.614515 397.255369,26.3592697 397.283139,42.1084296 L397.283139,42.1084296 C397.255427,57.8576306 384.466877,70.6024493 368.719029,70.5748609 L82.5665883,70.5748609 C62.4652622,70.5395476 46.1412781,86.8076373 46.105914,106.910691 L46.105914,106.910691 C46.1413361,127.013721 62.4652861,143.281777 82.5665883,143.246522 L431.308549,143.246522 C451.540465,143.211034 467.970487,159.584795 468.006141,179.81845 L468.006141,179.81845 C467.970545,200.052146 451.540506,216.425971 431.308549,216.390483 L28.7090972,216.390483 C17.1252701,216.370155 7.71823856,225.745018 7.69788968,237.329841 L7.69788968,237.329841 C7.70766154,242.89306 9.92682783,248.224541 13.8671955,252.151415 C17.8075631,256.078288 23.1463563,258.278884 28.7090972,258.269127 L141.044242,258.269127" id="Path" stroke="#9ABFE2" stroke-width="1.05" stroke-linejoin="round" stroke-dasharray="3.675"></path>
                    <rect id="Rectangle" fill="#DDE3E9" fill-rule="nonzero" x="207.646973" y="186.065531" width="59.4157647" height="4.26394404"></rect>
                    <rect id="Rectangle" fill="#DDE3E9" fill-rule="nonzero" x="202.109817" y="180.527899" width="70.4900766" height="15.339313"></rect>
                    <rect id="Rectangle" fill="#DDE3E9" fill-rule="nonzero" x="207.646973" y="176.127151" width="59.4157647" height="4.26394404"></rect>
                    <rect id="Rectangle" fill="#DDE3E9" fill-rule="nonzero" x="202.109817" y="170.589519" width="70.4900766" height="15.339313"></rect>
                    <rect id="Rectangle" stroke="#DBDBDD" stroke-width="1.08633" fill="#FFFFFF" fill-rule="nonzero" x="122.349262" y="84.9037975" width="302.519216" height="185.519339"></rect>
                    <rect id="Rectangle" fill="#DDE3E9" fill-rule="nonzero" x="193.166086" y="92.6564612" width="46.8110994" height="8.52799315"></rect>
                    <ellipse id="Oval" fill="#DDE3E9" fill-rule="nonzero" cx="210.142019" cy="123.215095" rx="14.1465756" ry="14.2133569"></ellipse>
                    <rect id="Rectangle" fill="#DDE3E9" fill-rule="nonzero" x="193.166086" y="146.667155" width="32.537187" height="5.68536379"></rect>
                    <rect id="Rectangle" fill="#DDE3E9" fill-rule="nonzero" x="192.976026" y="158.23752" width="59.4157647" height="4.26394404"></rect>
                    <rect id="Rectangle" fill="#DDE3E9" fill-rule="nonzero" x="272.197081" y="119.609114" width="110.343563" height="4.26404911"></rect>
                    <rect id="Rectangle" fill="#DDE3E9" fill-rule="nonzero" x="272.197081" y="129.505886" width="31.1225084" height="4.26404911"></rect>
                    <rect id="Rectangle" fill="#DDE3E9" fill-rule="nonzero" x="272.197081" y="109.001843" width="21.2198634" height="5.68536379"></rect>
                    <rect id="Rectangle" fill="#DDE3E9" fill-rule="nonzero" x="272.197081" y="168.844896" width="110.343563" height="4.26404911"></rect>
                    <rect id="Rectangle" fill="#DDE3E9" fill-rule="nonzero" x="272.197081" y="178.741563" width="31.1225084" height="4.26404911"></rect>
                    <rect id="Rectangle" fill="#DDE3E9" fill-rule="nonzero" x="272.197081" y="158.23752" width="21.2198634" height="5.68536379"></rect>
                    <rect id="Rectangle" fill="#3E4D5E" fill-rule="nonzero" x="121.792846" y="58.3229959" width="303.58603" height="27.4629896"></rect>
                    <path d="M301.11683,17.4374245 C301.975464,13.7339779 300.525748,9.87716161 297.440327,7.6564779 C294.354906,5.43579418 290.237664,5.28587899 286.998937,7.27629063 C284.02659,1.71031371 277.648592,-1.11915673 271.527898,0.412875146 C265.407203,1.94490702 261.113879,7.44544775 261.113628,13.7554766 C261.113628,13.9130852 261.120247,14.0700634 261.125606,14.2269365 C256.240856,14.794604 252.611627,19.0198968 252.787235,23.9348015 C252.962842,28.8497061 256.884365,32.8051673 261.797171,33.022712 L261.797171,33.0332205 L300.264031,33.0332205 L300.264031,33.0218715 C300.339151,33.024078 300.412485,33.0332205 300.488131,33.0332205 C304.680619,33.035506 308.126949,29.7268378 308.295833,25.5373921 C308.464718,21.3479464 305.295896,17.7725633 301.11683,17.4373194 L301.11683,17.4374245 Z" id="Path" stroke="#9ABFE2" stroke-width="0.81249" fill="#FFFFFF" fill-rule="nonzero" stroke-linejoin="round"></path>
                    <path d="M313.755116,34.9755881 C313.206246,32.6084798 314.132825,30.1433092 316.10492,28.7239135 C318.077015,27.3045178 320.708629,27.2087146 322.778695,28.4809565 C324.67847,24.9234604 328.754952,23.1149824 332.667007,24.094136 C336.579061,25.0732897 339.323196,28.5889093 339.323448,32.6219658 C339.323448,32.7230455 339.319245,32.8230744 339.315883,32.9233135 C342.43797,33.2862333 344.757543,35.9868668 344.64529,39.1282374 C344.533038,42.2696081 342.02662,44.7977614 338.886594,44.9368742 L338.886594,44.9437047 L314.300185,44.9437047 L314.300185,44.9364539 C314.252065,44.9378198 314.205627,44.9437047 314.156878,44.9437047 C311.477179,44.9452096 309.274382,42.8304211 309.166457,40.1526658 C309.058532,37.4749106 311.083989,35.1896758 313.755116,34.975483 L313.755116,34.9755881 Z" id="Path" stroke="#9ABFE2" stroke-width="0.81249" fill="#FFFFFF" fill-rule="nonzero" stroke-linejoin="round"></path>
                    <ellipse id="Oval" fill="#EDF3F9" fill-rule="nonzero" cx="6.51393031" cy="287.652703" rx="5.33553931" ry="5.33599798"></ellipse>
                    <ellipse id="Oval" fill="#EDF3F9" fill-rule="nonzero" cx="234.636288" cy="345.174181" rx="3.63845033" ry="3.63876312"></ellipse>
                    <ellipse id="Oval" stroke="#9ABFE2" stroke-width="0.948255" stroke-linejoin="round" cx="183.794326" cy="42.0183825" rx="5.49229389" ry="5.49276604"></ellipse>
                    <ellipse id="Oval" fill="#EDF3F9" fill-rule="nonzero" cx="487.283488" cy="120.602679" rx="3.20369802" ry="3.20397342"></ellipse>
                    <path d="M245.269543,15.6597041 C245.269543,16.9556095 244.489046,18.1239334 243.291896,18.6198746 C242.094747,19.1158157 240.716754,18.841704 239.800489,17.9253605 C238.884224,17.009017 238.610136,15.6309055 239.106035,14.4336531 C239.601933,13.2364008 240.770156,12.4558358 242.06595,12.4558358 C243.835222,12.4558358 245.269543,13.8902805 245.269543,15.6597041 L245.269543,15.6597041 Z" id="Path" fill="#EDF3F9" fill-rule="nonzero"></path>
                    <path d="M326.283925,285.297819 C326.283925,287.067325 324.849581,288.501793 323.080227,288.501793 C321.310874,288.501793 319.876529,287.067325 319.876529,285.297819 C319.876529,283.528314 321.310874,282.093846 323.080227,282.093846 C324.849581,282.093846 326.283925,283.528314 326.283925,285.297819 L326.283925,285.297819 Z" id="Path" stroke="#9ABFE2" stroke-width="0.948255" stroke-linejoin="round"></path>
                    <path d="M27.3564061,181.40683 C27.3564061,183.024529 26.0451143,184.335934 24.4275539,184.335934 C22.8099935,184.335934 21.4987017,183.024529 21.4987017,181.40683 C21.4987017,179.78913 22.8099935,178.477726 24.4275539,178.477726 C26.0451143,178.477726 27.3564061,179.78913 27.3564061,181.40683 Z" id="Path" stroke="#9ABFE2" stroke-width="0.948255" stroke-linejoin="round"></path>
                    <path d="M477.227975,81.3755705 C477.227975,83.5311975 475.929563,85.4745655 473.938191,86.2994784 C471.946818,87.1243913 469.654656,86.668395 468.130544,85.1441216 C466.606431,83.6198482 466.150519,81.3274799 466.975401,79.3359525 C467.800282,77.3444251 469.743508,76.045982 471.89895,76.045982 C474.842106,76.045982 477.227975,78.4321611 477.227975,81.3755705 L477.227975,81.3755705 Z" id="Path" stroke="#9ABFE2" stroke-width="0.948255" stroke-linejoin="round"></path>
                    <line x1="0" y1="162.913138" x2="14.9801486" y2="162.913138" id="Path" stroke="#9ABFE2" stroke-width="0.866985" stroke-linejoin="round"></line>
                    <line x1="474.613893" y1="142.934772" x2="491" y2="142.934772" id="Path" stroke="#9ABFE2" stroke-width="0.948255" stroke-linejoin="round"></line>
                    <line x1="414.352263" y1="49.6920318" x2="439.437619" y2="49.6920318" id="Path" stroke="#9ABFE2" stroke-width="0.948255" stroke-linejoin="round"></line>
                    <line x1="21.0024873" y1="146.252434" x2="28.4925616" y2="146.252434" id="Path" stroke="#9ABFE2" stroke-width="0.866985" stroke-linejoin="round"></line>
                    <line x1="439.794309" y1="32.0526834" x2="447.987362" y2="32.0526834" id="Path" stroke="#9ABFE2" stroke-width="0.948255" stroke-linejoin="round"></line>
                    <line x1="212.144001" y1="35.3291568" x2="220.337055" y2="35.3291568" id="Path" stroke="#9ABFE2" stroke-width="0.948255" stroke-linejoin="round"></line>
                    <line x1="226.551344" y1="43.5202878" x2="234.744398" y2="43.5202878" id="Path" stroke="#9ABFE2" stroke-width="0.948255" stroke-linejoin="round"></line>
                    <path d="M427.884953,238.92337 L422.224558,237.236012 C421.694627,235.500732 421.02417,233.811531 420.219843,232.18518 L423.097635,226.785088 C424.226301,224.69133 423.873428,222.108213 422.224558,220.393953 L418.05186,216.048472 C416.370219,214.347522 413.762405,213.973111 411.670205,215.132241 L406.588183,218.067019 C405.068007,217.259169 403.482495,216.580805 401.848459,216.039121 L400.213357,210.11062 C399.593855,207.798278 397.508956,206.182571 395.115366,206.159897 L389.244108,206.159897 C386.851178,206.182491 384.766568,207.797115 384.146118,210.108518 L382.511016,216.039331 C380.876936,216.581668 379.291425,217.260663 377.771291,218.06912 L372.684647,215.129824 C370.591434,213.974334 367.985299,214.351436 366.305408,216.052886 L362.134917,220.393848 C360.486507,222.108162 360.132807,224.690496 361.259528,226.784983 L364.139631,232.185075 C363.336155,233.811007 362.665724,235.49937 362.134917,237.233595 L356.474521,238.923265 C354.199668,239.632138 352.652729,241.741432 352.660064,244.12435 L352.660064,250.229688 C352.652971,252.613604 354.200822,254.723604 356.476728,255.432454 L362.134917,257.117605 C362.665224,258.853466 363.335667,260.543371 364.139631,262.170643 L361.259528,267.568424 C360.134966,269.66408 360.488439,272.245689 362.134917,273.961871 L366.305408,278.300521 C367.980976,280.014486 370.597577,280.39193 372.689165,279.221376 L377.773603,276.286598 C379.293497,277.093366 380.878149,277.771692 382.511016,278.314496 L384.146118,284.242997 C384.76562,286.555339 386.850519,288.171046 389.244108,288.193721 L395.115366,288.193721 C397.508296,288.171126 399.592907,286.556502 400.213357,284.245099 L401.848459,278.314391 C403.482118,277.773678 405.066944,277.095278 406.585872,276.286493 L411.674828,279.223478 C413.765988,280.390154 416.379314,280.012012 418.054067,278.300416 L422.224558,273.959559 C423.871651,272.244396 424.224356,269.662464 423.097635,267.568319 L420.219843,262.170538 C421.024327,260.544294 421.69479,258.855114 422.224558,257.119812 L427.884953,255.432349 C430.159861,254.722535 431.706599,252.612832 431.69941,250.229583 L431.69941,244.124244 C431.706653,241.741404 430.159733,239.63222 427.884953,238.92337 Z M392.179685,265.276689 C384.859459,265.276689 378.260031,260.866707 375.458711,254.103114 C372.657392,247.339522 374.205854,239.554296 379.382051,234.377685 C384.558247,229.201073 392.342812,227.652523 399.105807,230.454123 C405.868802,233.255722 410.278325,239.855743 410.278325,247.176598 C410.278325,251.977059 408.371506,256.580904 404.97735,259.975333 C401.583193,263.369761 396.979733,265.276689 392.179685,265.276689 L392.179685,265.276689 Z" id="Shape" fill="#317299" fill-rule="nonzero"></path>
                    <polygon id="Rectangle" fill="#DDE3E9" fill-rule="nonzero" transform="translate(224.913020, 186.392331) rotate(-0.945300) translate(-224.913020, -186.392331) " points="208.64443 183.549672 241.181618 183.549626 241.18161 189.23499 208.644422 189.235036"></polygon>
                    <polygon id="Rectangle" fill="#DDE3E9" fill-rule="nonzero" transform="translate(238.339615, 197.031952) rotate(-0.945300) translate(-238.339615, -197.031952) " points="208.631735 194.900022 268.047501 194.899938 268.047495 199.163882 208.631729 199.163966"></polygon>
                    <path d="M400.004491,155.394575 C395.049306,150.103076 395.224254,141.823196 400.398529,136.745763 C405.572803,131.668329 413.853799,131.650523 419.049857,136.705658 L427.754359,128.387915 C418.005535,118.571083 402.191135,118.371104 392.197234,127.938281 C382.203332,137.505458 381.712095,153.314851 391.092734,163.484148 C400.473373,173.653444 416.269675,174.435858 426.609168,165.243329 L418.378923,156.450868 C412.952133,161.054495 404.868072,160.589765 400.004491,155.394575 L400.004491,155.394575 Z" id="Path" fill="#57B6DB" fill-rule="nonzero"></path>
                    <path d="M428.274949,128.926726 C428.103695,128.74369 427.930166,128.564087 427.754359,128.387915 L419.049857,136.705658 C419.198732,136.850763 419.345821,136.998705 419.489443,137.152111 C424.526472,142.533204 424.247958,150.979104 418.867362,156.016604 C418.707456,156.166367 418.544783,156.311122 418.379343,156.450868 L426.609589,165.243329 C426.771807,165.098959 426.932624,164.952173 427.09204,164.80297 C437.324784,155.222695 437.85439,139.160359 428.274949,128.926726 L428.274949,128.926726 Z" id="Path" fill="#317299" fill-rule="nonzero"></path>
                    <path d="M423.124111,364.160558 C423.158992,363.609558 423.241782,363.058978 423.259117,362.508084 L423.382146,358.601806 L423.419444,357.420267 L419.807259,357.47585 L420.461384,362.979334 C420.680391,363.967089 420.709804,364.987458 420.548061,365.986191 C420.369454,366.616626 419.906649,366.828452 419.390473,367.146191 C418.137592,367.570753 416.842764,367.859605 415.528238,368.007785 C415.528238,368.007785 421.641036,368.702523 421.668878,368.619201 C421.696719,368.535879 423.447181,368.341284 423.502759,367.479796 C423.460627,366.705342 423.339597,365.937208 423.141551,365.187325 C423.103813,364.846357 423.097974,364.502611 423.124111,364.160558 Z" id="Path" fill="#F5B690" fill-rule="nonzero"></path>
                    <path d="M434.927037,363.324917 C434.8661,362.776123 434.852337,362.21966 434.77417,361.673914 L434.219645,357.805252 L434.051544,356.635166 L430.503448,357.314879 L432.099781,362.622192 C432.486391,363.557162 432.691895,364.557067 432.705367,365.568738 C432.638757,366.220187 432.219343,366.509242 431.76589,366.911459 C430.605324,367.546388 429.379952,368.054876 428.11084,368.428179 C428.11084,368.428179 434.25169,368.054752 434.264613,367.967857 C434.277535,367.880962 435.96811,367.386491 435.873763,366.528365 C435.69833,365.772873 435.446237,365.037265 435.121404,364.332982 C435.025404,364.003738 434.960333,363.666253 434.927037,363.324917 L434.927037,363.324917 Z" id="Path" fill="#F5B690" fill-rule="nonzero"></path>
                    <path d="M413.948189,367.984984 C415.103052,367.460484 416.389632,367.297917 417.638646,367.518672 C418.876889,367.715672 420.125349,367.841963 421.377957,367.896933 C421.766985,367.913451 422.156101,367.866391 422.529977,367.757607 C422.921848,367.630698 423.295489,367.453204 423.641443,367.229618 L423.613706,369.8144 L422.187365,369.805048 L422.187365,369.508744 L421.196302,369.768063 L421.196302,369.768063 L413.166097,369.758816 C412.919198,369.758186 413.107682,368.952911 413.15433,368.830607 C413.307048,368.461388 413.589357,368.160671 413.948189,367.984984 L413.948189,367.984984 Z" id="Path" fill="#1D8BAD" fill-rule="nonzero"></path>
                    <path d="M426.551279,368.679302 C427.597975,367.962891 428.837006,367.580139 430.105363,367.581401 C431.35901,367.561193 432.610487,367.469561 433.85371,367.306951 C434.239739,367.256028 434.614875,367.142459 434.964335,366.97072 C435.328335,366.777895 435.665632,366.538411 435.96769,366.258329 L436.387418,368.808541 L434.980935,369.046215 L434.929664,368.754219 L433.998487,369.181128 L433.998487,369.181128 L426.087739,370.561465 C425.844412,370.603494 425.89085,369.777835 425.915645,369.649331 C426.002149,369.259286 426.228207,368.914304 426.551279,368.679302 L426.551279,368.679302 Z" id="Path" fill="#1D8BAD" fill-rule="nonzero"></path>
                    <path d="M420.696201,292.228922 L430.365605,292.340089 C431.856189,294.867047 432.837727,297.661386 433.254848,300.565473 C433.588319,304.566946 429.698242,331.687925 429.475928,334.578257 C429.253614,337.46859 431.698859,341.136353 433.032534,345.915572 C433.976046,350.045151 434.570907,354.246719 434.810837,358.475929 L430.031714,358.920491 C430.031714,358.920491 424.252176,347.249466 423.807653,342.580993 C423.36313,337.912521 421.807036,330.798802 421.807036,327.575285 C421.807036,324.351768 420.696201,292.228922 420.696201,292.228922 Z" id="Path" fill="#4688C8" fill-rule="nonzero"></path>
                    <path d="M416.472652,292.562422 C416.472652,292.562422 415.916972,306.011692 415.583501,312.458831 C415.25003,318.90597 419.029055,358.587411 419.029055,358.587411 L424.252702,358.476245 C424.252702,358.476245 425.25301,330.354451 425.919953,326.352978 C427.07565,319.415991 430.24972,312.87082 430.53896,305.779062 C430.719038,301.362868 429.716944,296.723185 429.143087,292.340299 L416.472652,292.562422 Z" id="Path" fill="#4688C8" fill-rule="nonzero"></path>
                    <path d="M418.573815,267.544467 C422.093439,268.282601 427.710968,264.788523 427.710968,264.788523 C425.458999,263.165107 424.089899,260.586733 424.006328,257.811714 L422.040487,259.745887 L419.928713,261.823589 C420.032888,262.612348 420.179878,263.394857 420.369033,264.16765 C420.458652,264.550114 420.565187,264.975131 420.691998,265.436399 C419.863043,266.003714 419.145113,266.718215 418.573815,267.544467 L418.573815,267.544467 Z" id="Path" fill="#FAAF7C" fill-rule="nonzero"></path>
                    <path d="M420.369138,264.16744 C422.241344,263.579518 423.754236,262.187864 424.496239,260.371068 C423.6674,260.205179 422.847716,259.996436 422.040487,259.745677 L419.928713,261.823379 C420.032922,262.61214 420.179948,263.394649 420.369138,264.16744 Z" id="Path" fill="#EA8E50" fill-rule="nonzero"></path>
                    <path d="M418.171422,262.360614 C418.171422,262.360614 424.99529,263.103161 425.392324,258.846152 C425.789359,254.589143 426.937386,251.817857 422.597638,251.163782 C418.25789,250.509706 417.258316,252.055111 416.780278,253.443853 C416.30224,254.832595 416.406568,262.058111 418.171422,262.360614 Z" id="Path" fill="#FAAF7C" fill-rule="nonzero"></path>
                    <path d="M422.631573,251.111035 C423.19693,249.998789 424.020806,249.038389 425.034058,248.310435 C426.061745,247.583222 427.348387,247.323048 428.577846,247.593841 C429.815406,247.897074 430.749764,248.914002 430.947446,250.172844 C431.034859,250.987365 430.75581,251.86451 431.110925,252.602328 C431.702011,253.830415 433.471489,253.746357 434.642631,254.443302 C435.486605,254.945548 436.231609,255.94153 437.188632,255.721298 C437.847694,255.569679 438.224032,254.88986 438.492468,254.269197 C438.973187,256.041229 438.624269,257.935682 437.543777,259.420123 C436.463285,260.904564 434.767855,261.818752 432.933985,261.905756 C431.938335,262.028545 430.94669,261.648978 430.287438,260.892753 C429.801204,260.210307 429.730602,259.201087 429.011968,258.77029 C428.281462,258.331297 427.295758,258.757891 426.508518,258.431746 C425.98659,258.171196 425.603308,257.697074 425.457884,257.132105 C425.318179,256.574178 425.212571,256.008262 425.141643,255.437497 C425.78253,258.845521 421.029357,250.018177 422.716675,251.380441" id="Path" fill="#3D382B" fill-rule="nonzero"></path>
                    <path d="M415.962149,254.465052 C417.942279,256.156718 420.501413,255.980407 422.909886,255.749037 C423.373741,255.704592 423.33014,256.002892 423.411774,256.36991 C423.585969,257.148812 424.670329,256.655917 425.01231,257.318819 C425.248387,257.77641 424.839691,258.285485 424.414499,258.429645 C424.255587,258.455501 424.106351,258.522966 423.981953,258.625185 C423.902303,258.741762 423.867317,258.883136 423.883404,259.023409 C423.891704,259.602463 424.022928,261.062445 424.934038,260.871423 C425.714344,260.70772 426.35544,259.811978 426.787566,259.204344 C427.289097,258.495463 427.630262,257.685862 427.787349,256.831808 C428.440423,253.299589 425.597198,250.020804 422.263011,249.275105 C419.964014,248.760985 416.040001,249.76096 415.345217,252.337441 C415.172473,252.872124 415.228326,253.454429 415.499555,253.94652 C415.627179,254.141357 415.783084,254.316115 415.962149,254.465052 L415.962149,254.465052 Z" id="Path" fill="#3D382B" fill-rule="nonzero"></path>
                    <path d="M409.767086,280.039155 C409.767086,280.039155 408.210993,284.485294 407.914504,285.263776 C407.826461,285.494935 407.713412,286.107087 407.449493,286.191355 C407.305844,286.222238 407.156423,286.212339 407.018103,286.162776 C404.303895,285.461417 401.32125,285.001095 398.76863,283.814932 C397.638043,283.28957 396.946831,282.115491 395.947258,281.401419 C394.964085,280.72201 393.757402,280.446533 392.576824,280.631973 C392.083017,280.645131 391.598118,280.766546 391.156367,280.987644 C390.923422,281.150088 390.774246,281.407252 390.748869,281.690125 C390.723493,281.972998 390.824516,282.252611 391.024828,282.453929 C391.650247,282.940936 392.364951,283.300782 393.128617,283.513164 C394.170521,283.909605 395.175924,284.396036 396.13343,284.966946 C397.14402,285.70021 398.192611,286.379608 399.274826,287.002304 C400.625416,287.694627 401.993761,288.336724 403.29329,289.112369 C404.293852,289.721253 405.331365,290.267215 406.399805,290.747086 C407.396397,291.34683 408.555799,291.619326 409.715185,291.526303 C411.270347,290.972408 412.577774,289.883307 413.403646,288.453775 C413.863521,287.709348 414.255246,286.924915 414.574052,286.110029 C414.914169,285.350054 415.214152,284.572744 415.472764,283.781309 L409.767086,280.039155 Z" id="Path" fill="#FAAF7C" fill-rule="nonzero"></path>
                    <path d="M434.255682,279.557503 C434.255682,279.557503 436.089564,285.948743 435.978722,286.615743 C435.846809,287.710211 435.180608,288.667951 434.200419,289.17226 C433.033375,289.561028 425.642375,287.338221 425.642375,287.338221 L434.255682,279.557503 Z" id="Path" fill="#FAAF7C" fill-rule="nonzero"></path>
                    <path d="M409.303967,280.224397 L415.472449,286.782493 C415.921385,285.105642 416.40226,282.755067 416.809486,281.067709 C417.498912,278.21079 418.448475,275.187646 417.842259,272.24089 C417.747263,271.654259 417.528197,271.094652 417.199691,270.599448 C416.801467,269.953564 416.096755,269.560478 415.338022,269.561013 C414.579289,269.561549 413.875132,269.95563 413.47782,270.602075 C412.028474,273.263768 410.802824,276.04132 409.813524,278.906054 C409.641641,279.344731 409.470703,279.783829 409.303967,280.224397 Z" id="Path" fill="#2B4F97" fill-rule="nonzero"></path>
                    <path d="M428.976142,266.163501 C431.045344,269.088736 432.656905,272.312135 433.75537,275.72278 L434.977888,280.335459 L430.032029,284.948138 C430.032029,284.948138 429.921082,266.66375 428.976142,266.163501 Z" id="Path" fill="#2B4F97" fill-rule="nonzero"></path>
                    <path d="M426.402089,263.736643 C428.88041,265.293153 430.679869,267.727924 431.440614,270.554057 C433.348565,278.520018 432.348256,294.470537 432.348256,294.470537 L415.954585,295.081848 C415.251865,291.594812 415.101823,288.01895 415.509957,284.485294 C416.035273,280.75743 417.028963,274.222135 416.529071,272.888346 C415.91506,271.722713 415.106981,270.670207 414.13951,269.775996 C414.13951,269.775996 418.974317,266.219084 419.80789,266.052334 C420.641463,265.885584 423.715513,266.589674 426.402089,263.736643 Z" id="Path" fill="#2B4F97" fill-rule="nonzero"></path>
                    <rect id="Rectangle" fill="#D6ECEB" fill-rule="nonzero" transform="translate(73.682270, 109.252651) rotate(-180.000000) translate(-73.682270, -109.252651) " x="43.484057" y="106.899659" width="60.3964264" height="4.70598373"></rect>
                    <rect id="Rectangle" fill="#D6ECEB" fill-rule="nonzero" transform="translate(58.686362, 116.662726) rotate(-180.000000) translate(-58.686362, -116.662726) " x="49.997462" y="115.543232" width="17.3778003" height="2.23898828"></rect>
                    <rect id="Rectangle" fill="#D6ECEB" fill-rule="nonzero" transform="translate(56.669670, 131.453035) rotate(-180.000000) translate(-56.669670, -131.453035) " x="47.9807702" y="130.333541" width="17.3778003" height="2.23898828"></rect>
                    <rect id="Rectangle" fill="#D6ECEB" fill-rule="nonzero" transform="translate(55.661272, 146.243450) rotate(-180.000000) translate(-55.661272, -146.243450) " x="46.9723718" y="145.123956" width="17.3778003" height="2.23898828"></rect>
                    <rect id="Rectangle" fill="#D6ECEB" fill-rule="nonzero" transform="translate(54.204778, 161.033865) rotate(-180.000000) translate(-54.204778, -161.033865) " x="45.5158779" y="159.914371" width="17.3778003" height="2.23898828"></rect>
                    <rect id="Rectangle" fill="#D6ECEB" fill-rule="nonzero" transform="translate(52.188086, 175.824174) rotate(-180.000000) translate(-52.188086, -175.824174) " x="43.4991861" y="174.70468" width="17.3778003" height="2.23898828"></rect>
                    <rect id="Rectangle" fill="#D6ECEB" fill-rule="nonzero" transform="translate(51.179793, 190.614694) rotate(-180.000000) translate(-51.179793, -190.614694) " x="42.4908928" y="189.4952" width="17.3778003" height="2.23898828"></rect>
                    <rect id="Rectangle" fill="#D6ECEB" fill-rule="nonzero" transform="translate(48.714901, 205.405109) rotate(-180.000000) translate(-48.714901, -205.405109) " x="40.0260005" y="204.285615" width="17.3778003" height="2.23898828"></rect>
                    <rect id="Rectangle" fill="#D6ECEB" fill-rule="nonzero" transform="translate(47.554581, 220.195418) rotate(-180.000000) translate(-47.554581, -220.195418) " x="38.8656804" y="219.075924" width="17.3778003" height="2.23898828"></rect>
                    <rect id="Rectangle" fill="#D6ECEB" fill-rule="nonzero" transform="translate(45.689915, 234.985833) rotate(-180.000000) translate(-45.689915, -234.985833) " x="37.0010153" y="233.866339" width="17.3778003" height="2.23898828"></rect>
                    <rect id="Rectangle" fill="#D6ECEB" fill-rule="nonzero" transform="translate(44.569519, 249.776248) rotate(-180.000000) translate(-44.569519, -249.776248) " x="35.8806193" y="248.656754" width="17.3778003" height="2.23898828"></rect>
                    <rect id="Rectangle" fill="#D6ECEB" fill-rule="nonzero" transform="translate(43.113026, 264.566557) rotate(-180.000000) translate(-43.113026, -264.566557) " x="34.4241255" y="263.447063" width="17.3778003" height="2.23898828"></rect>
                    <rect id="Rectangle" fill="#D6ECEB" fill-rule="nonzero" transform="translate(41.656427, 279.357077) rotate(-180.000000) translate(-41.656427, -279.357077) " x="32.9675266" y="278.237583" width="17.3778003" height="2.23898828"></rect>
                    <rect id="Rectangle" fill="#D6ECEB" fill-rule="nonzero" transform="translate(40.199933, 294.147492) rotate(-180.000000) translate(-40.199933, -294.147492) " x="31.5110328" y="293.027998" width="17.3778003" height="2.23898828"></rect>
                    <rect id="Rectangle" fill="#D6ECEB" fill-rule="nonzero" transform="translate(38.743439, 308.937801) rotate(-180.000000) translate(-38.743439, -308.937801) " x="30.054539" y="307.818307" width="17.3778003" height="2.23898828"></rect>
                    <rect id="Rectangle" fill="#D6ECEB" fill-rule="nonzero" transform="translate(36.950848, 323.728216) rotate(-180.000000) translate(-36.950848, -323.728216) " x="28.2619474" y="322.608722" width="17.3778003" height="2.23898828"></rect>
                    <rect id="Rectangle" fill="#D6ECEB" fill-rule="nonzero" transform="translate(35.195553, 338.518631) rotate(-180.000000) translate(-35.195553, -338.518631) " x="26.5066533" y="337.399137" width="17.3778003" height="2.23898828"></rect>
                    <rect id="Rectangle" fill="#D6ECEB" fill-rule="nonzero" transform="translate(33.888460, 353.308940) rotate(-180.000000) translate(-33.888460, -353.308940) " x="25.1995597" y="352.189446" width="17.3778003" height="2.23898828"></rect>
                    <rect id="Rectangle" fill="#D6ECEB" fill-rule="nonzero" transform="translate(45.689915, 234.985833) rotate(-180.000000) translate(-45.689915, -234.985833) " x="37.0010153" y="233.866339" width="17.3778003" height="2.23898828"></rect>
                    <polygon id="Path" fill="#D6ECEB" fill-rule="nonzero" points="39.6574381 369.554556 41.8080858 369.554556 68.7894155 111.21719 66.7091604 111.00074"></polygon>
                    <polygon id="Path" fill="#D6ECEB" fill-rule="nonzero" points="22.2421302 369.600788 24.3948792 369.628106 51.4056266 109.409944 49.3253715 109.193495"></polygon>
                    <rect id="Rectangle" fill="#D6ECEB" fill-rule="nonzero" x="425.408714" y="216.159324" width="42.8056627" height="4.70598373"></rect>
                    <rect id="Rectangle" fill="#D6ECEB" fill-rule="nonzero" x="186.130306" y="323.675102" width="30.5308964" height="4.70598373"></rect>
                    <rect id="Rectangle" fill="#D6ECEB" fill-rule="nonzero" x="186.130306" y="336.877452" width="30.5308964" height="2.35299186"></rect>
                    <rect id="Rectangle" fill="#D6ECEB" fill-rule="nonzero" x="186.130306" y="348.899629" width="30.5308964" height="2.35299186"></rect>
                    <rect id="Rectangle" fill="#D6ECEB" fill-rule="nonzero" x="186.130306" y="360.921805" width="30.5308964" height="2.35299186"></rect>
                    <rect id="Rectangle" fill="#D6ECEB" fill-rule="nonzero" x="444.323172" y="224.802897" width="17.3778003" height="2.23898828"></rect>
                    <rect id="Rectangle" fill="#D6ECEB" fill-rule="nonzero" x="446.339863" y="239.593311" width="17.3778003" height="2.23898828"></rect>
                    <rect id="Rectangle" fill="#D6ECEB" fill-rule="nonzero" x="447.348157" y="254.383726" width="17.3778003" height="2.23898828"></rect>
                    <rect id="Rectangle" fill="#D6ECEB" fill-rule="nonzero" x="448.804651" y="269.174036" width="17.3778003" height="2.23898828"></rect>
                    <rect id="Rectangle" fill="#D6ECEB" fill-rule="nonzero" x="450.821342" y="283.96445" width="17.3778003" height="2.23898828"></rect>
                    <rect id="Rectangle" fill="#D6ECEB" fill-rule="nonzero" x="451.829741" y="298.754865" width="17.3778003" height="2.23898828"></rect>
                    <rect id="Rectangle" fill="#D6ECEB" fill-rule="nonzero" x="454.294633" y="313.54528" width="17.3778003" height="2.23898828"></rect>
                    <rect id="Rectangle" fill="#D6ECEB" fill-rule="nonzero" x="455.454953" y="328.335694" width="17.3778003" height="2.23898828"></rect>
                    <rect id="Rectangle" fill="#D6ECEB" fill-rule="nonzero" x="457.319618" y="343.126109" width="17.3778003" height="2.23898828"></rect>
                    <rect id="Rectangle" fill="#D6ECEB" fill-rule="nonzero" x="457.319618" y="343.126109" width="17.3778003" height="2.23898828"></rect>
                    <polygon id="Path" fill="#D6ECEB" fill-rule="nonzero" points="460.819805 369.60394 458.672309 369.598686 442.908598 220.474648 444.988853 220.258199"></polygon>
                    <polygon id="Path" fill="#D6ECEB" fill-rule="nonzero" points="477.944087 369.610244 476.026681 369.600788 460.292387 218.667403 462.372642 218.450953"></polygon>
                    <path d="M453.519896,123.971931 C455.704912,124.581876 457.994809,123.42681 458.803113,121.306979 C458.803113,121.306979 455.925322,118.610926 455.552032,112.909801 L453.277514,115.147844 L450.834265,117.551796 C450.954738,118.464409 451.124772,119.36979 451.343612,120.263925 C451.447415,120.70649 451.751258,122.53454 451.897927,123.068203 C452.237209,123.638749 452.856238,123.98366 453.519896,123.971931 L453.519896,123.971931 Z" id="Path" fill="#C88F68" fill-rule="nonzero"></path>
                    <path d="M451.344138,120.262875 C453.510242,119.582726 455.260698,117.972743 456.119374,115.870847 C455.160399,115.678931 454.212015,115.43743 453.27804,115.147319 L450.83479,117.551271 C450.955282,118.463707 451.125316,119.368912 451.344138,120.262875 Z" id="Path" fill="#B27F5E" fill-rule="nonzero"></path>
                    <path d="M448.956257,117.751013 C448.956257,117.751013 455.686408,119.423661 456.663392,115.216141 C457.640377,111.008621 459.167158,108.390847 454.91146,107.145003 C450.655762,105.899159 449.445117,107.310072 448.777439,108.635035 C448.109761,109.959998 447.230906,117.207474 448.956257,117.751013 Z" id="Path" fill="#C88F68" fill-rule="nonzero"></path>
                    <path d="M445.485278,105.304554 C445.374671,104.971129 445.379407,104.61019 445.498726,104.279783 C445.821481,103.359769 446.920234,103.286638 447.716824,103.014921 C448.582251,102.701547 449.468339,102.448487 450.368729,102.257559 C452.095547,101.846311 453.898199,101.877391 455.609817,102.347921 C456.488195,102.636934 457.284438,103.132449 457.931718,103.792877 C458.615296,104.493566 459.370013,105.121119 460.183646,105.665373 C462.174282,106.989285 462.191723,109.806908 460.878431,111.61699 C460.239756,112.406676 459.467407,113.078089 458.596559,113.600653 C457.758221,114.185679 457.040533,114.926868 456.482788,115.783637 C456.482788,115.783637 455.55823,115.262163 455.774451,114.577931 C455.979535,113.928584 456.646477,113.511341 456.867741,112.862414 C457.000883,112.577478 456.931309,112.238934 456.696592,112.02961 C456.255326,111.619827 455.780229,111.8119 455.305763,112.043794 C454.977965,112.20403 454.395389,112.530805 454.208901,112.018157 C454.045423,111.568447 454.201127,111.060317 454.031764,110.592639 C453.525464,109.194125 451.772902,108.983245 450.537881,108.620745 C449.266824,108.247318 446.033604,107.003785 445.485278,105.304554 Z" id="Path" fill="#212121" fill-rule="nonzero"></path>
                    <rect id="Rectangle" fill="#C88F68" fill-rule="nonzero" transform="translate(445.452971, 211.277659) rotate(-180.000000) translate(-445.452971, -211.277659) " x="443.850912" y="209.497417" width="3.20411827" height="3.56048416"></rect>
                    <path d="M447.815058,212.667242 C446.236089,213.005052 444.60543,213.022916 443.01944,212.719778 C442.963817,212.706572 442.905224,212.720355 442.86132,212.756974 C441.516155,213.946184 439.937195,214.840937 438.225818,215.383784 C436.018541,215.858502 433.59767,216.119291 433.194122,216.571103 C432.901146,217.11013 432.736917,217.709668 432.714297,218.322765 C432.708697,218.378743 432.727331,218.434439 432.765489,218.475774 C432.803647,218.517109 432.857677,218.540125 432.913918,218.539004 C434.695162,218.527656 440.98909,218.618649 441.4707,218.493718 C442.006524,218.354917 442.326757,217.779225 442.818769,217.566559 C443.214202,217.409949 443.634636,217.325948 444.059883,217.318588 C444.132797,217.314805 445.109151,217.268048 445.109151,217.283179 L445.109151,218.208972 L447.920542,218.208972 C447.97412,218.208948 448.025456,218.187465 448.063084,218.149321 C448.100711,218.111176 448.121495,218.059549 448.12081,218.005972 L448.055444,212.860995 C448.056255,212.80073 448.02932,212.743437 447.982397,212.705616 C447.935474,212.667795 447.873771,212.653646 447.815058,212.667242 Z" id="Path" fill="#A66E52" fill-rule="nonzero"></path>
                    <polygon id="Rectangle" fill="#C88F68" fill-rule="nonzero" transform="translate(458.610170, 210.827561) rotate(177.110985) translate(-458.610170, -210.827561) " points="457.106028 209.156177 460.114327 209.156164 460.114312 212.498945 457.106014 212.498958"></polygon>
                    <path d="M460.870446,212.021782 C459.405861,212.413299 457.87767,212.507298 456.376149,212.298228 C456.323405,212.288431 456.269124,212.303996 456.229586,212.340256 C455.024528,213.519086 453.586278,214.432847 452.007193,215.022861 C449.959928,215.572494 447.70222,215.931947 447.345215,216.373987 C447.095984,216.893276 446.970341,217.463217 446.978123,218.039175 C446.975543,218.09185 446.995598,218.143116 447.033236,218.180055 C447.070874,218.216993 447.122505,218.236081 447.175117,218.232508 C448.84489,218.137943 454.751133,217.924856 455.196812,217.785004 C455.692501,217.629392 455.965666,217.074084 456.416914,216.851751 C456.780328,216.686196 457.170613,216.587531 457.569039,216.56049 C457.637225,216.553556 458.550541,216.463403 458.551276,216.477588 L458.595088,217.345697 L461.231338,217.21257 C461.281624,217.210137 461.328835,217.187642 461.362405,217.15012 C461.395974,217.112598 461.413099,217.063182 461.409946,217.012932 L461.105262,212.191474 C461.103004,212.13498 461.074926,212.082653 461.029103,212.049538 C460.98328,212.016424 460.924788,212.006191 460.870446,212.021782 Z" id="Path" fill="#A66E52" fill-rule="nonzero"></path>
                    <path d="M446.586972,153.68925 L461.761698,156.37343 C462.029508,158.329186 462.177189,160.299522 462.20391,162.273352 C462.253435,163.854811 462.167283,165.437604 461.9464,167.004342 C461.38242,170.624403 459.855638,173.987456 458.89662,177.503599 C458.338261,179.273184 458.108832,181.130107 458.219696,182.982391 C458.40818,184.947245 458.944634,186.855676 459.283778,188.795733 C459.690479,191.124033 460.084151,193.454959 460.428969,195.793556 C461.191626,200.578978 461.327426,205.443397 460.832938,210.26392 L456.497287,210.470388 C453.440993,201.374163 449.876928,192.176648 447.678266,182.83571 C446.280923,176.899118 446.66619,170.420142 446.613974,164.350528 C446.583225,160.796839 446.574225,157.243079 446.586972,153.68925 Z" id="Path" fill="#E0B762" fill-rule="nonzero"></path>
                    <path d="M442.560838,154.566815 L451.748212,156.115372 C451.748212,156.115372 448.100831,182.04525 448.30728,187.207143 C448.51373,192.369036 448.341636,205.617933 448.032014,210.160424 L442.870775,210.160424 C442.870775,210.160424 437.247257,183.136532 437.812498,178.982599 C438.603941,173.16684 440.393275,157.973368 442.560838,154.566815 Z" id="Path" fill="#E0B762" fill-rule="nonzero"></path>
                    <path d="M437.915776,157.061759 C437.876857,157.072516 437.836264,157.075866 437.796108,157.071636 C436.893441,157.033743 436.011274,156.790652 435.216592,156.360821 C434.789929,156.133444 434.444586,155.777144 434.010569,155.562271 C433.729847,155.422145 433.413014,155.37115 433.102506,155.416115 C432.08896,155.651372 434.121621,157.039799 434.386276,157.229875 C434.426019,157.253178 434.458335,157.287282 434.479467,157.328223 C434.499422,157.39631 434.472291,157.46942 434.412752,157.508002 C434.353717,157.544278 434.285885,157.563717 434.216599,157.564216 C433.473574,157.60009 432.729263,157.528497 432.006695,157.351654 C431.323992,157.094009 430.608222,156.934428 429.880737,156.877672 C429.625377,156.886867 429.394975,157.033513 429.278514,157.260977 C429.138675,157.595842 429.377694,157.963176 429.627955,158.225857 C430.1691,158.761781 430.76447,159.240013 431.404472,159.652845 C431.705093,159.869701 432.028849,160.052525 432.369794,160.197961 C433.218707,160.458681 434.127138,160.45285 434.972635,160.181254 C436.555873,159.782085 438.118096,159.303755 439.653419,158.748067 L438.827621,156.804227" id="Path" fill="#C88F68" fill-rule="nonzero"></path>
                    <path d="M457.013148,118.382078 C457.013148,118.382078 463.310123,126.503441 463.723022,135.588423 C464.135921,144.673405 463.447756,155.410126 462.484219,159.401932 L441.838632,156.889861 C443.016288,157.021727 448.487674,132.727616 449.116269,130.315889 C449.560792,128.610669 450.13822,126.930771 450.664588,125.247405 L451.632432,122.152182 L457.013148,118.382078 Z" id="Path" fill="#40649B" fill-rule="nonzero"></path>
                    <path d="M457.908183,127.522539 C458.171314,127.589232 458.412247,127.724041 458.60675,127.913408 C460.232787,129.481985 461.095699,131.680643 460.970676,133.93658 C460.815274,136.33468 460.51353,138.721046 460.067131,141.082345 C459.670727,143.202707 459.312566,145.932278 457.817829,147.589165 C456.292763,149.03348 454.60867,150.299972 452.7979,151.364312 C451.122139,152.513104 449.430373,153.638149 447.722603,154.739449 C446.221352,155.711579 444.712431,156.672781 443.182288,157.599205 C442.443151,158.128377 441.646065,158.571495 440.80649,158.919965 C440.135466,159.146873 439.444034,159.308213 438.741889,159.401722 L437.709641,156.579897 C437.709641,156.579897 449.546503,145.08613 450.165957,143.571931 C450.785411,142.057732 451.541132,135.254503 451.542287,135.244101 C451.577235,134.045579 451.757152,132.855697 452.078111,131.700428 C452.528098,130.37939 453.409924,129.248456 454.581351,128.490045 C455.535098,127.772367 456.718343,127.428256 457.908183,127.522539 Z" id="Path" fill="#40649B" fill-rule="nonzero"></path>
                    <path d="M109.137645,295.225272 C109.179674,295.216168 109.219577,295.199121 109.255211,295.175048 C110.086202,294.691108 110.795953,294.024093 111.330529,293.224693 C111.619348,292.798625 111.767487,292.291755 112.069334,291.873777 C112.264029,291.602475 112.53699,291.397168 112.851636,291.285372 C113.922548,291.003357 112.698664,293.320099 112.543801,293.630483 C112.517909,293.672151 112.504425,293.720333 112.504927,293.769389 C112.519791,293.843591 112.581695,293.899173 112.657059,293.905983 C112.730639,293.910732 112.804121,293.895329 112.869602,293.861432 C113.587055,293.52619 114.252322,293.089058 114.844794,292.563578 C115.359567,291.981806 115.954185,291.475931 116.61091,291.061042 C116.855886,290.942874 117.145619,290.966511 117.368207,291.122824 C117.62097,291.425224 117.679242,291.845275 117.518342,292.20507 C117.275067,292.978376 116.952083,293.7243 116.554596,294.43082 C116.379312,294.784328 116.165318,295.117277 115.916546,295.423544 C115.246918,296.090664 114.388863,296.536414 113.458062,296.700699 C111.769356,297.111303 110.061121,297.436946 108.339794,297.676402 C108.276756,296.929547 108.213998,296.182692 108.15152,295.435837" id="Path" fill="#FDCDAD" fill-rule="nonzero"></path>
                    <rect id="Rectangle" fill="#D6ECEB" fill-rule="nonzero" x="186.130306" y="328.381086" width="2.22261606" height="41.1812453"></rect>
                    <rect id="Rectangle" fill="#D6ECEB" fill-rule="nonzero" x="214.46128" y="328.353662" width="2.20906288" height="41.1812453"></rect>
                    <path d="M210.528862,227.151791 C207.191208,227.987327 201.69219,224.854067 201.69219,224.854067 C203.785306,223.219045 204.999114,220.70354 204.976577,218.047475 L206.927184,219.82404 L209.022568,221.73247 C208.952101,222.490366 208.840464,223.243868 208.688151,223.989636 C208.616498,224.358545 208.530556,224.768853 208.426123,225.214465 C209.239574,225.726243 209.952276,226.38288 210.528862,227.151791 L210.528862,227.151791 Z" id="Path" fill="#ECBE93" fill-rule="nonzero"></path>
                    <path d="M208.688151,223.989636 C206.876708,223.496533 205.379133,222.221915 204.602761,220.512474 C205.389017,220.323338 206.164937,220.093551 206.927394,219.82404 L209.022778,221.73247 C208.952242,222.49037 208.840535,223.243872 208.688151,223.989636 Z" id="Path" fill="#E2AE81" fill-rule="nonzero"></path>
                    <path d="M205.998844,319.754114 C205.965539,319.226966 205.886321,318.700238 205.869721,318.173195 L205.75205,314.435979 L205.716433,313.30561 L209.172178,313.358776 L208.546316,318.62406 C208.336847,319.569058 208.308717,320.54524 208.463421,321.500733 C208.634044,322.104059 209.077096,322.306534 209.570894,322.610508 C210.769559,323.016622 212.008347,323.292899 213.265973,323.434591 C213.265973,323.434591 207.41783,324.099279 207.391144,324.019529 C207.364458,323.939779 205.689747,323.753591 205.636585,322.929403 C205.676833,322.188488 205.792618,321.453618 205.982139,320.736226 C206.018254,320.410089 206.023847,320.081292 205.998844,319.754114 Z" id="Path" fill="#ECBE93" fill-rule="nonzero"></path>
                    <path d="M214.777415,323.413051 C213.67256,322.911265 212.441704,322.755696 211.24676,322.966809 C210.062139,323.155347 208.86773,323.276167 207.669352,323.328678 C207.29714,323.344443 206.924849,323.299406 206.567132,323.195341 C206.192238,323.073918 205.834776,322.904125 205.503785,322.690258 L205.530366,325.162717 L206.894929,325.153786 L206.894929,324.870091 L207.843021,325.118272 L207.843021,325.118272 L215.525677,325.109446 C215.761859,325.108815 215.581466,324.338424 215.536919,324.221479 C215.390729,323.868438 215.12064,323.58095 214.777415,323.413051 Z" id="Path" fill="#A66E52" fill-rule="nonzero"></path>
                    <path d="M191.424135,318.390274 C191.513439,317.869746 191.558196,317.33955 191.663784,316.822384 L192.412886,313.159139 L192.639508,312.05115 L195.989454,312.901606 L194.163768,317.879622 C193.741493,318.750606 193.488533,319.693896 193.418343,320.659313 C193.444819,321.285755 193.829036,321.585106 194.239308,321.994994 C195.311492,322.667143 196.452712,323.222267 197.643362,323.65083 C197.643362,323.65083 191.799946,322.945794 191.792487,322.862052 C191.785027,322.778309 190.19857,322.210603 190.337359,321.395976 C190.5478,320.684436 190.830272,319.996222 191.180388,319.34202 C191.291049,319.033041 191.372651,318.714412 191.424135,318.390274 L191.424135,318.390274 Z" id="Path" fill="#ECBE93" fill-rule="nonzero"></path>
                    <path d="M199.119398,323.979182 C198.160438,323.235523 196.998832,322.799618 195.787417,322.72882 C194.591303,322.638416 193.401315,322.479885 192.223247,322.253997 C191.85746,322.183316 191.505645,322.053459 191.181648,321.869537 C190.844985,321.664721 190.536443,321.416905 190.263815,321.132349 L189.718325,323.543972 L191.048008,323.850783 L191.113567,323.574863 L191.978659,324.035395 L191.978659,324.035395 L199.455391,325.802503 C199.685269,325.856511 199.687791,325.065315 199.671506,324.94091 C199.610752,324.563778 199.414428,324.221797 199.119398,323.979182 L199.119398,323.979182 Z" id="Path" fill="#A66E52" fill-rule="nonzero"></path>
                    <path d="M212.021498,220.938543 C212.018341,220.928969 212.015918,220.919169 212.014248,220.909228 C211.980838,220.701605 212.4158,220.150815 212.519183,219.96179 L213.093985,218.911066 L214.199462,216.890733 L218.62116,208.809088 L218.974908,208.162577 C220.419845,205.521687 221.90313,202.739264 221.92015,199.728939 C221.923302,199.174997 221.915948,198.528381 222.352591,198.187526 C222.519166,198.808702 222.560981,199.456736 222.47562,200.094171 L223.652961,197.79382 C223.785563,197.46644 224.003989,197.18088 224.285232,196.967215 C224.85646,196.683141 225.550054,196.883695 225.881565,197.428798 C226.182583,197.975019 226.224938,198.626877 225.997135,199.207464 C225.768357,199.77824 225.475826,200.321337 225.125109,200.82642 C223.847532,203.110968 222.80767,205.520564 222.021851,208.017367 C220.06403,213.440015 217.841169,218.756994 215.353268,223.968306 L213.645778,222.424793 L212.826283,221.683927 C212.652088,221.527159 212.09956,221.177373 212.021498,220.938543 Z" id="Path" fill="#ECBE93" fill-rule="nonzero"></path>
                    <polygon id="Path" fill="#2B4F97" fill-rule="nonzero" points="211.634654 220.238235 214.969366 223.351531 209.856982 233.65073 204.225584 230.390333"></polygon>
                    <path d="M210.722494,222.181235 C210.722494,222.181235 204.226214,223.142752 203.68976,219.087692 C203.153307,215.032632 201.953483,212.426101 206.078482,211.640264 C210.203481,210.854427 211.216082,212.295391 211.723958,213.605118 C212.231834,214.914846 212.398465,221.826615 210.722494,222.181235 Z" id="Path" fill="#ECBE93" fill-rule="nonzero"></path>
                    <path d="M218.819834,220.994126 C218.816629,220.984567 218.814205,220.974763 218.812585,220.964811 C218.77907,220.757188 219.214032,220.206398 219.31752,220.017373 L219.892322,218.966649 L220.997694,216.946316 L225.419497,208.864671 L225.77314,208.21816 C227.218077,205.57727 228.701467,202.794847 228.718487,199.784522 C228.721534,199.23058 228.714179,198.583965 229.150823,198.24311 C229.317398,198.864285 229.359213,199.512319 229.273852,200.149754 L230.451192,197.849403 C230.583797,197.521995 230.802265,197.236427 231.083569,197.022799 C231.654771,196.738706 232.348357,196.939212 232.679902,197.484277 C232.980967,198.030521 233.023323,198.682432 232.795472,199.263048 C232.566694,199.833823 232.274163,200.37692 231.923446,200.882004 C230.645903,203.166555 229.606076,205.57615 228.820293,208.07295 C226.862402,213.495598 224.639506,218.812578 222.151605,224.02389 L220.444115,222.480376 L219.62462,221.739405 C219.450425,221.582742 218.897897,221.232956 218.819834,220.994126 Z" id="Path" fill="#ECBE93" fill-rule="nonzero"></path>
                    <path d="M208.96762,228.019479 L219.266984,218.904866 L223.786811,223.425082 C223.786811,223.425082 215.636204,231.576391 215.339715,232.984256 C215.043226,234.392121 212.584322,250.58851 212.362113,251.255405 C212.139904,251.922299 208.745201,246.656175 208.004294,243.543824 C207.263387,240.431474 207.55977,233.280665 208.96762,228.019479 Z" id="Path" fill="#2B4F97" fill-rule="nonzero"></path>
                    <path d="M209.048519,251.299325 L199.807563,250.856865 C198.240519,253.185496 197.144444,255.798396 196.581171,258.548167 C196.035682,262.350843 198.21207,288.472793 198.2604,291.245759 C198.308729,294.018726 195.765459,297.382724 194.220607,301.871628 C193.085254,305.76183 192.278753,309.740559 191.809612,313.765827 L196.348351,314.461721 C196.348351,314.461721 202.530071,303.643465 203.219497,299.210144 C203.908923,294.776823 205.798488,288.071416 205.981403,284.992899 C206.164319,281.914382 209.048519,251.299325 209.048519,251.299325 Z" id="Path" fill="#6399D1" fill-rule="nonzero"></path>
                    <path d="M212.362218,251.255405 C212.362218,251.255405 212.893839,264.122784 213.213232,270.290535 C213.532624,276.458287 209.916973,314.422214 209.916973,314.422214 L204.919317,314.315881 C204.919317,314.315881 203.9624,287.411456 203.32435,283.583143 C202.218348,276.946558 199.182016,270.684662 198.905279,263.899925 C198.73308,259.674858 199.691678,255.236074 200.240739,251.042738 L212.362218,251.255405 Z" id="Path" fill="#6399D1" fill-rule="nonzero"></path>
                    <path d="M201.446867,224.499658 L208.41194,226.203932 C210.312253,229.275032 211.642605,232.663987 212.338999,236.207773 C213.30222,241.691292 212.265455,253.695817 212.265455,253.695817 L198.854113,252.658437 C198.854113,252.658437 197.297599,245.766947 201.446867,224.499658 Z" id="Path" fill="#2B4F97" fill-rule="nonzero"></path>
                    <path d="M213.054691,212.494818 C212.567827,210.931761 210.898055,210.120181 209.40668,209.809587 C206.15738,209.08574 202.782454,210.30472 200.745464,212.937908 C199.66082,214.42792 198.823145,216.082872 198.264602,217.839222 C197.843021,219.674523 197.301804,221.480268 196.644419,223.244883 C196.31151,223.889149 196.020886,224.554403 195.77439,225.236426 C195.653468,225.906785 195.399855,226.54623 195.028439,227.117222 C194.008169,228.301073 194.155783,229.412109 194.509321,230.818293 C194.785667,232.518212 194.455888,234.261193 193.577619,235.742617 C193.233326,236.401947 192.954383,236.621443 192.972769,237.375233 C193.028348,239.653938 195.851506,239.238902 196.807583,239.125949 C197.509237,239.039547 198.173167,238.760167 198.725515,238.318888 C199.820957,237.662678 200.708111,236.709545 201.284229,235.569878 C201.709031,235.020503 202.036009,234.402036 202.250812,233.741618 C202.800319,232.333597 203.250807,230.888908 203.598986,229.418098 C204.231143,227.058931 204.69113,224.656961 204.975316,222.231144 C205.038354,221.616575 205.082901,221.000221 205.106225,220.38292 C205.123245,219.936467 205.283572,219.170594 204.984772,218.820073 C204.625035,218.397997 203.155303,218.172827 203.531955,217.368182 C203.727793,216.949469 204.501375,216.755715 204.874875,216.627211 C205.412065,216.534538 205.624818,218.435508 205.856693,218.442758 C206.864146,218.47428 206.996,216.890103 207.922134,216.561961 C209.22429,216.101114 211.331126,215.578273 212.416956,214.662987 C213.075187,214.153679 213.33233,213.279446 213.054691,212.494818 L213.054691,212.494818 Z" id="Path" fill="#D6AA54" fill-rule="nonzero"></path>
                    <path d="M151.443311,370.401755 C149.931029,357.484361 150.0653,343.342768 154.39969,331.081342 C158.73408,318.819915 167.742741,307.766612 179.936503,303.247657 C182.045966,302.465918 184.544794,301.923219 186.435515,303.142584 C188.172213,304.262341 188.788935,306.490297 189.05464,308.539629 C190.374867,318.708539 186.425113,328.831111 181.491862,337.820582 C175.948839,348.336815 171.13808,359.223066 167.09387,370.401755" id="Path" stroke="#9ABFE2" stroke-width="0.796005" fill="#FFFFFF" fill-rule="nonzero" stroke-linejoin="round"></path>
                    <path d="M186.435515,303.142164 C186.435515,303.142164 163.786264,327.075981 159.880742,370.003005" id="Path" stroke="#9ABFE2" stroke-width="0.796005" stroke-linejoin="round"></path>
                    <rect id="Rectangle" stroke="#9ABFE2" stroke-width="0.80073" stroke-linejoin="round" x="13.0327986" y="370.003005" width="470.209426" height="1"></rect>
                    <polygon id="Rectangle" fill="#FDCDAD" fill-rule="nonzero" transform="translate(62.788390, 362.862658) rotate(6.249200) translate(-62.788390, -362.862658) " points="61.0831389 360.967768 64.4936052 360.9678 64.4936404 364.757548 61.0831742 364.757516"></polygon>
                    <path d="M60.1277793,364.059268 C61.7592844,364.59964 63.4825223,364.807574 65.1957222,364.670789 C65.2561246,364.663273 65.3165394,364.684645 65.3587806,364.728474 C66.6442447,366.142638 68.2112204,367.272321 69.9590863,368.04498 C72.2394872,368.802973 74.7709896,369.359751 75.1454356,369.883748 C75.3929455,370.488023 75.4972288,371.141396 75.4501194,371.792703 C75.4495161,371.852469 75.4234059,371.909129 75.3783648,371.948412 C75.3333237,371.987696 75.2736443,372.00586 75.2143571,371.99833 C73.3309908,371.77999 66.6609363,371.147243 66.1658776,370.958954 C65.6151352,370.749965 65.342916,370.103349 64.8469117,369.821755 C64.4466793,369.610228 64.0115825,369.472623 63.5625118,369.415545 C63.4857104,369.403146 62.4580854,369.240494 62.4564044,369.25657 L62.3491346,370.236055 L59.3744748,369.910331 C59.317797,369.904123 59.2659681,369.875466 59.2305696,369.830765 C59.1951711,369.786064 59.1791535,369.729044 59.1860962,369.672447 L59.8513576,364.23621 C59.8575217,364.172458 59.8926194,364.115068 59.9465604,364.080539 C60.0005014,364.046011 60.0673099,364.038169 60.1277793,364.059268 Z" id="Path" fill="#A66E52" fill-rule="nonzero"></path>
                    <polygon id="Rectangle" fill="#FDCDAD" fill-rule="nonzero" transform="translate(49.942059, 360.441643) rotate(6.484100) translate(-49.942059, -360.441643) " points="48.3410315 358.662544 51.543052 358.662575 51.5430863 362.220743 48.3410658 362.220712"></polygon>
                    <path d="M47.4396937,361.554762 C48.9694113,362.068446 50.5865587,362.270308 52.1955983,362.148421 C52.2523441,362.141637 52.3089737,362.161955 52.3484655,362.203269 C53.5499371,363.535871 55.016824,364.602425 56.6549089,365.334427 C58.793054,366.055014 61.1674867,366.587521 61.5172427,367.080836 C61.7473431,367.64913 61.8427803,368.26298 61.7960809,368.874317 C61.795301,368.930447 61.7705649,368.983566 61.7281077,369.020286 C61.6856505,369.057005 61.6295226,369.07382 61.5738719,369.066494 C59.8063904,368.854248 53.5470287,368.234216 53.0823333,368.055908 C52.5660518,367.857531 52.3129541,367.249267 51.8484688,366.983118 C51.4734942,366.782924 51.0654744,366.652043 50.6440221,366.596767 C50.5719486,366.584789 49.6077819,366.428126 49.6061009,366.443151 L49.5016679,367.36243 L46.7100285,367.045111 C46.6568351,367.039045 46.6082854,367.01193 46.5752198,366.96982 C46.5421541,366.927709 46.5273264,366.874111 46.5340473,366.820991 L47.1795568,361.719515 C47.1856967,361.659764 47.2188983,361.606129 47.26964,361.573993 C47.3203816,361.541857 47.3830578,361.534769 47.4396937,361.554762 L47.4396937,361.554762 Z" id="Path" fill="#A66E52" fill-rule="nonzero"></path>
                    <path d="M79.9037566,273.528867 C77.7818852,273.098412 76.3372067,271.122322 76.5706205,268.96967 C76.5706205,268.96967 80.1870075,267.927982 82.9794874,263.244694 L83.9409225,266.134185 L84.9736956,269.23834 C84.4750526,269.961677 83.9374187,270.657339 83.3631789,271.322241 C83.0828698,271.65322 82.0309751,273.07506 81.6746001,273.464878 C81.1385664,273.802457 80.4627532,273.826877 79.9037566,273.528867 L79.9037566,273.528867 Z" id="Path" fill="#FCC8A3" fill-rule="nonzero"></path>
                    <path d="M83.363284,271.322452 C81.8175949,269.803591 81.0290278,267.674912 81.212111,265.515519 C82.1104373,265.768864 83.0213001,265.975434 83.9410276,266.134396 L84.9738007,269.23855 C84.4751576,269.961887 83.9375238,270.657549 83.363284,271.322452 Z" id="Path" fill="#FCBF95" fill-rule="nonzero"></path>
                    <path d="M86.4831414,270.223919 C86.4831414,270.223919 80.036977,268.72296 81.0333982,264.722642 C82.0298194,260.722325 81.8689673,257.834515 86.0268511,258.623714 C90.1847348,259.412913 90.600996,261.137887 90.5931162,262.553422 C90.5852365,263.968958 88.1855886,270.511292 86.4831414,270.223919 Z" id="Path" fill="#FDCDAD" fill-rule="nonzero"></path>
                    <path d="M94.837257,261.153017 C95.076007,260.917642 95.2286852,260.608818 95.2707486,260.276188 C95.3958791,259.354072 94.4938048,258.814735 93.9347625,258.237783 C93.3353216,257.595597 92.6921254,256.995704 92.009791,256.44241 C90.7206796,255.343061 89.175114,254.586673 87.5161247,254.243244 C86.6439905,254.10728 85.7519662,254.182589 84.9149652,254.462846 C84.0297637,254.761509 83.1158568,254.967125 82.1880449,255.076363 C79.9213022,255.337153 78.6831301,257.724189 79.0134494,259.832887 C79.2133523,260.781427 79.5782447,261.687495 80.0915049,262.509817 C80.5500424,263.371047 80.8382047,264.312631 80.9402069,265.282994 C80.9402069,265.282994 81.9522826,265.240965 82.065646,264.565874 C82.173336,263.924933 81.7874381,263.280523 81.8813648,262.633067 C81.891952,262.333097 82.0980533,262.075598 82.3884007,261.999586 C82.9412443,261.842607 83.2617927,262.212567 83.5642702,262.615625 C83.7733464,262.894172 84.1265695,263.424683 84.5076344,263.070168 C84.8418411,262.758944 84.9301994,262.259535 85.2771187,261.935386 C86.3147248,260.966619 87.8960339,261.548615 89.102792,261.776622 C90.3455869,262.011879 93.6334407,262.359038 94.837257,261.153017 Z" id="Path" fill="#243962" fill-rule="nonzero"></path>
                    <polygon id="Path" fill="#2B4F97" fill-rule="nonzero" points="81.8445926 273.142201 78.07807 267.391587 79.2684383 266.108653 82.6956061 271.313941"></polygon>
                    <path d="M75.6464829,270.204796 C75.431991,270.398185 75.2721305,270.644592 75.1829432,270.919289 C74.4314193,273.20363 74.7111534,275.70197 75.9492756,277.763496 C77.2864654,279.943962 78.7556434,282.040668 80.348595,284.041889 C81.7747255,285.841044 83.4675068,288.232807 85.6976875,289.050166 C87.8506733,289.652326 90.065054,290.008103 92.2982951,290.110662 C94.4464212,290.359683 96.5978043,290.578479 98.7524443,290.767049 C100.648523,290.936426 102.546599,291.092774 104.44688,291.20394 C105.405514,291.33487 106.375953,291.356022 107.33938,291.266984 C108.083779,291.147266 108.814829,290.955699 109.522283,290.69497 L109.092678,287.525775 C109.092678,287.525775 92.2405102,282.584955 90.9062051,281.467194 C89.5719001,280.349434 85.4808366,274.320168 85.4744278,274.310921 C84.8460989,273.200069 84.0856551,272.169345 83.2096813,271.241231 C82.130064,270.221025 80.7382288,269.594359 79.2587724,269.462354 C78.1871258,269.378191 76.5099989,269.413811 75.6464829,270.204796 Z" id="Path" fill="#2B4F97" fill-rule="nonzero"></path>
                    <path d="M109.137645,288.082659 C109.179658,288.07356 109.219555,288.056551 109.255211,288.032539 C110.086155,287.548537 110.795893,286.881535 111.330529,286.082185 C111.619348,285.656116 111.767487,285.149142 112.069334,284.731164 C112.264029,284.459861 112.53699,284.254555 112.851636,284.142758 C113.922548,283.860849 112.698664,286.177486 112.543801,286.48787 C112.517906,286.529575 112.504422,286.577792 112.504927,286.626881 C112.51976,286.701101 112.581681,286.756698 112.657059,286.763475 C112.73063,286.768261 112.804113,286.752895 112.869602,286.719029 C113.587011,286.38371 114.252268,285.946585 114.844794,285.421174 C115.359538,284.839374 115.95416,284.333495 116.61091,283.918639 C116.855859,283.800394 117.145615,283.823993 117.368207,283.980316 C117.62097,284.282716 117.679242,284.702767 117.518342,285.062562 C117.275067,285.835868 116.952083,286.581791 116.554596,287.288311 C116.379312,287.64182 116.165318,287.974769 115.916546,288.281036 C115.246918,288.948156 114.388863,289.393906 113.458062,289.558191 C111.769358,289.96883 110.061123,290.294508 108.339794,290.533999 C108.276756,289.787144 108.213998,289.040254 108.15152,288.293329" id="Path" fill="#FAB58F" fill-rule="nonzero"></path>
                    <path d="M109.137645,295.225272 C109.179674,295.216168 109.219577,295.199121 109.255211,295.175048 C110.086202,294.691108 110.795953,294.024093 111.330529,293.224693 C111.619348,292.798625 111.767487,292.291755 112.069334,291.873777 C112.264029,291.602475 112.53699,291.397168 112.851636,291.285372 C113.922548,291.003357 112.698664,293.320099 112.543801,293.630483 C112.517909,293.672151 112.504425,293.720333 112.504927,293.769389 C112.519791,293.843591 112.581695,293.899173 112.657059,293.905983 C112.730639,293.910732 112.804121,293.895329 112.869602,293.861432 C113.587055,293.52619 114.252322,293.089058 114.844794,292.563578 C115.359567,291.981806 115.954185,291.475931 116.61091,291.061042 C116.855886,290.942874 117.145619,290.966511 117.368207,291.122824 C117.62097,291.425224 117.679242,291.845275 117.518342,292.20507 C117.275067,292.978376 116.952083,293.7243 116.554596,294.43082 C116.379312,294.784328 116.165318,295.117277 115.916546,295.423544 C115.246918,296.090664 114.388863,296.536414 113.458062,296.700699 C111.769356,297.111303 110.061121,297.436946 108.339794,297.676402 C108.276756,296.929547 108.213998,296.182692 108.15152,295.435837" id="Path" fill="#FDCDAD" fill-rule="nonzero"></path>
                    <path d="M72.4179899,303.193965 L62.5176563,303.76787 C62.5176563,303.76787 63.3728723,331.626142 62.5564247,337.063851 C61.7399771,342.501559 60.3869707,356.53976 60.1884009,361.381812 L65.649596,361.979885 C65.649596,361.979885 74.7304352,334.038395 74.6136047,329.577756 C74.4502311,323.332356 74.3170107,307.050123 72.4179899,303.193965 Z" id="Path" fill="#5884C3" fill-rule="nonzero"></path>
                    <path d="M70.2141802,308.680847 L50.2056976,302.380179 C49.7907662,304.439908 49.5023874,306.523122 49.3421816,308.618119 C49.1841106,310.294813 49.1700507,311.981973 49.3001563,313.66107 C49.6573718,317.544231 51.0547149,321.218719 51.8394334,325.017928 C52.3144477,326.935012 52.4342716,328.922906 52.1929717,330.883175 C51.8617068,332.958041 51.164191,334.949478 50.6747006,336.987883 C50.0872912,339.434074 49.5136451,341.884258 48.9915851,344.345159 C47.8621863,349.377782 47.3934383,354.536148 47.5971837,359.689936 L52.1890844,360.198592 C56.0431248,350.739237 61.3220349,341.020037 64.2808302,331.244099 C66.1614649,325.030431 69.042093,316.885637 70.2141802,308.680847 C70.7490579,304.936381 69.9921812,312.456835 70.2141802,308.680847 Z" id="Path" fill="#5884C3" fill-rule="nonzero"></path>
                    <path d="M78.4694312,267.591855 C70.8552308,269.366808 64.2207694,274.014341 59.9509576,280.564307 C54.8089451,288.76542 50.6137639,299.485644 49.5940186,303.736033 L74.206379,311.440679 C73.0262019,310.995172 79.6039057,285.318204 80.1758708,282.727853 C80.6202669,280.8989 80.9498289,279.043937 81.1626261,277.17383 C81.5424303,273.049002 81.7227191,272.092317 81.7227191,272.092317 L78.4694312,267.591855 Z" id="Path" fill="#2B4F97" fill-rule="nonzero"></path>
                    <path d="M75.6464829,277.347409 C75.4319683,277.540779 75.2721035,277.787192 75.1829432,278.061902 C74.4314193,280.346243 74.7111534,282.844583 75.9492756,284.906109 C77.2864913,287.086525 78.7556683,289.183194 80.348595,291.184397 C81.7747255,292.983657 83.4675068,295.375421 85.6976875,296.192674 C87.8506511,296.794935 90.0650434,297.150714 92.2982951,297.25317 C94.4464212,297.502297 96.5985397,297.71717 98.7524443,297.909663 C100.648523,298.079039 102.546599,298.235387 104.44688,298.346449 C105.405506,298.477484 106.375957,298.498635 107.33938,298.409492 C108.083781,298.289833 108.814832,298.098301 109.522283,297.837583 L109.092678,294.668283 C109.092678,294.668283 92.2405102,289.727568 90.9062051,288.609807 C89.5719001,287.492047 85.4808366,281.462781 85.4744278,281.453535 C84.8461258,280.342665 84.0856796,279.311938 83.2096813,278.383844 C82.1300918,277.363597 80.7382415,276.736924 79.2587724,276.604968 C78.1871258,276.520805 76.5099989,276.556424 75.6464829,277.347409 Z" id="Path" fill="#2B4F97" fill-rule="nonzero"></path>
                    <rect id="Rectangle" fill="#ECEDED" fill-rule="nonzero" x="103.787607" y="106.912057" width="59.8015575" height="186.065401"></rect>
                    <rect id="Rectangle" fill="#DBDBDD" fill-rule="nonzero" x="112.760546" y="115.772289" width="43.0766212" height="5.68736017"></rect>
                    <rect id="Rectangle" fill="#DBDBDD" fill-rule="nonzero" x="112.760546" y="130.67986" width="43.0766212" height="5.68736017"></rect>
                    <rect id="Rectangle" fill="#DBDBDD" fill-rule="nonzero" x="112.760546" y="145.587535" width="43.0766212" height="5.68736017"></rect>
                    <rect id="Rectangle" fill="#DBDBDD" fill-rule="nonzero" x="112.760546" y="160.495106" width="43.0766212" height="5.68736017"></rect>
                    <rect id="Rectangle" fill="#DBDBDD" fill-rule="nonzero" x="112.760546" y="175.402676" width="43.0766212" height="5.68736017"></rect>
                    <rect id="Rectangle" fill="#DBDBDD" fill-rule="nonzero" x="112.760546" y="190.310247" width="43.0766212" height="5.68736017"></rect>
                    <rect id="Rectangle" fill="#DBDBDD" fill-rule="nonzero" x="112.760546" y="205.217817" width="43.0766212" height="5.68736017"></rect>
                    <path d="M126.197314,74.6463122 C126.197314,74.6463122 121.440148,69.4537381 124.719177,66.5408153 C127.998205,63.6278925 129.592437,60.9958283 132.768399,64.1879285 C135.94436,67.3800287 135.273215,69.1447201 134.415267,70.3832088 C133.55732,71.6216974 127.519221,75.9223117 126.197314,74.6463122 Z" id="Path" fill="#FAAF7C" fill-rule="nonzero"></path>
                    <path d="M137.730753,71.0777375 C137.80906,71.0652689 137.887928,71.0490177 137.967355,71.0289839 C138.436632,70.9314645 138.819027,70.5924262 138.972077,70.1381799 C139.027638,69.8284324 139.010591,69.5100172 138.922277,69.2079737 C138.544947,67.5287376 138.266054,65.8288859 138.087023,64.1171097 C138.058982,63.6680626 137.972486,63.2245925 137.829722,62.7979254 C137.355103,61.6410654 136.441086,60.7196773 135.288134,60.2358394 C134.060363,59.6826331 132.596305,59.6150715 131.507323,58.7688182 C129.586764,57.2767898 126.324651,59.1680934 125.607068,61.7725236 C124.887278,64.3855697 125.661701,64.2726169 124.300394,66.9768659 C124.300394,66.9768659 125.214446,67.5488801 125.719906,67.0234129 C126.218747,66.504145 126.866778,64.6046457 127.851852,65.594428 C128.268639,66.0140872 127.838089,67.3176157 128.762331,67.1786049 C129.242681,67.1063151 129.620384,66.7209094 130.11975,66.6450471 C131.612806,66.4183008 132.651778,67.8797532 133.573709,68.8053362 C134.659014,69.8943068 136.046692,71.3466178 137.730753,71.0777375 Z" id="Path" fill="#8E5728" fill-rule="nonzero"></path>
                    <path d="M103.517489,102.537157 C104.752258,102.789041 106.024979,102.790898 107.260478,102.542621 C107.303815,102.531872 107.349683,102.542191 107.384243,102.570465 C108.442895,103.488579 109.68185,104.175109 111.021537,104.585964 C112.747729,104.939953 114.638975,105.125721 114.957212,105.474667 C115.189933,105.893122 115.322625,106.359779 115.344896,106.838086 C115.349635,106.881673 115.335525,106.925209 115.30612,106.957728 C115.276715,106.990247 115.234817,107.008651 115.190978,107.008304 C113.800779,107.012822 108.889381,107.130713 108.512623,107.036883 C108.093525,106.932441 107.839167,106.485253 107.453689,106.323336 C107.143911,106.204046 106.815158,106.141614 106.483219,106.139039 C106.426169,106.136623 105.663724,106.107518 105.663724,106.119286 L105.670554,106.841764 L103.476515,106.862778 C103.434752,106.863087 103.394599,106.846682 103.364998,106.817217 C103.335397,106.787752 103.318919,106.747673 103.318919,106.705905 L103.331632,102.690037 C103.330564,102.643082 103.351121,102.598238 103.387392,102.568403 C103.423663,102.538568 103.471627,102.527048 103.517489,102.537157 Z" id="Path" fill="#40312B" fill-rule="nonzero"></path>
                    <path d="M119.298326,77.2275214 C116.688762,73.6727111 117.738975,65.6292069 117.738975,65.6292069 C120.693434,67.3196392 124.265919,67.5399292 127.405648,66.2252828 L126.244172,69.4010968 L124.996229,72.812168 C124.063017,73.0960121 123.115068,73.3289159 122.156576,73.5098489 C121.68379,73.6037836 121.155742,73.7004503 120.576632,73.7935444 C120.363952,75.0067119 119.930689,76.1706085 119.298326,77.2275214 L119.298326,77.2275214 Z" id="Path" fill="#FAAF7C" fill-rule="nonzero"></path>
                    <path d="M122.156786,73.5101641 C121.863119,71.1218986 122.648793,68.7269668 124.300079,66.9768659 C124.905615,67.8180142 125.554378,68.6271787 126.243752,69.4010968 L124.996229,72.812168 C124.063092,73.096111 123.115213,73.3291201 122.156786,73.5101641 L122.156786,73.5101641 Z" id="Path" fill="#EA8E50" fill-rule="nonzero"></path>
                    <path d="M121.115713,79.2005714 C121.115713,79.2005714 125.554431,86.1983948 131.655462,88.8075532 C133.734562,89.6967812 135.813976,90.5863243 137.921338,91.4068349 C138.437409,91.6078734 138.955267,91.8043589 139.47491,91.9962912 C139.97418,92.1351892 140.462884,92.3095985 140.937287,92.5181859 C140.964919,92.5333163 140.994862,92.5538054 140.999065,92.585117 C141.005158,92.6309286 140.954518,92.6618199 140.911127,92.6776858 C140.549199,92.7911192 140.164624,92.8120709 139.792517,92.7386278 C139.419437,92.6818887 139.052975,92.5824902 138.677689,92.5423526 C138.615386,92.5272556 138.549596,92.5404455 138.497926,92.5783924 C138.450673,92.6390451 138.456177,92.7254406 138.510743,92.7796061 C138.565404,92.8303867 138.63201,92.8665297 138.704375,92.8846785 C139.701847,93.2224864 140.705518,93.5422217 141.703935,93.8723593 C142.445683,94.1179136 143.216007,94.9546053 142.576907,95.6968369 C142.366433,95.924862 142.094724,96.0874126 141.79429,96.1650396 C140.983842,96.3530524 140.148146,96.4075305 139.320152,96.3263258 C138.044451,96.2274338 136.802066,95.8707714 135.668148,95.2779131 C133.296972,94.1280005 131.233317,92.3994541 128.790278,91.3915994 C126.595714,90.4862954 118.33458,87.6750827 116.467288,82.2462007 L121.115713,79.2005714 Z" id="Path" fill="#F5B690" fill-rule="nonzero"></path>
                    <path d="M108.42395,77.0249418 C108.373624,79.5920712 108.381924,82.1651898 108.48163,84.7309533 C108.525126,85.8532319 108.580284,86.9795032 108.720544,88.094847 C109.16764,90.5264178 110.135727,92.8323903 111.558306,94.8543662 C113.172848,97.5153776 115.085865,99.9833606 117.260201,102.210382 C117.878955,102.74826 118.529415,103.248533 119.208077,103.708504 C120.408111,104.591112 120.786759,106.326173 121.668871,107.504456 C122.506422,108.847873 123.911889,109.734894 125.484879,109.912821 C126.1256,109.991692 126.774159,109.981402 127.412057,109.882245 C129.005238,109.443672 126.507566,107.759782 126.033835,107.340332 C125.538356,106.902496 124.303861,106.49471 124.209304,105.743232 C124.143745,105.220917 124.866161,105.450605 125.13008,105.536239 C125.400408,105.623974 126.97846,106.201558 126.775898,105.454072 C126.670204,105.065304 125.779582,104.70354 125.472271,104.527228 C124.790935,104.136359 124.095941,103.781845 123.394117,103.433635 C122.769095,103.123566 122.508223,102.412331 122.174331,101.847882 C121.801566,101.217867 121.430343,100.586943 121.060659,99.955107 C120.155013,98.4074953 119.256721,96.8554705 118.381543,95.2898914 C117.939121,94.4991163 117.520023,93.6937362 117.087687,92.9007546 C116.53073,91.9630908 116.238911,90.8917362 116.243398,89.8011181 C116.240666,89.0235821 116.257056,88.2451006 116.276283,87.4673545 C116.32104,85.6554856 116.391222,83.8442472 116.468128,82.033429 C116.508263,81.0911395 116.550988,80.1489901 116.596306,79.2069808 L108.42395,77.0249418 Z" id="Path" fill="#F5B690" fill-rule="nonzero"></path>
                    <polygon id="Rectangle" fill="#F5B690" fill-rule="nonzero" transform="translate(105.350654, 101.434985) rotate(-0.547700) translate(-105.350654, -101.434985) " points="104.100296 100.045561 106.601015 100.045559 106.601013 102.824409 104.100294 102.824411"></polygon>
                    <polygon id="Rectangle" fill="#F5B690" fill-rule="nonzero" transform="translate(64.136048, 98.165877) rotate(8.910400) translate(-64.136048, -98.165877) " points="62.8856664 96.6563407 65.3863904 96.6563736 65.3864301 99.6754133 62.8857061 99.6753804"></polygon>
                    <path d="M64.0539983,96.1357244 C63.5750269,97.3014445 63.3344942,98.5513361 63.3466065,99.8115781 C63.3490283,99.8561474 63.3303011,99.8992508 63.296071,99.9278932 C62.1957877,100.795677 61.2891219,101.883984 60.63429,103.122936 C59.9628298,104.752189 59.4260609,106.5753 59.0232479,106.82243 C58.5686031,106.972585 58.0853603,107.015382 57.611406,106.947467 C57.5677024,106.943991 57.5275705,106.921992 57.5011309,106.887017 C57.4746912,106.852042 57.4644674,106.80743 57.4730375,106.764431 C57.7293922,105.398489 58.5348082,100.551183 58.6976564,100.198665 C58.8787857,99.8065346 59.3657546,99.6405202 59.5971041,99.2922051 C59.7723387,99.0102645 59.8953039,98.6990342 59.9600982,98.3734518 C59.973126,98.3179736 60.1447996,97.5749014 60.1331376,97.5724847 L59.4222787,97.4436659 L59.8132195,95.2844276 C59.8205862,95.2432124 59.8441637,95.2066697 59.8786783,95.1829734 C59.9131929,95.1592772 59.9557644,95.1504047 59.9968704,95.1583407 L63.9388488,95.9240034 C63.9852454,95.9317986 64.0254807,95.9604974 64.0479603,96.0018296 C64.0704398,96.0431619 64.0726664,96.0925362 64.0539983,96.1357244 L64.0539983,96.1357244 Z" id="Path" fill="#40312B" fill-rule="nonzero"></path>
                    <path d="M120.328473,66.6104783 L116.467288,82.2465159 L106.603201,80.3399767 L95.2458486,82.0789254 L85.0164564,70.0604263 C85.0164564,70.0604263 108.440445,55.4970731 120.328473,66.6104783 Z" id="Path" fill="#40649B" fill-rule="nonzero"></path>
                    <path d="M85.5189746,70.3335095 L96.6946727,82.5097223 C96.6946727,82.5097223 97.3821025,96.2867135 96.5258359,99.7408643 C96.2745132,101.309745 95.7142358,102.813114 94.8774963,104.163783 C93.9734671,105.221092 92.7322134,105.933908 91.363441,106.181804 C87.5376627,107.107597 64.8011041,100.599936 64.8011041,100.599936 L65.2026564,96.0941157 C71.3456217,94.7397697 77.7571121,95.3191091 83.5578614,97.7526839 C84.7871031,98.278046 84.5122572,97.5548325 84.1616607,96.8087133 C83.7387805,95.9085578 83.3068649,95.0126052 82.8821987,94.1132904 C81.8245255,91.8734615 80.7510928,89.6266979 79.8689806,87.3097458 C79.5904231,86.6816109 79.3897329,86.0217603 79.27138,85.3448915 C79.0054508,83.3413625 79.0156318,81.310818 79.3016383,79.3100568 C79.9561832,75.3725728 82.6564175,72.8198383 85.5189746,70.3335095 Z" id="Path" fill="#222C55" fill-rule="nonzero"></path>
                    <path d="M92.4386598,81.0682337 C95.9380062,79.4913068 99.4906197,77.9774233 103.117933,76.7196013 C105.854414,75.7706922 109.180091,75.2170656 111.898291,76.5550579 C113.470115,77.2487708 114.393781,78.8984306 114.163773,80.6011868 C113.53728,84.8311924 107.320469,101.11973 107.320469,101.11973 L102.870719,100.717618 C101.620956,96.1511172 101.899876,91.3010437 103.664893,86.9079489 C104.225091,85.5534603 101.459508,84.872591 100.353085,85.4018408 C99.2466625,85.9310906 95.6338477,87.8185065 94.8950419,88.0477745 C94.1562361,88.2770426 92.4386598,81.0682337 92.4386598,81.0682337 Z" id="Path" fill="#222C55" fill-rule="nonzero"></path>
                    <path d="M118.806524,70.1821001 C119.277936,73.2569687 120.051409,76.2778495 121.115713,79.2008866 L116.467288,82.2465159 L114.455639,72.37265 L118.806524,70.1821001 Z" id="Path" fill="#40649B" fill-rule="nonzero"></path>
                    <polygon id="Rectangle" fill="#317299" fill-rule="nonzero" transform="translate(143.809684, 93.697091) rotate(-32.210500) translate(-143.809684, -93.697091) " points="120.403728 89.4341056 167.215971 89.4322907 167.21564 97.9600756 120.403398 97.9618905"></polygon>
                </g>
            </g>
        </g>
    </g>
</svg>