<?xml version="1.0" encoding="UTF-8"?>
<svg width="375px" height="41px" viewBox="0 0 375 41" version="1.1" xmlns="http://www.w3.org/2000/svg" xmlns:xlink="http://www.w3.org/1999/xlink">
    <title>GW-Documentation logotype</title>
    <g id="GW-Documentation-logotype" stroke="none" stroke-width="1" fill="none" fill-rule="evenodd">
        <g id="Group-2" transform="translate(41.914000, 13.000000)" fill="#fff" fill-rule="nonzero">
            <g id="Group">
                <path d="M14.537,15.021 C13.552,15.535 12.525,15.906 11.454,16.134 C10.384,16.362 9.292,16.477 8.179,16.477 C6.994,16.477 5.902,16.291 4.903,15.92 C3.93966117,15.5710769 3.0581534,15.0282179 2.313,14.325 C1.57354072,13.6164171 0.993059628,12.7588185 0.61,11.809 C0.204,10.825 -3.55271368e-15,9.726 -3.55271368e-15,8.512 C-3.55271368e-15,7.299 0.204,6.2 0.61,5.215 C0.992809116,4.26558632 1.57294825,3.4083302 2.312,2.7 C3.05763331,1.99666877 3.93941909,1.45350778 4.903,1.104 C5.903,0.734 6.994,0.548 8.179,0.548 C9.391,0.548 10.509,0.694 11.529,0.988 C12.5318645,1.27082498 13.4529455,1.78844031 14.216,2.498 L11.861,5.065 C11.4246282,4.60865433 10.9009033,4.24476759 10.321,3.995 C9.748,3.752 9.035,3.631 8.179,3.631 C7.465,3.631 6.819,3.752 6.241,3.995 C5.67958083,4.2266625 5.17275349,4.57306264 4.753,5.012 C4.33182645,5.45817104 4.00737809,5.98654863 3.8,6.564 C3.5752521,7.18860003 3.46350832,7.84822694 3.47,8.512 C3.47,9.226 3.58,9.879 3.8,10.472 C4.021,11.063 4.34,11.578 4.753,12.013 C5.167,12.448 5.663,12.787 6.241,13.03 C6.819,13.272 7.465,13.394 8.179,13.394 C8.907,13.394 9.535,13.312 10.063,13.147 C10.59,12.983 11.013,12.815 11.326,12.644 L11.326,10.182 L8.607,10.182 L8.607,7.1 L14.537,7.1 L14.537,15.022 L14.537,15.021 Z M33.463,10.247 C33.463,11.146 33.327,11.974 33.056,12.73 C32.7981073,13.4656028 32.3855019,14.1373653 31.846,14.7 C31.312,15.257 30.644,15.692 29.846,16.006 C29.046,16.32 28.126,16.476 27.083,16.476 C26.026,16.476 25.099,16.32 24.3,16.006 C23.501,15.692 22.833,15.256 22.298,14.7 C21.7584981,14.1373653 21.3458927,13.4656028 21.088,12.73 C20.8098587,11.9320736 20.6721531,11.091968 20.681,10.247 L20.681,0.934 L24.022,0.934 L24.022,10.119 C24.022,10.589 24.096,11.025 24.246,11.424 C24.396,11.824 24.607,12.17 24.878,12.463 C25.149,12.755 25.473,12.983 25.852,13.148 C26.23,13.312 26.64,13.394 27.083,13.394 C27.9101732,13.4078732 28.70423,13.069381 29.267,12.463 C29.538,12.17 29.749,11.823 29.898,11.423 C30.048,11.025 30.123,10.589 30.123,10.119 L30.123,0.934 L33.463,0.934 L33.463,10.247 L33.463,10.247 Z" id="Shape"></path>
                <g id="Clipped" transform="translate(39.086000, 0.000000)">
                    <path d="M0.629,16.092 L3.969,16.092 L3.969,0.934 L0.629,0.934 L0.629,16.092 Z M13.56,13.009 L15.294,13.009 C16.065,13.009 16.782,12.931 17.446,12.774 C18.109,12.616 18.684,12.356 19.169,11.992 C19.6641486,11.6161628 20.057983,11.1230106 20.315,10.557 C20.593,9.966 20.732,9.241 20.732,8.384 C20.732,7.643 20.593,6.997 20.315,6.447 C20.0501707,5.91308885 19.665487,5.4476352 19.191,5.087 C18.6932187,4.7173342 18.1299749,4.44521277 17.531,4.285 C16.8795256,4.1039386 16.2061594,4.01375263 15.53,4.01691534 L13.56,4.01691534 L13.56,13.009 L13.56,13.009 Z M10.22,0.934 L15.23,0.934 C16.443,0.934 17.596,1.07 18.688,1.341 C19.779,1.611 20.732,2.051 21.545,2.657 C22.359,3.264 23.005,4.053 23.483,5.023 C23.961,5.993 24.201,7.172 24.201,8.556 C24.201,9.783 23.968,10.865 23.505,11.799 C23.0585675,12.7109336 22.4191197,13.5148498 21.631,14.155 C20.8232197,14.8019881 19.9012918,15.2917835 18.913,15.599 C17.867536,15.9304932 16.7767494,16.0968272 15.68,16.0921021 L10.22,16.0921021 L10.22,0.934 Z M29.81,0.934 L40.107,0.934 L40.107,4.017 L33.15,4.017 L33.15,6.843 L39.722,6.843 L39.722,9.926 L33.15,9.926 L33.15,13.009 L40.493,13.009 L40.493,16.092 L29.81,16.092 L29.81,0.934 Z M44.796,0.934 L48.436,0.934 L50.855,10.654 L50.898,10.654 L54.067,0.934 L57.171,0.934 L60.318,10.911 L60.361,10.911 L62.909,0.934 L66.291,0.934 L61.86,16.092 L58.884,16.092 L55.544,5.601 L55.501,5.601 L52.161,16.091 L49.291,16.091 L44.796,0.934 Z M70.958,16.092 L74.298,16.092 L74.298,0.934 L70.958,0.934 L70.958,16.092 Z M83.89,7.207 L85.86,7.207 C86.16,7.207 86.477,7.196 86.812,7.175 C87.148,7.153 87.451,7.089 87.722,6.982 C87.994,6.875 88.218,6.707 88.397,6.479 C88.575,6.251 88.664,5.929 88.664,5.515 C88.664,5.13 88.586,4.823 88.429,4.595 C88.2771999,4.37155823 88.0706149,4.1907963 87.829,4.07 C87.5660107,3.94284112 87.2839237,3.85973524 86.994,3.824 C86.6891449,3.78177671 86.381765,3.76039377 86.074,3.76 L83.89,3.76 L83.89,7.207 L83.89,7.207 Z M80.55,0.934 L86.416,0.934 C87.186,0.934 87.918,1.009 88.611,1.159 C89.303,1.309 89.91,1.558 90.431,1.908 C90.951,2.258 91.366,2.728 91.671,3.321 C91.979,3.914 92.133,4.651 92.133,5.537 C92.133,6.607 91.853,7.517 91.298,8.267 C90.741,9.016 89.928,9.491 88.857,9.69 L92.711,16.092 L88.707,16.092 L85.537,10.032 L83.89,10.032 L83.89,16.092 L80.55,16.092 L80.55,0.934 L80.55,0.934 Z M97.763,0.934 L108.061,0.934 L108.061,4.017 L101.103,4.017 L101.103,6.843 L107.676,6.843 L107.676,9.926 L101.103,9.926 L101.103,13.009 L108.447,13.009 L108.447,16.092 L97.763,16.092 L97.763,0.934 Z" id="Shape"></path>
                </g>
            </g>
        </g>
        <polygon id="Path" fill="#fff" fill-rule="nonzero" points="32.33 11.866 32.33 6 3 6 3 35.329 8.866 35.329 20.598 35.33 20.598 29.464 8.866 29.464 8.866 11.866"></polygon>
        <polygon id="Path" fill="#fff" fill-rule="nonzero" points="32.33 17.732 32.33 35.329 26.464 35.329 26.464 23.6 14.732 23.6 14.732 17.733"></polygon>
        <rect id="Rectangle" fill="#fff" x="200" y="6" width="1" height="30"></rect>
        <path d="M212.676,29 C217.032,29 219.408,26.316 219.408,21.718 C219.408,17.142 217.032,14.568 212.588,14.568 L208.98,14.568 L208.98,29 L212.676,29 Z M212.456,27.504 L210.806,27.504 L210.806,16.064 L212.456,16.064 C215.822,16.064 217.516,18.088 217.516,21.718 C217.516,25.37 215.822,27.504 212.456,27.504 Z M227.834,29.264 C231.464,29.264 234.016,26.36 234.016,21.718 C234.016,17.12 231.464,14.304 227.834,14.304 C224.204,14.304 221.674,17.098 221.674,21.718 C221.674,26.36 224.204,29.264 227.834,29.264 Z M227.834,27.658 C225.26,27.658 223.566,25.326 223.566,21.718 C223.566,18.132 225.26,15.91 227.834,15.91 C230.408,15.91 232.102,18.132 232.102,21.718 C232.102,25.326 230.408,27.658 227.834,27.658 Z M242.574,29.264 C244.444,29.264 245.852,28.494 246.996,27.174 L245.984,26.03 C245.06,27.042 244.026,27.658 242.64,27.658 C239.912,27.658 238.174,25.37 238.174,21.74 C238.174,18.154 239.978,15.91 242.706,15.91 C243.938,15.91 244.884,16.46 245.654,17.274 L246.644,16.086 C245.808,15.14 244.444,14.304 242.684,14.304 C239.01,14.304 236.282,17.142 236.282,21.784 C236.282,26.492 238.966,29.264 242.574,29.264 Z M254.806,29.264 C257.754,29.264 259.976,27.68 259.976,23.038 L259.976,14.568 L258.216,14.568 L258.216,23.082 C258.216,26.558 256.72,27.658 254.806,27.658 C252.914,27.658 251.44,26.558 251.44,23.082 L251.44,14.568 L249.614,14.568 L249.614,23.038 C249.614,27.68 251.858,29.264 254.806,29.264 Z M265.52,29 L265.52,21.058 C265.52,19.782 265.388,18.066 265.3,16.79 L265.388,16.79 L266.532,20.068 L269.26,27.548 L270.47,27.548 L273.198,20.068 L274.342,16.79 L274.43,16.79 C274.342,18.066 274.188,19.782 274.188,21.058 L274.188,29 L275.904,29 L275.904,14.568 L273.682,14.568 L270.954,22.268 C270.602,23.258 270.316,24.292 269.964,25.282 L269.876,25.282 C269.524,24.292 269.194,23.258 268.842,22.268 L266.07,14.568 L263.87,14.568 L263.87,29 L265.52,29 Z M288.4,29 L288.4,27.438 L281.69,27.438 L281.69,22.202 L287.168,22.202 L287.168,20.64 L281.69,20.64 L281.69,16.108 L288.18,16.108 L288.18,14.568 L279.864,14.568 L279.864,29 L288.4,29 Z M293.196,29 L293.196,21.454 C293.196,19.936 293.064,18.396 292.954,16.944 L293.042,16.944 L294.604,19.914 L299.84,29 L301.732,29 L301.732,14.568 L299.994,14.568 L299.994,22.026 C299.994,23.544 300.126,25.172 300.214,26.624 L300.126,26.624 L298.564,23.632 L293.35,14.568 L291.458,14.568 L291.458,29 L293.196,29 Z M310.532,29 L310.532,16.108 L314.888,16.108 L314.888,14.568 L304.328,14.568 L304.328,16.108 L308.684,16.108 L308.684,29 L310.532,29 Z M317.44,29 L318.826,24.6 L324.084,24.6 L325.448,29 L327.406,29 L322.522,14.568 L320.454,14.568 L315.57,29 L317.44,29 Z M323.622,23.126 L319.288,23.126 L319.97,20.926 C320.498,19.32 320.96,17.736 321.4,16.064 L321.488,16.064 C321.95,17.736 322.412,19.32 322.94,20.926 L323.622,23.126 Z M334.292,29 L334.292,16.108 L338.648,16.108 L338.648,14.568 L328.088,14.568 L328.088,16.108 L332.444,16.108 L332.444,29 L334.292,29 Z M343.07,29 L343.07,14.568 L341.244,14.568 L341.244,29 L343.07,29 Z M352.354,29.264 C355.984,29.264 358.536,26.36 358.536,21.718 C358.536,17.12 355.984,14.304 352.354,14.304 C348.724,14.304 346.194,17.098 346.194,21.718 C346.194,26.36 348.724,29.264 352.354,29.264 Z M352.354,27.658 C349.78,27.658 348.086,25.326 348.086,21.718 C348.086,18.132 349.78,15.91 352.354,15.91 C354.928,15.91 356.622,18.132 356.622,21.718 C356.622,25.326 354.928,27.658 352.354,27.658 Z M363.376,29 L363.376,21.454 C363.376,19.936 363.244,18.396 363.134,16.944 L363.222,16.944 L364.784,19.914 L370.02,29 L371.912,29 L371.912,14.568 L370.174,14.568 L370.174,22.026 C370.174,23.544 370.306,25.172 370.394,26.624 L370.306,26.624 L368.744,23.632 L363.53,14.568 L361.638,14.568 L361.638,29 L363.376,29 Z" id="DOCUMENTATION" fill="#fff" fill-rule="nonzero"></path>
    </g>
</svg>