<svg width="24" height="24" viewBox="0 0 24 24" fill="none" xmlns="http://www.w3.org/2000/svg">
<g id="Action/Arrow Down Circle">
<path id="Icon" fill-rule="evenodd" clip-rule="evenodd" d="M2 12C2 6.48 6.48 2 12 2C17.52 2 22 6.48 22 12C22 17.52 17.52 22 12 22C6.48 22 2 17.52 2 12ZM9.7125 10.3025L12.1725 12.7625L14.6425 10.3125C15.0325 9.9225 15.6625 9.9225 16.0525 10.3125C16.4425 10.7025 16.4425 11.3325 16.0525 11.7225L12.8825 14.8925C12.4925 15.2825 11.8625 15.2825 11.4725 14.8925L8.3025 11.7125C7.9125 11.3225 7.9125 10.6925 8.3025 10.3025C8.6925 9.9125 9.3225 9.9125 9.7125 10.3025Z" fill="#28333F"/>
</g>
</svg>
