<svg width="18" height="18" viewBox="0 0 18 18" fill="none"
    xmlns="http://www.w3.org/2000/svg">
    <g clip-path="url(#clip0_125_180)">
        <path d="M6.75 15.75H3.75C2.925 15.75 2.25 15.075 2.25 14.25V3.75C2.25 2.925 2.925 2.25 3.75 2.25H6.75C7.575 2.25 8.25 2.925 8.25 3.75V14.25C8.25 15.075 7.575 15.75 6.75 15.75ZM11.25 15.75H14.25C15.075 15.75 15.75 15.075 15.75 14.25V10.5C15.75 9.675 15.075 9 14.25 9H11.25C10.425 9 9.75 9.675 9.75 10.5V14.25C9.75 15.075 10.425 15.75 11.25 15.75ZM15.75 6V3.75C15.75 2.925 15.075 2.25 14.25 2.25H11.25C10.425 2.25 9.75 2.925 9.75 3.75V6C9.75 6.825 10.425 7.5 11.25 7.5H14.25C15.075 7.5 15.75 6.825 15.75 6Z" fill="black"/>
    </g>
    <defs>
        <clipPath id="clip0_125_180">
            <rect width="18" height="18" fill="white"/>
        </clipPath>
    </defs>
</svg>
