<svg width="17" height="14" viewBox="0 0 17 14" fill="none"
    xmlns="http://www.w3.org/2000/svg">
    <path d="M13.6029 5.21958L13.3851 5.6106C13.3054 5.75552 13.1354 5.81568 12.984 5.75826C12.6706 5.63794 12.3837 5.46568 12.1313 5.24966C12.0092 5.14576 11.9773 4.96255 12.057 4.82036L12.2748 4.42935C12.0915 4.2106 11.9481 3.9563 11.8524 3.68013H11.4142C11.2548 3.68013 11.1167 3.56255 11.0901 3.39849C11.037 3.07036 11.0343 2.72583 11.0901 2.38404C11.1167 2.21997 11.2548 2.09966 11.4142 2.09966H11.8524C11.9481 1.82349 12.0915 1.56919 12.2748 1.35044L12.057 0.959427C11.9773 0.81724 12.0065 0.634036 12.1313 0.53013C12.3837 0.314115 12.6732 0.141849 12.984 0.0215364C13.1354 -0.0358855 13.3054 0.0242708 13.3851 0.169193L13.6029 0.560208C13.8818 0.508255 14.166 0.508255 14.4449 0.560208L14.6627 0.169193C14.7424 0.0242708 14.9124 -0.0358855 15.0638 0.0215364C15.3773 0.141849 15.6642 0.314115 15.9165 0.53013C16.0387 0.634036 16.0706 0.81724 15.9909 0.959427L15.7731 1.35044C15.9563 1.56919 16.0998 1.82349 16.1954 2.09966H16.6337C16.7931 2.09966 16.9312 2.21724 16.9577 2.3813C17.0109 2.70943 17.0135 3.05396 16.9577 3.39576C16.9312 3.55982 16.7931 3.68013 16.6337 3.68013H16.1954C16.0998 3.9563 15.9563 4.2106 15.7731 4.42935L15.9909 4.82036C16.0706 4.96255 16.0413 5.14576 15.9165 5.24966C15.6642 5.46568 15.3746 5.63794 15.0638 5.75826C14.9124 5.81568 14.7424 5.75552 14.6627 5.6106L14.4449 5.21958C14.1687 5.27154 13.8818 5.27154 13.6029 5.21958ZM13.324 3.61177C14.3467 4.42115 15.5127 3.22076 14.7265 2.16802C13.7038 1.35591 12.5377 2.55904 13.324 3.61177ZM10.2613 7.81997L11.1565 8.27935C11.4248 8.43794 11.5417 8.77427 11.4354 9.07505C11.199 9.73677 10.7342 10.3438 10.3038 10.8743C10.1073 11.1176 9.76728 11.1778 9.499 11.0192L8.72603 10.5598C8.30103 10.9344 7.80697 11.2325 7.26775 11.4266V12.3454C7.26775 12.6626 7.04728 12.936 6.74447 12.9907C6.09103 13.1055 5.40572 13.111 4.72837 12.9907C4.4229 12.936 4.19712 12.6653 4.19712 12.3454V11.4266C3.6579 11.2297 3.16384 10.9344 2.73884 10.5598L1.96587 11.0165C1.70025 11.1751 1.35759 11.1149 1.16103 10.8715C0.730718 10.3411 0.276499 9.73404 0.0400932 9.07505C-0.0661568 8.77701 0.0507182 8.44068 0.318999 8.27935L1.20353 7.81997C1.09994 7.24849 1.09994 6.6606 1.20353 6.08638L0.318999 5.62427C0.0507182 5.46568 -0.0688131 5.12935 0.0400932 4.8313C0.276499 4.16958 0.730718 3.56255 1.16103 3.03208C1.35759 2.78872 1.69759 2.72857 1.96587 2.88716L2.73884 3.34654C3.16384 2.97193 3.6579 2.67388 4.19712 2.47974V1.55826C4.19712 1.2438 4.41494 0.970365 4.71775 0.915677C5.37119 0.800833 6.05916 0.795365 6.7365 0.912943C7.04197 0.96763 7.26775 1.23833 7.26775 1.55826V2.47701C7.80697 2.67388 8.30103 2.96919 8.72603 3.3438L9.499 2.88443C9.76462 2.72583 10.1073 2.78599 10.3038 3.02935C10.7342 3.55982 11.1857 4.16685 11.4221 4.82857C11.5284 5.12661 11.4248 5.46294 11.1565 5.62427L10.2613 6.08365C10.3649 6.65787 10.3649 7.24575 10.2613 7.81997ZM7.13759 8.39693C8.71009 6.29146 6.37525 3.88794 4.32994 5.50669C2.75744 7.61216 5.09228 10.0157 7.13759 8.39693ZM13.6029 13.3926L13.3851 13.7836C13.3054 13.9286 13.1354 13.9887 12.984 13.9313C12.6706 13.811 12.3837 13.6387 12.1313 13.4227C12.0092 13.3188 11.9773 13.1356 12.057 12.9934L12.2748 12.6024C12.0915 12.3836 11.9481 12.1293 11.8524 11.8532H11.4142C11.2548 11.8532 11.1167 11.7356 11.0901 11.5715C11.037 11.2434 11.0343 10.8989 11.0901 10.5571C11.1167 10.393 11.2548 10.2727 11.4142 10.2727H11.8524C11.9481 9.99654 12.0915 9.74224 12.2748 9.52349L12.057 9.13247C11.9773 8.99029 12.0065 8.80708 12.1313 8.70318C12.3837 8.48716 12.6732 8.31489 12.984 8.19458C13.1354 8.13716 13.3054 8.19732 13.3851 8.34224L13.6029 8.73326C13.8818 8.6813 14.166 8.6813 14.4449 8.73326L14.6627 8.34224C14.7424 8.19732 14.9124 8.13716 15.0638 8.19458C15.3773 8.31489 15.6642 8.48716 15.9165 8.70318C16.0387 8.80708 16.0706 8.99029 15.9909 9.13247L15.7731 9.52349C15.9563 9.74224 16.0998 9.99654 16.1954 10.2727H16.6337C16.7931 10.2727 16.9312 10.3903 16.9577 10.5543C17.0109 10.8825 17.0135 11.227 16.9577 11.5688C16.9312 11.7329 16.7931 11.8532 16.6337 11.8532H16.1954C16.0998 12.1293 15.9563 12.3836 15.7731 12.6024L15.9909 12.9934C16.0706 13.1356 16.0413 13.3188 15.9165 13.4227C15.6642 13.6387 15.3746 13.811 15.0638 13.9313C14.9124 13.9887 14.7424 13.9286 14.6627 13.7836L14.4449 13.3926C14.1687 13.4446 13.8818 13.4446 13.6029 13.3926ZM13.324 11.7821C14.3467 12.5915 15.5127 11.3911 14.7265 10.3383C13.7038 9.52896 12.5377 10.7293 13.324 11.7821Z" fill="black"/>
</svg>
