<svg width="18" height="18" viewBox="0 0 18 18" fill="none"
    xmlns="http://www.w3.org/2000/svg">
    <path d="M6.93752 16.5L6.63752 14.1C6.47502 14.0375 6.3219 13.9625 6.17815 13.875C6.0344 13.7875 5.89377 13.6938 5.75627 13.5938L3.52502 14.5313L1.46252 10.9688L3.39377 9.50625C3.38127 9.41875 3.37502 9.33438 3.37502 9.25313V8.74688C3.37502 8.66563 3.38127 8.58125 3.39377 8.49375L1.46252 7.03125L3.52502 3.46875L5.75627 4.40625C5.89377 4.30625 6.03752 4.2125 6.18752 4.125C6.33752 4.0375 6.48752 3.9625 6.63752 3.9L6.93752 1.5H11.0625L11.3625 3.9C11.525 3.9625 11.6782 4.0375 11.8219 4.125C11.9656 4.2125 12.1063 4.30625 12.2438 4.40625L14.475 3.46875L16.5375 7.03125L15.15 8.08125C14.875 7.94375 14.5938 7.82813 14.3063 7.73438C14.0188 7.64063 13.7125 7.575 13.3875 7.5375L14.5688 6.6375L13.8375 5.3625L11.9813 6.15C11.7063 5.8625 11.4031 5.62188 11.0719 5.42813C10.7407 5.23438 10.3813 5.0875 9.99377 4.9875L9.75002 3H8.26877L8.00627 4.9875C7.61877 5.0875 7.2594 5.23438 6.92815 5.42813C6.5969 5.62188 6.29377 5.85625 6.01877 6.13125L4.16252 5.3625L3.43127 6.6375L5.04377 7.8375C4.98127 8.025 4.93752 8.2125 4.91252 8.4C4.88752 8.5875 4.87502 8.7875 4.87502 9C4.87502 9.2 4.88752 9.39375 4.91252 9.58125C4.93752 9.76875 4.98127 9.95625 5.04377 10.1438L3.43127 11.3625L4.16252 12.6375L6.01877 11.85C6.23127 12.0625 6.4594 12.2531 6.70315 12.4219C6.9469 12.5906 7.21252 12.7313 7.50002 12.8438C7.51252 13.5563 7.6594 14.225 7.94065 14.85C8.2219 15.475 8.60002 16.025 9.07502 16.5H6.93752ZM7.70627 11.2688C7.78127 11.0188 7.8719 10.7781 7.97815 10.5469C8.0844 10.3156 8.20627 10.0938 8.34377 9.88125C8.20627 9.78125 8.10002 9.65313 8.02502 9.49688C7.95002 9.34063 7.91252 9.175 7.91252 9C7.91252 8.6875 8.0219 8.42188 8.24065 8.20313C8.4594 7.98438 8.72502 7.875 9.03752 7.875C9.21252 7.875 9.38127 7.91563 9.54377 7.99688C9.70627 8.07813 9.83752 8.1875 9.93752 8.325C10.15 8.1875 10.3688 8.06563 10.5938 7.95938C10.8188 7.85313 11.0563 7.76875 11.3063 7.70625C11.0813 7.30625 10.7688 6.98438 10.3688 6.74063C9.96877 6.49688 9.52502 6.375 9.03752 6.375C8.30002 6.375 7.67815 6.63125 7.1719 7.14375C6.66565 7.65625 6.41252 8.275 6.41252 9C6.41252 9.475 6.52815 9.91563 6.7594 10.3219C6.99065 10.7281 7.30627 11.0438 7.70627 11.2688ZM12.75 15L15 12.75L12.75 10.5L12.225 11.025L13.575 12.375H10.5V13.125H13.5563L12.225 14.475L12.75 15ZM12.75 16.5C11.7125 16.5 10.8281 16.1344 10.0969 15.4031C9.36565 14.6719 9.00002 13.7875 9.00002 12.75C9.00002 11.7125 9.36565 10.8281 10.0969 10.0969C10.8281 9.36563 11.7125 9 12.75 9C13.7875 9 14.6719 9.36563 15.4031 10.0969C16.1344 10.8281 16.5 11.7125 16.5 12.75C16.5 13.7875 16.1344 14.6719 15.4031 15.4031C14.6719 16.1344 13.7875 16.5 12.75 16.5Z" fill="black"/>
</svg>
