<svg width="18" height="18" viewBox="0 0 18 18" fill="none"
    xmlns="http://www.w3.org/2000/svg">
    <g clip-path="url(#clip0_125_263)">
        <path d="M7.37257 10.3125L5.13757 14.1825C4.99507 14.43 4.63507 14.43 4.48507 14.1825L2.25007 10.3125C2.10757 10.065 2.28757 9.75 2.57257 9.75H7.03507C7.32007 9.75 7.50007 10.065 7.35757 10.3125H7.37257Z" fill="black"/>
        <path d="M7.04997 8.24996H2.58747C2.30247 8.24996 2.12247 7.93496 2.26497 7.68746L4.49997 3.81746C4.64247 3.56996 5.00247 3.56996 5.15247 3.81746L7.38747 7.68746C7.52997 7.93496 7.34997 8.24996 7.06497 8.24996H7.04997Z" fill="black"/>
        <path d="M11.5576 3.06738L9.32263 6.93738C9.18013 7.18488 8.82013 7.18488 8.67013 6.93738L6.43513 3.06738C6.29263 2.81988 6.47263 2.50488 6.75763 2.50488H11.2276C11.5126 2.50488 11.6926 2.81988 11.5501 3.06738H11.5576Z" fill="black"/>
        <path d="M15.42 8.24989H10.95C10.665 8.24989 10.485 7.93489 10.6275 7.68739L12.8625 3.80989C13.005 3.56239 13.365 3.56239 13.515 3.80989L15.75 7.68739C15.8925 7.93489 15.7125 8.24989 15.4275 8.24989H15.42Z" fill="black"/>
        <path d="M9.32266 11.0623L11.5577 14.9323C11.7002 15.1798 11.5202 15.4948 11.2352 15.4948H6.76516C6.48016 15.4948 6.29266 15.1798 6.44266 14.9323L8.67765 11.0623C8.82015 10.8148 9.18015 10.8148 9.33015 11.0623H9.32266Z" fill="black"/>
        <path d="M15.7427 10.3125L13.5077 14.19C13.3652 14.4375 13.0052 14.4375 12.8552 14.19L10.6202 10.3125C10.4777 10.065 10.6577 9.75 10.9427 9.75H15.4127C15.6977 9.75 15.8852 10.065 15.7352 10.3125H15.7427Z" fill="black"/>
    </g>
    <defs>
        <clipPath id="clip0_125_263">
            <rect width="18" height="18" fill="white"/>
        </clipPath>
    </defs>
</svg>
