<svg width="18" height="18" viewBox="0 0 18 18" fill="none" xmlns="http://www.w3.org/2000/svg">
<g clip-path="url(#clip0_139_50)">
<path d="M13.5 5.25H4.5V6.75H13.5V5.25Z" fill="#28333F"/>
<path d="M16.155 10.845C15.42 10.1175 14.535 9.75 13.5 9.75C12.465 9.75 11.58 10.1175 10.845 10.845C10.1175 11.58 9.75 12.465 9.75 13.5C9.75 14.535 10.1175 15.42 10.845 16.155C11.58 16.8825 12.465 17.25 13.5 17.25C14.535 17.25 15.42 16.8825 16.155 16.155C16.8825 15.42 17.25 14.535 17.25 13.5C17.25 12.465 16.8825 11.58 16.155 10.845ZM12.96 15.1875L11.4375 13.665L12.225 12.8625L12.96 13.59L14.775 11.8125L15.5625 12.6L12.96 15.1875Z" fill="#28333F"/>
<path d="M4.5 12.7499H8.31C8.3475 12.4874 8.4075 12.2324 8.4825 11.9774C8.5575 11.7224 8.655 11.4824 8.7675 11.2424H4.5075V12.7424L4.5 12.7499Z" fill="#28333F"/>
<path d="M4.5 9.75H9.825C10.2975 9.285 10.8525 8.925 11.4825 8.655C12.1125 8.385 12.7875 8.25 13.5 8.25H4.5V9.75Z" fill="#28333F"/>
<path d="M15.72 3.45C15.705 3.3675 15.6825 3.285 15.645 3.21C15.645 3.195 15.6375 3.18 15.63 3.165C15.6 3.0825 15.555 3 15.5025 2.925C15.5025 2.925 15.495 2.9175 15.495 2.91C15.435 2.835 15.375 2.76 15.3075 2.6925C15.24 2.625 15.165 2.565 15.09 2.505C15.0825 2.505 15.075 2.4975 15.075 2.4975C15 2.445 14.9175 2.4 14.835 2.37C14.82 2.37 14.805 2.355 14.79 2.355C14.715 2.3175 14.6325 2.295 14.55 2.28C14.4525 2.2575 14.355 2.25 14.25 2.25H3.75C3.645 2.25 3.5475 2.2575 3.45 2.28C3.3675 2.295 3.285 2.3175 3.21 2.355C3.195 2.355 3.18 2.3625 3.165 2.37C3.0825 2.4 3 2.445 2.925 2.4975C2.925 2.4975 2.9175 2.505 2.91 2.505C2.835 2.565 2.76 2.625 2.6925 2.6925C2.625 2.76 2.565 2.835 2.505 2.91C2.505 2.9175 2.4975 2.925 2.4975 2.925C2.445 3 2.4 3.0825 2.37 3.165C2.37 3.18 2.355 3.195 2.355 3.21C2.3175 3.285 2.295 3.3675 2.28 3.45C2.2575 3.5475 2.25 3.645 2.25 3.75V14.25C2.25 15.075 2.925 15.75 3.75 15.75H8.76C8.6925 15.63 8.64 15.51 8.595 15.39C8.4675 15.045 8.37 14.6775 8.31 14.2875H3.75V3.75H14.25V8.3025C14.5125 8.34 14.7675 8.4 15.0225 8.475C15.27 8.55 15.51 8.64 15.75 8.7525V3.75C15.75 3.645 15.7425 3.5475 15.72 3.45Z" fill="#28333F"/>
</g>
<defs>
<clipPath id="clip0_139_50">
<rect width="18" height="18" fill="white"/>
</clipPath>
</defs>
</svg>
