<?xml version="1.0" encoding="utf-8"?>
<!-- Generator: Adobe Illustrator 23.0.3, SVG Export Plug-In . SVG Version: 6.00 Build 0)  -->
<svg version="1.1" id="Layer_1" focusable="false" xmlns="http://www.w3.org/2000/svg" xmlns:xlink="http://www.w3.org/1999/xlink"
	 x="0px" y="0px" viewBox="0 0 512 512" style="enable-background:new 0 0 512 512;" xml:space="preserve">
<style type="text/css">
	.st0{fill:none;stroke:#FC0303;stroke-width:40;stroke-miterlimit:10;}
</style>
<path class="st0" d="M480.9,312.9l-41.4-23.3c4.2-22,4.2-44.5,0-66.5l41.4-23.3c4.8-2.7,6.9-8.1,5.3-13.3
	c-10.8-33.7-29.1-64.2-53.1-89.6c-3.7-3.9-9.7-4.8-14.4-2.2l-41.4,23.3c-17.4-14.6-37.4-25.8-59-33.2V38.4c0-5.3-3.8-9.9-9.1-11.1
	c-35.6-7.8-72.2-7.4-106,0c-5.3,1.1-9.1,5.8-9.1,11.1V85c-21.6,7.5-41.6,18.7-59,33.2L93.7,94.9c-4.8-2.7-10.7-1.8-14.4,2.2
	c-24,25.3-42.3,55.8-53.1,89.6c-1.7,5.1,0.6,10.6,5.3,13.3l41.4,23.3c-4.2,22-4.2,44.5,0,66.5L31.5,313c-4.8,2.7-6.9,8.1-5.3,13.3
	c10.8,33.7,29.1,64.2,53.1,89.6c3.7,3.9,9.7,4.8,14.4,2.2l41.4-23.3c17.4,14.6,37.4,25.8,59,33.2v46.6c0,5.3,3.8,9.9,9.1,11.1
	c35.6,7.8,72.2,7.4,106,0c5.3-1.1,9.1-5.8,9.1-11.1v-46.6c21.6-7.5,41.6-18.7,59-33.2l41.4,23.3c4.8,2.7,10.7,1.8,14.4-2.2
	c24-25.3,42.3-55.8,53.1-89.6C487.8,321,485.6,315.5,480.9,312.9z M256.1,332.1c-42.8,0-77.7-34-77.7-75.7s34.9-75.7,77.7-75.7
	s77.7,34,77.7,75.7S299,332.1,256.1,332.1z"/>
</svg>
