<svg width="51" height="35" viewBox="0 0 51 35" fill="none"
    xmlns="http://www.w3.org/2000/svg">
    <path fill-rule="evenodd" clip-rule="evenodd" d="M49.0508 5.69996C48.7734 4.65282 48.2253 3.69715 47.4615 2.92902C46.6976 2.16089 45.7451 1.60738 44.6995 1.32413C40.8645 0.291626 25.4999 0.291626 25.4999 0.291626C25.4999 0.291626 10.1353 0.291626 6.30034 1.32413C5.25478 1.60738 4.30222 2.16089 3.5384 2.92902C2.77459 3.69715 2.22645 4.65282 1.94909 5.69996C1.23677 9.63376 0.891123 13.6252 0.916594 17.6229C0.891371 21.6124 1.23702 25.5957 1.94909 29.5212C2.22861 30.5593 2.77872 31.5046 3.54321 32.2604C4.30769 33.0163 5.25915 33.5556 6.30034 33.8233C10.1353 34.8558 25.4999 34.8558 25.4999 34.8558C25.4999 34.8558 40.8645 34.8558 44.6995 33.8233C45.7407 33.5556 46.6922 33.0163 47.4567 32.2604C48.2211 31.5046 48.7713 30.5593 49.0508 29.5212C49.7628 25.5957 50.1085 21.6124 50.0833 17.6229C50.1087 13.6252 49.7631 9.63376 49.0508 5.69996ZM20.5833 24.875V10.297L33.4403 17.672L20.5833 24.875Z" fill="white"/>
</svg>
    