<?xml version="1.0" encoding="UTF-8"?><!-- Generated by Microsoft Visio, SVG Export BILifeCycleOverview_xi43860.svg Page-1 --><svg xmlns="http://www.w3.org/2000/svg" xmlns:xlink="http://www.w3.org/1999/xlink" xmlns:ev="http://www.w3.org/2001/xml-events" xmlns:v="http://schemas.microsoft.com/visio/2003/SVGExtensions/" width="5.3234in" height="3.2462in" viewBox="0 0 383.285 233.726" xml:space="preserve" color-interpolation-filters="sRGB" class="st24">
	<v:documentProperties v:langID="1033">
		<v:userDefs>
			<v:ud v:nameU="msvConvertTheme"/>
			<v:ud v:nameU="msvNoAutoConnect" v:val="VT0(1):26"/>
		</v:userDefs>
	</v:documentProperties>

	<style type="text/css">
	
		.st1 {marker-start:url(#mrkr4-5);stroke:none;stroke-linecap:round;stroke-linejoin:round;stroke-width:0.719998}
		.st2 {fill:#ffffff;fill-opacity:1;stroke:#ffffff;stroke-opacity:1;stroke-width:0.22222165192381}
		.st3 {fill:#333333;font-family:Arial;font-size:0.499992em}
		.st4 {font-size:1em}
		.st5 {fill:#e8eef7;stroke:#000000;stroke-linecap:round;stroke-linejoin:round;stroke-width:0.239999}
		.st6 {fill:#000000;font-family:Arial;font-size:0.499992em}
		.st7 {marker-end:url(#mrkr13-55);stroke:#4677bf;stroke-linecap:round;stroke-linejoin:round;stroke-width:0.72}
		.st8 {fill:#4677bf;fill-opacity:1;stroke:#4677bf;stroke-opacity:1;stroke-width:0.22222222222222}
		.st9 {fill:none;stroke:none;stroke-width:0.72}
		.st10 {fill:none}
		.st11 {stroke:#4677bf;stroke-linecap:round;stroke-linejoin:round;stroke-width:0.72}
		.st12 {fill:#ffffff;stroke:none;stroke-linecap:butt;stroke-width:0.72}
		.st13 {marker-start:url(#mrkr13-121);stroke:#4677bf;stroke-linecap:round;stroke-linejoin:round;stroke-width:0.72}
		.st14 {fill:#000000;font-family:Arial;font-size:0.833336em}
		.st15 {fill:#ff0000;font-family:Arial;font-size:0.499992em;font-style:italic}
		.st16 {fill:#333333;font-size:1em;font-style:normal}
		.st17 {font-size:1em;font-style:normal}
		.st18 {fill:#ffffff;stroke:none;stroke-linecap:butt;stroke-width:7.2}
		.st19 {fill:#ff0000;font-size:1em;font-style:italic}
		.st20 {fill:#333333;font-size:1.6667em;font-style:normal}
		.st21 {fill:#000000;font-size:1em;font-style:normal}
		.st22 {fill:#333333;font-size:1em}
		.st23 {fill:#ff0000;font-size:1em}
		.st24 {fill:none;fill-rule:evenodd;font-size:12px;overflow:visible;stroke-linecap:square;stroke-miterlimit:3}
	
	</style>

	<defs id="Markers">
		<g id="lend4">
			<path d="M 2 1 L 0 0 L 2 -1 L 2 1 " style="stroke:none"/>
		</g>
		<marker id="mrkr4-5" class="st2" v:arrowType="4" v:arrowSize="2" v:setback="9.00002" refX="9.000023097145" orient="auto" markerUnits="strokeWidth" overflow="visible">
			<use xlink:href="#lend4" transform="scale(4.5000115485725) "/>
		</marker>
		<g id="lend13">
			<path d="M 3 1 L 0 0 L 3 -1 L 3 1 " style="stroke:none"/>
		</g>
		<marker id="mrkr13-55" class="st8" v:arrowType="13" v:arrowSize="2" v:setback="13.5" refX="-13.5" orient="auto" markerUnits="strokeWidth" overflow="visible">
			<use xlink:href="#lend13" transform="scale(-4.5,-4.5) "/>
		</marker>
		<marker id="mrkr13-121" class="st8" v:arrowType="13" v:arrowSize="2" v:setback="13" refX="13" orient="auto" markerUnits="strokeWidth" overflow="visible">
			<use xlink:href="#lend13" transform="scale(4.5) "/>
		</marker>
	</defs>
	<g v:mID="0" v:index="1" v:groupContext="foregroundPage">
		<title>Page-1</title>
		<v:pageProperties v:drawingScale="1" v:pageScale="1" v:drawingUnits="0" v:shadowOffsetX="8.99998" v:shadowOffsetY="-8.99998"/>
		<v:layer v:name="Connector" v:index="0"/>
		<g id="shape48-1" v:mID="48" v:groupContext="shape" transform="translate(262.1,-50.7978)">
			<title>Sheet.48</title>
			<desc>send date reached</desc>
			<v:userDefs/>
			<v:textBlock v:margins="rect(3.99999,3.99999,3.99999,3.99999)"/>
			<v:textRect cx="26.3081" cy="225.722" width="39.65" height="16"/>
			<path d="M0 233.73 L6.49 233.73 L46.13 233.73 L46.13 217.73 L6.49 217.73 L6.49 233.73" class="st1"/>
			<text x="13.13" y="223.92" class="st3" v:langID="1033"><v:paragraph v:horizAlign="1"/><v:tabList/>send date<v:newlineChar/><tspan x="15.47" dy="1.2em" class="st4">reached</tspan></text>		</g>
		<g id="shape12-8" v:mID="12" v:groupContext="shape" transform="translate(264.54,-179.678)">
			<title>Sheet.12</title>
			<desc>all approved Items are valid</desc>
			<v:userDefs/>
			<v:textBlock v:margins="rect(3.99999,3.99999,3.99999,3.99999)"/>
			<v:textRect cx="23.5086" cy="224.722" width="34.06" height="18"/>
			<path d="M0 233.73 L6.49 233.73 L40.53 233.73 L40.53 215.73 L6.49 215.73 L6.49 233.73" class="st1"/>
			<text x="20.51" y="215.72" class="st3" v:langID="1033"><v:paragraph v:horizAlign="1"/><v:tabList/>all <tspan x="11" dy="1.2em" class="st4">approved<v:newlineChar/></tspan><tspan x="16.17" dy="1.2em" class="st4">Items<v:newlineChar/></tspan><tspan x="12.17" dy="1.2em" class="st4">are valid</tspan></text>		</g>
		<g id="shape13-16" v:mID="13" v:groupContext="shape" transform="translate(192.54,-172.478)">
			<title>Sheet.13</title>
			<desc>approval granted</desc>
			<v:userDefs/>
			<v:textBlock v:margins="rect(3.99999,3.99999,3.99999,3.99999)"/>
			<v:textRect cx="23.5086" cy="225.722" width="34.06" height="16"/>
			<path d="M0 233.73 L6.49 233.73 L40.53 233.73 L40.53 217.73 L6.49 217.73 L6.49 233.73" class="st1"/>
			<text x="12" y="223.92" class="st3" v:langID="1033"><v:paragraph v:horizAlign="1"/><v:tabList/>approval<v:newlineChar/><tspan x="13.33" dy="1.2em" class="st4">granted</tspan></text>		</g>
		<g id="shape7-22" v:mID="7" v:groupContext="shape" transform="translate(120.82,-173.118)">
			<title>Sheet.7</title>
			<desc>Submit button</desc>
			<v:userDefs/>
			<v:textBlock v:margins="rect(3.99999,3.99999,3.99999,3.99999)"/>
			<v:textRect cx="23.5086" cy="225.722" width="34.06" height="16"/>
			<path d="M0 233.73 L6.49 233.73 L40.53 233.73 L40.53 217.73 L6.49 217.73 L6.49 233.73" class="st1"/>
			<text x="14.17" y="223.92" class="st3" v:langID="1033"><v:paragraph v:horizAlign="1"/><v:tabList/>Submit<v:newlineChar/><tspan x="15.17" dy="1.2em" class="st4">button</tspan></text>		</g>
		<g id="shape8-28" v:mID="8" v:groupContext="shape" transform="translate(49.4401,-173.118)">
			<title>Sheet.8</title>
			<desc>Validate button</desc>
			<v:userDefs/>
			<v:textBlock v:margins="rect(3.99999,3.99999,3.99999,3.99999)"/>
			<v:textRect cx="22.6088" cy="225.722" width="32.25" height="16"/>
			<path d="M0 233.73 L6.49 233.73 L38.73 233.73 L38.73 217.73 L6.49 217.73 L6.49 233.73" class="st1"/>
			<text x="11.77" y="223.92" class="st3" v:langID="1033"><v:paragraph v:horizAlign="1"/><v:tabList/>Validate<v:newlineChar/><tspan x="14.27" dy="1.2em" class="st4">button</tspan></text>		</g>
		<g id="shape1-34" v:mID="1" v:groupContext="shape" transform="translate(14.4203,-143.681)">
			<title>Rectangle.88</title>
			<desc>Create/ Edit</desc>
			<v:userDefs>
				<v:ud v:nameU="visVersion" v:val="VT0(11):26"/>
			</v:userDefs>
			<v:textBlock v:margins="rect(3.99999,3.99999,3.99999,3.99999)"/>
			<v:textRect cx="21.6246" cy="208.525" width="43.25" height="50.3999"/>
			<rect x="0" y="183.327" width="43.2499" height="50.3999" class="st5"/>
			<text x="11.79" y="199.53" class="st6" v:langID="1033"><v:paragraph v:horizAlign="1"/><v:tabList/>Create/<v:newlineChar/><tspan x="16.46" dy="1.2em" class="st4">Edit</tspan><v:newlineChar/><v:newlineChar/></text>		</g>
		<g id="shape2-38" v:mID="2" v:groupContext="shape" transform="translate(86.4201,-143.681)">
			<title>Rectangle.90</title>
			<desc>Validate</desc>
			<v:userDefs>
				<v:ud v:nameU="visVersion" v:val="VT0(11):26"/>
			</v:userDefs>
			<v:textBlock v:margins="rect(3.99999,3.99999,3.99999,3.99999)"/>
			<v:textRect cx="21.6246" cy="208.525" width="43.25" height="50.3999"/>
			<rect x="0" y="183.327" width="43.2499" height="50.3999" class="st5"/>
			<text x="10.78" y="210.33" class="st6" v:langID="1033"><v:paragraph v:horizAlign="1"/><v:tabList/>Validate</text>		</g>
		<g id="shape3-41" v:mID="3" v:groupContext="shape" transform="translate(158.42,-143.681)">
			<title>Rectangle.93</title>
			<desc>Approve</desc>
			<v:userDefs>
				<v:ud v:nameU="visVersion" v:val="VT0(11):26"/>
			</v:userDefs>
			<v:textBlock v:margins="rect(3.99999,3.99999,3.99999,3.99999)"/>
			<v:textRect cx="21.6246" cy="208.525" width="43.25" height="50.3999"/>
			<rect x="0" y="183.327" width="43.2499" height="50.3999" class="st5"/>
			<text x="10.45" y="210.33" class="st6" v:langID="1033"><v:paragraph v:horizAlign="1"/><v:tabList/>Approve</text>		</g>
		<g id="shape4-44" v:mID="4" v:groupContext="shape" transform="translate(230.42,-143.681)">
			<title>Rectangle.94</title>
			<desc>Validate Items</desc>
			<v:userDefs>
				<v:ud v:nameU="visVersion" v:val="VT0(11):26"/>
			</v:userDefs>
			<v:textBlock v:margins="rect(3.99999,3.99999,3.99999,3.99999)"/>
			<v:textRect cx="21.6246" cy="208.525" width="43.25" height="50.3999"/>
			<rect x="0" y="183.327" width="43.2499" height="50.3999" class="st5"/>
			<text x="10.78" y="199.53" class="st6" v:langID="1033"><v:paragraph v:horizAlign="1"/><v:tabList/>Validate <tspan x="14.29" dy="1.2em" class="st4">Items    </tspan>    <v:newlineChar/><v:newlineChar/></text>		</g>
		<g id="shape5-48" v:mID="5" v:groupContext="shape" transform="translate(302.445,-143.681)">
			<title>Rectangle.95</title>
			<v:userDefs>
				<v:ud v:nameU="visVersion" v:val="VT0(11):26"/>
			</v:userDefs>
			<rect x="0" y="183.327" width="43.1999" height="50.3999" class="st5"/>
		</g>
		<g id="shape6-50" v:mID="6" v:groupContext="shape" v:layerMember="0" transform="translate(57.6451,-168.875)">
			<title>Dynamic connector.96</title>
			<v:userDefs>
				<v:ud v:nameU="visVersion" v:val="VT0(11):26"/>
			</v:userDefs>
			<path d="M0 233.73 L14.76 233.73 L19.08 233.73" class="st7"/>
		</g>
		<g id="shape9-56" v:mID="9" v:groupContext="shape" v:layerMember="0" transform="translate(129.645,-168.875)">
			<title>Dynamic connector.99</title>
			<v:userDefs>
				<v:ud v:nameU="visVersion" v:val="VT0(11):26"/>
			</v:userDefs>
			<path d="M0 233.73 L14.76 233.73 L19.08 233.73" class="st7"/>
		</g>
		<g id="shape10-61" v:mID="10" v:groupContext="shape" v:layerMember="0" transform="translate(201.645,-168.875)">
			<title>Dynamic connector.100</title>
			<v:userDefs>
				<v:ud v:nameU="visVersion" v:val="VT0(11):26"/>
			</v:userDefs>
			<path d="M0 233.73 L14.76 233.73 L19.08 233.73" class="st7"/>
		</g>
		<g id="shape11-66" v:mID="11" v:groupContext="shape" v:layerMember="0" transform="translate(273.645,-168.875)">
			<title>Dynamic connector.101</title>
			<v:userDefs>
				<v:ud v:nameU="visVersion" v:val="VT0(11):26"/>
			</v:userDefs>
			<path d="M0 233.73 L14.76 233.73 L19.08 233.73" class="st7"/>
		</g>
		<g id="shape14-71" v:mID="14" v:groupContext="shape" v:layerMember="0" transform="translate(36.0452,-88.6462)">
			<title>Dynamic connector.104</title>
			<path d="M0 233.73 L0 192.74 L0 188.42" class="st7"/>
		</g>
		<g id="group15-76" transform="translate(36.0203,-123.521)" v:mID="15" v:groupContext="group">
			<v:userDefs/>
			<title>Dynamic connector.105</title>
			<desc>fails validation</desc>
			<g id="shape16-77" v:mID="16" v:groupContext="shape" v:layerMember="0" transform="translate(0,-3.41516)">
				<title>Sheet.16</title>
				<path d="M72.05 216.99 L72.05 233.73 L0 233.73 L0 222.65 L72.05 216.99 Z" class="st9"/>
			</g>
			<g id="shape17-79" v:mID="17" v:groupContext="shape" v:layerMember="0" transform="translate(0,-3.41516)">
				<title>Sheet.17</title>
				<path d="M72.05 216.99 L72.05 233.73 L0 233.73 L0 222.65 L72.05 216.99 Z" class="st10"/>
				<path d="M72.05 216.99 L72.05 233.73 L0 233.73 L0 222.65" class="st11"/>
			</g>
			<g id="shape18-82" v:mID="18" v:groupContext="shape" v:layerMember="0" transform="translate(21.8317,1.13687E-013)">
				<title>Sheet.18</title>
				<rect x="0" y="226.526" width="37.7126" height="7.20016" class="st12"/>
			</g>
			<g id="shape15-84" v:mID="15" v:groupContext="groupContent">
				<v:textBlock v:margins="rect(3.99999,3.99999,3.99999,3.99999)"/>
				<v:textRect cx="41.068" cy="230.125" width="48.15" height="15.2035"/>
				<text x="22.22" y="231.93" class="st6" v:langID="1033"><v:paragraph v:horizAlign="1"/><v:tabList/>fails validation</text>			</g>
		</g>
		<g id="group19-86" transform="translate(36.0203,-109.841)" v:mID="19" v:groupContext="group">
			<v:userDefs/>
			<title>Dynamic connector.106</title>
			<desc>approver rejects Item(s) or Invoice</desc>
			<g id="shape20-87" v:mID="20" v:groupContext="shape" v:layerMember="0" transform="translate(0,-3.95416)">
				<title>Sheet.20</title>
				<path d="M144.05 203.85 L144.05 233.73 L0 233.73 L144.05 203.85 Z" class="st9"/>
			</g>
			<g id="shape21-89" v:mID="21" v:groupContext="shape" v:layerMember="0" transform="translate(0,-3.95416)">
				<title>Sheet.21</title>
				<path d="M144.05 203.85 L144.05 233.73 L0 233.73 L144.05 203.85 Z" class="st10"/>
				<path d="M144.05 203.85 L144.05 233.73 L0 233.73" class="st11"/>
			</g>
			<g id="shape22-92" v:mID="22" v:groupContext="shape" v:layerMember="0" transform="translate(22.5124,0)">
				<title>Sheet.22</title>
				<rect x="0" y="226.526" width="91.0618" height="7.20016" class="st12"/>
			</g>
			<g id="shape19-94" v:mID="19" v:groupContext="groupContent">
				<v:textBlock v:margins="rect(3.99999,3.99999,3.99999,3.99999)"/>
				<v:textRect cx="68.4231" cy="230.125" width="101.5" height="15.2035"/>
				<text x="22.91" y="231.93" class="st6" v:langID="1033"><v:paragraph v:horizAlign="1"/><v:tabList/>approver rejects Item(s) or Invoice</text>			</g>
		</g>
		<g id="group23-96" transform="translate(36.0203,-97.6011)" v:mID="23" v:groupContext="group">
			<v:userDefs/>
			<title>Dynamic connector.107</title>
			<desc>Item(s) not valid</desc>
			<g id="shape24-97" v:mID="24" v:groupContext="shape" v:layerMember="0" transform="translate(0,-3.59416)">
				<title>Sheet.24</title>
				<path d="M216.05 191.79 L216.05 233.73 L0 233.73 L216.05 191.79 Z" class="st9"/>
			</g>
			<g id="shape25-99" v:mID="25" v:groupContext="shape" v:layerMember="0" transform="translate(0,-3.59416)">
				<title>Sheet.25</title>
				<path d="M216.05 191.79 L216.05 233.73 L0 233.73 L216.05 191.79 Z" class="st10"/>
				<path d="M216.05 191.79 L216.05 233.73 L0 233.73" class="st11"/>
			</g>
			<g id="shape26-102" v:mID="26" v:groupContext="shape" v:layerMember="0" transform="translate(21.8853,-2.84217E-014)">
				<title>Sheet.26</title>
				<rect x="0" y="226.526" width="42.6888" height="7.20016" class="st12"/>
			</g>
			<g id="shape23-104" v:mID="23" v:groupContext="groupContent">
				<v:textBlock v:margins="rect(3.99999,3.99999,3.99999,3.99999)"/>
				<v:textRect cx="43.6046" cy="230.125" width="53.12" height="15.2035"/>
				<text x="22.27" y="231.93" class="st6" v:langID="1033"><v:paragraph v:horizAlign="1"/><v:tabList/>Item(s) not valid</text>			</g>
		</g>
		<g id="group27-106" transform="translate(36.0203,-84.6409)" v:mID="27" v:groupContext="group">
			<v:userDefs/>
			<title>Dynamic connector.108</title>
			<desc>Item check can’t be created or is not approved</desc>
			<g id="shape28-107" v:mID="28" v:groupContext="shape" v:layerMember="0" transform="translate(0,-3.59216)">
				<title>Sheet.28</title>
				<path d="M288.05 178.7 L288.05 233.73 L0 233.73 L288.05 178.7 Z" class="st9"/>
			</g>
			<g id="shape29-109" v:mID="29" v:groupContext="shape" v:layerMember="0" transform="translate(0,-3.59216)">
				<title>Sheet.29</title>
				<path d="M288.05 178.7 L288.05 233.73 L0 233.73 L288.05 178.7 Z" class="st10"/>
				<path d="M288.05 178.7 L288.05 233.73 L0 233.73" class="st11"/>
			</g>
			<g id="shape30-112" v:mID="30" v:groupContext="shape" v:layerMember="0" transform="translate(22.3412,1.42109E-013)">
				<title>Sheet.30</title>
				<rect x="0" y="226.526" width="123.086" height="7.20016" class="st12"/>
			</g>
			<g id="shape27-114" v:mID="27" v:groupContext="groupContent">
				<v:textBlock v:margins="rect(3.99999,3.99999,3.99999,3.99999)"/>
				<v:textRect cx="84.254" cy="230.125" width="133.52" height="15.2035"/>
				<text x="22.72" y="231.93" class="st6" v:langID="1033"><v:paragraph v:horizAlign="1"/><v:tabList/>Item check can’t be created or is not approved</text>			</g>
		</g>
		<g id="shape31-116" v:mID="31" v:groupContext="shape" v:layerMember="0" transform="translate(345.645,-43.5948)">
			<title>Dynamic connector.110</title>
			<v:userDefs>
				<v:ud v:nameU="visVersion" v:val="VT0(11):26"/>
			</v:userDefs>
			<path d="M9.36 233.73 L9.72 233.73 L13.68 233.73 L14.04 233.73 L17.64 233.73 L17.64 108.45 L0 108.45" class="st13"/>
		</g>
		<g id="shape32-122" v:mID="32" v:groupContext="shape" transform="translate(15.1402,-196.877)">
			<title>Sheet.32</title>
			<desc>Update button (save)</desc>
			<v:userDefs/>
			<v:textBlock v:margins="rect(3.99999,3.99999,3.99999,3.99999)"/>
			<v:textRect cx="22.6088" cy="225.722" width="32.25" height="16"/>
			<path d="M0 233.73 L6.49 233.73 L38.73 233.73 L38.73 217.73 L6.49 217.73 L6.49 233.73" class="st1"/>
			<text x="12.94" y="220.32" class="st3" v:langID="1033"><v:paragraph v:horizAlign="1"/><v:tabList/>Update <tspan x="14.27" dy="1.2em" class="st4">button </tspan><tspan x="14.27" dy="1.2em" class="st4">(</tspan>save)</text>		</g>
		<g id="group33-129" transform="translate(21.6452,-194.075)" v:mID="33" v:groupContext="group">
			<title>Dynamic connector.112</title>
			<g id="shape34-130" v:mID="34" v:groupContext="shape" v:layerMember="0">
				<title>Sheet.34</title>
				<path d="M28.8 233.73 L28.8 211.33 L0 211.33 L28.8 233.73 Z" class="st9"/>
			</g>
			<g id="shape35-132" v:mID="35" v:groupContext="shape" v:layerMember="0">
				<title>Sheet.35</title>
				<path d="M28.8 233.73 L28.8 211.33 L0 211.33 L28.8 233.73 Z" class="st10"/>
				<path d="M28.8 233.73 L28.8 211.33 L0 211.33" class="st11"/>
			</g>
		</g>
		<g id="shape36-135" v:mID="36" v:groupContext="shape" v:layerMember="0" transform="translate(21.6452,-194.075)">
			<title>Dynamic connector.113</title>
			<path d="M0 224.37 L0 224.01 L0 220.05 L0 219.69 L0 211.33" class="st13"/>
		</g>
		<g id="shape37-140" v:mID="37" v:groupContext="shape" transform="translate(137.921,181.15) rotate(-90)">
			<title>Sheet.37</title>
			<desc>all Item checks written and all checks approved</desc>
			<v:userDefs/>
			<v:textBlock v:margins="rect(3.99999,3.99999,3.99999,3.99999)"/>
			<v:textRect cx="44.3064" cy="225.722" width="75.66" height="16"/>
			<path d="M0 233.73 L6.48 233.73 L82.13 233.73 L82.13 217.73 L6.48 217.73 L6.48 233.73" class="st1"/>
			<text x="14.8" y="223.92" class="st3" v:langID="1033"><v:paragraph v:horizAlign="1"/><v:tabList/>all Item checks written <tspan x="11.95" dy="1.2em" class="st4">and all checks approved</tspan></text>		</g>
		<g id="shape38-146" v:mID="38" v:groupContext="shape" transform="translate(7.9403,-204.877)">
			<title>Sheet.38</title>
			<desc>Overview of the Bulk Invoice Lifecycle</desc>
			<v:userDefs/>
			<v:textBlock v:margins="rect(3.99999,3.99999,3.99999,3.99999)"/>
			<v:textRect cx="181.104" cy="222.922" width="349.25" height="21.5999"/>
			<path d="M0 233.73 L6.48 233.73 L355.73 233.73 L355.73 212.13 L6.48 212.13 L6.48 233.73" class="st1"/>
			<text x="97.18" y="225.92" class="st14" v:langID="1033"><v:paragraph v:horizAlign="1"/><v:tabList/>Overview of the Bulk Invoice Lifecycle                </text>		</g>
		<g id="shape39-151" v:mID="39" v:groupContext="shape" transform="translate(79.9401,-142.878)">
			<title>Sheet.39</title>
			<desc>In Review status</desc>
			<v:userDefs/>
			<v:textBlock v:margins="rect(3.99999,3.99999,3.99999,3.99999)"/>
			<v:textRect cx="28.1078" cy="225.722" width="43.25" height="16"/>
			<path d="M0 233.73 L6.49 233.73 L49.73 233.73 L49.73 217.73 L6.49 217.73 L6.49 233.73" class="st1"/>
			<text x="11.94" y="227.53" class="st15" v:langID="1033"><v:paragraph v:horizAlign="1"/><v:tabList/>Draft  <tspan class="st16">status</tspan></text>		</g>
		<g id="shape40-157" v:mID="40" v:groupContext="shape" transform="translate(1.40492,-148.96)">
			<title>Sheet.40</title>
			<desc>Draft or Rejected status</desc>
			<v:userDefs/>
			<v:textBlock v:margins="rect(3.99999,3.99999,3.99999,3.99999)"/>
			<v:textRect cx="37.6528" cy="225.722" width="54.37" height="16"/>
			<path d="M0 233.73 L10.47 233.73 L64.84 233.73 L64.84 217.73 L10.47 217.73 L10.47 233.73" class="st1"/>
			<text x="14.47" y="220.32" class="st15" v:langID="1033"><v:paragraph/><v:tabList/>Draft<tspan class="st17">, </tspan>Rejected<tspan class="st17">, </tspan><tspan x="14.47" dy="1.203em" class="st16">or </tspan>Invalid Items<v:newlineChar/><tspan x="14.47" dy="1.201em" class="st16">status</tspan></text>		</g>
		<g id="shape41-166" v:mID="41" v:groupContext="shape" transform="translate(302.42,-18.4011)">
			<title>Rectangle.114</title>
			<desc>Ready to Submit</desc>
			<v:userDefs>
				<v:ud v:nameU="visVersion" v:val="VT0(11):26"/>
			</v:userDefs>
			<v:textBlock v:margins="rect(3.99999,3.99999,3.99999,3.99999)"/>
			<v:textRect cx="21.6246" cy="208.525" width="43.25" height="50.3999"/>
			<rect x="0" y="183.327" width="43.2499" height="50.3999" class="st5"/>
			<text x="9.62" y="203.13" class="st6" v:langID="1033"><v:paragraph v:horizAlign="1"/><v:tabList/>Ready to<v:newlineChar/><tspan x="12.29" dy="1.2em" class="st4">Submit</tspan><v:newlineChar/></text>		</g>
		<g id="shape42-170" v:mID="42" v:groupContext="shape" v:layerMember="0" transform="translate(122.42,-61.5947)">
			<title>Dynamic connector.116</title>
			<desc>Ext. Syst. writes bulk check</desc>
			<v:userDefs/>
			<v:textBlock v:margins="rect(3.99999,3.99999,3.99999,3.99999)"/>
			<v:textRect cx="61.2278" cy="233.719" width="84.82" height="15.2035"/>
			<path d="M108.05 233.73 L14.05 233.73 L9.72 233.73" class="st7"/>
			<rect v:rectContext="textBkgnd" x="24.884" y="230.119" width="72.6875" height="7.20016" class="st18"/>
			<text x="24.88" y="235.52" class="st6" v:langID="1033"><v:paragraph v:horizAlign="1"/><v:tabList/>Ext. Syst. writes bulk check        </text>		</g>
		<g id="shape43-177" v:mID="43" v:groupContext="shape" v:layerMember="0" transform="translate(122.42,-25.5948)">
			<title>Dynamic connector.117</title>
			<desc>Ext. Syst. stops/voids Invoice</desc>
			<v:userDefs/>
			<v:textBlock v:margins="rect(3.99999,3.99999,3.99999,3.99999)"/>
			<v:textRect cx="61.2278" cy="233.719" width="88.17" height="15.2035"/>
			<path d="M108.05 233.73 L14.05 233.73 L9.72 233.73" class="st7"/>
			<rect v:rectContext="textBkgnd" x="22.3794" y="230.119" width="77.697" height="7.20016" class="st18"/>
			<text x="22.38" y="235.52" class="st6" v:langID="1033"><v:paragraph v:horizAlign="1"/><v:tabList/>Ext. Syst. stops/voids Invoice</text>		</g>
		<g id="shape44-184" v:mID="44" v:groupContext="shape" v:layerMember="0" transform="translate(122.42,-43.5948)">
			<title>Dynamic connector.118</title>
			<desc>Ext. Syst. holds up Invoice</desc>
			<v:userDefs/>
			<v:textBlock v:margins="rect(3.99999,3.99999,3.99999,3.99999)"/>
			<v:textRect cx="61.2278" cy="233.719" width="80.83" height="15.2035"/>
			<path d="M108.05 233.73 L14.05 233.73 L9.72 233.73" class="st7"/>
			<rect v:rectContext="textBkgnd" x="26.0444" y="230.119" width="70.3666" height="7.20016" class="st18"/>
			<text x="26.04" y="235.52" class="st6" v:langID="1033"><v:paragraph v:horizAlign="1"/><v:tabList/>Ext. Syst. holds up Invoice</text>		</g>
		<g id="shape45-191" v:mID="45" v:groupContext="shape" transform="translate(17.1402,-58.7177)">
			<title>Sheet.45</title>
			<desc>next status is Issued, then Cleared</desc>
			<v:userDefs/>
			<v:textBlock v:margins="rect(3.99999,3.99999,3.99999,3.99999)"/>
			<v:textRect cx="58.5059" cy="227.602" width="104.05" height="12.24"/>
			<path d="M0 233.73 L6.48 233.73 L110.53 233.73 L110.53 221.49 L6.48 221.49 L6.48 233.73" class="st1"/>
			<text x="12.48" y="229.41" class="st3" v:langID="1033"><v:paragraph v:horizAlign="1"/><v:tabList/>next status is <tspan class="st19">Issued</tspan>, then <tspan class="st19">Cleared</tspan></text>		</g>
		<g id="shape46-198" v:mID="46" v:groupContext="shape" transform="translate(230.42,-18.4011)">
			<title>Rectangle.140</title>
			<desc>Send to External System</desc>
			<v:userDefs>
				<v:ud v:nameU="visVersion" v:val="VT0(11):26"/>
			</v:userDefs>
			<v:textBlock v:margins="rect(3.99999,3.99999,3.99999,3.99999)"/>
			<v:textRect cx="21.6246" cy="208.525" width="43.25" height="50.3999"/>
			<rect x="0" y="183.327" width="43.2499" height="50.3999" class="st5"/>
			<text x="11.28" y="199.53" class="st6" v:langID="1033"><v:paragraph v:horizAlign="1"/><v:tabList/>Send to<v:newlineChar/><tspan x="10.62" dy="1.2em" class="st4">External<v:newlineChar/></tspan><tspan x="11.62" dy="1.2em" class="st4">System</tspan><v:newlineChar/></text>		</g>
		<g id="shape47-203" v:mID="47" v:groupContext="shape" transform="translate(289.74,-19.8379)">
			<title>Sheet.47</title>
			<desc>Awaiting Submission</desc>
			<v:userDefs/>
			<v:textBlock v:margins="rect(3.99999,3.99999,3.99999,3.99999)"/>
			<v:textRect cx="34.3071" cy="228.242" width="55.65" height="10.96"/>
			<path d="M0 233.73 L6.49 233.73 L62.13 233.73 L62.13 222.77 L6.49 222.77 L6.49 233.73" class="st1"/>
			<text x="22.97" y="226.44" class="st15" v:langID="1033"><v:paragraph v:horizAlign="1"/><v:tabList/>Awaiting <tspan x="18.8" dy="1.2em" class="st4">Submission</tspan></text>		</g>
		<g id="shape49-209" v:mID="49" v:groupContext="shape" v:layerMember="0" transform="translate(273.645,-43.5948)">
			<title>Dynamic connector.143</title>
			<v:userDefs>
				<v:ud v:nameU="visVersion" v:val="VT0(11):26"/>
			</v:userDefs>
			<path d="M28.8 233.73 L14.04 233.73 L9.72 233.73" class="st7"/>
		</g>
		<g id="shape50-214" v:mID="50" v:groupContext="shape" transform="translate(151.94,-142.878)">
			<title>Sheet.50</title>
			<desc>In Review status</desc>
			<v:userDefs/>
			<v:textBlock v:margins="rect(3.99999,3.99999,3.99999,3.99999)"/>
			<v:textRect cx="28.1078" cy="225.722" width="43.25" height="16"/>
			<path d="M0 233.73 L6.49 233.73 L49.73 233.73 L49.73 217.73 L6.49 217.73 L6.49 233.73" class="st1"/>
			<text x="14.94" y="223.92" class="st15" v:langID="1033"><v:paragraph v:horizAlign="1"/><v:tabList/>In Review <tspan x="20.1" dy="1.2em" class="st16">status</tspan></text>		</g>
		<g id="shape51-220" v:mID="51" v:groupContext="shape" transform="translate(216.74,-146.478)">
			<title>Sheet.51</title>
			<desc>Pending Item Validation, or Invalid Items</desc>
			<v:userDefs/>
			<v:textBlock v:margins="rect(3.99999,3.99999,3.99999,3.99999)"/>
			<v:textRect cx="35.0784" cy="225.722" width="57.2" height="16"/>
			<path d="M0 233.73 L6.49 233.73 L63.67 233.73 L63.67 217.73 L6.49 217.73 L6.49 233.73" class="st1"/>
			<text x="17.4" y="220.31" class="st15" v:langID="1033"><v:paragraph v:horizAlign="1"/><v:tabList/>Pending Item <tspan x="17.57" dy="1.202em" class="st4">Validation</tspan><tspan class="st16">, </tspan><tspan class="st16">or </tspan><tspan x="18.24" dy="1.201em" class="st4">Invalid Items</tspan></text>		</g>
		<g id="shape52-229" v:mID="52" v:groupContext="shape" transform="translate(289.197,-145.678)">
			<title>Sheet.52</title>
			<desc>Pending Item Validation, or Invalid Items</desc>
			<v:userDefs/>
			<v:textBlock v:margins="rect(3.99999,3.99999,3.99999,3.99999)"/>
			<v:textRect cx="35.0784" cy="225.722" width="57.2" height="16"/>
			<path d="M0 233.73 L6.49 233.73 L63.67 233.73 L63.67 217.73 L6.49 217.73 L6.49 233.73" class="st1"/>
			<text x="17.4" y="220.31" class="st15" v:langID="1033"><v:paragraph v:horizAlign="1"/><v:tabList/>Pending Item <tspan x="17.57" dy="1.202em" class="st4">Validation</tspan><tspan class="st16">, </tspan><tspan class="st16">or </tspan><tspan x="18.24" dy="1.201em" class="st4">Invalid Items</tspan></text>		</g>
		<g id="shape53-238" v:mID="53" v:groupContext="shape" transform="translate(217.74,-16.798)">
			<title>Sheet.53</title>
			<desc>Requesting to Requested</desc>
			<v:userDefs/>
			<v:textBlock v:margins="rect(3.99999,3.99999,3.99999,3.99999)"/>
			<v:textRect cx="34.3071" cy="225.722" width="55.65" height="16"/>
			<path d="M0 233.73 L6.49 233.73 L62.13 233.73 L62.13 217.73 L6.49 217.73 L6.49 233.73" class="st1"/>
			<text x="19.13" y="223.92" class="st15" v:langID="1033"><v:paragraph v:horizAlign="1"/><v:tabList/>Requesting<v:newlineChar/><tspan x="16.46" dy="1.2em" class="st4">to Requested</tspan></text>		</g>
		<g id="shape54-244" v:mID="54" v:groupContext="shape" transform="translate(297.66,-165.278)">
			<title>Sheet.54</title>
			<desc>Create Item Checks</desc>
			<v:userDefs/>
			<v:textBlock v:margins="rect(3.99999,3.99999,3.99999,3.99999)"/>
			<v:textRect cx="26.3881" cy="219.092" width="39.81" height="29.2599"/>
			<path d="M0 233.73 L6.49 233.73 L46.29 233.73 L46.29 204.47 L6.49 204.47 L6.49 233.73" class="st1"/>
			<text x="17.38" y="213.69" class="st6" v:langID="1033"><v:paragraph v:horizAlign="1"/><v:tabList/>Create<v:newlineChar/><tspan x="20.55" dy="1.2em" class="st4">Item<v:newlineChar/></tspan><tspan x="15.55" dy="1.2em" class="st4"> </tspan>Checks</text>		</g>
		<g id="group55-251" transform="translate(201.215,-4.00083)" v:mID="55" v:groupContext="group">
			<v:userDefs/>
			<title>Dynamic connector.121</title>
			<desc>ask to stop or void</desc>
			<g id="shape56-252" v:mID="56" v:groupContext="shape" v:layerMember="0" transform="translate(0,-3.59416)">
				<title>Sheet.56</title>
				<path d="M0 233.73 L92.93 233.73 L92.93 215.73 L0 233.73 Z" class="st9"/>
			</g>
			<g id="shape57-254" v:mID="57" v:groupContext="shape" v:layerMember="0" transform="translate(0,-3.59416)">
				<title>Sheet.57</title>
				<path d="M0 233.73 L92.93 233.73 L92.93 215.73 L0 233.73 Z" class="st10"/>
				<path d="M0 233.73 L92.93 233.73 L92.93 215.73" class="st11"/>
			</g>
			<g id="shape58-257" v:mID="58" v:groupContext="shape" v:layerMember="0" transform="translate(30.7259,0)">
				<title>Sheet.58</title>
				<rect x="0" y="226.526" width="48.7168" height="7.20016" class="st12"/>
			</g>
			<g id="shape55-259" v:mID="55" v:groupContext="groupContent">
				<v:textBlock v:margins="rect(3.99999,3.99999,3.99999,3.99999)"/>
				<v:textRect cx="55.4693" cy="230.125" width="59.16" height="15.2035"/>
				<text x="31.12" y="231.93" class="st6" v:langID="1033"><v:paragraph v:horizAlign="1"/><v:tabList/>ask to stop or void</text>			</g>
		</g>
		<g id="shape59-261" v:mID="59" v:groupContext="shape" v:layerMember="0" transform="translate(273.645,-25.5948)">
			<title>Dynamic connector.127</title>
			<path d="M19.44 233.73 L14.04 233.73 L9.72 233.73" class="st7"/>
		</g>
		<g id="shape60-266" v:mID="60" v:groupContext="shape" transform="translate(18.7402,-38.3978)">
			<title>Sheet.60</title>
			<desc>On Hold; may re-send to Ext. Syst. or ask to stop or void</desc>
			<v:userDefs/>
			<v:textBlock v:margins="rect(3.99999,3.99999,3.99999,3.99999)"/>
			<v:textRect cx="58.5059" cy="225.722" width="104.05" height="16"/>
			<path d="M0 233.73 L6.48 233.73 L110.53 233.73 L110.53 217.73 L6.48 217.73 L6.48 233.73" class="st1"/>
			<text x="11.77" y="225.12" class="st15" v:langID="1033"><v:paragraph v:horizAlign="1"/><v:tabList/>On Hold<tspan class="st16">; </tspan><tspan class="st16">may re</tspan><tspan class="st16">-</tspan><tspan class="st16">send to Ext</tspan><tspan class="st16">. </tspan><tspan class="st16">Syst</tspan><tspan class="st20">.<v:newlineChar/></tspan><tspan x="13.99" dy="1.4em" class="st16">                    </tspan><tspan class="st21">or ask to stop or void</tspan></text>		</g>
		<g id="shape61-280" v:mID="61" v:groupContext="shape" transform="translate(0.740233,-17.598)">
			<title>Sheet.61</title>
			<desc>Pending Stop or Void, to Stop or Void if successful, or to Is...</desc>
			<v:userDefs/>
			<v:textBlock v:margins="rect(3.99999,3.99999,3.99999,3.99999)"/>
			<v:textRect cx="66.7057" cy="225.722" width="120.45" height="16"/>
			<path d="M0 233.73 L6.48 233.73 L126.93 233.73 L126.93 217.73 L6.48 217.73 L6.48 233.73" class="st1"/>
			<text x="12.84" y="223.92" class="st15" v:langID="1033"><v:paragraph v:horizAlign="1"/><v:tabList/>Pending Stop<tspan class="st22"> </tspan><tspan class="st16">or </tspan>Void<tspan class="st16">,  </tspan><tspan class="st16">to  </tspan>Stop <tspan class="st16">or </tspan>Void <tspan class="st16">if </tspan><tspan x="12.35" dy="1.203em" class="st16">successful</tspan><tspan class="st16">, </tspan><tspan class="st16">or to </tspan>Issued <tspan class="st16">or </tspan><tspan class="st17"> </tspan>Cleared <tspan class="st16">if not</tspan></text>		</g>
		<g id="shape62-297" v:mID="62" v:groupContext="shape" transform="translate(257.015,-109.678)">
			<title>Sheet.62</title>
			<desc>Note: Bullk invoice statuses are shown in red.</desc>
			<v:userDefs/>
			<v:textBlock v:margins="rect(3.99999,3.99999,3.99999,3.99999)"/>
			<v:textRect cx="37.1069" cy="225.722" width="61.25" height="16"/>
			<path d="M0 233.73 L6.48 233.73 L67.73 233.73 L67.73 217.73 L6.48 217.73 L6.48 233.73" class="st1"/>
			<text x="10.48" y="220.31" class="st3" v:langID="1033"><v:paragraph/><v:tabList/>Note: Bullk invoice <tspan x="10.48" dy="1.2em" class="st4">statuses are shown </tspan><tspan x="10.48" dy="1.202em" class="st4">in </tspan><tspan class="st23">red </tspan><tspan class="st19">italic</tspan>.</text>		</g>
	</g>
</svg>