<?xml version="1.0" encoding="UTF-8"?><!-- Generated by Microsoft Visio, SVG Export ChargeInvoicingPlugins.svg Page-1 --><svg xmlns="http://www.w3.org/2000/svg" xmlns:xlink="http://www.w3.org/1999/xlink" xmlns:ev="http://www.w3.org/2001/xml-events" width="6.01624in" height="8.50956in" viewBox="0 0 433.169 612.688" xml:space="preserve" color-interpolation-filters="sRGB" class="st20">
	<title>Charge Invoicing Process and Plugin Points</title>

	<style type="text/css">
	
		.st1 {fill:#d8d8d8;stroke:#000000;stroke-linecap:round;stroke-linejoin:round;stroke-width:0.24}
		.st2 {fill:#000000;font-family:Calibri;font-size:0.833336em}
		.st3 {fill:#f2f2f2;stroke:#000000;stroke-linecap:round;stroke-linejoin:round;stroke-width:0.24}
		.st4 {fill:#e5b9b5;stroke:#000000;stroke-linecap:round;stroke-linejoin:round;stroke-width:0.24}
		.st5 {fill:#000000;font-family:Calibri;font-size:0.75em}
		.st6 {font-size:1em}
		.st7 {fill:#bfbfbf;stroke:#000000;stroke-linecap:round;stroke-linejoin:round;stroke-width:0.24}
		.st8 {fill:#000000;font-family:Calibri;font-size:1.00001em}
		.st9 {fill:#c6d8f0;stroke:#000000;stroke-linecap:round;stroke-linejoin:round;stroke-width:0.24}
		.st10 {fill:#000000;font-family:Wingdings;font-size:0.666664em}
		.st11 {font-family:Calibri;font-size:1em}
		.st12 {visibility:visible}
		.st13 {fill:#7f7f7f;stroke:#7f7f7f;stroke-linecap:round;stroke-linejoin:round}
		.st14 {fill:#000000;font-family:Calibri;font-size:0.833336em;font-weight:bold}
		.st15 {font-size:0.799995em;font-weight:normal}
		.st16 {marker-end:url(#mrkr4-62);stroke:#000000;stroke-linecap:round;stroke-linejoin:round;stroke-width:1}
		.st17 {fill:#000000;fill-opacity:1;stroke:#000000;stroke-opacity:1;stroke-width:0.28409090909091}
		.st18 {fill:#8db1e2;stroke:#000000;stroke-linecap:round;stroke-linejoin:round;stroke-width:0.24}
		.st19 {fill:#000000;font-family:Calibri;font-size:0.666664em}
		.st20 {fill:none;fill-rule:evenodd;font-size:12px;overflow:visible;stroke-linecap:square;stroke-miterlimit:3}
	
	</style>

	<defs id="Markers">
		<g id="lend4">
			<path d="M 2 1 L 0 0 L 2 -1 L 2 1 " style="stroke:none"/>
		</g>
		<marker id="mrkr4-62" class="st17" refX="-7.04" orient="auto" markerUnits="strokeWidth" overflow="visible">
			<use xlink:href="#lend4" transform="scale(-3.52,-3.52) "/>
		</marker>
	</defs>
	<g>
		<title>Page-1</title>
		<g id="group1-1" transform="translate(18.5483,-18.1961)">
			<title>Divided process 2</title>
			<g id="shape2-2" transform="translate(-0.372242,-560.312)">
				<title>Sheet.2</title>
				<desc>The Charge Invoicing Process and Plugin Points</desc>
				<path d="M0.37 612.69 L396.37 612.69 L396.37 605.68 A7.62524 7.62524 -180 0 0 387.99 596.68 L9 596.68 A8.10414 8.10414         -180 0 0 0 605.68 L0.37 612.69 Z" class="st1"/>
				<text x="103.48" y="607.69" class="st2">The Charge Invoicing Process and Plugin Points</text>			</g>
			<g id="shape3-5" transform="translate(0.0107454,0)">
				<title>Sheet.3</title>
				<path d="M0 603.69 A7.99847 7.99847 -180 0 0 9 612.69 L387 612.69 A7.97668 7.97668 -180 0 0 396 603.69 L396 52.38         L0 52.38 L0 603.69 Z" class="st3"/>
			</g>
		</g>
		<g id="shape4-7" transform="translate(44.88,-508.696)">
			<title>Hexagon</title>
			<desc>Receive a Billing Instruction with a New Charge</desc>
			<path d="M85.18 558.69 L22.82 558.69 L-8.35 585.69 L22.82 612.69 L85.18 612.69 L116.35 585.69 L85.18 558.69 Z" class="st4"/>
			<text x="24.62" y="577.59" class="st5">Receive a Billing <tspan x="12.43" dy="1.2em" class="st6">Instruction with a New </tspan><tspan x="41.15" dy="1.2em" class="st6">Charge</tspan></text>		</g>
		<g id="shape5-12" transform="translate(194.048,-36.1961)">
			<title>Rounded rectangle</title>
			<desc>Plugins</desc>
			<path d="M193.5 612.69 A9.00007 9.00007 -180 0 0 202.5 603.69 L202.5 95.19 A9.00007 9.00007 -180 0 0 193.5 86.19 L9 86.19        A9.00007 9.00007 -180 0 0 0 95.19 L0 603.69 A9.00007 9.00007 -180 0 0 9 612.69 L193.5 612.69 Z" class="st7"/>
			<text x="83.92" y="100.99" class="st8">Plugins</text>		</g>
		<g id="shape7-15" transform="translate(35.88,-418.696)">
			<title>Rounded rectangle.7</title>
			<desc>Create invoices Select invoice stream</desc>
			<path d="M117 612.69 A9.00007 9.00007 -180 0 0 126 603.69 L126 585.69 A9.00007 9.00007 -180 0 0 117 576.69 L9 576.69        A9.00007 9.00007 -180 0 0 0 585.69 L0 603.69 A9.00007 9.00007 -180 0 0 9 612.69 L117 612.69 Z" class="st9"/>
			<text x="7.6" y="592.19" class="st10"><tspan class="st6">ü</tspan> <tspan class="st11">Create invoices </tspan><tspan x="7.6" dy="1.248em" class="st6">ü</tspan> <tspan class="st11">Select invoice stream</tspan></text>		</g>
		<g id="shape10-22" transform="translate(215.88,-351.196)">
			<title>Rounded rectangle.10</title>
			<desc>Charge Slicer Selector Select charge slicer</desc>
			<g id="shadow10-23" transform="matrix(1,0,0,1,4.5,4.5)" class="st12">
				<path d="M144 612.69 A9.00007 9.00007 -180 0 0 153 603.69 L153 576.69 A9.00007 9.00007 -180 0 0 144 567.69 L9 567.69         A9.00007 9.00007 -180 0 0 0 576.69 L0 603.69 A9.00007 9.00007 -180 0 0 9 612.69 L144 612.69 Z" class="st13"/>
			</g>
			<path d="M144 612.69 A9.00007 9.00007 -180 0 0 153 603.69 L153 576.69 A9.00007 9.00007 -180 0 0 144 567.69 L9 567.69        A9.00007 9.00007 -180 0 0 0 576.69 L0 603.69 A9.00007 9.00007 -180 0 0 9 612.69 L144 612.69 Z" class="st1"/>
			<text x="31.65" y="588.39" class="st14">Charge Slicer Selector <tspan x="45.47" dy="1.275em" class="st15">Select charge slicer</tspan></text>		</g>
		<g id="shape11-28" transform="translate(35.88,-301.696)">
			<title>Rounded rectangle.11</title>
			<desc>Create down payment, if applicable Create invoice dates</desc>
			<path d="M117 612.69 A9.00007 9.00007 -180 0 0 126 603.69 L126 576.69 A9.00007 9.00007 -180 0 0 117 567.69 L9 567.69        A9.00007 9.00007 -180 0 0 0 576.69 L0 603.69 A9.00007 9.00007 -180 0 0 9 612.69 L117 612.69 Z" class="st9"/>
			<text x="7.6" y="582.89" class="st10"><tspan class="st6">ü</tspan> <tspan class="st11">Create down payment</tspan><tspan class="st11">, </tspan><tspan class="st11">if </tspan><tspan x="18.4" dy="1.212em" class="st11">applicable </tspan><tspan x="7.6" dy="1.236em" class="st6">ü</tspan> <tspan class="st11">Create invoice dates</tspan></text>		</g>
		<g id="shape13-38" transform="translate(35.88,-108.196)">
			<title>Rounded rectangle.13</title>
			<desc>Convert Entry objects to InvoiceItem objects. Place invoice i...</desc>
			<path d="M117 612.69 A9.00007 9.00007 -180 0 0 126 603.69 L126 576.69 A9.00007 9.00007 -180 0 0 117 567.69 L9 567.69        A9.00007 9.00007 -180 0 0 0 576.69 L0 603.69 A9.00007 9.00007 -180 0 0 9 612.69 L117 612.69 Z" class="st9"/>
			<text x="7.6" y="582.89" class="st10"><tspan class="st6">ü</tspan> <tspan class="st11">Convert Entry objects to </tspan><tspan x="18.4" dy="1.212em" class="st11">InvoiceItem objects</tspan><tspan class="st11">. </tspan><tspan x="7.6" dy="1.236em" class="st6">ü</tspan> <tspan class="st11">Place invoice items on invoices</tspan><tspan class="st11">.</tspan></text>		</g>
		<g id="shape14-48" transform="translate(215.88,-63.1961)">
			<title>Rounded rectangle.14</title>
			<desc>Invoice Assembler Customize invoice item placement</desc>
			<g id="shadow14-49" transform="matrix(1,0,0,1,4.5,4.5)" class="st12">
				<path d="M144 612.69 A9.00007 9.00007 -180 0 0 153 603.69 L153 576.69 A9.00007 9.00007 -180 0 0 144 567.69 L9 567.69         A9.00007 9.00007 -180 0 0 0 576.69 L0 603.69 A9.00007 9.00007 -180 0 0 9 612.69 L144 612.69 Z" class="st13"/>
			</g>
			<path d="M144 612.69 A9.00007 9.00007 -180 0 0 153 603.69 L153 576.69 A9.00007 9.00007 -180 0 0 144 567.69 L9 567.69        A9.00007 9.00007 -180 0 0 0 576.69 L0 603.69 A9.00007 9.00007 -180 0 0 9 612.69 L144 612.69 Z" class="st1"/>
			<text x="38.65" y="588.39" class="st14">Invoice Assembler <tspan x="20.63" dy="1.275em" class="st15">Customize invoice item placement</tspan></text>		</g>
		<g id="shape15-54" transform="translate(44.88,-36.1961)">
			<title>Hexagon.15</title>
			<desc>Execute New Charge</desc>
			<path d="M85.18 576.69 L22.82 576.69 L-8.35 594.69 L22.82 612.69 L85.18 612.69 L116.35 594.69 L85.18 576.69 Z" class="st4"/>
			<text x="16.36" y="597.39" class="st5">Execute New Charge</text>		</g>
		<g id="shape17-57" transform="translate(215.88,-490.696)">
			<title>Dynamic connector.17</title>
			<path d="M0 612.69 L-117 612.69 L-117 641.65" class="st16"/>
		</g>
		<g id="shape25-63" transform="translate(215.88,-270)">
			<title>Rounded rectangle.25</title>
			<desc>Periodicities Enable a custom periodicity to be placed on the...</desc>
			<g id="shadow25-64" transform="matrix(1,0,0,1,4.5,4.5)" class="st12">
				<path d="M144 612.69 A9.00007 9.00007 -180 0 0 153 603.69 L153 553.99 A9.00007 9.00007 -180 0 0 144 544.99 L9 544.99         A9.00007 9.00007 -180 0 0 0 553.99 L0 603.69 A9.00007 9.00007 -180 0 0 9 612.69 L144 612.69 Z" class="st13"/>
			</g>
			<path d="M144 612.69 A9.00007 9.00007 -180 0 0 153 603.69 L153 553.99 A9.00007 9.00007 -180 0 0 144 544.99 L9 544.99        A9.00007 9.00007 -180 0 0 0 553.99 L0 603.69 A9.00007 9.00007 -180 0 0 9 612.69 L144 612.69 Z" class="st1"/>
			<text x="50.92" y="561.44" class="st14">Periodicities <tspan x="5.51" dy="1.275em" class="st15">Enable a custom periodicity to be placed on </tspan><tspan x="31.62" dy="1.2em" class="st15">the Monthly invoice stream </tspan><tspan x="45.44" dy="1.14em" class="st6">Date Sequence </tspan><tspan x="37.31" dy="1.275em" class="st15">Customize invoice dates</tspan></text>		</g>
		<g id="shape26-72" transform="translate(216,-211.5)">
			<title>Rounded rectangle.26</title>
			<desc>Payment Plan Customize installment invoice item dates</desc>
			<g id="shadow26-73" transform="matrix(1,0,0,1,4.5,4.5)" class="st12">
				<path d="M144 612.69 A9.00007 9.00007 -180 0 0 153 603.69 L153 576.69 A9.00007 9.00007 -180 0 0 144 567.69 L9 567.69         A9.00007 9.00007 -180 0 0 0 576.69 L0 603.69 A9.00007 9.00007 -180 0 0 9 612.69 L144 612.69 Z" class="st13"/>
			</g>
			<path d="M144 612.69 A9.00007 9.00007 -180 0 0 153 603.69 L153 576.69 A9.00007 9.00007 -180 0 0 144 567.69 L9 567.69        A9.00007 9.00007 -180 0 0 0 576.69 L0 603.69 A9.00007 9.00007 -180 0 0 9 612.69 L144 612.69 Z" class="st1"/>
			<text x="47.83" y="588.39" class="st14">Payment Plan <tspan x="9.76" dy="1.275em" class="st15">Customize installment invoice item dates</tspan></text>		</g>
		<g id="shape29-78" transform="translate(125.25,-304.909)">
			<title>Dynamic connector.29</title>
			<path d="M0 603.69 L83.59 603.69" class="st16"/>
		</g>
		<g id="shape30-83" transform="translate(215.88,-468.196)">
			<title>Rounded rectangle.30</title>
			<desc>Billing Instruction Add additional charges</desc>
			<g id="shadow30-84" transform="matrix(1,0,0,1,4.5,4.5)" class="st12">
				<path d="M144 612.69 A9.00007 9.00007 -180 0 0 153 603.69 L153 576.69 A9.00007 9.00007 -180 0 0 144 567.69 L9 567.69         A9.00007 9.00007 -180 0 0 0 576.69 L0 603.69 A9.00007 9.00007 -180 0 0 9 612.69 L144 612.69 Z" class="st13"/>
			</g>
			<path d="M144 612.69 A9.00007 9.00007 -180 0 0 153 603.69 L153 576.69 A9.00007 9.00007 -180 0 0 144 567.69 L9 567.69        A9.00007 9.00007 -180 0 0 0 576.69 L0 603.69 A9.00007 9.00007 -180 0 0 9 612.69 L144 612.69 Z" class="st1"/>
			<text x="39.97" y="588.39" class="st14">Billing Instruction <tspan x="39.29" dy="1.275em" class="st15">Add additional charges</tspan></text>		</g>
		<g id="shape32-89" transform="translate(98.88,-513.196)">
			<title>Dynamic connector</title>
			<path d="M0 617.19 L0 626.19 L109.96 626.19" class="st16"/>
		</g>
		<g id="shape33-94" transform="translate(215.88,-409.696)">
			<title>Rounded rectangle.33</title>
			<desc>Invoice Stream Customize invoice stream selection</desc>
			<g id="shadow33-95" transform="matrix(1,0,0,1,4.5,4.5)" class="st12">
				<path d="M144 612.69 A9.00007 9.00007 -180 0 0 153 603.69 L153 576.69 A9.00007 9.00007 -180 0 0 144 567.69 L9 567.69         A9.00007 9.00007 -180 0 0 0 576.69 L0 603.69 A9.00007 9.00007 -180 0 0 9 612.69 L144 612.69 Z" class="st13"/>
			</g>
			<path d="M144 612.69 A9.00007 9.00007 -180 0 0 153 603.69 L153 576.69 A9.00007 9.00007 -180 0 0 144 567.69 L9 567.69        A9.00007 9.00007 -180 0 0 0 576.69 L0 603.69 A9.00007 9.00007 -180 0 0 9 612.69 L144 612.69 Z" class="st1"/>
			<text x="45.54" y="588.39" class="st14">Invoice Stream <tspan x="19.3" dy="1.275em" class="st15">Customize invoice stream selection</tspan></text>		</g>
		<g id="shape35-100" transform="translate(35.88,-360.196)">
			<title>Rounded rectangle.35</title>
			<desc>Select charge slicer</desc>
			<path d="M117 612.69 A9.00007 9.00007 -180 0 0 126 603.69 L126 594.69 A9.00007 9.00007 -180 0 0 117 585.69 L9 585.69        A9.00007 9.00007 -180 0 0 0 594.69 L0 603.69 A9.00007 9.00007 -180 0 0 9 612.69 L117 612.69 Z" class="st9"/>
			<text x="7.6" y="601.68" class="st10"><tspan class="st6">ü</tspan> <tspan class="st11">Select charge slicer</tspan></text>		</g>
		<g id="shape37-105" transform="translate(121.38,-364.696)">
			<title>Dynamic connector.37</title>
			<path d="M0 603.69 L87.46 603.69" class="st16"/>
		</g>
		<g id="shape38-110" transform="translate(89.88,-362.446)">
			<title>Dynamic connector.38</title>
			<path d="M9 614.94 L9 621.4" class="st16"/>
		</g>
		<g id="shape40-115" transform="translate(128.455,-423.196)">
			<title>Dynamic connector.40</title>
			<path d="M0 603.69 L80.39 603.69" class="st16"/>
		</g>
		<g id="shape41-120" transform="translate(89.88,-418.696)">
			<title>Dynamic connector.41</title>
			<path d="M9 612.69 L9 637.15" class="st16"/>
		</g>
		<g id="shape42-125" transform="translate(35.88,-234.196)">
			<title>Rounded rectangle.42</title>
			<desc>All other charge slicers</desc>
			<path d="M45 612.69 A9.00007 9.00007 -180 0 0 54 603.69 L54 576.69 A9.00007 9.00007 -180 0 0 45 567.69 L9 567.69 A9.00007        9.00007 -180 0 0 0 576.69 L0 603.69 A9.00007 9.00007 -180 0 0 9 612.69 L45 612.69 Z" class="st18"/>
			<text x="14.81" y="582.99" class="st19">All other <tspan x="17.82" dy="1.2em" class="st6">charge </tspan><tspan x="18.76" dy="1.2em" class="st6">slicers</tspan></text>		</g>
		<g id="shape43-130" transform="translate(107.88,-234.196)">
			<title>Rounded rectangle.43</title>
			<desc>BI payment plan charge slicer</desc>
			<path d="M45 612.69 A9.00007 9.00007 -180 0 0 54 603.69 L54 576.69 A9.00007 9.00007 -180 0 0 45 567.69 L9 567.69 A9.00007        9.00007 -180 0 0 0 576.69 L0 603.69 A9.00007 9.00007 -180 0 0 9 612.69 L45 612.69 Z" class="st18"/>
			<text x="10.26" y="582.99" class="st19">BI payment <tspan x="9.88" dy="1.2em" class="st6">plan charge </tspan><tspan x="20.32" dy="1.2em" class="st6">slicer</tspan></text>		</g>
		<g id="shape46-135" transform="translate(161.88,-256.696)">
			<title>Dynamic connector.46</title>
			<path d="M0 612.69 L18 612.69 L18 635.38 L47.08 635.38" class="st16"/>
		</g>
		<g id="shape47-140" transform="translate(35.88,-193.696)">
			<title>Rounded rectangle.47</title>
			<desc>Create Entry objects</desc>
			<path d="M117 612.69 A9.00007 9.00007 -180 0 0 126 603.69 L126 594.69 A9.00007 9.00007 -180 0 0 117 585.69 L9 585.69        A9.00007 9.00007 -180 0 0 0 594.69 L0 603.69 A9.00007 9.00007 -180 0 0 9 612.69 L117 612.69 Z" class="st9"/>
			<text x="7.6" y="601.68" class="st10"><tspan class="st6">ü</tspan> <tspan class="st11">Create Entry objects</tspan></text>		</g>
		<g id="shape50-145" transform="translate(71.88,-236.446)">
			<title>Dynamic connector.50</title>
			<path d="M-9 614.94 L-9 621.4" class="st16"/>
		</g>
		<g id="shape51-150" transform="translate(125.88,-236.446)">
			<title>Dynamic connector.51</title>
			<path d="M9 614.94 L9 621.4" class="st16"/>
		</g>
		<g id="shape53-155" transform="translate(215.88,-148.696)">
			<title>Rounded rectangle.53</title>
			<desc>Charge Initializer Customize Entry objects (invoice placement...</desc>
			<g id="shadow53-156" transform="matrix(1,0,0,1,4.5,4.5)" class="st12">
				<path d="M144 612.69 A9.00007 9.00007 -180 0 0 153 603.69 L153 576.69 A9.00007 9.00007 -180 0 0 144 567.69 L9 567.69         A9.00007 9.00007 -180 0 0 0 576.69 L0 603.69 A9.00007 9.00007 -180 0 0 9 612.69 L144 612.69 Z" class="st13"/>
			</g>
			<path d="M144 612.69 A9.00007 9.00007 -180 0 0 153 603.69 L153 576.69 A9.00007 9.00007 -180 0 0 144 567.69 L9 567.69        A9.00007 9.00007 -180 0 0 0 576.69 L0 603.69 A9.00007 9.00007 -180 0 0 9 612.69 L144 612.69 Z" class="st1"/>
			<text x="41.5" y="583.59" class="st14">Charge Initializer <tspan x="4.61" dy="1.275em" class="st15">Customize Entry objects </tspan><tspan class="st15">(</tspan><tspan class="st15">invoice placement</tspan><tspan class="st15">, </tspan><tspan x="45.34" dy="1.2em" class="st15">amount</tspan><tspan class="st15">, </tspan><tspan class="st15">date</tspan><tspan class="st15">, </tspan><tspan class="st15">etc</tspan><tspan class="st15">.)</tspan></text>		</g>
		<g id="shape55-170" transform="translate(98.88,-195.946)">
			<title>Dynamic connector.55</title>
			<path d="M0 614.94 L0 628.44 L109.96 628.44" class="st16"/>
		</g>
		<g id="shape56-175" transform="translate(215.88,-171.196)">
			<title>Dynamic connector.56</title>
			<path d="M0 612.69 L-117 612.69 L-117 623.65" class="st16"/>
		</g>
		<g id="shape58-180" transform="translate(98.88,-110.446)">
			<title>Dynamic connector.58</title>
			<path d="M0 614.94 L0 628.44 L109.96 628.44" class="st16"/>
		</g>
		<g id="shape60-185" transform="translate(215.88,-87.9461)">
			<title>Dynamic connector.60</title>
			<path d="M0 614.94 L-117 614.94 L-117 621.4" class="st16"/>
		</g>
		<g id="shape61-190" transform="translate(53.88,-301.696)">
			<title>Dynamic connector.61</title>
			<path d="M9 612.69 L9 628.15" class="st16"/>
		</g>
		<g id="shape65-195" transform="translate(125.13,-301.696)">
			<title>Dynamic connector.65</title>
			<path d="M9 612.69 L9 628.15" class="st16"/>
		</g>
	</g>
</svg>