<?xml version="1.0" encoding="UTF-8"?><!-- Generated by Microsoft Visio 11.0, SVG Export, v1.0 extractable_delegate.svg Page-1 --><svg xmlns="http://www.w3.org/2000/svg" xmlns:v="http://schemas.microsoft.com/visio/2003/SVGExtensions/" xmlns:xlink="http://www.w3.org/1999/xlink" width="4.9575in" height="6.02in" viewBox="0 0 356.94 433.44" xml:space="preserve" color-interpolation-filters="sRGB" class="st25">
	<v:documentProperties v:langID="1033" v:viewMarkup="false"/>

	<style type="text/css">
	
		.st1 {stroke:#034a69;stroke-linecap:round;stroke-linejoin:round;stroke-width:0.72}
		.st2 {fill:#034a69;fill-opacity:0.047;stroke:#034a69;stroke-linecap:round;stroke-linejoin:round;stroke-width:0.72}
		.st3 {fill:#000000;font-family:BrowalliaUPC;font-size:0.916672em}
		.st4 {fill:none;stroke:#000000;stroke-linecap:round;stroke-linejoin:round;stroke-width:0.72}
		.st5 {fill:#000000;font-family:BrowalliaUPC;font-size:0.833336em}
		.st6 {fill:#ffffff}
		.st7 {stroke:#000000;stroke-linecap:round;stroke-linejoin:round;stroke-width:0.24;visibility:hidden}
		.st8 {fill:#e5ba03}
		.st9 {stroke:#000000;stroke-linecap:round;stroke-linejoin:round;stroke-width:0.24}
		.st10 {fill:#000000;font-family:BrowalliaUPC;font-size:0.916672em;font-weight:bold}
		.st11 {fill:#fee991}
		.st12 {fill:none}
		.st13 {marker-end:url(#mrkr12-71);stroke:#000000;stroke-linecap:round;stroke-linejoin:round;stroke-width:0.24}
		.st14 {fill:#000000;fill-opacity:1;stroke:#000000;stroke-opacity:1;stroke-width:0.08695652173913}
		.st15 {fill:none;stroke:#04628c;stroke-dasharray:5.04,3.6;stroke-linecap:round;stroke-linejoin:round;stroke-width:0.72}
		.st16 {fill:#ffffff;stroke:#034a69;stroke-linecap:round;stroke-linejoin:round;stroke-width:0.72}
		.st17 {fill:#000000;font-family:BrowalliaUPC;font-size:0.666664em;font-weight:bold}
		.st18 {fill:#ffffff;stroke:none;stroke-linecap:round;stroke-linejoin:round;stroke-width:0.24}
		.st19 {fill:#000000;font-family:BrowalliaUPC;font-size:0.666664em}
		.st20 {fill:#ffffff;stroke:#000000;stroke-linecap:round;stroke-linejoin:round;stroke-width:0.24}
		.st21 {marker-end:url(#mrkr14-132);stroke:#000000;stroke-linecap:round;stroke-linejoin:round;stroke-width:0.24}
		.st22 {fill:#000000;fill-opacity:1;stroke:#000000;stroke-opacity:1;stroke-width:0.057142857142857}
		.st23 {fill:#f3ab9d}
		.st24 {font-size:1em}
		.st25 {fill:none;fill-rule:evenodd;font-size:12;overflow:visible;stroke-linecap:square;stroke-miterlimit:3}
	
	</style>

	<defs id="Markers">
		<g id="lend12">
			<path d="M 3 1 L -0 0 L 3 -1 " style="stroke-linecap:round;stroke-linejoin:round;fill:none"/>
		</g>
		<marker id="mrkr12-71" class="st14" v:arrowType="12" v:arrowSize="2" orient="auto" markerUnits="strokeWidth">
			<use xlink:href="#lend12" transform="scale(-11.5,-11.5) "/>
		</marker>
		<g id="lend14">
			<path d="M 3 -1 L -0 0 L 3 1 L 3 -1 " style="stroke-linecap:round;stroke-linejoin:round;fill:none"/>
		</g>
		<marker id="mrkr14-132" class="st22" v:arrowType="14" v:arrowSize="4" v:setback="52.5" refX="-52.5" orient="auto" markerUnits="strokeWidth">
			<use xlink:href="#lend14" transform="scale(-17.5,-17.5) "/>
		</marker>
	</defs>
	<g v:mID="0" v:index="1" v:groupContext="foregroundPage">
		<title>Page-1</title>
		<v:pageProperties v:drawingScale="1" v:pageScale="1" v:drawingUnits="19" v:shadowOffsetX="9" v:shadowOffsetY="-9"/>
		<g id="group1-1" transform="translate(0.72,-0.72)" v:mID="1" v:groupContext="group">
			<v:userDefs>
				<v:ud v:nameU="Scale" v:val="VT0(1):26"/>
				<v:ud v:nameU="AntiScale" v:val="VT0(1):26"/>
				<v:ud v:nameU="visVersion" v:val="VT0(11):26"/>
			</v:userDefs>
			<title>Border small</title>
			<g id="shape2-2" v:mID="2" v:groupContext="shape">
				<title>Sheet.2</title>
				<path d="M0 22.64 L0 412.24 A21.204 21.204 -180 0 0 21.2 433.44 L334.3 433.44 A21.204 21.204 -180 0 0 355.5 412.24         L355.5 22.64 L0 22.64" class="st1"/>
			</g>
			<g id="shape3-5" v:mID="3" v:groupContext="shape" transform="translate(0,-410.796)">
				<title>Sheet.3</title>
				<desc>Implementing the Extractable delegate</desc>
				<v:textBlock v:margins="rect(4,4,4,4)"/>
				<v:textRect cx="177.75" cy="422.838" width="355.5" height="21.204"/>
				<path d="M355.5 433.44 L0 433.44 A21.204 21.204 0 0 1 21.2 412.24 L334.3 412.24 A21.204 21.204 0 0 1 355.5 433.44         Z" class="st2"/>
				<text x="115.79" y="426.14" class="st3" v:langID="1033"><v:paragraph v:horizAlign="1"/><v:tabList/>Implementing the Extractable delegate</text>			</g>
		</g>
		<g id="shape80-8" v:mID="80" v:groupContext="shape" transform="translate(24.345,-18.72)">
			<title>Rectangle</title>
			<desc>Domain graph</desc>
			<v:userDefs>
				<v:ud v:nameU="visVersion" v:val="VT0(12):26"/>
			</v:userDefs>
			<v:textBlock v:margins="rect(4,4,4,4)" v:verticalAlign="0"/>
			<v:textRect cx="137.25" cy="350.19" width="274.5" height="166.5"/>
			<rect x="0" y="266.94" width="274.5" height="166.5" class="st4"/>
			<text x="4" y="279.94" class="st5" v:langID="1033"><v:paragraph/><v:tabList/>Domain graph</text>		</g>
		<g id="group83-11" transform="translate(154.845,-135.72)" v:mID="83" v:groupContext="group">
			<v:userDefs>
				<v:ud v:nameU="F" v:val="VT0(1):26"/>
				<v:ud v:nameU="Format" v:val="VT0(0):26"/>
				<v:ud v:nameU="ActiveObject" v:prompt="0,0626" v:val="VT0(0):26"/>
			</v:userDefs>
			<title>Class.83</title>
			<g id="shape84-12" v:mID="84" v:groupContext="shape" transform="translate(72,1.13687E-013)">
				<title>Sheet.84</title>
				<path d="M0 433.44 L0 397.44 L0 433.44 Z" class="st6"/>
			</g>
			<g id="shape85-15" v:mID="85" v:groupContext="shape">
				<title>Sheet.85</title>
				<path d="M72 433.44 L0 433.44 L72 433.44 Z" class="st6"/>
			</g>
			<g id="shape86-18" v:mID="86" v:groupContext="shape">
				<title>Sheet.86</title>
				<path d="M72 433.44 L0 433.44 L72 433.44 Z" class="st6"/>
			</g>
			<g id="shape87-21" v:mID="87" v:groupContext="shape">
				<title>Sheet.87</title>
				<rect x="0" y="415.44" width="72" height="18" class="st6"/>
				<rect x="0" y="415.44" width="72" height="18" class="st7"/>
			</g>
			<g id="shape88-24" v:mID="88" v:groupContext="shape" transform="translate(0,-18)">
				<title>Sheet.88</title>
				<desc>PolicyPeriod</desc>
				<v:userDefs>
					<v:ud v:nameU="TabSize" v:val="VT0(0.125):0"/>
				</v:userDefs>
				<v:textBlock v:margins="rect(4,4,4,4)"/>
				<v:textRect cx="36" cy="424.44" width="72" height="18"/>
				<path d="M72 433.44 L72 415.44 L0 415.44 L0 433.44 L72 433.44 Z M0 451.44 L0 415.44 L0 451.44 Z M72 415.44 L72 451.44         L72 415.44 Z" class="st8"/>
				<path d="M72 451.44 L72 415.44" class="st9"/>
				<path d="M0 451.44 L0 415.44" class="st9"/>
				<path d="M0 415.44 L72 415.44" class="st9"/>
				<path d="M0 433.44 L72 433.44" class="st9"/>
				<path d="M0 451.44 L72 451.44" class="st9"/>
				<text x="14.25" y="427.74" class="st10" v:langID="1033"><v:paragraph v:horizAlign="1"/><v:tabList/>PolicyPeriod</text>			</g>
		</g>
		<g id="group143-32" transform="translate(150.345,-54.72)" v:mID="143" v:groupContext="group">
			<v:userDefs>
				<v:ud v:nameU="F" v:val="VT0(1):26"/>
				<v:ud v:nameU="Format" v:val="VT0(0):26"/>
				<v:ud v:nameU="ActiveObject" v:prompt="0,0626" v:val="VT0(0):26"/>
			</v:userDefs>
			<title>Class.143</title>
			<g id="shape144-33" v:mID="144" v:groupContext="shape" transform="translate(81,1.13687E-013)">
				<title>Sheet.144</title>
				<path d="M0 433.44 L0 397.44 L0 433.44 Z" class="st6"/>
			</g>
			<g id="shape145-36" v:mID="145" v:groupContext="shape">
				<title>Sheet.145</title>
				<path d="M81 433.44 L0 433.44 L81 433.44 Z" class="st6"/>
			</g>
			<g id="shape146-39" v:mID="146" v:groupContext="shape">
				<title>Sheet.146</title>
				<path d="M81 433.44 L0 433.44 L81 433.44 Z" class="st6"/>
			</g>
			<g id="shape147-42" v:mID="147" v:groupContext="shape">
				<title>Sheet.147</title>
				<rect x="0" y="415.44" width="81" height="18" class="st6"/>
				<rect x="0" y="415.44" width="81" height="18" class="st7"/>
			</g>
			<g id="shape148-45" v:mID="148" v:groupContext="shape" transform="translate(0,-18)">
				<title>Sheet.148</title>
				<desc>PolicyLocation</desc>
				<v:userDefs>
					<v:ud v:nameU="TabSize" v:val="VT0(0.125):0"/>
				</v:userDefs>
				<v:textBlock v:margins="rect(4,4,4,4)"/>
				<v:textRect cx="40.5" cy="424.44" width="81" height="18"/>
				<path d="M81 433.44 L81 415.44 L0 415.44 L0 433.44 L81 433.44 Z M0 451.44 L0 415.44 L0 451.44 Z M81 415.44 L81 451.44         L81 415.44 Z" class="st11"/>
				<path d="M81 451.44 L81 415.44" class="st9"/>
				<path d="M0 451.44 L0 415.44" class="st9"/>
				<path d="M0 415.44 L81 415.44" class="st9"/>
				<path d="M0 433.44 L81 433.44" class="st9"/>
				<path d="M0 451.44 L81 451.44" class="st9"/>
				<text x="14.96" y="427.74" class="st10" v:langID="1033"><v:paragraph v:horizAlign="1"/><v:tabList/>PolicyLocation</text>			</g>
		</g>
		<g id="group149-53" transform="translate(181.845,-90.72)" v:mID="149" v:groupContext="group">
			<v:userDefs>
				<v:ud v:nameU="BeginAngle" v:prompt="" v:val="VT0(1.5707963267949):32"/>
				<v:ud v:nameU="EndAngle" v:prompt="" v:val="VT0(1.5707963267949):32"/>
				<v:ud v:nameU="RealBeginX" v:val="VT0(0.125):1"/>
				<v:ud v:nameU="RealBeginY" v:val="VT0(0):1"/>
				<v:ud v:nameU="EndX" v:val="VT0(-0.125):1"/>
				<v:ud v:nameU="EndY" v:val="VT0(-0.625):1"/>
				<v:ud v:nameU="BeginArrowSize" v:val="VT0(0.17333333333333):29"/>
				<v:ud v:nameU="EndSize" v:val="VT0(0.17333333333333):29"/>
				<v:ud v:nameU="FillColor" v:prompt="Association = 0, Composition = 2, Aggregation = 1, Namespace = 3" v:val="VT0(0):26"/>
				<v:ud v:nameU="Navigability" v:prompt="Position of first &lt;--- or -X----" v:val="VT0(0.125):1"/>
				<v:ud v:nameU="NonNavigability" v:prompt="Position of first &lt;--- or -X----" v:val="VT0(0):1"/>
				<v:ud v:nameU="BeginArrow" v:prompt="No Arrow = 0, Arrow = 1" v:val="VT0(0):26"/>
				<v:ud v:nameU="SetBeginArrow" v:val="VT0(0):26"/>
				<v:ud v:nameU="SetEndArrow" v:val="VT0(1):26"/>
				<v:ud v:nameU="BeginDot" v:prompt="No Dot = 0; Dot = 1" v:val="VT0(0):26"/>
				<v:ud v:nameU="SetBeginArrow42" v:val="VT0(0):26"/>
			</v:userDefs>
			<title>Straight Relationship.149</title>
			<g id="shape150-54" v:mID="150" v:groupContext="shape" transform="translate(-4.85472,-31.6113)">
				<title>Sheet.150</title>
				<path d="M0 433.44 L2.25 433.44 L2.25 431.19 L0 431.19 L0 433.44 Z" class="st12"/>
			</g>
			<g id="shape151-57" v:mID="151" v:groupContext="shape" transform="translate(-4.85472,-11.1351)">
				<title>Sheet.151</title>
				<path d="M0 433.44 L2.25 433.44 L2.25 431.19 L0 431.19 L0 433.44 Z" class="st12"/>
			</g>
			<g id="shape152-60" v:mID="152" v:groupContext="shape" transform="translate(20.6011,-11.1351)">
				<title>Sheet.152</title>
				<path d="M0 433.44 L2.25 433.44 L2.25 431.19 L0 431.19 L0 433.44 Z" class="st12"/>
			</g>
			<g id="shape153-63" v:mID="153" v:groupContext="shape" transform="translate(20.6011,-31.6113)">
				<title>Sheet.153</title>
				<path d="M0 433.44 L2.25 433.44 L2.25 431.19 L0 431.19 L0 433.44 Z" class="st12"/>
			</g>
			<g id="shape149-66" v:mID="149" v:groupContext="groupContent">
				<path d="M9 433.44 L9 388.44" class="st13"/>
			</g>
		</g>
		<g id="shape37-72" v:mID="37" v:groupContext="shape" transform="translate(33.345,-41.22)">
			<title>Rectangle.37</title>
			<desc>Revision graph</desc>
			<v:userDefs>
				<v:ud v:nameU="visVersion" v:val="VT0(12):26"/>
			</v:userDefs>
			<v:textBlock v:margins="rect(4,4,4,4)" v:verticalAlign="0"/>
			<v:textRect cx="119.25" cy="396.564" width="238.5" height="73.7515"/>
			<path d="M0 433.44 L238.5 433.44 L238.5 359.69 L0 359.69 L0 433.44 Z" class="st15"/>
			<text x="4" y="372.69" class="st5" v:langID="1033"><v:paragraph/><v:tabList/>Revision graph</text>		</g>
		<g id="shape4-75" v:mID="4" v:groupContext="shape" transform="translate(180.72,-221.22)">
			<title>Rounded rectangle</title>
			<desc>Legend</desc>
			<v:userDefs>
				<v:ud v:nameU="visVersion" v:val="VT0(11):26"/>
			</v:userDefs>
			<v:textBlock v:margins="rect(4,4,4,4)" v:tabSpace="42.5197" v:verticalAlign="0"/>
			<v:textRect cx="78.21" cy="398.002" width="156.42" height="70.875"/>
			<path d="M142.25 433.44 A14.1733 14.1733 -180 0 0 156.42 419.27 L156.42 376.74 A14.1733 14.1733 -180 0 0 142.25 362.56        L14.17 362.56 A14.1733 14.1733 -180 0 0 0 376.74 L0 419.27 A14.1733 14.1733 -180 0 0 14.17 433.44 L142.25        433.44 Z" class="st16"/>
			<text x="68.92" y="373.77" class="st17" v:langID="1033"><v:paragraph v:horizAlign="1"/><v:tabList/>Legend</text>		</g>
		<g id="shape8-78" v:mID="8" v:groupContext="shape" transform="translate(259.775,-255.251)">
			<title>Rectangle.127</title>
			<desc>A has a B</desc>
			<v:userDefs>
				<v:ud v:nameU="visVersion" v:val="VT0(11):26"/>
			</v:userDefs>
			<v:textBlock v:margins="rect(4,4,4,4)" v:tabSpace="42.5197"/>
			<v:textRect cx="32.5173" cy="426.353" width="65.04" height="14.1732"/>
			<rect x="0" y="419.267" width="65.0346" height="14.1732" class="st18"/>
			<text x="4" y="428.75" class="st19" v:langID="1033"><v:paragraph/><v:tabList/>A has a B</text>		</g>
		<g id="shape9-81" v:mID="9" v:groupContext="shape" transform="translate(190.837,-255.162)">
			<title>Rectangle.130</title>
			<desc>A</desc>
			<v:userDefs>
				<v:ud v:nameU="visVersion" v:val="VT0(11):26"/>
			</v:userDefs>
			<v:textBlock v:margins="rect(4,4,4,4)" v:tabSpace="42.5197"/>
			<v:textRect cx="7.08661" cy="426.265" width="14.18" height="14.3504"/>
			<rect x="0" y="419.09" width="14.1732" height="14.3504" class="st20"/>
			<text x="5.34" y="428.66" class="st19" v:langID="1033"><v:paragraph v:horizAlign="1"/><v:tabList/>A</text>		</g>
		<g id="shape10-84" v:mID="10" v:groupContext="shape" transform="translate(241.35,-255.162)">
			<title>Rectangle.131</title>
			<desc>B</desc>
			<v:userDefs>
				<v:ud v:nameU="visVersion" v:val="VT0(11):26"/>
			</v:userDefs>
			<v:textBlock v:margins="rect(4,4,4,4)" v:tabSpace="42.5197"/>
			<v:textRect cx="7.08661" cy="426.265" width="14.18" height="14.3504"/>
			<rect x="0" y="419.09" width="14.1732" height="14.3504" class="st20"/>
			<text x="5.34" y="428.66" class="st19" v:langID="1033"><v:paragraph v:horizAlign="1"/><v:tabList/>B</text>		</g>
		<g id="shape14-87" v:mID="14" v:groupContext="shape" transform="translate(259.775,-228.758)">
			<title>Rectangle.141</title>
			<desc>A delegates to B</desc>
			<v:userDefs>
				<v:ud v:nameU="visVersion" v:val="VT0(11):26"/>
			</v:userDefs>
			<v:textBlock v:margins="rect(4,4,4,4)" v:tabSpace="42.5197"/>
			<v:textRect cx="38.1423" cy="426.353" width="76.29" height="14.1732"/>
			<rect x="0" y="419.267" width="76.2846" height="14.1732" class="st18"/>
			<text x="4" y="428.75" class="st19" v:langID="1033"><v:paragraph/><v:tabList/>A delegates to B</text>		</g>
		<g id="shape15-90" v:mID="15" v:groupContext="shape" transform="translate(190.837,-228.67)">
			<title>Rectangle.144</title>
			<desc>A</desc>
			<v:userDefs>
				<v:ud v:nameU="visVersion" v:val="VT0(11):26"/>
			</v:userDefs>
			<v:textBlock v:margins="rect(4,4,4,4)" v:tabSpace="42.5197"/>
			<v:textRect cx="7.08661" cy="426.265" width="14.18" height="14.3504"/>
			<rect x="0" y="419.09" width="14.1732" height="14.3504" class="st20"/>
			<text x="5.34" y="428.66" class="st19" v:langID="1033"><v:paragraph v:horizAlign="1"/><v:tabList/>A</text>		</g>
		<g id="shape16-93" v:mID="16" v:groupContext="shape" transform="translate(241.35,-228.67)">
			<title>Rectangle.145</title>
			<desc>B</desc>
			<v:userDefs>
				<v:ud v:nameU="visVersion" v:val="VT0(11):26"/>
			</v:userDefs>
			<v:textBlock v:margins="rect(4,4,4,4)" v:tabSpace="42.5197"/>
			<v:textRect cx="7.08661" cy="426.265" width="14.18" height="14.3504"/>
			<rect x="0" y="419.09" width="14.1732" height="14.3504" class="st20"/>
			<text x="5.34" y="428.66" class="st19" v:langID="1033"><v:paragraph v:horizAlign="1"/><v:tabList/>B</text>		</g>
		<g id="group17-96" transform="translate(205.01,-253.338)" v:mID="17" v:groupContext="group">
			<v:userDefs>
				<v:ud v:nameU="BeginAngle" v:prompt="" v:val="VT0(0):32"/>
				<v:ud v:nameU="EndAngle" v:prompt="" v:val="VT0(0):32"/>
				<v:ud v:nameU="RealBeginX" v:val="VT0(0):1"/>
				<v:ud v:nameU="RealBeginY" v:val="VT0(0.125):1"/>
				<v:ud v:nameU="EndX" v:val="VT0(-0.50472440944882):1"/>
				<v:ud v:nameU="EndY" v:val="VT0(-0.125):1"/>
				<v:ud v:nameU="BeginArrowSize" v:val="VT0(0.17333333333333):29"/>
				<v:ud v:nameU="EndSize" v:val="VT0(0.17333333333333):29"/>
				<v:ud v:nameU="FillColor" v:prompt="Association = 0, Composition = 2, Aggregation = 1, Namespace = 3" v:val="VT0(0):26"/>
				<v:ud v:nameU="Navigability" v:prompt="Position of first &lt;--- or -X----" v:val="VT0(0):1"/>
				<v:ud v:nameU="NonNavigability" v:prompt="Position of first &lt;--- or -X----" v:val="VT0(0.125):1"/>
				<v:ud v:nameU="BeginArrow" v:prompt="No Arrow = 0, Arrow = 1" v:val="VT0(0):26"/>
				<v:ud v:nameU="SetBeginArrow" v:val="VT0(0):26"/>
				<v:ud v:nameU="SetEndArrow" v:val="VT0(1):26"/>
				<v:ud v:nameU="BeginDot" v:prompt="No Dot = 0; Dot = 1" v:val="VT0(0):26"/>
				<v:ud v:nameU="SetBeginArrow42" v:val="VT0(0):26"/>
			</v:userDefs>
			<title>Straight Relationship.151</title>
			<g id="shape18-97" v:mID="18" v:groupContext="shape" transform="translate(21.3952,-14.1732)">
				<title>Sheet.18</title>
				<path d="M0 433.44 L2.25 433.44 L2.25 431.19 L0 431.19 L0 433.44 Z" class="st12"/>
			</g>
			<g id="shape19-100" v:mID="19" v:groupContext="shape" transform="translate(12.6913,-14.1732)">
				<title>Sheet.19</title>
				<path d="M0 433.44 L2.25 433.44 L2.25 431.19 L0 431.19 L0 433.44 Z" class="st12"/>
			</g>
			<g id="shape20-103" v:mID="20" v:groupContext="shape" transform="translate(12.6913,-1.5732)">
				<title>Sheet.20</title>
				<path d="M0 433.44 L2.25 433.44 L2.25 431.19 L0 431.19 L0 433.44 Z" class="st12"/>
			</g>
			<g id="shape21-106" v:mID="21" v:groupContext="shape" transform="translate(21.3952,-1.5732)">
				<title>Sheet.21</title>
				<path d="M0 433.44 L2.25 433.44 L2.25 431.19 L0 431.19 L0 433.44 Z" class="st12"/>
			</g>
			<g id="shape17-109" v:mID="17" v:groupContext="groupContent">
				<path d="M0 424.44 L36.34 424.44" class="st13"/>
			</g>
		</g>
		<g id="group32-114" transform="translate(205.01,-226.845)" v:mID="32" v:groupContext="group">
			<v:userDefs>
				<v:ud v:nameU="BeginAngle" v:prompt="" v:val="VT0(0):32"/>
				<v:ud v:nameU="EndAngle" v:prompt="" v:val="VT0(0):32"/>
				<v:ud v:nameU="RealBeginX" v:val="VT0(0):1"/>
				<v:ud v:nameU="RealBeginY" v:val="VT0(0.125):1"/>
				<v:ud v:nameU="EndX" v:val="VT0(-0.50472440944882):1"/>
				<v:ud v:nameU="EndY" v:val="VT0(-0.125):1"/>
				<v:ud v:nameU="BeginArrowSize" v:val="VT0(0.17333333333333):29"/>
				<v:ud v:nameU="EndSize" v:val="VT0(0.26333333333333):29"/>
				<v:ud v:nameU="FillColor" v:prompt="Association = 0, Composition = 2, Aggregation = 1, Namespace = 3" v:val="VT0(0):26"/>
				<v:ud v:nameU="Navigability" v:prompt="Position of first &lt;--- or -X----" v:val="VT0(0):1"/>
				<v:ud v:nameU="NonNavigability" v:prompt="Position of first &lt;--- or -X----" v:val="VT0(0.125):1"/>
				<v:ud v:nameU="BeginArrow" v:prompt="No Arrow = 0, Arrow = 1" v:val="VT0(0):26"/>
				<v:ud v:nameU="SetBeginArrow" v:val="VT0(0):26"/>
				<v:ud v:nameU="SetEndArrow" v:val="VT0(0):26"/>
				<v:ud v:nameU="BeginDot" v:prompt="No Dot = 0; Dot = 1" v:val="VT0(0):26"/>
				<v:ud v:nameU="SetBeginArrow42" v:val="VT0(0):26"/>
			</v:userDefs>
			<title>Straight Relationship.159</title>
			<g id="shape33-115" v:mID="33" v:groupContext="shape" transform="translate(21.3952,-14.1732)">
				<title>Sheet.33</title>
				<path d="M0 433.44 L2.25 433.44 L2.25 431.19 L0 431.19 L0 433.44 Z" class="st12"/>
			</g>
			<g id="shape34-118" v:mID="34" v:groupContext="shape" transform="translate(12.6913,-14.1732)">
				<title>Sheet.34</title>
				<path d="M0 433.44 L2.25 433.44 L2.25 431.19 L0 431.19 L0 433.44 Z" class="st12"/>
			</g>
			<g id="shape35-121" v:mID="35" v:groupContext="shape" transform="translate(12.6913,-1.5732)">
				<title>Sheet.35</title>
				<path d="M0 433.44 L2.25 433.44 L2.25 431.19 L0 431.19 L0 433.44 Z" class="st12"/>
			</g>
			<g id="shape36-124" v:mID="36" v:groupContext="shape" transform="translate(21.3952,-1.5732)">
				<title>Sheet.36</title>
				<path d="M0 433.44 L2.25 433.44 L2.25 431.19 L0 431.19 L0 433.44 Z" class="st12"/>
			</g>
			<g id="shape32-127" v:mID="32" v:groupContext="groupContent">
				<path d="M0 424.44 L23.74 424.44" class="st21"/>
			</g>
		</g>
		<g id="group38-133" transform="translate(60.345,-207.72)" v:mID="38" v:groupContext="group">
			<v:userDefs>
				<v:ud v:nameU="F" v:val="VT0(1):26"/>
				<v:ud v:nameU="Format" v:val="VT0(0):26"/>
				<v:ud v:nameU="ActiveObject" v:prompt="0,0626" v:val="VT0(0):26"/>
			</v:userDefs>
			<title>Class.38</title>
			<g id="shape39-134" v:mID="39" v:groupContext="shape" transform="translate(81,1.13687E-013)">
				<title>Sheet.39</title>
				<path d="M0 433.44 L0 385.91 L0 433.44 Z" class="st6"/>
			</g>
			<g id="shape40-137" v:mID="40" v:groupContext="shape">
				<title>Sheet.40</title>
				<path d="M81 433.44 L0 433.44 L81 433.44 Z" class="st6"/>
			</g>
			<g id="shape41-140" v:mID="41" v:groupContext="shape">
				<title>Sheet.41</title>
				<path d="M81 433.44 L0 433.44 L81 433.44 Z" class="st6"/>
			</g>
			<g id="shape42-143" v:mID="42" v:groupContext="shape">
				<title>Sheet.42</title>
				<rect x="0" y="415.44" width="81" height="18" class="st6"/>
				<rect x="0" y="415.44" width="81" height="18" class="st7"/>
			</g>
			<g id="shape43-146" v:mID="43" v:groupContext="shape" transform="translate(0,-18)">
				<title>Sheet.43</title>
				<desc>&lt;&lt;delegate&gt;&gt; EffDated</desc>
				<v:userDefs>
					<v:ud v:nameU="TabSize" v:val="VT0(0.125):0"/>
				</v:userDefs>
				<v:textBlock v:margins="rect(4,4,4,4)"/>
				<v:textRect cx="40.5" cy="418.675" width="81" height="29.531"/>
				<path d="M81 433.44 L81 403.91 L0 403.91 L0 433.44 L81 433.44 Z M0 451.44 L0 403.91 L0 451.44 Z M81 403.91 L81 451.44         L81 403.91 Z" class="st23"/>
				<path d="M81 451.44 L81 403.91" class="st9"/>
				<path d="M0 451.44 L0 403.91" class="st9"/>
				<path d="M0 403.91 L81 403.91" class="st9"/>
				<path d="M0 433.44 L81 433.44" class="st9"/>
				<path d="M0 451.44 L81 451.44" class="st9"/>
				<text x="17.54" y="415.37" class="st10" v:langID="1033"><v:paragraph v:horizAlign="1"/><v:tabList/>&lt;&lt;delegate&gt;&gt;<v:newlineChar/><tspan x="25.74" dy="1.2em" class="st24">EffDated</tspan></text>			</g>
		</g>
		<g id="group44-155" transform="translate(150.345,-72.72)" v:mID="44" v:groupContext="group">
			<v:userDefs>
				<v:ud v:nameU="BeginAngle" v:prompt="" v:val="VT0(3.1415926535898):32"/>
				<v:ud v:nameU="EndAngle" v:prompt="" v:val="VT0(1.5707963267949):32"/>
				<v:ud v:nameU="RealBeginX" v:val="VT0(0):1"/>
				<v:ud v:nameU="RealBeginY" v:val="VT0(0):1"/>
				<v:ud v:nameU="EndX" v:val="VT0(0.6875):1"/>
				<v:ud v:nameU="EndY" v:val="VT0(-1.875):1"/>
				<v:ud v:nameU="BeginArrowSize" v:val="VT0(0.17333333333333):29"/>
				<v:ud v:nameU="EndSize" v:val="VT0(0.26333333333333):29"/>
				<v:ud v:nameU="FillColor" v:prompt="Association = 0, Composition = 2, Aggregation = 1, Namespace = 3" v:val="VT0(0):26"/>
				<v:ud v:nameU="Navigability" v:prompt="Position of first &lt;--- or -X----" v:val="VT0(0):1"/>
				<v:ud v:nameU="NonNavigability" v:prompt="Position of first &lt;--- or -X----" v:val="VT0(0):1"/>
				<v:ud v:nameU="BeginArrow" v:prompt="No Arrow = 0, Arrow = 1" v:val="VT0(0):26"/>
				<v:ud v:nameU="SetBeginArrow" v:val="VT0(0):26"/>
				<v:ud v:nameU="SetEndArrow" v:val="VT0(0):26"/>
				<v:ud v:nameU="BeginDot" v:prompt="No Dot = 0; Dot = 1" v:val="VT0(0):26"/>
				<v:ud v:nameU="SetBeginArrow42" v:val="VT0(0):26"/>
			</v:userDefs>
			<title>Straight Relationship.44</title>
			<g id="shape45-156" v:mID="45" v:groupContext="shape" transform="translate(-63.3547,-117.426)">
				<title>Sheet.45</title>
				<path d="M0 433.44 L2.25 433.44 L2.25 431.19 L0 431.19 L0 433.44 Z" class="st12"/>
			</g>
			<g id="shape46-159" v:mID="46" v:groupContext="shape" transform="translate(-19.3897,7.4268)">
				<title>Sheet.46</title>
				<path d="M0 433.44 L2.25 433.44 L2.25 431.19 L0 431.19 L0 433.44 Z" class="st12"/>
			</g>
			<g id="shape47-162" v:mID="47" v:groupContext="shape" transform="translate(-19.3897,-5.1732)">
				<title>Sheet.47</title>
				<path d="M0 433.44 L2.25 433.44 L2.25 431.19 L0 431.19 L0 433.44 Z" class="st12"/>
			</g>
			<g id="shape48-165" v:mID="48" v:groupContext="shape" transform="translate(-37.8989,-117.426)">
				<title>Sheet.48</title>
				<path d="M0 433.44 L2.25 433.44 L2.25 431.19 L0 431.19 L0 433.44 Z" class="st12"/>
			</g>
			<g id="shape44-168" v:mID="44" v:groupContext="groupContent">
				<path d="M0 433.44 L-49.5 433.44 L-49.5 311.04" class="st21"/>
			</g>
		</g>
		<g id="group49-173" transform="translate(60.345,-277.47)" v:mID="49" v:groupContext="group">
			<v:userDefs>
				<v:ud v:nameU="F" v:val="VT0(1):26"/>
				<v:ud v:nameU="Format" v:val="VT0(0):26"/>
				<v:ud v:nameU="ActiveObject" v:prompt="0,0626" v:val="VT0(0):26"/>
			</v:userDefs>
			<title>Class.49</title>
			<g id="shape50-174" v:mID="50" v:groupContext="shape" transform="translate(81,1.13687E-013)">
				<title>Sheet.50</title>
				<path d="M0 433.44 L0 386.19 L0 433.44 Z" class="st6"/>
			</g>
			<g id="shape51-177" v:mID="51" v:groupContext="shape">
				<title>Sheet.51</title>
				<path d="M81 433.44 L0 433.44 L81 433.44 Z" class="st6"/>
			</g>
			<g id="shape52-180" v:mID="52" v:groupContext="shape">
				<title>Sheet.52</title>
				<path d="M81 433.44 L0 433.44 L81 433.44 Z" class="st6"/>
			</g>
			<g id="shape53-183" v:mID="53" v:groupContext="shape">
				<title>Sheet.53</title>
				<rect x="0" y="417.69" width="81" height="15.75" class="st6"/>
				<rect x="0" y="417.69" width="81" height="15.75" class="st7"/>
			</g>
			<g id="shape54-186" v:mID="54" v:groupContext="shape" transform="translate(0,-15.75)">
				<title>Sheet.54</title>
				<desc>&lt;&lt;delegate&gt;&gt; EffDatedBase</desc>
				<v:userDefs>
					<v:ud v:nameU="TabSize" v:val="VT0(0.125):0"/>
				</v:userDefs>
				<v:textBlock v:margins="rect(4,4,4,4)"/>
				<v:textRect cx="40.5" cy="417.69" width="81" height="31.5"/>
				<path d="M81 433.44 L81 401.94 L0 401.94 L0 433.44 L81 433.44 Z M0 449.19 L0 401.94 L0 449.19 Z M81 401.94 L81 449.19         L81 401.94 Z" class="st23"/>
				<path d="M81 449.19 L81 401.94" class="st9"/>
				<path d="M0 449.19 L0 401.94" class="st9"/>
				<path d="M0 401.94 L81 401.94" class="st9"/>
				<path d="M0 433.44 L81 433.44" class="st9"/>
				<path d="M0 449.19 L81 449.19" class="st9"/>
				<text x="17.54" y="414.39" class="st10" v:langID="1033"><v:paragraph v:horizAlign="1"/><v:tabList/>&lt;&lt;delegate&gt;&gt;<v:newlineChar/><tspan x="17.15" dy="1.2em" class="st24">EffDatedBase</tspan></text>			</g>
		</g>
		<g id="group55-195" transform="translate(60.345,-347.22)" v:mID="55" v:groupContext="group">
			<v:userDefs>
				<v:ud v:nameU="F" v:val="VT0(1):26"/>
				<v:ud v:nameU="Format" v:val="VT0(0):26"/>
				<v:ud v:nameU="ActiveObject" v:prompt="0,0626" v:val="VT0(0):26"/>
			</v:userDefs>
			<title>Class.55</title>
			<g id="shape56-196" v:mID="56" v:groupContext="shape" transform="translate(81,1.13687E-013)">
				<title>Sheet.56</title>
				<path d="M0 433.44 L0 383.94 L0 433.44 Z" class="st23"/>
			</g>
			<g id="shape57-199" v:mID="57" v:groupContext="shape">
				<title>Sheet.57</title>
				<path d="M81 433.44 L0 433.44 L81 433.44 Z" class="st23"/>
			</g>
			<g id="shape58-202" v:mID="58" v:groupContext="shape">
				<title>Sheet.58</title>
				<path d="M81 433.44 L0 433.44 L81 433.44 Z" class="st23"/>
			</g>
			<g id="shape60-205" v:mID="60" v:groupContext="shape" transform="translate(0,-18)">
				<title>Sheet.60</title>
				<desc>&lt;&lt;delegate&gt;&gt; Extractable</desc>
				<v:userDefs>
					<v:ud v:nameU="TabSize" v:val="VT0(0.125):0"/>
				</v:userDefs>
				<v:textBlock v:margins="rect(4,4,4,4)"/>
				<v:textRect cx="40.5" cy="417.69" width="81" height="31.5"/>
				<path d="M81 433.44 L81 401.94 L0 401.94 L0 433.44 L81 433.44 Z M0 451.44 L0 401.94 L0 451.44 Z M81 401.94 L81 451.44         L81 401.94 Z" class="st23"/>
				<path d="M81 451.44 L81 401.94" class="st9"/>
				<path d="M0 451.44 L0 401.94" class="st9"/>
				<path d="M0 401.94 L81 401.94" class="st9"/>
				<path d="M0 433.44 L81 433.44" class="st9"/>
				<path d="M0 451.44 L81 451.44" class="st9"/>
				<text x="17.54" y="414.39" class="st10" v:langID="1033"><v:paragraph v:horizAlign="1"/><v:tabList/>&lt;&lt;delegate&gt;&gt;<v:newlineChar/><tspan x="21.14" dy="1.2em" class="st24">Extractable</tspan></text>			</g>
		</g>
		<g id="group61-214" transform="translate(91.845,-255.251)" v:mID="61" v:groupContext="group">
			<v:userDefs>
				<v:ud v:nameU="BeginAngle" v:prompt="" v:val="VT0(1.5707963267949):32"/>
				<v:ud v:nameU="EndAngle" v:prompt="" v:val="VT0(1.5707963267949):32"/>
				<v:ud v:nameU="RealBeginX" v:val="VT0(0.125):1"/>
				<v:ud v:nameU="RealBeginY" v:val="VT0(-4.4408920985006E-016):1"/>
				<v:ud v:nameU="EndX" v:val="VT0(-0.125):1"/>
				<v:ud v:nameU="EndY" v:val="VT0(-0.30859789878952):1"/>
				<v:ud v:nameU="BeginArrowSize" v:val="VT0(0.17333333333333):29"/>
				<v:ud v:nameU="EndSize" v:val="VT0(0.26333333333333):29"/>
				<v:ud v:nameU="FillColor" v:prompt="Association = 0, Composition = 2, Aggregation = 1, Namespace = 3" v:val="VT0(0):26"/>
				<v:ud v:nameU="Navigability" v:prompt="Position of first &lt;--- or -X----" v:val="VT0(0.125):1"/>
				<v:ud v:nameU="NonNavigability" v:prompt="Position of first &lt;--- or -X----" v:val="VT0(-4.4408920985006E-016):1"/>
				<v:ud v:nameU="BeginArrow" v:prompt="No Arrow = 0, Arrow = 1" v:val="VT0(0):26"/>
				<v:ud v:nameU="SetBeginArrow" v:val="VT0(0):26"/>
				<v:ud v:nameU="SetEndArrow" v:val="VT0(0):26"/>
				<v:ud v:nameU="BeginDot" v:prompt="No Dot = 0; Dot = 1" v:val="VT0(0):26"/>
				<v:ud v:nameU="SetBeginArrow42" v:val="VT0(0):26"/>
			</v:userDefs>
			<title>Straight Relationship.61</title>
			<g id="shape62-215" v:mID="62" v:groupContext="shape" transform="translate(-4.85472,-9.51376)">
				<title>Sheet.62</title>
				<path d="M0 433.44 L2.25 433.44 L2.25 431.19 L0 431.19 L0 433.44 Z" class="st12"/>
			</g>
			<g id="shape63-218" v:mID="63" v:groupContext="shape" transform="translate(-4.85472,-10.4517)">
				<title>Sheet.63</title>
				<path d="M0 433.44 L2.25 433.44 L2.25 431.19 L0 431.19 L0 433.44 Z" class="st12"/>
			</g>
			<g id="shape64-221" v:mID="64" v:groupContext="shape" transform="translate(20.6011,-10.4517)">
				<title>Sheet.64</title>
				<path d="M0 433.44 L2.25 433.44 L2.25 431.19 L0 431.19 L0 433.44 Z" class="st12"/>
			</g>
			<g id="shape65-224" v:mID="65" v:groupContext="shape" transform="translate(20.6011,-9.51376)">
				<title>Sheet.65</title>
				<path d="M0 433.44 L2.25 433.44 L2.25 431.19 L0 431.19 L0 433.44 Z" class="st12"/>
			</g>
			<g id="shape61-227" v:mID="61" v:groupContext="groupContent">
				<path d="M9 433.44 L9 423.82" class="st21"/>
			</g>
		</g>
		<g id="group66-232" transform="translate(91.845,-324.72)" v:mID="66" v:groupContext="group">
			<v:userDefs>
				<v:ud v:nameU="BeginAngle" v:prompt="" v:val="VT0(1.5707963267949):32"/>
				<v:ud v:nameU="EndAngle" v:prompt="" v:val="VT0(1.5707963267949):32"/>
				<v:ud v:nameU="RealBeginX" v:val="VT0(0.125):1"/>
				<v:ud v:nameU="RealBeginY" v:val="VT0(0):1"/>
				<v:ud v:nameU="EndX" v:val="VT0(-0.125):1"/>
				<v:ud v:nameU="EndY" v:val="VT0(-0.3125):1"/>
				<v:ud v:nameU="BeginArrowSize" v:val="VT0(0.17333333333333):29"/>
				<v:ud v:nameU="EndSize" v:val="VT0(0.26333333333333):29"/>
				<v:ud v:nameU="FillColor" v:prompt="Association = 0, Composition = 2, Aggregation = 1, Namespace = 3" v:val="VT0(0):26"/>
				<v:ud v:nameU="Navigability" v:prompt="Position of first &lt;--- or -X----" v:val="VT0(0.125):1"/>
				<v:ud v:nameU="NonNavigability" v:prompt="Position of first &lt;--- or -X----" v:val="VT0(0):1"/>
				<v:ud v:nameU="BeginArrow" v:prompt="No Arrow = 0, Arrow = 1" v:val="VT0(0):26"/>
				<v:ud v:nameU="SetBeginArrow" v:val="VT0(0):26"/>
				<v:ud v:nameU="SetEndArrow" v:val="VT0(0):26"/>
				<v:ud v:nameU="BeginDot" v:prompt="No Dot = 0; Dot = 1" v:val="VT0(0):26"/>
				<v:ud v:nameU="SetBeginArrow42" v:val="VT0(0):26"/>
			</v:userDefs>
			<title>Straight Relationship.66</title>
			<g id="shape67-233" v:mID="67" v:groupContext="shape" transform="translate(-4.85472,-9.78628)">
				<title>Sheet.67</title>
				<path d="M0 433.44 L2.25 433.44 L2.25 431.19 L0 431.19 L0 433.44 Z" class="st12"/>
			</g>
			<g id="shape68-236" v:mID="68" v:groupContext="shape" transform="translate(-4.85472,-10.4601)">
				<title>Sheet.68</title>
				<path d="M0 433.44 L2.25 433.44 L2.25 431.19 L0 431.19 L0 433.44 Z" class="st12"/>
			</g>
			<g id="shape69-239" v:mID="69" v:groupContext="shape" transform="translate(20.6011,-10.4601)">
				<title>Sheet.69</title>
				<path d="M0 433.44 L2.25 433.44 L2.25 431.19 L0 431.19 L0 433.44 Z" class="st12"/>
			</g>
			<g id="shape70-242" v:mID="70" v:groupContext="shape" transform="translate(20.6011,-9.78628)">
				<title>Sheet.70</title>
				<path d="M0 433.44 L2.25 433.44 L2.25 431.19 L0 431.19 L0 433.44 Z" class="st12"/>
			</g>
			<g id="shape66-245" v:mID="66" v:groupContext="groupContent">
				<path d="M9 433.44 L9 423.54" class="st21"/>
			</g>
		</g>
	</g>
</svg>