<?xml version="1.0" encoding="UTF-8"?><!-- Generated by Microsoft Visio 11.0, SVG Export, v1.0 LOB-typelist-relationships.svg Page-1 --><svg xmlns="http://www.w3.org/2000/svg" xmlns:xlink="http://www.w3.org/1999/xlink" xmlns:ev="http://www.w3.org/2001/xml-events" xmlns:v="http://schemas.microsoft.com/visio/2003/SVGExtensions/" width="4.77in" height="6.27208in" viewBox="0 0 343.44 451.59" xml:space="preserve" color-interpolation-filters="sRGB" class="st18">
	<v:documentProperties v:langID="1033" v:viewMarkup="false">
		<v:userDefs>
			<v:ud v:nameU="msvNoAutoConnect" v:val="VT0(1):26"/>
		</v:userDefs>
	</v:documentProperties>

	<style type="text/css">
	
		.st1 {fill:#ffffff;stroke:#1c1c1c;stroke-linecap:round;stroke-linejoin:round;stroke-width:0.72}
		.st2 {fill:#1c1c1c;font-family:Calibri;font-size:0.666664em;font-weight:bold}
		.st3 {fill:none}
		.st4 {stroke:#034a69;stroke-linecap:round;stroke-linejoin:round;stroke-width:0.72}
		.st5 {fill:#034a69;fill-opacity:0.047;stroke:#034a69;stroke-linecap:round;stroke-linejoin:round;stroke-width:0.72}
		.st6 {fill:#1c1c1c;font-family:Calibri;font-size:1.00001em;font-weight:bold}
		.st7 {fill:#e8e8e8}
		.st8 {stroke:#1c1c1c;stroke-linecap:round;stroke-linejoin:round;stroke-width:0.24}
		.st9 {fill:#1c1c1c;font-family:Calibri;font-size:0.833336em;font-style:italic}
		.st10 {font-size:1.1em;font-style:normal;font-weight:bold}
		.st11 {fill:#ffffff;stroke:none;stroke-linecap:round;stroke-linejoin:round;stroke-width:0.24}
		.st12 {fill:#1c1c1c;font-family:Calibri;font-size:0.666664em}
		.st13 {font-size:1em}
		.st14 {fill:#ffffff;stroke:#1c1c1c;stroke-linecap:round;stroke-linejoin:round;stroke-width:0.24}
		.st15 {stroke:#1c1c1c;stroke-linecap:round;stroke-linejoin:round;stroke-width:0.25}
		.st16 {fill:none;stroke:none;stroke-linecap:round;stroke-linejoin:round;stroke-width:0.72}
		.st17 {fill:#1c1c1c;font-family:Calibri;font-size:1.00001em}
		.st18 {fill:none;fill-rule:evenodd;font-size:12;overflow:visible;stroke-linecap:square;stroke-miterlimit:3}
	
	</style>

	<g v:mID="0" v:index="1" v:groupContext="foregroundPage">
		<v:userDefs>
			<v:ud v:nameU="msvThemeColors" v:val="VT0(254):26"/>
			<v:ud v:nameU="msvThemeOrder" v:val="VT0(0):26"/>
		</v:userDefs>
		<title>Page-1</title>
		<v:pageProperties v:drawingScale="1" v:pageScale="1" v:drawingUnits="19" v:shadowOffsetX="9" v:shadowOffsetY="-9"/>
		<v:layer v:name="Connector" v:index="0"/>
		<g id="shape4-1" v:mID="4" v:groupContext="shape" transform="translate(160.657,-41.3025)">
			<title>Rounded rectangle</title>
			<desc>Legend</desc>
			<v:userDefs>
				<v:ud v:nameU="visVersion" v:val="VT0(11):26"/>
				<v:ud v:nameU="msvThemeColors" v:val="VT0(254):26"/>
			</v:userDefs>
			<v:textBlock v:margins="rect(4,4,4,4)" v:verticalAlign="0"/>
			<v:textRect cx="79.875" cy="407.574" width="159.75" height="88.0313"/>
			<path d="M145.58 451.59 A14.1733 14.1733 -180 0 0 159.75 437.42 L159.75 377.73 A14.1733 14.1733 -180 0 0 145.58 363.56        L14.17 363.56 A14.1733 14.1733 -180 0 0 0 377.73 L0 437.42 A14.1733 14.1733 -180 0 0 14.17 451.59 L145.58        451.59 Z" class="st1"/>
			<text x="67.97" y="374.76" class="st2" v:langID="1033"><v:paragraph v:horizAlign="1"/><v:tabList/>Legend</text>		</g>
		<g id="shape56-4" v:mID="56" v:groupContext="shape" transform="translate(-346.286,119.568) rotate(-90)">
			<title>Straight Relationship.20</title>
			<v:userDefs>
				<v:ud v:nameU="msvThemeColors" v:val="VT0(254):26"/>
			</v:userDefs>
			<path d="M0 451.59 L2.25 451.59 L2.25 449.34 L0 449.34 L0 451.59 Z" class="st3"/>
		</g>
		<g id="group1-7" transform="translate(18.72,-36.96)" v:mID="1" v:groupContext="group">
			<v:userDefs>
				<v:ud v:nameU="Scale" v:val="VT0(1):26"/>
				<v:ud v:nameU="AntiScale" v:val="VT0(1):26"/>
				<v:ud v:nameU="visVersion" v:val="VT0(11):26"/>
				<v:ud v:nameU="msvThemeColors" v:val="VT0(254):26"/>
			</v:userDefs>
			<title>Border small</title>
			<g id="shape2-8" v:mID="2" v:groupContext="shape">
				<title>Sheet.2</title>
				<v:userDefs>
					<v:ud v:nameU="msvThemeColors" v:val="VT0(254):26"/>
				</v:userDefs>
				<path d="M0 78.08 L0 429.19 A22.4037 22.4037 -180 0 0 22.4 451.59 L283.6 451.59 A22.4037 22.4037 -180 0 0 306 429.19         L306 78.08 L0 78.08" class="st4"/>
			</g>
			<g id="shape3-11" v:mID="3" v:groupContext="shape" transform="translate(0,-373.506)">
				<title>Sheet.3</title>
				<desc>ClaimCenter LOB Typelist Relationships</desc>
				<v:userDefs>
					<v:ud v:nameU="msvThemeColors" v:val="VT0(254):26"/>
				</v:userDefs>
				<v:textBlock v:margins="rect(4,4,4,4)"/>
				<v:textRect cx="153" cy="440.388" width="306" height="22.4037"/>
				<path d="M306 451.59 L0 451.59 A22.4037 22.4037 0 0 1 22.4 429.19 L283.6 429.19 A22.4037 22.4037 0 0 1 306 451.59         Z" class="st5"/>
				<text x="55.35" y="443.99" class="st6" v:langID="1033"><v:paragraph v:horizAlign="1"/><v:tabList/>ClaimCenter LOB Typelist Relationships</text>			</g>
		</g>
		<g id="group71-14" transform="translate(50.22,-369.149)" v:mID="71" v:groupContext="group">
			<v:userDefs>
				<v:ud v:nameU="F" v:val="VT0(1):26"/>
				<v:ud v:nameU="Format" v:val="VT0(0):26"/>
				<v:ud v:nameU="ActiveObject" v:prompt="0.0626" v:val="VT0(0):26"/>
				<v:ud v:nameU="msvThemeColors" v:val="VT0(254):26"/>
			</v:userDefs>
			<title>Class.71</title>
			<g id="shape73-15" v:mID="73" v:groupContext="shape" transform="translate(89.8581,1.13687E-013)">
				<title>Sheet.73</title>
				<v:userDefs>
					<v:ud v:nameU="msvThemeColors" v:val="VT0(254):26"/>
				</v:userDefs>
				<path d="M0 451.59 L0 424.59 L0 451.59 Z" class="st7"/>
			</g>
			<g id="shape82-18" v:mID="82" v:groupContext="shape">
				<title>Sheet.82</title>
				<v:userDefs>
					<v:ud v:nameU="msvThemeColors" v:val="VT0(254):26"/>
				</v:userDefs>
				<path d="M89.86 451.59 L0 451.59 L89.86 451.59 Z" class="st7"/>
			</g>
			<g id="shape85-21" v:mID="85" v:groupContext="shape">
				<title>Sheet.85</title>
				<v:userDefs>
					<v:ud v:nameU="msvThemeColors" v:val="VT0(254):26"/>
				</v:userDefs>
				<path d="M89.86 451.59 L0 451.59 L89.86 451.59 Z" class="st7"/>
			</g>
			<g id="shape94-24" v:mID="94" v:groupContext="shape">
				<title>Sheet.94</title>
				<desc>«typelist» LossType</desc>
				<v:userDefs>
					<v:ud v:nameU="TabSize" v:val="VT0(0.09375):26"/>
					<v:ud v:nameU="msvThemeColors" v:val="VT0(254):26"/>
				</v:userDefs>
				<v:textBlock v:margins="rect(4,4,4,4)"/>
				<v:textRect cx="44.9291" cy="438.09" width="89.86" height="27"/>
				<path d="M89.86 451.59 L89.86 424.59 L0 424.59 L0 451.59 L89.86 451.59 ZM0 451.59 L0 424.59 L0 451.59 ZM89.86 424.59         L89.86 451.59 L89.86 424.59 Z" class="st7"/>
				<path d="M89.86 451.59 L89.86 424.59" class="st8"/>
				<path d="M0 451.59 L0 424.59" class="st8"/>
				<path d="M0 424.59 L89.86 424.59" class="st8"/>
				<path d="M0 451.59 L89.86 451.59" class="st8"/>
				<path d="M0 451.59 L89.86 451.59" class="st8"/>
				<text x="25.02" y="434.79" class="st9" v:langID="1033"><v:paragraph v:horizAlign="1"/><v:tabList/>«typelist»<tspan class="st10"> </tspan><tspan x="24.21" dy="1.2em" class="st10">LossType</tspan></text>			</g>
		</g>
		<g id="shape5-34" v:mID="5" v:groupContext="shape" transform="translate(239.985,-96.5461)">
			<title>Rectangle.32</title>
			<desc>Bidirectional: Many to Many</desc>
			<v:userDefs>
				<v:ud v:nameU="visVersion" v:val="VT0(11):26"/>
				<v:ud v:nameU="msvThemeColors" v:val="VT0(254):26"/>
			</v:userDefs>
			<v:textBlock v:margins="rect(4,4,4,4)"/>
			<v:textRect cx="38.1423" cy="444.503" width="76.29" height="14.1732"/>
			<rect x="0" y="437.417" width="76.2846" height="14.1732" class="st11"/>
			<text x="4" y="442.1" class="st12" v:langID="1033"><v:paragraph/><v:tabList/>Bidirectional:<v:lf/><tspan x="4" dy="1.2em" class="st13">Many to Many</tspan></text>		</g>
		<g id="shape6-38" v:mID="6" v:groupContext="shape" transform="translate(171.755,-96.4575)">
			<title>Rectangle.48</title>
			<desc>A</desc>
			<v:userDefs>
				<v:ud v:nameU="visVersion" v:val="VT0(11):26"/>
				<v:ud v:nameU="msvThemeColors" v:val="VT0(254):26"/>
			</v:userDefs>
			<v:textBlock v:margins="rect(4,4,4,4)"/>
			<v:textRect cx="6.73228" cy="444.415" width="13.47" height="14.3504"/>
			<rect x="0" y="437.24" width="13.4646" height="14.3504" class="st14"/>
			<text x="4.42" y="446.81" class="st12" v:langID="1033"><v:paragraph v:horizAlign="1"/><v:tabList/>A</text>		</g>
		<g id="shape7-41" v:mID="7" v:groupContext="shape" transform="translate(221.56,-96.4575)">
			<title>Rectangle.49</title>
			<desc>B</desc>
			<v:userDefs>
				<v:ud v:nameU="visVersion" v:val="VT0(11):26"/>
				<v:ud v:nameU="msvThemeColors" v:val="VT0(254):26"/>
			</v:userDefs>
			<v:textBlock v:margins="rect(4,4,4,4)"/>
			<v:textRect cx="7.08661" cy="444.415" width="14.18" height="14.3504"/>
			<rect x="0" y="437.24" width="14.1732" height="14.3504" class="st14"/>
			<text x="4.91" y="446.81" class="st12" v:langID="1033"><v:paragraph v:horizAlign="1"/><v:tabList/>B</text>		</g>
		<g id="group29-44" transform="translate(50.22,-306.149)" v:mID="29" v:groupContext="group">
			<v:userDefs>
				<v:ud v:nameU="F" v:val="VT0(1):26"/>
				<v:ud v:nameU="Format" v:val="VT0(0):26"/>
				<v:ud v:nameU="ActiveObject" v:prompt="0.0626" v:val="VT0(0):26"/>
				<v:ud v:nameU="msvThemeColors" v:val="VT0(254):26"/>
			</v:userDefs>
			<title>Class.29</title>
			<g id="shape30-45" v:mID="30" v:groupContext="shape" transform="translate(89.8581,1.13687E-013)">
				<title>Sheet.30</title>
				<v:userDefs>
					<v:ud v:nameU="msvThemeColors" v:val="VT0(254):26"/>
				</v:userDefs>
				<path d="M0 451.59 L0 424.59 L0 451.59 Z" class="st7"/>
			</g>
			<g id="shape31-48" v:mID="31" v:groupContext="shape">
				<title>Sheet.31</title>
				<v:userDefs>
					<v:ud v:nameU="msvThemeColors" v:val="VT0(254):26"/>
				</v:userDefs>
				<path d="M89.86 451.59 L0 451.59 L89.86 451.59 Z" class="st7"/>
			</g>
			<g id="shape32-51" v:mID="32" v:groupContext="shape">
				<title>Sheet.32</title>
				<v:userDefs>
					<v:ud v:nameU="msvThemeColors" v:val="VT0(254):26"/>
				</v:userDefs>
				<path d="M89.86 451.59 L0 451.59 L89.86 451.59 Z" class="st7"/>
			</g>
			<g id="shape33-54" v:mID="33" v:groupContext="shape">
				<title>Sheet.33</title>
				<desc>«typelist» LOBCode</desc>
				<v:userDefs>
					<v:ud v:nameU="TabSize" v:val="VT0(0.09375):26"/>
					<v:ud v:nameU="msvThemeColors" v:val="VT0(254):26"/>
				</v:userDefs>
				<v:textBlock v:margins="rect(4,4,4,4)"/>
				<v:textRect cx="44.9291" cy="438.09" width="89.86" height="27"/>
				<path d="M89.86 451.59 L89.86 424.59 L0 424.59 L0 451.59 L89.86 451.59 ZM0 451.59 L0 424.59 L0 451.59 ZM89.86 424.59         L89.86 451.59 L89.86 424.59 Z" class="st7"/>
				<path d="M89.86 451.59 L89.86 424.59" class="st8"/>
				<path d="M0 451.59 L0 424.59" class="st8"/>
				<path d="M0 424.59 L89.86 424.59" class="st8"/>
				<path d="M0 451.59 L89.86 451.59" class="st8"/>
				<path d="M0 451.59 L89.86 451.59" class="st8"/>
				<text x="25.02" y="434.79" class="st9" v:langID="1033"><v:paragraph v:horizAlign="1"/><v:tabList/>«typelist»<tspan class="st10"> </tspan><tspan x="24.21" dy="1.2em" class="st10">LOBCode</tspan></text>			</g>
		</g>
		<g id="group34-64" transform="translate(50.22,-243.149)" v:mID="34" v:groupContext="group">
			<v:userDefs>
				<v:ud v:nameU="F" v:val="VT0(1):26"/>
				<v:ud v:nameU="Format" v:val="VT0(0):26"/>
				<v:ud v:nameU="ActiveObject" v:prompt="0.0626" v:val="VT0(0):26"/>
				<v:ud v:nameU="msvThemeColors" v:val="VT0(254):26"/>
			</v:userDefs>
			<title>Class.34</title>
			<g id="shape35-65" v:mID="35" v:groupContext="shape" transform="translate(89.8581,1.13687E-013)">
				<title>Sheet.35</title>
				<v:userDefs>
					<v:ud v:nameU="msvThemeColors" v:val="VT0(254):26"/>
				</v:userDefs>
				<path d="M0 451.59 L0 424.59 L0 451.59 Z" class="st7"/>
			</g>
			<g id="shape36-68" v:mID="36" v:groupContext="shape">
				<title>Sheet.36</title>
				<v:userDefs>
					<v:ud v:nameU="msvThemeColors" v:val="VT0(254):26"/>
				</v:userDefs>
				<path d="M89.86 451.59 L0 451.59 L89.86 451.59 Z" class="st7"/>
			</g>
			<g id="shape37-71" v:mID="37" v:groupContext="shape">
				<title>Sheet.37</title>
				<v:userDefs>
					<v:ud v:nameU="msvThemeColors" v:val="VT0(254):26"/>
				</v:userDefs>
				<path d="M89.86 451.59 L0 451.59 L89.86 451.59 Z" class="st7"/>
			</g>
			<g id="shape38-74" v:mID="38" v:groupContext="shape">
				<title>Sheet.38</title>
				<desc>«typelist» PolicyType</desc>
				<v:userDefs>
					<v:ud v:nameU="TabSize" v:val="VT0(0.09375):26"/>
					<v:ud v:nameU="msvThemeColors" v:val="VT0(254):26"/>
				</v:userDefs>
				<v:textBlock v:margins="rect(4,4,4,4)"/>
				<v:textRect cx="44.9291" cy="438.09" width="89.86" height="27"/>
				<path d="M89.86 451.59 L89.86 424.59 L0 424.59 L0 451.59 L89.86 451.59 ZM0 451.59 L0 424.59 L0 451.59 ZM89.86 424.59         L89.86 451.59 L89.86 424.59 Z" class="st7"/>
				<path d="M89.86 451.59 L89.86 424.59" class="st8"/>
				<path d="M0 451.59 L0 424.59" class="st8"/>
				<path d="M0 424.59 L89.86 424.59" class="st8"/>
				<path d="M0 451.59 L89.86 451.59" class="st8"/>
				<path d="M0 451.59 L89.86 451.59" class="st8"/>
				<text x="25.02" y="434.79" class="st9" v:langID="1033"><v:paragraph v:horizAlign="1"/><v:tabList/>«typelist»<tspan class="st10"> </tspan><tspan x="20.39" dy="1.2em" class="st10">PolicyType</tspan></text>			</g>
		</g>
		<g id="group39-84" transform="translate(50.22,-180.149)" v:mID="39" v:groupContext="group">
			<v:userDefs>
				<v:ud v:nameU="F" v:val="VT0(1):26"/>
				<v:ud v:nameU="Format" v:val="VT0(0):26"/>
				<v:ud v:nameU="ActiveObject" v:prompt="0.0626" v:val="VT0(0):26"/>
				<v:ud v:nameU="msvThemeColors" v:val="VT0(254):26"/>
			</v:userDefs>
			<title>Class.39</title>
			<g id="shape40-85" v:mID="40" v:groupContext="shape" transform="translate(89.8581,1.13687E-013)">
				<title>Sheet.40</title>
				<v:userDefs>
					<v:ud v:nameU="msvThemeColors" v:val="VT0(254):26"/>
				</v:userDefs>
				<path d="M0 451.59 L0 424.59 L0 451.59 Z" class="st7"/>
			</g>
			<g id="shape41-88" v:mID="41" v:groupContext="shape">
				<title>Sheet.41</title>
				<v:userDefs>
					<v:ud v:nameU="msvThemeColors" v:val="VT0(254):26"/>
				</v:userDefs>
				<path d="M89.86 451.59 L0 451.59 L89.86 451.59 Z" class="st7"/>
			</g>
			<g id="shape42-91" v:mID="42" v:groupContext="shape">
				<title>Sheet.42</title>
				<v:userDefs>
					<v:ud v:nameU="msvThemeColors" v:val="VT0(254):26"/>
				</v:userDefs>
				<path d="M89.86 451.59 L0 451.59 L89.86 451.59 Z" class="st7"/>
			</g>
			<g id="shape43-94" v:mID="43" v:groupContext="shape">
				<title>Sheet.43</title>
				<desc>«typelist» CoverageType</desc>
				<v:userDefs>
					<v:ud v:nameU="TabSize" v:val="VT0(0.09375):26"/>
					<v:ud v:nameU="msvThemeColors" v:val="VT0(254):26"/>
				</v:userDefs>
				<v:textBlock v:margins="rect(4,4,4,4)"/>
				<v:textRect cx="44.9291" cy="438.09" width="89.86" height="27"/>
				<path d="M89.86 451.59 L89.86 424.59 L0 424.59 L0 451.59 L89.86 451.59 ZM0 451.59 L0 424.59 L0 451.59 ZM89.86 424.59         L89.86 451.59 L89.86 424.59 Z" class="st7"/>
				<path d="M89.86 451.59 L89.86 424.59" class="st8"/>
				<path d="M0 451.59 L0 424.59" class="st8"/>
				<path d="M0 424.59 L89.86 424.59" class="st8"/>
				<path d="M0 451.59 L89.86 451.59" class="st8"/>
				<path d="M0 451.59 L89.86 451.59" class="st8"/>
				<text x="25.02" y="434.79" class="st9" v:langID="1033"><v:paragraph v:horizAlign="1"/><v:tabList/>«typelist»<tspan class="st10"> </tspan><tspan x="12.59" dy="1.2em" class="st10">CoverageType</tspan></text>			</g>
		</g>
		<g id="group44-104" transform="translate(50.22,-117.329)" v:mID="44" v:groupContext="group">
			<v:userDefs>
				<v:ud v:nameU="F" v:val="VT0(1):26"/>
				<v:ud v:nameU="Format" v:val="VT0(0):26"/>
				<v:ud v:nameU="ActiveObject" v:prompt="0.0626" v:val="VT0(0):26"/>
				<v:ud v:nameU="msvThemeColors" v:val="VT0(254):26"/>
			</v:userDefs>
			<title>Class.44</title>
			<g id="shape45-105" v:mID="45" v:groupContext="shape" transform="translate(89.8581,1.13687E-013)">
				<title>Sheet.45</title>
				<v:userDefs>
					<v:ud v:nameU="msvThemeColors" v:val="VT0(254):26"/>
				</v:userDefs>
				<path d="M0 451.59 L0 424.77 L0 451.59 Z" class="st7"/>
			</g>
			<g id="shape46-108" v:mID="46" v:groupContext="shape">
				<title>Sheet.46</title>
				<v:userDefs>
					<v:ud v:nameU="msvThemeColors" v:val="VT0(254):26"/>
				</v:userDefs>
				<path d="M89.86 451.59 L0 451.59 L89.86 451.59 Z" class="st7"/>
			</g>
			<g id="shape47-111" v:mID="47" v:groupContext="shape">
				<title>Sheet.47</title>
				<v:userDefs>
					<v:ud v:nameU="msvThemeColors" v:val="VT0(254):26"/>
				</v:userDefs>
				<path d="M89.86 451.59 L0 451.59 L89.86 451.59 Z" class="st7"/>
			</g>
			<g id="shape48-114" v:mID="48" v:groupContext="shape">
				<title>Sheet.48</title>
				<desc>«typelist» CoverageSubtype</desc>
				<v:userDefs>
					<v:ud v:nameU="TabSize" v:val="VT0(0.093125000000003):26"/>
					<v:ud v:nameU="msvThemeColors" v:val="VT0(254):26"/>
				</v:userDefs>
				<v:textBlock v:margins="rect(4,4,4,4)"/>
				<v:textRect cx="44.9291" cy="438.18" width="89.86" height="26.82"/>
				<path d="M89.86 451.59 L89.86 424.77 L0 424.77 L0 451.59 L89.86 451.59 ZM0 451.59 L0 424.77 L0 451.59 ZM89.86 424.77         L89.86 451.59 L89.86 424.77 Z" class="st7"/>
				<path d="M89.86 451.59 L89.86 424.77" class="st8"/>
				<path d="M0 451.59 L0 424.77" class="st8"/>
				<path d="M0 424.77 L89.86 424.77" class="st8"/>
				<path d="M0 451.59 L89.86 451.59" class="st8"/>
				<path d="M0 451.59 L89.86 451.59" class="st8"/>
				<text x="25.02" y="434.88" class="st9" v:langID="1033"><v:paragraph v:horizAlign="1"/><v:tabList/>«typelist»<tspan class="st10"> </tspan><tspan x="4.91" dy="1.2em" class="st10">CoverageSubtype</tspan></text>			</g>
		</g>
		<g id="group49-124" transform="translate(50.22,-54.24)" v:mID="49" v:groupContext="group">
			<v:userDefs>
				<v:ud v:nameU="F" v:val="VT0(1):26"/>
				<v:ud v:nameU="Format" v:val="VT0(0):26"/>
				<v:ud v:nameU="ActiveObject" v:prompt="0.0626" v:val="VT0(0):26"/>
				<v:ud v:nameU="msvThemeColors" v:val="VT0(254):26"/>
			</v:userDefs>
			<title>Class.49</title>
			<g id="shape50-125" v:mID="50" v:groupContext="shape" transform="translate(89.8581,1.13687E-013)">
				<title>Sheet.50</title>
				<v:userDefs>
					<v:ud v:nameU="msvThemeColors" v:val="VT0(254):26"/>
				</v:userDefs>
				<path d="M0 451.59 L0 424.5 L0 451.59 Z" class="st7"/>
			</g>
			<g id="shape51-128" v:mID="51" v:groupContext="shape">
				<title>Sheet.51</title>
				<v:userDefs>
					<v:ud v:nameU="msvThemeColors" v:val="VT0(254):26"/>
				</v:userDefs>
				<path d="M89.86 451.59 L0 451.59 L89.86 451.59 Z" class="st7"/>
			</g>
			<g id="shape52-131" v:mID="52" v:groupContext="shape">
				<title>Sheet.52</title>
				<v:userDefs>
					<v:ud v:nameU="msvThemeColors" v:val="VT0(254):26"/>
				</v:userDefs>
				<path d="M89.86 451.59 L0 451.59 L89.86 451.59 Z" class="st7"/>
			</g>
			<g id="shape53-134" v:mID="53" v:groupContext="shape">
				<title>Sheet.53</title>
				<desc>«typelist» ExposureType</desc>
				<v:userDefs>
					<v:ud v:nameU="TabSize" v:val="VT0(0.094057578740158):26"/>
					<v:ud v:nameU="msvThemeColors" v:val="VT0(254):26"/>
				</v:userDefs>
				<v:textBlock v:margins="rect(4,4,4,4)"/>
				<v:textRect cx="44.9291" cy="438.046" width="89.86" height="27.0886"/>
				<path d="M89.86 451.59 L89.86 424.5 L0 424.5 L0 451.59 L89.86 451.59 ZM0 451.59 L0 424.5 L0 451.59 ZM89.86 424.5         L89.86 451.59 L89.86 424.5 Z" class="st7"/>
				<path d="M89.86 451.59 L89.86 424.5" class="st8"/>
				<path d="M0 451.59 L0 424.5" class="st8"/>
				<path d="M0 424.5 L89.86 424.5" class="st8"/>
				<path d="M0 451.59 L89.86 451.59" class="st8"/>
				<path d="M0 451.59 L89.86 451.59" class="st8"/>
				<text x="25.02" y="434.75" class="st9" v:langID="1033"><v:paragraph v:horizAlign="1"/><v:tabList/>«typelist»<tspan class="st10"> </tspan><tspan x="12.89" dy="1.2em" class="st10">ExposureType</tspan></text>			</g>
		</g>
		<g id="shape65-144" v:mID="65" v:groupContext="shape" v:layerMember="0" transform="translate(86.1491,-180.149)">
			<title>Dynamic connector.65</title>
			<v:userDefs>
				<v:ud v:nameU="msvThemeColors" v:val="VT0(254):26"/>
			</v:userDefs>
			<path d="M9 451.59 L9 487.59" class="st15"/>
		</g>
		<g id="shape66-147" v:mID="66" v:groupContext="shape" v:layerMember="0" transform="translate(86.1491,-117.329)">
			<title>Dynamic connector.66</title>
			<v:userDefs>
				<v:ud v:nameU="msvThemeColors" v:val="VT0(254):26"/>
			</v:userDefs>
			<path d="M9 451.59 L9 487.59" class="st15"/>
		</g>
		<g id="shape58-150" v:mID="58" v:groupContext="shape" transform="translate(241.466,-204.986)">
			<title>Straight Relationship.57</title>
			<path d="M0 451.59 L2.25 451.59 L2.25 449.34 L0 449.34 L0 451.59 Z" class="st3"/>
		</g>
		<g id="shape10-153" v:mID="10" v:groupContext="shape" v:layerMember="0" transform="translate(221.56,-94.6327)">
			<title>Dynamic connector.10</title>
			<v:userDefs>
				<v:ud v:nameU="msvThemeColors" v:val="VT0(254):26"/>
			</v:userDefs>
			<path d="M0 442.59 L-36.34 442.59" class="st15"/>
		</g>
		<g id="shape11-156" v:mID="11" v:groupContext="shape" transform="translate(211.88,-93.4275)">
			<title>Sheet.11</title>
			<desc>*</desc>
			<v:userDefs>
				<v:ud v:nameU="msvThemeColors" v:val="VT0(254):26"/>
			</v:userDefs>
			<v:textBlock v:margins="rect(4,4,4,4)"/>
			<v:textRect cx="6.78547" cy="447.136" width="13.58" height="8.90858"/>
			<rect x="0" y="442.681" width="13.5709" height="8.90858" class="st16"/>
			<text x="4" y="450.74" class="st17" v:langID="1033"><v:paragraph v:horizAlign="1"/><v:tabList/>*</text>		</g>
		<g id="shape12-159" v:mID="12" v:groupContext="shape" transform="translate(182.048,-93.4275)">
			<title>Sheet.12</title>
			<desc>*</desc>
			<v:userDefs>
				<v:ud v:nameU="msvThemeColors" v:val="VT0(254):26"/>
			</v:userDefs>
			<v:textBlock v:margins="rect(4,4,4,4)"/>
			<v:textRect cx="6.78547" cy="447.136" width="13.58" height="8.90858"/>
			<rect x="0" y="442.681" width="13.5709" height="8.90858" class="st16"/>
			<text x="4" y="450.74" class="st17" v:langID="1033"><v:paragraph v:horizAlign="1"/><v:tabList/>*</text>		</g>
		<g id="shape16-162" v:mID="16" v:groupContext="shape" transform="translate(172.13,-51.0525)">
			<title>Rectangle.16</title>
			<desc>A</desc>
			<v:userDefs>
				<v:ud v:nameU="visVersion" v:val="VT0(11):26"/>
				<v:ud v:nameU="msvThemeColors" v:val="VT0(254):26"/>
			</v:userDefs>
			<v:textBlock v:margins="rect(4,4,4,4)"/>
			<v:textRect cx="6.73228" cy="444.415" width="13.47" height="14.3504"/>
			<rect x="0" y="437.24" width="13.4646" height="14.3504" class="st14"/>
			<text x="4.42" y="446.81" class="st12" v:langID="1033"><v:paragraph v:horizAlign="1"/><v:tabList/>A</text>		</g>
		<g id="shape17-165" v:mID="17" v:groupContext="shape" transform="translate(222.38,-51.0525)">
			<title>Rectangle.17</title>
			<desc>B</desc>
			<v:userDefs>
				<v:ud v:nameU="visVersion" v:val="VT0(11):26"/>
				<v:ud v:nameU="msvThemeColors" v:val="VT0(254):26"/>
			</v:userDefs>
			<v:textBlock v:margins="rect(4,4,4,4)"/>
			<v:textRect cx="7.08661" cy="444.415" width="14.18" height="14.3504"/>
			<rect x="0" y="437.24" width="14.1732" height="14.3504" class="st14"/>
			<text x="4.91" y="446.81" class="st12" v:langID="1033"><v:paragraph v:horizAlign="1"/><v:tabList/>B</text>		</g>
		<g id="shape18-168" v:mID="18" v:groupContext="shape" v:layerMember="0" transform="translate(222.38,-49.2277)">
			<title>Dynamic connector.18</title>
			<v:userDefs>
				<v:ud v:nameU="msvThemeColors" v:val="VT0(254):26"/>
			</v:userDefs>
			<path d="M0 442.59 L-36.79 442.59" class="st15"/>
		</g>
		<g id="shape19-171" v:mID="19" v:groupContext="shape" transform="translate(239.818,-51.2297)">
			<title>Rectangle.19</title>
			<desc>Bidirectional: One to One (B to A)</desc>
			<v:userDefs>
				<v:ud v:nameU="visVersion" v:val="VT0(11):26"/>
				<v:ud v:nameU="msvThemeColors" v:val="VT0(254):26"/>
			</v:userDefs>
			<v:textBlock v:margins="rect(4,4,4,4)"/>
			<v:textRect cx="39.0469" cy="444.503" width="78.1" height="14.1732"/>
			<rect x="0" y="437.417" width="78.0938" height="14.1732" class="st11"/>
			<text x="4" y="442.1" class="st12" v:langID="1033"><v:paragraph/><v:tabList/>Bidirectional: <v:lf/><tspan x="4" dy="1.2em" class="st13">One to One </tspan>(B to A)</text>		</g>
		<g id="shape22-175" v:mID="22" v:groupContext="shape" transform="translate(171.943,-74.115)">
			<title>Rectangle.12</title>
			<desc>A</desc>
			<v:userDefs>
				<v:ud v:nameU="visVersion" v:val="VT0(11):26"/>
				<v:ud v:nameU="msvThemeColors" v:val="VT0(254):26"/>
			</v:userDefs>
			<v:textBlock v:margins="rect(4,4,4,4)"/>
			<v:textRect cx="6.73228" cy="444.415" width="13.47" height="14.3504"/>
			<rect x="0" y="437.24" width="13.4646" height="14.3504" class="st14"/>
			<text x="4.42" y="446.81" class="st12" v:langID="1033"><v:paragraph v:horizAlign="1"/><v:tabList/>A</text>		</g>
		<g id="shape23-178" v:mID="23" v:groupContext="shape" transform="translate(221.748,-74.115)">
			<title>Rectangle.13</title>
			<desc>B</desc>
			<v:userDefs>
				<v:ud v:nameU="visVersion" v:val="VT0(11):26"/>
				<v:ud v:nameU="msvThemeColors" v:val="VT0(254):26"/>
			</v:userDefs>
			<v:textBlock v:margins="rect(4,4,4,4)"/>
			<v:textRect cx="7.08661" cy="444.415" width="14.18" height="14.3504"/>
			<rect x="0" y="437.24" width="14.1732" height="14.3504" class="st14"/>
			<text x="4.91" y="446.81" class="st12" v:langID="1033"><v:paragraph v:horizAlign="1"/><v:tabList/>B</text>		</g>
		<g id="shape13-181" v:mID="13" v:groupContext="shape" v:layerMember="0" transform="translate(221.748,-72.2902)">
			<title>Dynamic connector.13</title>
			<v:userDefs>
				<v:ud v:nameU="msvThemeColors" v:val="VT0(254):26"/>
			</v:userDefs>
			<path d="M0 442.59 L-36.34 442.59" class="st15"/>
		</g>
		<g id="shape14-184" v:mID="14" v:groupContext="shape" transform="translate(212.068,-70.9275)">
			<title>Sheet.14</title>
			<desc>*</desc>
			<v:userDefs>
				<v:ud v:nameU="msvThemeColors" v:val="VT0(254):26"/>
			</v:userDefs>
			<v:textBlock v:margins="rect(4,4,4,4)"/>
			<v:textRect cx="6.78547" cy="447.136" width="13.58" height="8.90858"/>
			<rect x="0" y="442.681" width="13.5709" height="8.90858" class="st16"/>
			<text x="4" y="450.74" class="st17" v:langID="1033"><v:paragraph v:horizAlign="1"/><v:tabList/>*</text>		</g>
		<g id="shape15-187" v:mID="15" v:groupContext="shape" transform="translate(239.63,-74.2922)">
			<title>Rectangle.15</title>
			<desc>One to Many (A to B) Many to One (B to A)</desc>
			<v:userDefs>
				<v:ud v:nameU="visVersion" v:val="VT0(11):26"/>
				<v:ud v:nameU="msvThemeColors" v:val="VT0(254):26"/>
			</v:userDefs>
			<v:textBlock v:margins="rect(4,4,4,4)"/>
			<v:textRect cx="39.0469" cy="444.503" width="78.1" height="14.1732"/>
			<rect x="0" y="437.417" width="78.0938" height="14.1732" class="st11"/>
			<text x="4" y="442.1" class="st12" v:langID="1033"><v:paragraph/><v:tabList/>One to Many (A to B) <v:lf/><tspan x="4" dy="1.2em" class="st13">Many to One </tspan>(B to A)</text>		</g>
		<g id="shape20-191" v:mID="20" v:groupContext="shape" v:layerMember="0" transform="translate(221.748,-90.2902)">
			<title>Dynamic connector.20</title>
			<v:userDefs>
				<v:ud v:nameU="msvThemeColors" v:val="VT0(254):26"/>
			</v:userDefs>
			<path d="M0 460.59 L-36.34 460.59" class="st15"/>
		</g>
		<g id="shape8-194" v:mID="8" v:groupContext="shape" v:layerMember="0" transform="translate(86.1491,-306.149)">
			<title>Dynamic connector.54</title>
			<v:userDefs>
				<v:ud v:nameU="msvThemeColors" v:val="VT0(254):26"/>
			</v:userDefs>
			<path d="M9 451.59 L9 487.59" class="st15"/>
		</g>
		<g id="shape9-197" v:mID="9" v:groupContext="shape" transform="translate(92.7825,-294.428)">
			<title>Sheet.9</title>
			<desc>*</desc>
			<v:userDefs>
				<v:ud v:nameU="msvThemeColors" v:val="VT0(254):26"/>
			</v:userDefs>
			<v:textBlock v:margins="rect(4,4,4,4)"/>
			<v:textRect cx="6.78547" cy="447.136" width="13.58" height="8.90858"/>
			<rect x="0" y="442.681" width="13.5709" height="8.90858" class="st16"/>
			<text x="4" y="450.74" class="st17" v:langID="1033"><v:paragraph v:horizAlign="1"/><v:tabList/>*</text>		</g>
		<g id="shape21-200" v:mID="21" v:groupContext="shape" transform="translate(92.7825,-267.615)">
			<title>Sheet.21</title>
			<desc>*</desc>
			<v:userDefs>
				<v:ud v:nameU="msvThemeColors" v:val="VT0(254):26"/>
			</v:userDefs>
			<v:textBlock v:margins="rect(4,4,4,4)"/>
			<v:textRect cx="6.78547" cy="447.136" width="13.58" height="8.90858"/>
			<rect x="0" y="442.681" width="13.5709" height="8.90858" class="st16"/>
			<text x="4" y="450.74" class="st17" v:langID="1033"><v:paragraph v:horizAlign="1"/><v:tabList/>*</text>		</g>
		<g id="shape24-203" v:mID="24" v:groupContext="shape" v:layerMember="0" transform="translate(86.1491,-369.149)">
			<title>Dynamic connector.55</title>
			<v:userDefs>
				<v:ud v:nameU="msvThemeColors" v:val="VT0(254):26"/>
			</v:userDefs>
			<path d="M9 451.59 L9 487.59" class="st15"/>
		</g>
		<g id="shape25-206" v:mID="25" v:groupContext="shape" transform="translate(92.595,-330.615)">
			<title>Sheet.25</title>
			<desc>*</desc>
			<v:userDefs>
				<v:ud v:nameU="msvThemeColors" v:val="VT0(254):26"/>
			</v:userDefs>
			<v:textBlock v:margins="rect(4,4,4,4)"/>
			<v:textRect cx="6.78547" cy="447.136" width="13.58" height="8.90858"/>
			<rect x="0" y="442.681" width="13.5709" height="8.90858" class="st16"/>
			<text x="4" y="450.74" class="st17" v:langID="1033"><v:paragraph v:horizAlign="1"/><v:tabList/>*</text>		</g>
		<g id="shape26-209" v:mID="26" v:groupContext="shape" v:layerMember="0" transform="translate(104.149,-243.149)">
			<title>Dynamic connector.26</title>
			<v:userDefs>
				<v:ud v:nameU="msvThemeColors" v:val="VT0(254):26"/>
			</v:userDefs>
			<path d="M-9 451.59 L-9 487.59" class="st15"/>
		</g>
		<g id="shape27-212" v:mID="27" v:groupContext="shape" transform="translate(92.97,-231.24)">
			<title>Sheet.27</title>
			<desc>*</desc>
			<v:userDefs>
				<v:ud v:nameU="msvThemeColors" v:val="VT0(254):26"/>
			</v:userDefs>
			<v:textBlock v:margins="rect(4,4,4,4)"/>
			<v:textRect cx="6.78547" cy="447.136" width="13.58" height="8.90858"/>
			<rect x="0" y="442.681" width="13.5709" height="8.90858" class="st16"/>
			<text x="4" y="450.74" class="st17" v:langID="1033"><v:paragraph v:horizAlign="1"/><v:tabList/>*</text>		</g>
		<g id="shape28-215" v:mID="28" v:groupContext="shape" transform="translate(92.97,-204.428)">
			<title>Sheet.28</title>
			<desc>*</desc>
			<v:userDefs>
				<v:ud v:nameU="msvThemeColors" v:val="VT0(254):26"/>
			</v:userDefs>
			<v:textBlock v:margins="rect(4,4,4,4)"/>
			<v:textRect cx="6.78547" cy="447.136" width="13.58" height="8.90858"/>
			<rect x="0" y="442.681" width="13.5709" height="8.90858" class="st16"/>
			<text x="4" y="450.74" class="st17" v:langID="1033"><v:paragraph v:horizAlign="1"/><v:tabList/>*</text>		</g>
		<g id="shape54-218" v:mID="54" v:groupContext="shape" transform="translate(92.7825,-141.615)">
			<title>Sheet.54</title>
			<desc>*</desc>
			<v:userDefs>
				<v:ud v:nameU="msvThemeColors" v:val="VT0(254):26"/>
			</v:userDefs>
			<v:textBlock v:margins="rect(4,4,4,4)"/>
			<v:textRect cx="6.78547" cy="447.136" width="13.58" height="8.90858"/>
			<rect x="0" y="442.681" width="13.5709" height="8.90858" class="st16"/>
			<text x="4" y="450.74" class="st17" v:langID="1033"><v:paragraph v:horizAlign="1"/><v:tabList/>*</text>		</g>
		<g id="shape95-221" v:mID="95" v:groupContext="shape" transform="translate(92.625,-105.75)">
			<title>Sheet.95</title>
			<desc>*</desc>
			<v:userDefs>
				<v:ud v:nameU="msvThemeColors" v:val="VT0(254):26"/>
			</v:userDefs>
			<v:textBlock v:margins="rect(4,4,4,4)"/>
			<v:textRect cx="6.78547" cy="447.136" width="13.58" height="8.90858"/>
			<rect x="0" y="442.681" width="13.5709" height="8.90858" class="st16"/>
			<text x="4" y="450.74" class="st17" v:langID="1033"><v:paragraph v:horizAlign="1"/><v:tabList/>*</text>		</g>
	</g>
</svg>