<?xml version="1.0" encoding="UTF-8"?><!-- Generated by Microsoft Visio, SVG Export pc-cm-integration-points_xi165463.svg Page-1 --><svg xmlns="http://www.w3.org/2000/svg" xmlns:xlink="http://www.w3.org/1999/xlink" xmlns:ev="http://www.w3.org/2001/xml-events" xmlns:v="http://schemas.microsoft.com/visio/2003/SVGExtensions/" width="6.02in" height="5.5925in" viewBox="0 0 433.44 402.66" xml:space="preserve" color-interpolation-filters="sRGB" class="st28">
	<v:documentProperties v:langID="1033" v:viewMarkup="false">
		<v:userDefs>
			<v:ud v:nameU="msvConvertTheme"/>
		</v:userDefs>
	</v:documentProperties>

	<style type="text/css">
	
		.st1 {fill:#e8eef7;stroke:#000000;stroke-linecap:round;stroke-linejoin:round;stroke-width:1.2}
		.st2 {fill:#000000;font-family:Calibri;font-size:0.833336em;font-weight:bold}
		.st3 {fill:#71d0fb;stroke:#000000;stroke-linecap:round;stroke-linejoin:round;stroke-width:0.72}
		.st4 {fill:#f2c2a2;stroke:#000000;stroke-linecap:round;stroke-linejoin:round;stroke-width:0.72}
		.st5 {fill:none;stroke:none;stroke-linecap:round;stroke-linejoin:round;stroke-width:0.72}
		.st6 {fill:#000000;font-family:Calibri;font-size:0.833336em}
		.st7 {font-size:1em}
		.st8 {fill:#737373;font-size:1em}
		.st9 {stroke:#034a69;stroke-linecap:round;stroke-linejoin:round;stroke-width:0.72}
		.st10 {fill:#034a69;fill-opacity:0.047;stroke:#034a69;stroke-linecap:round;stroke-linejoin:round;stroke-width:0.72}
		.st11 {fill:#000000;font-family:Calibri;font-size:0.916672em}
		.st12 {marker-end:url(#mrkr13-41);stroke:#000000;stroke-linecap:round;stroke-linejoin:round;stroke-width:0.72}
		.st13 {fill:#000000;fill-opacity:1;stroke:#000000;stroke-opacity:1;stroke-width:0.22222222222222}
		.st14 {fill:#ffffff;stroke:#034a69;stroke-linecap:round;stroke-linejoin:round;stroke-width:0.72}
		.st15 {fill:#000000;font-family:Calibri;font-size:0.666664em;font-weight:bold}
		.st16 {fill:#ffffff;stroke:none;stroke-linecap:round;stroke-linejoin:round;stroke-width:0.24}
		.st17 {fill:#000000;font-family:Calibri;font-size:0.666664em}
		.st18 {fill:#71d0fb;stroke:#000000;stroke-linecap:round;stroke-linejoin:round;stroke-width:0.24}
		.st19 {fill:#f2c2a2;stroke:#000000;stroke-linecap:round;stroke-linejoin:round;stroke-width:0.24}
		.st20 {fill:#000000;font-family:Calibri;font-size:0.666664em;font-style:italic}
		.st21 {fill:#737373;font-size:1em;font-style:normal}
		.st22 {fill:#ffffff}
		.st23 {stroke:#000000;stroke-linecap:round;stroke-linejoin:round;stroke-width:0.24;visibility:hidden}
		.st24 {fill:#ccffcc}
		.st25 {stroke:#000000;stroke-linecap:round;stroke-linejoin:round;stroke-width:0.24}
		.st26 {fill:#c0c0c0}
		.st27 {fill:#000000;font-family:Calibri;font-size:0.499992em}
		.st28 {fill:none;fill-rule:evenodd;font-size:12px;overflow:visible;stroke-linecap:square;stroke-miterlimit:3}
	
	</style>

	<defs id="Markers">
		<g id="lend13">
			<path d="M 3 1 L 0 0 L 3 -1 L 3 1 " style="stroke:none"/>
		</g>
		<marker id="mrkr13-41" class="st13" v:arrowType="13" v:arrowSize="2" v:setback="13.5" refX="-13.5" orient="auto" markerUnits="strokeWidth" overflow="visible">
			<use xlink:href="#lend13" transform="scale(-4.5,-4.5) "/>
		</marker>
	</defs>
	<g v:mID="0" v:index="1" v:groupContext="foregroundPage">
		<title>Page-1</title>
		<v:pageProperties v:drawingScale="1" v:pageScale="1" v:drawingUnits="19" v:shadowOffsetX="9" v:shadowOffsetY="-9"/>
		<v:layer v:name="Connector" v:index="0"/>
		<v:layer v:name="Flowchart" v:index="1"/>
		<g id="shape1-1" v:mID="1" v:groupContext="shape" transform="translate(36.4688,-99)">
			<title>Rounded rectangle</title>
			<desc>PolicyCenter</desc>
			<v:userDefs>
				<v:ud v:nameU="visVersion" v:val="VT0(12):26"/>
			</v:userDefs>
			<v:textBlock v:margins="rect(4,4,4,4)" v:verticalAlign="0"/>
			<v:textRect cx="71.7656" cy="285.3" width="143.54" height="234.72"/>
			<path d="M134.53 402.66 A9.00007 9.00007 -180 0 0 143.53 393.66 L143.53 176.94 A9.00007 9.00007 -180 0 0 134.53 167.94        L9 167.94 A9.00007 9.00007 -180 0 0 0 176.94 L0 393.66 A9.00007 9.00007 -180 0 0 9 402.66 L134.53 402.66        Z" class="st1"/>
			<text x="4" y="182.74" class="st2" v:langID="1033"><v:paragraph/><v:tabList/>PolicyCenter</text>		</g>
		<g id="shape2-4" v:mID="2" v:groupContext="shape" transform="translate(252.72,-135)">
			<title>Rounded rectangle.2</title>
			<desc>ContactManager</desc>
			<v:userDefs>
				<v:ud v:nameU="visVersion" v:val="VT0(12):26"/>
			</v:userDefs>
			<v:textBlock v:margins="rect(4,4,4,4)" v:verticalAlign="0"/>
			<v:textRect cx="72" cy="302.94" width="144" height="199.44"/>
			<path d="M135 402.66 A9.00007 9.00007 -180 0 0 144 393.66 L144 212.22 A9.00007 9.00007 -180 0 0 135 203.22 L9 203.22        A9.00007 9.00007 -180 0 0 0 212.22 L0 393.66 A9.00007 9.00007 -180 0 0 9 402.66 L135 402.66 Z" class="st1"/>
			<text x="70.6" y="216.22" class="st2" v:langID="1033"><v:paragraph v:horizAlign="2"/><v:tabList/>ContactManager</text>		</g>
		<g id="shape3-7" v:mID="3" v:groupContext="shape" transform="translate(162.251,-279.315)">
			<title>Circle</title>
			<v:userDefs>
				<v:ud v:nameU="visVersion" v:val="VT0(12):26"/>
			</v:userDefs>
			<path d="M0 388.03 A14.625 14.625 0 0 1 29.25 388.03 A14.625 14.625 0 1 1 0 388.03 Z" class="st3"/>
		</g>
		<g id="shape6-9" v:mID="6" v:groupContext="shape" transform="translate(162,-225.72)">
			<title>Sheet.6</title>
			<path d="M18 366.66 L18 402.66 L9 402.66 L9 398.16 L0 393.66 L0 389.16 L9 384.66 L0 380.16 L0 375.66 L9 371.16 L9 366.66        L18 366.66 Z" class="st4"/>
		</g>
		<g id="shape4-11" v:mID="4" v:groupContext="shape" transform="translate(84.375,-279)">
			<title>Sheet.4</title>
			<desc>ContactAPI {ABClientAPI}</desc>
			<v:textBlock v:margins="rect(4,4,4,4)"/>
			<v:textRect cx="37.125" cy="389.16" width="74.25" height="27"/>
			<rect x="0" y="375.66" width="74.25" height="27" class="st5"/>
			<text x="25.2" y="386.16" class="st6" v:langID="1033"><v:paragraph v:horizAlign="2"/><v:tabList/>ContactAPI<v:newlineChar/><tspan x="13.5" dy="1.2em" class="st7"> </tspan><tspan class="st8">{</tspan><tspan class="st8">ABClientAPI</tspan><tspan class="st8">}</tspan></text>		</g>
		<g id="shape7-18" v:mID="7" v:groupContext="shape" transform="translate(34.2188,-230.22)">
			<title>Sheet.7</title>
			<desc>ABContactSystemPlugin {ContactSystemPlugin}</desc>
			<v:textBlock v:margins="rect(4,4,4,4)"/>
			<v:textRect cx="61.875" cy="389.16" width="123.75" height="27"/>
			<rect x="0" y="375.66" width="123.75" height="27" class="st5"/>
			<text x="22.63" y="386.16" class="st6" v:langID="1033"><v:paragraph v:horizAlign="2"/><v:tabList/>ABContactSystemPlugin<v:newlineChar/><tspan x="25.31" dy="1.2em" class="st7"> </tspan><tspan class="st8">{</tspan><tspan class="st8">ContactSystemPlugin</tspan><tspan class="st8">}</tspan></text>		</g>
		<g id="shape8-25" v:mID="8" v:groupContext="shape" transform="translate(272.25,546.975) rotate(180)">
			<title>Circle.8</title>
			<v:userDefs>
				<v:ud v:nameU="visVersion" v:val="VT0(12):26"/>
			</v:userDefs>
			<path d="M0 388.03 A14.625 14.625 0 0 1 29.25 388.03 A14.625 14.625 0 1 1 0 388.03 Z" class="st3"/>
		</g>
		<g id="shape9-27" v:mID="9" v:groupContext="shape" transform="translate(270.72,493.38) rotate(180)">
			<title>Sheet.9</title>
			<path d="M18 366.66 L18 402.66 L9 402.66 L9 398.16 L0 393.66 L0 389.16 L9 384.66 L0 380.16 L0 375.66 L9 371.16 L9 366.66        L18 366.66 Z" class="st4"/>
		</g>
		<g id="group10-29" transform="translate(18.72,-13.5)" v:mID="10" v:groupContext="group">
			<v:userDefs>
				<v:ud v:nameU="Scale" v:val="VT0(1):26"/>
				<v:ud v:nameU="AntiScale" v:val="VT0(1):26"/>
				<v:ud v:nameU="visVersion" v:val="VT0(11):26"/>
			</v:userDefs>
			<title>Border small</title>
			<g id="shape11-30" v:mID="11" v:groupContext="shape">
				<title>Sheet.11</title>
				<path d="M0 66.62 L0 368.26 A34.4044 34.4044 -180 0 0 34.4 402.66 L361.6 402.66 A34.4044 34.4044 -180 0 0 396 368.26         L396 66.62 L0 66.62" class="st9"/>
			</g>
			<g id="shape12-33" v:mID="12" v:groupContext="shape" transform="translate(0,-336.036)">
				<title>Sheet.12</title>
				<desc>PolicyCenter and ContactManager Integration Points</desc>
				<v:textBlock v:margins="rect(4,4,4,4)"/>
				<v:textRect cx="198" cy="385.458" width="396" height="34.4044"/>
				<path d="M396 402.66 L0 402.66 A34.4044 34.4044 0 0 1 34.4 368.26 L361.6 368.26 A34.4044 34.4044 0 0 1 396 402.66         Z" class="st10"/>
				<text x="80.23" y="388.76" class="st11" v:langID="1033"><v:paragraph v:horizAlign="1"/><v:tabList/>PolicyCenter and ContactManager Integration Points</text>			</g>
		</g>
		<g id="shape17-36" v:mID="17" v:groupContext="shape" transform="translate(252.72,511.38) rotate(180)">
			<title>Sheet.17</title>
			<path d="M0 402.66 L51.5 402.66" class="st12"/>
		</g>
		<g id="shape18-42" v:mID="18" v:groupContext="shape" transform="translate(180,-243.72)">
			<title>Sheet.18</title>
			<path d="M0 402.66 L53.28 402.66" class="st12"/>
		</g>
		<g id="shape21-47" v:mID="21" v:groupContext="shape" transform="translate(279,-230.22)">
			<title>Sheet.21</title>
			<desc>ABContactAPI {n/a}</desc>
			<v:textBlock v:margins="rect(4,4,4,4)"/>
			<v:textRect cx="54" cy="389.16" width="108" height="27"/>
			<rect x="0" y="375.66" width="108" height="27" class="st5"/>
			<text x="4" y="386.16" class="st6" v:langID="1033"><v:paragraph/><v:tabList/>ABContactAPI<v:newlineChar/><tspan x="4" dy="1.2em" class="st8">{</tspan><tspan class="st8">n</tspan><tspan class="st8">/</tspan><tspan class="st8">a</tspan><tspan class="st8">}</tspan></text>		</g>
		<g id="shape22-55" v:mID="22" v:groupContext="shape" transform="translate(275.22,-280.44)">
			<title>Sheet.22</title>
			<desc>PCPolicySystemPlugin {ClientSystemPlugin1000}</desc>
			<v:textBlock v:margins="rect(4,4,4,4)"/>
			<v:textRect cx="60.39" cy="389.16" width="120.78" height="27"/>
			<rect x="0" y="375.66" width="120.78" height="27" class="st5"/>
			<text x="4" y="386.16" class="st6" v:langID="1033"><v:paragraph/><v:tabList/>PCPolicySystemPlugin<v:newlineChar/><tspan x="4" dy="1.2em" class="st8">{</tspan><tspan class="st8">ClientSystemPlugin</tspan><tspan class="st8">1000</tspan><tspan class="st8">}</tspan></text>		</g>
		<g id="group26-62" transform="translate(288,-31.5)" v:mID="26" v:groupContext="group">
			<title>Sheet.26</title>
			<g id="shape16-63" v:mID="16" v:groupContext="shape" transform="translate(0,11.25)">
				<title>Rounded rectangle.16</title>
				<desc>Legend</desc>
				<v:userDefs>
					<v:ud v:nameU="visVersion" v:val="VT0(11):26"/>
				</v:userDefs>
				<v:textBlock v:margins="rect(4,4,4,4)" v:tabSpace="42.5197" v:verticalAlign="0"/>
				<v:textRect cx="55.125" cy="349.785" width="110.25" height="105.75"/>
				<path d="M96.08 402.66 A14.1733 14.1733 -180 0 0 110.25 388.49 L110.25 311.08 A14.1733 14.1733 -180 0 0 96.08 296.91         L14.17 296.91 A14.1733 14.1733 -180 0 0 -0 311.08 L0 388.49 A14.1733 14.1733 -180 0 0 14.17 402.66 L96.08         402.66 Z" class="st14"/>
				<text x="43.22" y="308.11" class="st15" v:langID="1033"><v:paragraph v:horizAlign="1"/><v:tabList/>Legend</text>			</g>
			<g id="shape20-66" v:mID="20" v:groupContext="shape" transform="translate(26.5677,-62.1459)">
				<title>Rectangle.31</title>
				<desc>web service</desc>
				<v:userDefs>
					<v:ud v:nameU="visVersion" v:val="VT0(11):26"/>
				</v:userDefs>
				<v:textBlock v:margins="rect(4,4,4,4)"/>
				<v:textRect cx="23.8411" cy="395.573" width="47.69" height="14.1732"/>
				<rect x="0" y="388.487" width="47.6823" height="14.1732" class="st16"/>
				<text x="4" y="397.97" class="st17" v:langID="1033"><v:paragraph/><v:tabList/>web service</text>			</g>
			<g id="shape37-69" v:mID="37" v:groupContext="shape" transform="translate(9,-62.28)">
				<title>Circle.37</title>
				<v:userDefs>
					<v:ud v:nameU="visVersion" v:val="VT0(12):26"/>
				</v:userDefs>
				<path d="M0 395.91 A6.75 6.75 0 0 1 13.5 395.91 A6.75 6.75 0 1 1 0 395.91 Z" class="st18"/>
			</g>
			<g id="shape38-71" v:mID="38" v:groupContext="shape" transform="translate(12.6563,-40.5)">
				<title>Sheet.38</title>
				<path d="M7.31 388.03 L7.31 402.66 L3.66 402.66 L3.66 400.83 L0 399 L0 397.18 L3.66 395.35 L0 393.52 L0 391.69 L3.66         389.86 L3.66 388.03 L7.31 388.03 Z" class="st19"/>
			</g>
			<g id="shape5-73" v:mID="5" v:groupContext="shape" transform="translate(26.5677,-43.3125)">
				<title>Rectangle.5</title>
				<desc>plugin</desc>
				<v:userDefs>
					<v:ud v:nameU="visVersion" v:val="VT0(11):26"/>
				</v:userDefs>
				<v:textBlock v:margins="rect(4,4,4,4)"/>
				<v:textRect cx="17.3724" cy="395.573" width="34.75" height="14.1732"/>
				<rect x="0" y="388.487" width="34.7448" height="14.1732" class="st16"/>
				<text x="4" y="397.97" class="st17" v:langID="1033"><v:paragraph/><v:tabList/>plugin</text>			</g>
			<g id="shape23-76" v:mID="23" v:groupContext="shape" transform="translate(10.125,-11.25)">
				<title>Sheet.23</title>
				<desc>Implementation Class {Interface}</desc>
				<v:textBlock v:margins="rect(4,4,4,4)"/>
				<v:textRect cx="39.0938" cy="389.16" width="78.19" height="27"/>
				<rect x="0" y="375.66" width="78.1875" height="27" class="st5"/>
				<text x="4" y="386.76" class="st20" v:langID="1033"><v:paragraph/><v:tabList/>Implementation Class<v:newlineChar/><tspan x="4" dy="1.2em" class="st21">{</tspan><tspan class="st8">Interface</tspan><tspan class="st21">}</tspan></text>			</g>
		</g>
		<g id="shape51-82" v:mID="51" v:groupContext="shape" transform="translate(72,-173.97)">
			<title>Sheet.51</title>
			<desc>ContactMapper</desc>
			<v:textBlock v:margins="rect(4,4,4,4)"/>
			<v:textRect cx="38.25" cy="395.91" width="76.5" height="13.5"/>
			<rect x="0" y="389.16" width="76.5" height="13.5" class="st5"/>
			<text x="8.61" y="398.91" class="st6" v:langID="1033"><v:paragraph v:horizAlign="2"/><v:tabList/>ContactMapper</text>		</g>
		<g id="shape52-85" v:mID="52" v:groupContext="shape" transform="translate(72,-148.5)">
			<title>Sheet.52</title>
			<desc>PCNameMapper</desc>
			<v:textBlock v:margins="rect(4,4,4,4)"/>
			<v:textRect cx="38.25" cy="395.91" width="76.5" height="13.5"/>
			<rect x="0" y="389.16" width="76.5" height="13.5" class="st5"/>
			<text x="5.48" y="398.91" class="st6" v:langID="1033"><v:paragraph v:horizAlign="2"/><v:tabList/>PCNameMapper</text>		</g>
		<g id="group53-88" transform="translate(265.5,-168.75)" v:mID="53" v:groupContext="group">
			<v:userDefs>
				<v:ud v:nameU="F" v:val="VT0(1):26"/>
				<v:ud v:nameU="Format" v:val="VT0(0):26"/>
				<v:ud v:nameU="ActiveObject" v:prompt="0,0626" v:val="VT0(0):26"/>
			</v:userDefs>
			<title>Class.53</title>
			<g id="shape54-89" v:mID="54" v:groupContext="shape" transform="translate(20.25,5.68434E-014)">
				<title>Sheet.54</title>
				<path d="M0 402.66 L0 380.16 L0 402.66 Z" class="st22"/>
			</g>
			<g id="shape55-92" v:mID="55" v:groupContext="shape">
				<title>Sheet.55</title>
				<path d="M20.25 402.66 L0 402.66 L20.25 402.66 Z" class="st22"/>
			</g>
			<g id="shape56-95" v:mID="56" v:groupContext="shape">
				<title>Sheet.56</title>
				<path d="M20.25 402.66 L0 402.66 L20.25 402.66 Z" class="st22"/>
			</g>
			<g id="shape57-98" v:mID="57" v:groupContext="shape">
				<title>Sheet.57</title>
				<rect x="0" y="387.63" width="20.25" height="15.03" class="st22"/>
				<rect x="0" y="387.63" width="20.25" height="15.03" class="st23"/>
			</g>
			<g id="shape58-101" v:mID="58" v:groupContext="shape" transform="translate(0,-15.03)">
				<title>Sheet.58</title>
				<v:userDefs>
					<v:ud v:nameU="TabSize" v:val="VT0(0.125):0"/>
					<v:ud v:nameU="TabSize" v:prompt="" v:val="VT0(0.078125):26"/>
				</v:userDefs>
				<path d="M20.25 402.66 L20.25 395.19 L0 395.19 L0 402.66 L20.25 402.66 ZM0 417.69 L0 395.19 L0 417.69 ZM20.25 395.19         L20.25 417.69 L20.25 395.19 Z" class="st24"/>
				<path d="M20.25 417.69 L20.25 395.19" class="st25"/>
				<path d="M0 417.69 L0 395.19" class="st25"/>
				<path d="M0 395.19 L20.25 395.19" class="st25"/>
				<path d="M0 402.66 L20.25 402.66" class="st25"/>
				<path d="M0 417.69 L20.25 417.69" class="st25"/>
			</g>
		</g>
		<g id="shape59-108" v:mID="59" v:groupContext="shape" transform="translate(289.125,-175.5)">
			<title>Sheet.59</title>
			<desc>ContactMapper</desc>
			<v:textBlock v:margins="rect(4,4,4,4)"/>
			<v:textRect cx="40.5" cy="395.91" width="81" height="13.5"/>
			<rect x="0" y="389.16" width="81" height="13.5" class="st5"/>
			<text x="4" y="398.91" class="st6" v:langID="1033"><v:paragraph/><v:tabList/>ContactMapper</text>		</g>
		<g id="shape60-111" v:mID="60" v:groupContext="shape" transform="translate(315,-28.7451)">
			<title>Rectangle.31</title>
			<desc>configuration class</desc>
			<v:userDefs>
				<v:ud v:nameU="visVersion" v:val="VT0(11):26"/>
			</v:userDefs>
			<v:textBlock v:margins="rect(4,4,4,4)"/>
			<v:textRect cx="36.4974" cy="395.573" width="73" height="14.1732"/>
			<rect x="0" y="388.487" width="72.9948" height="14.1732" class="st16"/>
			<text x="4" y="397.97" class="st17" v:langID="1033"><v:paragraph/><v:tabList/>configuration class</text>		</g>
		<g id="group63-114" transform="translate(297,-29.7549)" v:mID="63" v:groupContext="group">
			<v:userDefs>
				<v:ud v:nameU="F" v:val="VT0(1):26"/>
				<v:ud v:nameU="Format" v:val="VT0(0):26"/>
				<v:ud v:nameU="ActiveObject" v:prompt="0,0626" v:val="VT0(0):26"/>
			</v:userDefs>
			<title>Class.63</title>
			<g id="shape64-115" v:mID="64" v:groupContext="shape" transform="translate(12.375,0)">
				<title>Sheet.64</title>
				<path d="M0 402.66 L0 389.16 L0 402.66 Z" class="st22"/>
			</g>
			<g id="shape65-118" v:mID="65" v:groupContext="shape">
				<title>Sheet.65</title>
				<path d="M12.37 402.66 L0 402.66 L12.37 402.66 Z" class="st22"/>
			</g>
			<g id="shape66-121" v:mID="66" v:groupContext="shape">
				<title>Sheet.66</title>
				<path d="M12.37 402.66 L0 402.66 L12.37 402.66 Z" class="st22"/>
			</g>
			<g id="shape67-124" v:mID="67" v:groupContext="shape">
				<title>Sheet.67</title>
				<rect x="0" y="393.66" width="12.375" height="9" class="st22"/>
				<rect x="0" y="393.66" width="12.375" height="9" class="st23"/>
			</g>
			<g id="shape68-127" v:mID="68" v:groupContext="shape" transform="translate(0,-9)">
				<title>Sheet.68</title>
				<v:userDefs>
					<v:ud v:nameU="TabSize" v:val="VT0(0.125):0"/>
					<v:ud v:nameU="TabSize" v:prompt="" v:val="VT0(0.046875):26"/>
				</v:userDefs>
				<path d="M12.37 402.66 L12.37 398.16 L0 398.16 L0 402.66 L12.37 402.66 ZM0 411.66 L0 398.16 L0 411.66 ZM12.37 398.16         L12.37 411.66 L12.37 398.16 Z" class="st24"/>
				<path d="M12.37 411.66 L12.37 398.16" class="st25"/>
				<path d="M0 411.66 L0 398.16" class="st25"/>
				<path d="M0 398.16 L12.37 398.16" class="st25"/>
				<path d="M0 402.66 L12.37 402.66" class="st25"/>
				<path d="M0 411.66 L12.37 411.66" class="st25"/>
			</g>
		</g>
		<g id="shape75-134" v:mID="75" v:groupContext="shape" transform="translate(36,-121.5)">
			<title>Sheet.75</title>
			<desc>ABConfigurationProvider</desc>
			<v:textBlock v:margins="rect(4,4,4,4)"/>
			<v:textRect cx="56.25" cy="395.91" width="112.5" height="13.5"/>
			<rect x="0" y="389.16" width="112.5" height="13.5" class="st5"/>
			<text x="7.21" y="398.91" class="st6" v:langID="1033"><v:paragraph v:horizAlign="2"/><v:tabList/>ABConfigurationProvider</text>		</g>
		<g id="shape82-137" v:mID="82" v:groupContext="shape" transform="translate(289.125,-148.5)">
			<title>Sheet.82</title>
			<desc>PCConfigurationProvider</desc>
			<v:textBlock v:margins="rect(4,4,4,4)"/>
			<v:textRect cx="55.125" cy="395.91" width="110.25" height="13.5"/>
			<rect x="0" y="389.16" width="110.25" height="13.5" class="st5"/>
			<text x="4" y="398.91" class="st6" v:langID="1033"><v:paragraph/><v:tabList/>PCConfigurationProvider</text>		</g>
		<g id="group13-140" transform="translate(265.5,-141.75)" v:mID="13" v:groupContext="group">
			<v:userDefs>
				<v:ud v:nameU="F" v:val="VT0(1):26"/>
				<v:ud v:nameU="Format" v:val="VT0(0):26"/>
				<v:ud v:nameU="ActiveObject" v:prompt="0,0626" v:val="VT0(0):26"/>
			</v:userDefs>
			<title>Class.13</title>
			<g id="shape14-141" v:mID="14" v:groupContext="shape" transform="translate(20.25,5.68434E-014)">
				<title>Sheet.14</title>
				<path d="M0 402.66 L0 380.16 L0 402.66 Z" class="st22"/>
			</g>
			<g id="shape15-144" v:mID="15" v:groupContext="shape">
				<title>Sheet.15</title>
				<path d="M20.25 402.66 L0 402.66 L20.25 402.66 Z" class="st22"/>
			</g>
			<g id="shape19-147" v:mID="19" v:groupContext="shape">
				<title>Sheet.19</title>
				<path d="M20.25 402.66 L0 402.66 L20.25 402.66 Z" class="st22"/>
			</g>
			<g id="shape24-150" v:mID="24" v:groupContext="shape">
				<title>Sheet.24</title>
				<rect x="0" y="387.63" width="20.25" height="15.03" class="st22"/>
				<rect x="0" y="387.63" width="20.25" height="15.03" class="st23"/>
			</g>
			<g id="shape25-153" v:mID="25" v:groupContext="shape" transform="translate(0,-15.03)">
				<title>Sheet.25</title>
				<v:userDefs>
					<v:ud v:nameU="TabSize" v:val="VT0(0.125):0"/>
					<v:ud v:nameU="TabSize" v:prompt="" v:val="VT0(0.078125):26"/>
				</v:userDefs>
				<path d="M20.25 402.66 L20.25 395.19 L0 395.19 L0 402.66 L20.25 402.66 ZM0 417.69 L0 395.19 L0 417.69 ZM20.25 395.19         L20.25 417.69 L20.25 395.19 Z" class="st24"/>
				<path d="M20.25 417.69 L20.25 395.19" class="st25"/>
				<path d="M0 417.69 L0 395.19" class="st25"/>
				<path d="M0 395.19 L20.25 395.19" class="st25"/>
				<path d="M0 402.66 L20.25 402.66" class="st25"/>
				<path d="M0 417.69 L20.25 417.69" class="st25"/>
			</g>
		</g>
		<g id="group27-160" transform="translate(150.75,-166.5)" v:mID="27" v:groupContext="group">
			<v:userDefs>
				<v:ud v:nameU="F" v:val="VT0(1):26"/>
				<v:ud v:nameU="Format" v:val="VT0(0):26"/>
				<v:ud v:nameU="ActiveObject" v:prompt="0,0626" v:val="VT0(0):26"/>
			</v:userDefs>
			<title>Class.27</title>
			<g id="shape28-161" v:mID="28" v:groupContext="shape" transform="translate(20.25,5.68434E-014)">
				<title>Sheet.28</title>
				<path d="M0 402.66 L0 380.16 L0 402.66 Z" class="st22"/>
			</g>
			<g id="shape29-164" v:mID="29" v:groupContext="shape">
				<title>Sheet.29</title>
				<path d="M20.25 402.66 L0 402.66 L20.25 402.66 Z" class="st22"/>
			</g>
			<g id="shape30-167" v:mID="30" v:groupContext="shape">
				<title>Sheet.30</title>
				<path d="M20.25 402.66 L0 402.66 L20.25 402.66 Z" class="st22"/>
			</g>
			<g id="shape31-170" v:mID="31" v:groupContext="shape">
				<title>Sheet.31</title>
				<rect x="0" y="387.63" width="20.25" height="15.03" class="st22"/>
				<rect x="0" y="387.63" width="20.25" height="15.03" class="st23"/>
			</g>
			<g id="shape32-173" v:mID="32" v:groupContext="shape" transform="translate(0,-15.03)">
				<title>Sheet.32</title>
				<v:userDefs>
					<v:ud v:nameU="TabSize" v:val="VT0(0.125):0"/>
					<v:ud v:nameU="TabSize" v:prompt="" v:val="VT0(0.078125):26"/>
				</v:userDefs>
				<path d="M20.25 402.66 L20.25 395.19 L0 395.19 L0 402.66 L20.25 402.66 ZM0 417.69 L0 395.19 L0 417.69 ZM20.25 395.19         L20.25 417.69 L20.25 395.19 Z" class="st24"/>
				<path d="M20.25 417.69 L20.25 395.19" class="st25"/>
				<path d="M0 417.69 L0 395.19" class="st25"/>
				<path d="M0 395.19 L20.25 395.19" class="st25"/>
				<path d="M0 402.66 L20.25 402.66" class="st25"/>
				<path d="M0 417.69 L20.25 417.69" class="st25"/>
			</g>
		</g>
		<g id="group33-180" transform="translate(150.75,-139.5)" v:mID="33" v:groupContext="group">
			<v:userDefs>
				<v:ud v:nameU="F" v:val="VT0(1):26"/>
				<v:ud v:nameU="Format" v:val="VT0(0):26"/>
				<v:ud v:nameU="ActiveObject" v:prompt="0,0626" v:val="VT0(0):26"/>
			</v:userDefs>
			<title>Class.33</title>
			<g id="shape34-181" v:mID="34" v:groupContext="shape" transform="translate(20.25,5.68434E-014)">
				<title>Sheet.34</title>
				<path d="M0 402.66 L0 380.16 L0 402.66 Z" class="st22"/>
			</g>
			<g id="shape35-184" v:mID="35" v:groupContext="shape">
				<title>Sheet.35</title>
				<path d="M20.25 402.66 L0 402.66 L20.25 402.66 Z" class="st22"/>
			</g>
			<g id="shape36-187" v:mID="36" v:groupContext="shape">
				<title>Sheet.36</title>
				<path d="M20.25 402.66 L0 402.66 L20.25 402.66 Z" class="st22"/>
			</g>
			<g id="shape39-190" v:mID="39" v:groupContext="shape">
				<title>Sheet.39</title>
				<rect x="0" y="387.63" width="20.25" height="15.03" class="st22"/>
				<rect x="0" y="387.63" width="20.25" height="15.03" class="st23"/>
			</g>
			<g id="shape40-193" v:mID="40" v:groupContext="shape" transform="translate(0,-15.03)">
				<title>Sheet.40</title>
				<v:userDefs>
					<v:ud v:nameU="TabSize" v:val="VT0(0.125):0"/>
					<v:ud v:nameU="TabSize" v:prompt="" v:val="VT0(0.078125):26"/>
				</v:userDefs>
				<path d="M20.25 402.66 L20.25 395.19 L0 395.19 L0 402.66 L20.25 402.66 ZM0 417.69 L0 395.19 L0 417.69 ZM20.25 395.19         L20.25 417.69 L20.25 395.19 Z" class="st24"/>
				<path d="M20.25 417.69 L20.25 395.19" class="st25"/>
				<path d="M0 417.69 L0 395.19" class="st25"/>
				<path d="M0 395.19 L20.25 395.19" class="st25"/>
				<path d="M0 402.66 L20.25 402.66" class="st25"/>
				<path d="M0 417.69 L20.25 417.69" class="st25"/>
			</g>
		</g>
		<g id="group41-200" transform="translate(150.75,-112.5)" v:mID="41" v:groupContext="group">
			<v:userDefs>
				<v:ud v:nameU="F" v:val="VT0(1):26"/>
				<v:ud v:nameU="Format" v:val="VT0(0):26"/>
				<v:ud v:nameU="ActiveObject" v:prompt="0,0626" v:val="VT0(0):26"/>
			</v:userDefs>
			<title>Class.41</title>
			<g id="shape42-201" v:mID="42" v:groupContext="shape" transform="translate(20.25,5.68434E-014)">
				<title>Sheet.42</title>
				<path d="M0 402.66 L0 380.16 L0 402.66 Z" class="st22"/>
			</g>
			<g id="shape43-204" v:mID="43" v:groupContext="shape">
				<title>Sheet.43</title>
				<path d="M20.25 402.66 L0 402.66 L20.25 402.66 Z" class="st22"/>
			</g>
			<g id="shape44-207" v:mID="44" v:groupContext="shape">
				<title>Sheet.44</title>
				<path d="M20.25 402.66 L0 402.66 L20.25 402.66 Z" class="st22"/>
			</g>
			<g id="shape45-210" v:mID="45" v:groupContext="shape">
				<title>Sheet.45</title>
				<rect x="0" y="387.63" width="20.25" height="15.03" class="st22"/>
				<rect x="0" y="387.63" width="20.25" height="15.03" class="st23"/>
			</g>
			<g id="shape46-213" v:mID="46" v:groupContext="shape" transform="translate(0,-15.03)">
				<title>Sheet.46</title>
				<v:userDefs>
					<v:ud v:nameU="TabSize" v:val="VT0(0.125):0"/>
					<v:ud v:nameU="TabSize" v:prompt="" v:val="VT0(0.078125):26"/>
				</v:userDefs>
				<path d="M20.25 402.66 L20.25 395.19 L0 395.19 L0 402.66 L20.25 402.66 ZM0 417.69 L0 395.19 L0 417.69 ZM20.25 395.19         L20.25 417.69 L20.25 395.19 Z" class="st24"/>
				<path d="M20.25 417.69 L20.25 395.19" class="st25"/>
				<path d="M0 417.69 L0 395.19" class="st25"/>
				<path d="M0 395.19 L20.25 395.19" class="st25"/>
				<path d="M0 402.66 L20.25 402.66" class="st25"/>
				<path d="M0 417.69 L20.25 417.69" class="st25"/>
			</g>
		</g>
		<g id="group47-220" transform="translate(168.75,-121.5)" v:mID="47" v:groupContext="group">
			<title>File</title>
		</g>
		<g id="shape49-221" v:mID="49" v:groupContext="shape" transform="translate(58.5,-200.25)">
			<title>Sheet.49</title>
			<desc>suite-config.xml</desc>
			<v:textBlock v:margins="rect(4,4,4,4)"/>
			<v:textRect cx="45" cy="395.91" width="90" height="13.5"/>
			<rect x="0" y="389.16" width="90" height="13.5" class="st5"/>
			<text x="21.2" y="398.91" class="st6" v:langID="1033"><v:paragraph v:horizAlign="2"/><v:tabList/>suite-config.xml</text>		</g>
		<g id="group48-224" transform="translate(150.75,-193.5)" v:mID="48" v:groupContext="group">
			<v:userDefs>
				<v:ud v:nameU="F" v:val="VT0(1):26"/>
				<v:ud v:nameU="Format" v:val="VT0(0):26"/>
				<v:ud v:nameU="ActiveObject" v:prompt="0,0626" v:val="VT0(0):26"/>
			</v:userDefs>
			<title>Class.48</title>
			<g id="shape50-225" v:mID="50" v:groupContext="shape" transform="translate(20.25,5.68434E-014)">
				<title>Sheet.50</title>
				<path d="M0 402.66 L0 380.16 L0 402.66 Z" class="st22"/>
			</g>
			<g id="shape61-228" v:mID="61" v:groupContext="shape">
				<title>Sheet.61</title>
				<path d="M20.25 402.66 L0 402.66 L20.25 402.66 Z" class="st22"/>
			</g>
			<g id="shape62-231" v:mID="62" v:groupContext="shape">
				<title>Sheet.62</title>
				<path d="M20.25 402.66 L0 402.66 L20.25 402.66 Z" class="st22"/>
			</g>
			<g id="shape69-234" v:mID="69" v:groupContext="shape">
				<title>Sheet.69</title>
				<rect x="0" y="387.63" width="20.25" height="15.03" class="st22"/>
				<rect x="0" y="387.63" width="20.25" height="15.03" class="st23"/>
			</g>
			<g id="shape70-237" v:mID="70" v:groupContext="shape" transform="translate(0,-15.03)">
				<title>Sheet.70</title>
				<desc>XML</desc>
				<v:userDefs>
					<v:ud v:nameU="TabSize" v:val="VT0(0.125):0"/>
					<v:ud v:nameU="TabSize" v:prompt="" v:val="VT0(0.078125):26"/>
				</v:userDefs>
				<v:textBlock v:margins="rect(4,4,4,4)"/>
				<v:textRect cx="10.125" cy="398.925" width="20.25" height="7.47"/>
				<path d="M20.25 402.66 L20.25 395.19 L0 395.19 L0 402.66 L20.25 402.66 ZM0 417.69 L0 395.19 L0 417.69 ZM20.25 395.19         L20.25 417.69 L20.25 395.19 Z" class="st26"/>
				<path d="M20.25 417.69 L20.25 395.19" class="st25"/>
				<path d="M0 417.69 L0 395.19" class="st25"/>
				<path d="M0 395.19 L20.25 395.19" class="st25"/>
				<path d="M0 402.66 L20.25 402.66" class="st25"/>
				<path d="M0 417.69 L20.25 417.69" class="st25"/>
				<text x="4.74" y="400.73" class="st27" v:langID="1033"><v:paragraph v:horizAlign="1"/><v:tabList/>XML</text>			</g>
		</g>
		<g id="group71-245" transform="translate(265.5,-195.75)" v:mID="71" v:groupContext="group">
			<v:userDefs>
				<v:ud v:nameU="F" v:val="VT0(1):26"/>
				<v:ud v:nameU="Format" v:val="VT0(0):26"/>
				<v:ud v:nameU="ActiveObject" v:prompt="0,0626" v:val="VT0(0):26"/>
			</v:userDefs>
			<title>Class.71</title>
			<g id="shape72-246" v:mID="72" v:groupContext="shape" transform="translate(20.25,5.68434E-014)">
				<title>Sheet.72</title>
				<path d="M0 402.66 L0 380.16 L0 402.66 Z" class="st22"/>
			</g>
			<g id="shape73-249" v:mID="73" v:groupContext="shape">
				<title>Sheet.73</title>
				<path d="M20.25 402.66 L0 402.66 L20.25 402.66 Z" class="st22"/>
			</g>
			<g id="shape74-252" v:mID="74" v:groupContext="shape">
				<title>Sheet.74</title>
				<path d="M20.25 402.66 L0 402.66 L20.25 402.66 Z" class="st22"/>
			</g>
			<g id="shape76-255" v:mID="76" v:groupContext="shape">
				<title>Sheet.76</title>
				<rect x="0" y="387.63" width="20.25" height="15.03" class="st22"/>
				<rect x="0" y="387.63" width="20.25" height="15.03" class="st23"/>
			</g>
			<g id="shape77-258" v:mID="77" v:groupContext="shape" transform="translate(0,-15.03)">
				<title>Sheet.77</title>
				<desc>XML</desc>
				<v:userDefs>
					<v:ud v:nameU="TabSize" v:val="VT0(0.125):0"/>
					<v:ud v:nameU="TabSize" v:prompt="" v:val="VT0(0.078125):26"/>
				</v:userDefs>
				<v:textBlock v:margins="rect(4,4,4,4)"/>
				<v:textRect cx="10.125" cy="398.925" width="20.25" height="7.47"/>
				<path d="M20.25 402.66 L20.25 395.19 L0 395.19 L0 402.66 L20.25 402.66 ZM0 417.69 L0 395.19 L0 417.69 ZM20.25 395.19         L20.25 417.69 L20.25 395.19 Z" class="st26"/>
				<path d="M20.25 417.69 L20.25 395.19" class="st25"/>
				<path d="M0 417.69 L0 395.19" class="st25"/>
				<path d="M0 395.19 L20.25 395.19" class="st25"/>
				<path d="M0 402.66 L20.25 402.66" class="st25"/>
				<path d="M0 417.69 L20.25 417.69" class="st25"/>
				<text x="4.74" y="400.73" class="st27" v:langID="1033"><v:paragraph v:horizAlign="1"/><v:tabList/>XML</text>			</g>
		</g>
		<g id="shape78-266" v:mID="78" v:groupContext="shape" transform="translate(288,-202.5)">
			<title>Sheet.78</title>
			<desc>suite-config.xml</desc>
			<v:textBlock v:margins="rect(4,4,4,4)"/>
			<v:textRect cx="45" cy="395.91" width="90" height="13.5"/>
			<rect x="0" y="389.16" width="90" height="13.5" class="st5"/>
			<text x="4" y="398.91" class="st6" v:langID="1033"><v:paragraph/><v:tabList/>suite-config.xml</text>		</g>
	</g>
</svg>