<?xml version="1.0" encoding="UTF-8"?><!DOCTYPE svg PUBLIC "-//W3C//DTD SVG 1.1//EN" "/SysSchema/svg/svg11.dtd">
<!-- Generated by Microsoft Visio, SVG Export pc-reinsurance-integration_xi170314.svg Page-1 --><svg xmlns="http://www.w3.org/2000/svg" xmlns:xlink="http://www.w3.org/1999/xlink" xmlns:ev="http://www.w3.org/2001/xml-events" xmlns:v="http://schemas.microsoft.com/visio/2003/SVGExtensions/" width="6.885in" height="3.5725in" viewBox="0 0 495.72 257.22" xml:space="preserve" color-interpolation-filters="sRGB" class="st22">
	<v:documentProperties v:langID="1033" v:viewMarkup="false">
		<v:userDefs>
			<v:ud v:nameU="msvConvertTheme"/>
		</v:userDefs>
	</v:documentProperties>

	<style type="text/css">
	<![CDATA[
		.st1 {fill:#e8eef7;stroke:#000000;stroke-linecap:round;stroke-linejoin:round;stroke-width:1.2}
		.st2 {fill:#000000;font-family:Calibri;font-size:0.833336em;font-weight:bold}
		.st3 {fill:#71d0fb;stroke:#000000;stroke-linecap:round;stroke-linejoin:round;stroke-width:0.72}
		.st4 {stroke:#034a69;stroke-linecap:round;stroke-linejoin:round;stroke-width:0.72}
		.st5 {fill:#034a69;fill-opacity:0.047;stroke:#034a69;stroke-linecap:round;stroke-linejoin:round;stroke-width:0.72}
		.st6 {fill:#000000;font-family:Calibri;font-size:0.916672em}
		.st7 {fill:#f2c2a2;stroke:#000000;stroke-linecap:round;stroke-linejoin:round;stroke-width:0.72}
		.st8 {fill:none;stroke:none;stroke-linecap:round;stroke-linejoin:round;stroke-width:0.72}
		.st9 {fill:#000000;font-family:Calibri;font-size:0.833336em}
		.st10 {marker-end:url(#mrkr13-23);stroke:#000000;stroke-linecap:round;stroke-linejoin:round;stroke-width:0.72}
		.st11 {fill:#000000;fill-opacity:1;stroke:#000000;stroke-opacity:1;stroke-width:0.22222222222222}
		.st12 {font-size:1em}
		.st13 {fill:#737373;font-size:1em}
		.st14 {fill:#ffffff;stroke:#034a69;stroke-linecap:round;stroke-linejoin:round;stroke-width:0.72}
		.st15 {fill:#000000;font-family:Calibri;font-size:0.666664em;font-weight:bold}
		.st16 {fill:#000000;font-family:Calibri;font-size:0.666664em}
		.st17 {fill:#000000;font-family:Calibri;font-size:0.833336em;font-style:italic;font-weight:bold}
		.st18 {fill:#000000;font-family:Calibri;font-size:0.833336em;font-style:italic}
		.st19 {fill:#ffffff;stroke:none;stroke-linecap:round;stroke-linejoin:round;stroke-width:0.24}
		.st20 {fill:#71d0fb;stroke:#000000;stroke-linecap:round;stroke-linejoin:round;stroke-width:0.24}
		.st21 {fill:#f2c2a2;stroke:#000000;stroke-linecap:round;stroke-linejoin:round;stroke-width:0.24}
		.st22 {fill:none;fill-rule:evenodd;font-size:12px;overflow:visible;stroke-linecap:square;stroke-miterlimit:3}
	]]>
	</style>

	<defs id="Markers">
		<g id="lend13">
			<path d="M 3 1 L 0 0 L 3 -1 L 3 1 " style="stroke:none"/>
		</g>
		<marker id="mrkr13-23" class="st11" v:arrowType="13" v:arrowSize="2" v:setback="13.5" refX="-13.5" orient="auto" markerUnits="strokeWidth" overflow="visible">
			<use xlink:href="#lend13" transform="scale(-4.5,-4.5) "/>
		</marker>
	</defs>
	<g v:mID="0" v:index="1" v:groupContext="foregroundPage">
		<title>Page-1</title>
		<v:pageProperties v:drawingScale="1" v:pageScale="1" v:drawingUnits="19" v:shadowOffsetX="9" v:shadowOffsetY="-9"/>
		<v:layer v:name="Connector" v:index="0"/>
		<g id="shape2-1" v:mID="2" v:groupContext="shape" transform="translate(36.36,-36.36)">
			<title>Rounded rectangle.2</title>
			<desc>PolicyCenter</desc>
			<v:userDefs>
				<v:ud v:nameU="visVersion" v:val="VT0(12):26"/>
			</v:userDefs>
			<v:textBlock v:margins="rect(4,4,4,4)" v:verticalAlign="0"/>
			<v:textRect cx="65.8125" cy="181.282" width="131.63" height="151.875"/>
			<path d="M122.62 257.22 A9.00007 9.00007 -180 0 0 131.62 248.22 L131.62 114.34 A9.00007 9.00007 -180 0 0 122.62 105.34        L9 105.34 A9.00007 9.00007 -180 0 0 0 114.34 L0 248.22 A9.00007 9.00007 -180 0 0 9 257.22 L122.62 257.22        Z" class="st1"/>
			<text x="4" y="118.35" class="st2" v:langID="1033"><v:paragraph/><v:tabList/>PolicyCenter</text>		</g>
		<g id="shape8-4" v:mID="8" v:groupContext="shape" transform="translate(184.86,423.189) rotate(180)">
			<title>Circle.8</title>
			<v:userDefs>
				<v:ud v:nameU="visVersion" v:val="VT0(12):26"/>
			</v:userDefs>
			<path d="M0 242.59 A14.625 14.625 0 0 1 29.25 242.59 A14.625 14.625 0 1 1 0 242.59 Z" class="st3"/>
		</g>
		<g id="group10-6" transform="translate(18.36,-18.36)" v:mID="10" v:groupContext="group">
			<v:userDefs>
				<v:ud v:nameU="Scale" v:val="VT0(1):26"/>
				<v:ud v:nameU="AntiScale" v:val="VT0(1):26"/>
				<v:ud v:nameU="visVersion" v:val="VT0(11):26"/>
			</v:userDefs>
			<title>Border small</title>
			<g id="shape11-7" v:mID="11" v:groupContext="shape">
				<title>Sheet.11</title>
				<path d="M0 71.12 L0 222.82 A34.4044 34.4044 -180 0 0 34.4 257.22 L424.6 257.22 A34.4044 34.4044 -180 0 0 459 222.82         L459 71.12 L0 71.12" class="st4"/>
			</g>
			<g id="shape12-10" v:mID="12" v:groupContext="shape" transform="translate(0,-186.096)">
				<title>Sheet.12</title>
				<desc>PolicyCenter Reinsurance Integration Plugin and Web Service</desc>
				<v:textBlock v:margins="rect(4,4,4,4)"/>
				<v:textRect cx="229.5" cy="240.018" width="459" height="34.4044"/>
				<path d="M459 257.22 L0 257.22 A34.4044 34.4044 0 0 1 34.4 222.82 L424.6 222.82 A34.4044 34.4044 0 0 1 459 257.22         Z" class="st5"/>
				<text x="92.94" y="243.32" class="st6" v:langID="1033"><v:paragraph v:horizAlign="1"/><v:tabList/>PolicyCenter Reinsurance Integration Plugin and Web Service</text>			</g>
		</g>
		<g id="shape13-13" v:mID="13" v:groupContext="shape" transform="translate(149.985,-127.485)">
			<title>Sheet.13</title>
			<path d="M18 221.22 L18 257.22 L9 257.22 L9 252.72 L0 248.22 L0 243.72 L9 239.22 L0 234.72 L0 230.22 L9 225.72 L9 221.22        L18 221.22 Z" class="st7"/>
		</g>
		<g id="shape21-15" v:mID="21" v:groupContext="shape" transform="translate(76.86,-62.0006)">
			<title>Sheet.21</title>
			<desc>RICoverageAPI</desc>
			<v:textBlock v:margins="rect(4,4,4,4)"/>
			<v:textRect cx="37.6875" cy="243.72" width="75.38" height="27"/>
			<rect x="0" y="230.22" width="75.375" height="27" class="st8"/>
			<text x="11.9" y="246.72" class="st9" v:langID="1033"><v:paragraph v:horizAlign="2"/><v:tabList/>RICoverageAPI</text>		</g>
		<g id="shape17-18" v:mID="17" v:groupContext="shape" transform="translate(167.985,-145.485)">
			<title>Sheet.17</title>
			<path d="M0 257.22 L34.15 257.22" class="st10"/>
		</g>
		<g id="shape19-24" v:mID="19" v:groupContext="shape" transform="translate(40.86,-131.985)">
			<title>Sheet.19</title>
			<desc>PCReinsurancePlugin {IReinsurancePlugin}</desc>
			<v:textBlock v:margins="rect(4,4,4,4)"/>
			<v:textRect cx="51.9844" cy="243.72" width="103.97" height="27"/>
			<rect x="0" y="230.22" width="103.969" height="27" class="st8"/>
			<text x="14.65" y="240.72" class="st9" v:langID="1033"><v:paragraph v:horizAlign="2"/><v:tabList/>PCReinsurancePlugin<v:newlineChar/><tspan x="14.07" dy="1.2em" class="st12"> </tspan><tspan class="st13">{</tspan><tspan class="st13">IReinsurancePlugin</tspan><tspan class="st13">}</tspan></text>		</g>
		<g id="shape15-31" v:mID="15" v:groupContext="shape" transform="translate(223.11,437.814) rotate(180)">
			<title>Sheet.15</title>
			<path d="M0 257.22 L28.53 257.22" class="st10"/>
		</g>
		<g id="shape16-36" v:mID="16" v:groupContext="shape" transform="translate(360.36,-72.36)">
			<title>Rounded rectangle.16</title>
			<desc>Legend</desc>
			<v:userDefs>
				<v:ud v:nameU="visVersion" v:val="VT0(11):26"/>
			</v:userDefs>
			<v:textBlock v:margins="rect(4,4,4,4)" v:tabSpace="42.5197" v:verticalAlign="0"/>
			<v:textRect cx="49.5" cy="212.22" width="99" height="90"/>
			<path d="M84.83 257.22 A14.1733 14.1733 -180 0 0 99 243.05 L99 181.39 A14.1733 14.1733 -180 0 0 84.83 167.22 L14.17 167.22        A14.1733 14.1733 -180 0 0 -0 181.39 L0 243.05 A14.1733 14.1733 -180 0 0 14.17 257.22 L84.83 257.22 Z" class="st14"/>
			<text x="37.59" y="178.42" class="st15" v:langID="1033"><v:paragraph v:horizAlign="1"/><v:tabList/>Legend</text>		</g>
		<g id="shape23-39" v:mID="23" v:groupContext="shape" transform="translate(369.923,-76.86)">
			<title>Sheet.23</title>
			<desc>Implementation Class {Interface}</desc>
			<v:textBlock v:margins="rect(4,4,4,4)"/>
			<v:textRect cx="40.2188" cy="243.72" width="80.44" height="27"/>
			<rect x="0" y="230.22" width="80.4375" height="27" class="st8"/>
			<text x="4" y="241.32" class="st16" v:langID="1033"><v:paragraph/><v:tabList/>Implementation Class<v:newlineChar/><tspan x="4" dy="1.2em" class="st13">{</tspan><tspan class="st13">Interface</tspan><tspan class="st13">}</tspan></text>		</g>
		<g id="group28-45" transform="translate(211.86,-126.36)" v:mID="28" v:groupContext="group">
			<title>Sheet.28</title>
			<g id="shape27-46" v:mID="27" v:groupContext="shape">
				<title>Rounded rectangle.27</title>
				<desc>Reinsurance System</desc>
				<v:userDefs>
					<v:ud v:nameU="visVersion" v:val="VT0(12):26"/>
				</v:userDefs>
				<v:textBlock v:margins="rect(4,4,4,4)" v:verticalAlign="0"/>
				<v:textRect cx="63" cy="234.72" width="126" height="45"/>
				<path d="M117 257.22 A9.00007 9.00007 -180 0 0 126 248.22 L126 221.22 A9.00007 9.00007 -180 0 0 117 212.22 L9 212.22         A9.00007 9.00007 -180 0 0 0 221.22 L0 248.22 A9.00007 9.00007 -180 0 0 9 257.22 L117 257.22 Z" class="st1"/>
				<text x="39.44" y="225.22" class="st17" v:langID="1033"><v:paragraph v:horizAlign="2"/><v:tabList/>Reinsurance System</text>			</g>
			<g id="shape22-49" v:mID="22" v:groupContext="shape" transform="translate(11.25,-5.625)">
				<title>Sheet.22</title>
				<desc>Custom Integration Point</desc>
				<v:textBlock v:margins="rect(4,4,4,4)"/>
				<v:textRect cx="57.375" cy="243.72" width="114.75" height="27"/>
				<rect x="0" y="230.22" width="114.75" height="27" class="st8"/>
				<text x="4" y="246.72" class="st18" v:langID="1033"><v:paragraph/><v:tabList/>Custom Integration Point</text>			</g>
		</g>
		<g id="group24-52" transform="translate(369.923,-107.235)" v:mID="24" v:groupContext="group">
			<title>Sheet.24</title>
			<g id="shape20-53" v:mID="20" v:groupContext="shape" transform="translate(17.0052,0)">
				<title>Rectangle.31</title>
				<desc>web service</desc>
				<v:userDefs>
					<v:ud v:nameU="visVersion" v:val="VT0(11):26"/>
				</v:userDefs>
				<v:textBlock v:margins="rect(4,4,4,4)"/>
				<v:textRect cx="23.8411" cy="250.133" width="47.69" height="14.1732"/>
				<rect x="0" y="243.047" width="47.6823" height="14.1732" class="st19"/>
				<text x="4" y="252.53" class="st16" v:langID="1033"><v:paragraph/><v:tabList/>web service</text>			</g>
			<g id="shape37-56" v:mID="37" v:groupContext="shape" transform="translate(0,-0.336614)">
				<title>Circle.37</title>
				<v:userDefs>
					<v:ud v:nameU="visVersion" v:val="VT0(12):26"/>
				</v:userDefs>
				<path d="M0 250.47 A6.75 6.75 0 0 1 13.5 250.47 A6.75 6.75 0 1 1 0 250.47 Z" class="st20"/>
			</g>
		</g>
		<g id="group25-58" transform="translate(373.016,-129.624)" v:mID="25" v:groupContext="group">
			<title>Sheet.25</title>
			<g id="shape38-59" v:mID="38" v:groupContext="shape">
				<title>Sheet.38</title>
				<path d="M7.31 242.59 L7.31 257.22 L3.66 257.22 L3.66 255.39 L0 253.56 L0 251.74 L3.66 249.91 L0 248.08 L0 246.25         L3.66 244.42 L3.66 242.59 L7.31 242.59 Z" class="st21"/>
			</g>
			<g id="shape5-61" v:mID="5" v:groupContext="shape" transform="translate(13.9115,-0.225886)">
				<title>Rectangle.5</title>
				<desc>plugin</desc>
				<v:userDefs>
					<v:ud v:nameU="visVersion" v:val="VT0(11):26"/>
				</v:userDefs>
				<v:textBlock v:margins="rect(4,4,4,4)"/>
				<v:textRect cx="17.3724" cy="250.133" width="34.75" height="14.1732"/>
				<rect x="0" y="243.047" width="34.7448" height="14.1732" class="st19"/>
				<text x="4" y="252.53" class="st16" v:langID="1033"><v:paragraph/><v:tabList/>plugin</text>			</g>
		</g>
		<g id="group26-64" transform="translate(211.86,-59.0475)" v:mID="26" v:groupContext="group">
			<title>Sheet.26</title>
			<g id="shape1-65" v:mID="1" v:groupContext="shape">
				<title>Rounded rectangle</title>
				<desc>Claims System</desc>
				<v:userDefs>
					<v:ud v:nameU="visVersion" v:val="VT0(12):26"/>
				</v:userDefs>
				<v:textBlock v:margins="rect(4,4,4,4)" v:verticalAlign="0"/>
				<v:textRect cx="63" cy="234.72" width="126" height="45"/>
				<path d="M117 257.22 A9.00007 9.00007 -180 0 0 126 248.22 L126 221.22 A9.00007 9.00007 -180 0 0 117 212.22 L9 212.22         A9.00007 9.00007 -180 0 0 0 221.22 L0 248.22 A9.00007 9.00007 -180 0 0 9 257.22 L117 257.22 Z" class="st1"/>
				<text x="62.67" y="225.22" class="st17" v:langID="1033"><v:paragraph v:horizAlign="2"/><v:tabList/>Claims System</text>			</g>
			<g id="shape29-68" v:mID="29" v:groupContext="shape" transform="translate(11.25,-4.5)">
				<title>Sheet.29</title>
				<desc>Custom Integration Point</desc>
				<v:textBlock v:margins="rect(4,4,4,4)"/>
				<v:textRect cx="57.375" cy="243.72" width="114.75" height="27"/>
				<rect x="0" y="230.22" width="114.75" height="27" class="st8"/>
				<text x="4" y="246.72" class="st18" v:langID="1033"><v:paragraph/><v:tabList/>Custom Integration Point</text>			</g>
		</g>
	</g>
</svg>