<?xml version="1.0" encoding="UTF-8"?><!-- Generated by Microsoft Visio 11.0, SVG Export, v1.0 round_robin_assignment.svg Page-1 --><svg xmlns="http://www.w3.org/2000/svg" xmlns:xlink="http://www.w3.org/1999/xlink" xmlns:ev="http://www.w3.org/2001/xml-events" xmlns:v="http://schemas.microsoft.com/visio/2003/SVGExtensions/" width="6.4575in" height="5.9575in" viewBox="0 0 464.94 428.94" xml:space="preserve" color-interpolation-filters="sRGB" class="st42">
	<v:documentProperties v:langID="1033" v:viewMarkup="false">
		<v:userDefs>
			<v:ud v:nameU="msvNoAutoConnect" v:val="VT0(1):26"/>
			<v:ud v:nameU="visTLShowProps" v:prompt="" v:val="VT0(0):26"/>
		</v:userDefs>
	</v:documentProperties>

	<style type="text/css">
	
		.st1 {fill:#ffffff;stroke:#ff0000;stroke-linecap:round;stroke-linejoin:round;stroke-width:3.12}
		.st2 {stroke:#034a69;stroke-linecap:round;stroke-linejoin:round;stroke-width:0.72}
		.st3 {fill:#034a69;fill-opacity:0.047;stroke:#034a69;stroke-linecap:round;stroke-linejoin:round;stroke-width:0.72}
		.st4 {fill:#1c1c1c;font-family:Calibri;font-size:0.916672em}
		.st5 {fill:#000000;fill-opacity:0;stroke:none;stroke-linecap:round;stroke-linejoin:round;stroke-width:0.75}
		.st6 {fill:#cc6633}
		.st7 {stroke:none;stroke-linecap:round;stroke-linejoin:round;stroke-width:0.75}
		.st8 {fill:url(#grad30-19)}
		.st9 {fill:url(#grad36-24);stroke:none;stroke-linecap:round;stroke-linejoin:round;stroke-width:0.75}
		.st10 {fill:#cc6633;stroke:#cc6633;stroke-linecap:butt;stroke-width:0.2175}
		.st11 {fill:url(#grad32-30)}
		.st12 {stroke:#868686;stroke-linecap:round;stroke-linejoin:round;stroke-width:0.375}
		.st13 {fill:url(#grad33-37)}
		.st14 {fill:url(#grad25-44)}
		.st15 {fill:url(#grad31-49)}
		.st16 {fill:#d9d9d9;stroke:none;stroke-linecap:round;stroke-linejoin:round;stroke-width:0.75}
		.st17 {fill:url(#grad38-56);stroke:none;stroke-linecap:round;stroke-linejoin:round;stroke-width:0.75}
		.st18 {fill:url(#grad25-60)}
		.st19 {fill:#ffffff;stroke:none;stroke-linecap:round;stroke-linejoin:round;stroke-width:0.75}
		.st20 {fill:#ffffff}
		.st21 {fill:url(#grad40-70)}
		.st22 {stroke:#d75139;stroke-linecap:butt;stroke-width:0.375}
		.st23 {fill:none}
		.st24 {fill:#868686;stroke:#868686;stroke-linecap:butt;stroke-width:0.2175}
		.st25 {fill:url(#grad25-44);stroke:none;stroke-linecap:round;stroke-linejoin:round;stroke-width:0.75}
		.st26 {fill:url(#grad36-86);stroke:#868686;stroke-linecap:butt;stroke-width:0.375}
		.st27 {fill:url(#grad31-49);stroke:#868686;stroke-linecap:butt;stroke-width:0.375}
		.st28 {fill:url(#grad32-30);stroke:#868686;stroke-linecap:round;stroke-linejoin:round;stroke-width:0.375}
		.st29 {fill:#868686;stroke:#868686;stroke-linecap:butt;stroke-width:0.3732}
		.st30 {fill:none;stroke:#1c1c1c;stroke-linecap:round;stroke-linejoin:round;stroke-width:0.72}
		.st31 {fill:#1c1c1c;font-family:Calibri;font-size:1.00001em}
		.st32 {fill:url(#grad28-32);stroke:#000000;stroke-linecap:round;stroke-linejoin:round;stroke-width:0.375}
		.st33 {fill:url(#grad31-49);stroke:#000000;stroke-linecap:round;stroke-linejoin:round;stroke-width:0.375}
		.st34 {stroke:#7c7c7c;stroke-linecap:round;stroke-linejoin:round;stroke-width:0.375}
		.st35 {marker-end:url(#mrkr4-376);stroke:#1c1c1c;stroke-dasharray:1.67983,1.19988;stroke-linecap:round;stroke-linejoin:round;stroke-width:0.239976}
		.st36 {fill:#1c1c1c;fill-opacity:1;stroke:#1c1c1c;stroke-opacity:1;stroke-width:0.11763667807857}
		.st37 {marker-end:url(#mrkr4-387);stroke:#1c1c1c;stroke-dasharray:1.67983,1.19988;stroke-linecap:round;stroke-linejoin:round;stroke-width:0.239976}
		.st38 {fill:#ff0000;fill-opacity:1;stroke:#ff0000;stroke-opacity:1;stroke-width:0.37313432835821}
		.st39 {marker-end:url(#mrkr13-398);stroke:#ff0000;stroke-linecap:round;stroke-linejoin:round;stroke-width:1.5}
		.st40 {fill:#ffffff;stroke:none;stroke-linecap:butt;stroke-width:7.2}
		.st41 {fill:#1c1c1c;font-family:Calibri;font-size:1.00001em;font-weight:bold}
		.st42 {fill:none;fill-rule:evenodd;font-size:12px;overflow:visible;stroke-linecap:square;stroke-miterlimit:3}
	
	</style>

	<defs id="Patterns_And_Gradients">
		<linearGradient id="grad30-19" v:fillPattern="30" v:foreground="#f6f8b0" v:background="#dab971" x1="0" y1="1" x2="0" y2="0">
			<stop offset="0" style="stop-color:#f6f8b0;stop-opacity:1"/>
			<stop offset="1" style="stop-color:#dab971;stop-opacity:1"/>
		</linearGradient>
		<radialGradient id="grad36-24" v:fillPattern="36" v:foreground="#f6f8b0" v:background="#dab971" cx="0" cy="0" r="1">
			<stop offset="0" style="stop-color:#f6f8b0;stop-opacity:1"/>
			<stop offset="1" style="stop-color:#dab971;stop-opacity:1"/>
		</radialGradient>
		<pattern id="grad32-30" v:fillPattern="32" v:foreground="#ffffff" v:background="#ffffff" x="0" y="0" width="1" height="1" patternContentUnits="objectBoundingBox">
			<path d="M 0 1 L 0 0 L 1 0 z" style="fill:url(#grad27-31)"/>
			<path d="M 0 1 L 1 1 L 1 0 z" style="fill:url(#grad28-32)"/>
		</pattern>
		<linearGradient id="grad27-31" v:fillPattern="32" v:foreground="#ffffff" v:background="#ffffff" x1="1" y1="0" x2="0" y2="0">
			<stop offset="0" style="stop-color:#ffffff;stop-opacity:1"/>
			<stop offset="1" style="stop-color:#ffffff;stop-opacity:1"/>
		</linearGradient>
		<linearGradient id="grad28-32" v:fillPattern="32" v:foreground="#ffffff" v:background="#ffffff" x1="0" y1="0" x2="0" y2="1">
			<stop offset="0" style="stop-color:#ffffff;stop-opacity:1"/>
			<stop offset="1" style="stop-color:#ffffff;stop-opacity:1"/>
		</linearGradient>
		<pattern id="grad33-37" v:fillPattern="33" v:foreground="#ffffff" v:background="#ffffff" x="0" y="0" width="1" height="1" patternContentUnits="objectBoundingBox">
			<path d="M 0 1 L 0 0 L 1 0 z" style="fill:url(#grad30-38)"/>
			<path d="M 0 1 L 1 1 L 1 0 z" style="fill:url(#grad25-39)"/>
		</pattern>
		<linearGradient id="grad30-38" v:fillPattern="33" v:foreground="#ffffff" v:background="#ffffff" x1="0" y1="1" x2="0" y2="0">
			<stop offset="0" style="stop-color:#ffffff;stop-opacity:1"/>
			<stop offset="1" style="stop-color:#ffffff;stop-opacity:1"/>
		</linearGradient>
		<linearGradient id="grad25-39" v:fillPattern="33" v:foreground="#ffffff" v:background="#ffffff" x1="0" y1="0" x2="1" y2="0">
			<stop offset="0" style="stop-color:#ffffff;stop-opacity:1"/>
			<stop offset="1" style="stop-color:#ffffff;stop-opacity:1"/>
		</linearGradient>
		<linearGradient id="grad25-44" v:fillPattern="25" v:foreground="#f7f3e8" v:background="#ffffff" x1="0" y1="0" x2="1" y2="0">
			<stop offset="0" style="stop-color:#f7f3e8;stop-opacity:1"/>
			<stop offset="1" style="stop-color:#ffffff;stop-opacity:1"/>
		</linearGradient>
		<pattern id="grad31-49" v:fillPattern="31" v:foreground="#ffffff" v:background="#ffffff" x="0" y="0" width="1" height="1" patternContentUnits="objectBoundingBox">
			<path d="M 0 0 L 0 1 L 1 1 z" style="fill:url(#grad28-32)"/>
			<path d="M 0 0 L 1 0 L 1 1 z" style="fill:url(#grad25-39)"/>
		</pattern>
		<radialGradient id="grad38-56" v:fillPattern="38" v:foreground="#ffffff" v:background="#da8c36" cx="0" cy="1" r="1">
			<stop offset="0" style="stop-color:#ffffff;stop-opacity:1"/>
			<stop offset="1" style="stop-color:#da8c36;stop-opacity:1"/>
		</radialGradient>
		<linearGradient id="grad25-60" v:fillPattern="25" v:foreground="#ffffff" v:background="#d9d9d9" x1="0" y1="0" x2="1" y2="0">
			<stop offset="0" style="stop-color:#ffffff;stop-opacity:1"/>
			<stop offset="1" style="stop-color:#d9d9d9;stop-opacity:1"/>
		</linearGradient>
		<radialGradient id="grad40-70" v:fillPattern="40" v:foreground="#ffffff" v:background="#da8c36" cx="0.5" cy="0.5" r="0.5">
			<stop offset="0" style="stop-color:#ffffff;stop-opacity:1"/>
			<stop offset="1" style="stop-color:#da8c36;stop-opacity:1"/>
		</radialGradient>
		<radialGradient id="grad36-86" v:fillPattern="36" v:foreground="#ffffff" v:background="#ffffff" cx="0" cy="0" r="1">
			<stop offset="0" style="stop-color:#ffffff;stop-opacity:1"/>
			<stop offset="1" style="stop-color:#ffffff;stop-opacity:1"/>
		</radialGradient>
	</defs>
	<defs id="Markers">
		<g id="lend4">
			<path d="M 2 1 L 0 0 L 2 -1 L 2 1 " style="stroke:none"/>
		</g>
		<marker id="mrkr4-376" class="st36" v:arrowType="4" v:arrowSize="1" v:setback="0" refX="-0" orient="auto" markerUnits="strokeWidth" overflow="visible">
			<use xlink:href="#lend4" transform="scale(-8.5007500750075,-8.5007500750075) "/>
		</marker>
		<marker id="mrkr4-387" class="st36" v:arrowType="4" v:arrowSize="1" v:setback="15.5014" refX="-15.501350135014" orient="auto" markerUnits="strokeWidth" overflow="visible">
			<use xlink:href="#lend4" transform="scale(-8.5007500750075,-8.5007500750075) "/>
		</marker>
		<g id="lend13">
			<path d="M 3 1 L 0 0 L 3 -1 L 3 1 " style="stroke:none"/>
		</g>
		<marker id="mrkr13-398" class="st38" v:arrowType="13" v:arrowSize="2" v:setback="8.04" refX="-8.04" orient="auto" markerUnits="strokeWidth" overflow="visible">
			<use xlink:href="#lend13" transform="scale(-2.68,-2.68) "/>
		</marker>
	</defs>
	<g v:mID="0" v:index="1" v:groupContext="foregroundPage">
		<v:userDefs>
			<v:ud v:nameU="msvThemeColors" v:val="VT0(254):26"/>
			<v:ud v:nameU="msvThemeOrder" v:val="VT0(0):26"/>
		</v:userDefs>
		<title>Page-1</title>
		<v:pageProperties v:drawingScale="1" v:pageScale="1" v:drawingUnits="19" v:shadowOffsetX="9" v:shadowOffsetY="-9"/>
		<v:layer v:name="Flowchart" v:index="0"/>
		<v:layer v:name="Connector" v:index="1"/>
		<g id="shape4-1" v:mID="4" v:groupContext="shape" transform="translate(285.26,-117.671)">
			<title>Main topic</title>
			<v:custProps>
				<v:cp v:nameU="shapelook" v:lbl="" v:prompt="" v:type="0" v:format="1;Oval;2;Cloud;3;Rectangle;4;Starburst" v:sortKey="" v:invis="true" v:ask="false" v:langID="1033" v:cal="0" v:val="VT0(0):26"/>
			</v:custProps>
			<v:userDefs>
				<v:ud v:nameU="SolSH" v:val="VT14({1E3B3066-9E48-43AD-812D-67A2086F19C3}):41"/>
				<v:ud v:nameU="ShapeType" v:val="VT0(1):26"/>
				<v:ud v:nameU="shapelook" v:prompt="1;Oval;2;Cloud;3;Rectangle;4;Starburst" v:val="VT0(1):26"/>
				<v:ud v:nameU="visVersion" v:val="VT0(14):26"/>
				<v:ud v:nameU="msvThemeColors" v:val="VT0(254):26"/>
			</v:userDefs>
			<path d="M144 388.08 A72 39.2548 -180 1 0 0 388.08 A72 39.2548 -180 1 0 144 388.08 Z" class="st1"/>
		</g>
		<g id="group1-3" transform="translate(18.72,-18.72)" v:mID="1" v:groupContext="group">
			<v:userDefs>
				<v:ud v:nameU="Scale" v:val="VT0(1):26"/>
				<v:ud v:nameU="AntiScale" v:val="VT0(1):26"/>
				<v:ud v:nameU="visVersion" v:val="VT0(11):26"/>
				<v:ud v:nameU="msvThemeColors" v:val="VT0(254):26"/>
			</v:userDefs>
			<title>Border small</title>
			<g id="shape2-4" v:mID="2" v:groupContext="shape">
				<title>Sheet.2</title>
				<v:userDefs>
					<v:ud v:nameU="msvThemeColors" v:val="VT0(254):26"/>
				</v:userDefs>
				<path d="M0 58.64 L0 407.74 A21.204 21.204 -180 0 0 21.2 428.94 L406.3 428.94 A21.204 21.204 -180 0 0 427.5 407.74         L427.5 58.64 L0 58.64" class="st2"/>
			</g>
			<g id="shape3-7" v:mID="3" v:groupContext="shape" transform="translate(0,-370.296)">
				<title>Sheet.3</title>
				<desc>Round-Robin Assignment</desc>
				<v:userDefs>
					<v:ud v:nameU="msvThemeColors" v:val="VT0(254):26"/>
				</v:userDefs>
				<v:textBlock v:margins="rect(4,4,4,4)"/>
				<v:textRect cx="213.75" cy="418.338" width="427.5" height="21.204"/>
				<path d="M427.5 428.94 L0 428.94 A21.204 21.204 0 0 1 21.2 407.74 L406.3 407.74 A21.204 21.204 0 0 1 427.5 428.94         Z" class="st3"/>
				<text x="157.25" y="421.64" class="st4" v:langID="1033"><v:paragraph v:horizAlign="1"/><v:tabList/>Round-Robin Assignment</text>			</g>
		</g>
		<g id="group5-10" transform="translate(154.44,-284.94)" v:mID="5" v:groupContext="group">
			<v:userDefs>
				<v:ud v:nameU="SkinColor" v:prompt="" v:val="VT5(#da8c36)"/>
				<v:ud v:nameU="visVersion" v:prompt="" v:val="VT0(14):26"/>
				<v:ud v:nameU="msvThemeColors" v:val="VT0(254):26"/>
			</v:userDefs>
			<title>User</title>
			<desc>Adjuster #1</desc>
			<g id="shape6-11" v:mID="6" v:groupContext="shape" transform="translate(0,-2.07692)">
				<title>Sheet.6</title>
				<path d="M37.3 389.56 L33.44 391.62 A2.27692 2.27692 -180 0 0 32.46 392.54 A28.0361 28.0361 -180 0 0 31.82 399.39         A37.1943 37.1943 -180 0 0 27.55 401.82 L27.52 400.81 L27.38 399.61 L15.51 393.14 L14.38 393.7 L14.88         401.22 L0 409.67 L0 410.54 L32.74 428.94 L54 416.85 L54 415.99 L50.89 414.23 L51.53 399.47 L48.69 397.85         A10.6718 10.6718 -180 0 0 43.05 390.37 A32.0289 32.0289 0 0 1 43.02 389.5 A5.80599 5.80599 -180 0 0         45.11 384.58 A5.17788 5.17788 -180 0 0 40.16 379.09 A5.14456 5.14456 -180 0 0 35.23 384.5 A5.90563 5.90563         -180 0 0 37.3 389.56 Z" class="st5"/>
			</g>
			<g id="shape7-13" v:mID="7" v:groupContext="shape" transform="translate(47.9101,-16.7895)">
				<title>Sheet.7</title>
				<path d="M0 427.26 L0.31 412.31 L3.62 414.18 L2.98 428.94 L1.45 428.08 L0 427.26 Z" class="st6"/>
				<path d="M0 427.26 L0.31 412.31 L3.62 414.18 L2.98 428.94 L1.45 428.08" class="st7"/>
			</g>
			<g id="shape8-16" v:mID="8" v:groupContext="shape" transform="translate(48.6855,-30.8721)">
				<title>Sheet.8</title>
				<path d="M0 426.64 L2.84 428.27 L1.29 428.94 L0.02 428.17 L0 426.64 Z" class="st8"/>
				<path d="M0 426.64 L2.84 428.27 L1.29 428.94 L0.02 428.17" class="st7"/>
			</g>
			<g id="shape9-21" v:mID="9" v:groupContext="shape" transform="translate(0,-2.94364)">
				<title>Sheet.9</title>
				<path d="M0 410.54 L21.36 398.4 L54 416.85 L32.76 428.94 L0 410.54 Z" class="st9"/>
			</g>
			<g id="shape10-25" v:mID="10" v:groupContext="shape" transform="translate(0,-2.07692)">
				<title>Sheet.10</title>
				<path d="M0 410.54 L32.74 428.94 L32.76 428.07 L0 409.67 L0 410.54 ZM51.12 417.6 L32.76 428.07 L32.76 428.94 L54         416.85 L54 415.99 L51.12 417.6 Z" class="st10"/>
			</g>
			<g id="shape11-27" v:mID="11" v:groupContext="shape" transform="translate(21.6407,-13.9958)">
				<title>Sheet.11</title>
				<path d="M4.89 419.56 L0 422.35 L11.27 428.94 L16.12 426.13 L4.85 419.54 L4.89 419.56 Z" class="st11"/>
				<path d="M4.89 419.56 L0 422.35 L11.27 428.94 L16.12 426.13 L4.85 419.54" class="st12"/>
			</g>
			<g id="shape12-34" v:mID="12" v:groupContext="shape" transform="translate(31.8203,-20.7951)">
				<title>Sheet.12</title>
				<path d="M1.93 423.29 L1.9 423.38 L0 418.17 A39.8508 39.8508 0 0 1 0.63 411.26 A3.73226 3.73226 0 0 1 6.06 411.13         A12.0053 12.0053 0 0 1 12.83 424.74 L12.53 428.94 L1.93 423.29 Z" class="st13"/>
				<path d="M1.93 423.29 L1.9 423.38 L0 418.17 A39.8508 39.8508 0 0 1 0.63 411.26 A3.73226 3.73226 0 0 1 6.06 411.13         A12.0053 12.0053 0 0 1 12.83 424.74 L12.53 428.94" class="st7"/>
			</g>
			<g id="shape13-41" v:mID="13" v:groupContext="shape" transform="translate(33.1663,-31.8016)">
				<title>Sheet.13</title>
				<path d="M10.49 428.94 A10.432 10.432 -180 0 0 7.09 424.09 A8.1565 8.1565 -180 0 0 0 421.5 L4.73 418.9 A8.15807 8.15807         0 0 1 11.82 421.49 A10.474 10.474 0 0 1 15.19 426.25 L10.49 428.94 Z" class="st14"/>
				<path d="M10.49 428.94 A10.432 10.432 -180 0 0 7.09 424.09 A8.1565 8.1565 -180 0 0 0 421.5 L4.73 418.9 A8.15807 8.15807         0 0 1 11.82 421.49 A10.474 10.474 0 0 1 15.19 426.25" class="st7"/>
			</g>
			<g id="shape14-46" v:mID="14" v:groupContext="shape" transform="translate(43.657,-20.9597)">
				<title>Sheet.14</title>
				<path d="M4.7 415.41 A8.49544 8.49544 0 0 1 5.06 417.17 A52.856 52.856 0 0 1 5.33 426.07 A15.6694 15.6694 0 0 1 0.86         428.94 A1061.86 1061.86 -180 0 0 0.33 419.77 A8.40381 8.40381 -180 0 0 0.02 418.18 L0 418.1 A3.80207         3.80207 0 0 1 4.69 415.4 L4.7 415.41 Z" class="st15"/>
				<path d="M4.7 415.41 A8.49544 8.49544 0 0 1 5.06 417.17 A52.856 52.856 0 0 1 5.33 426.07 A15.6694 15.6694 0 0 1 0.86         428.94 A1061.86 1061.86 -180 0 0 0.33 419.77 A8.40381 8.40381 -180 0 0 0.02 418.18 L0 418.1 A3.80207         3.80207 0 0 1 4.69 415.4" class="st7"/>
			</g>
			<g id="shape15-51" v:mID="15" v:groupContext="shape" transform="translate(44.004,-18.4737)">
				<title>Sheet.15</title>
				<path d="M0 426.73 L4.26 424.31 L3.91 428.94 L0 426.73 Z" class="st16"/>
			</g>
			<g id="shape16-53" v:mID="16" v:groupContext="shape" transform="translate(31.2605,-16.3471)">
				<title>Sheet.16</title>
				<path d="M6.38 425.12 A2.73577 2.73577 0 0 1 4.28 428.34 A2.91784 2.91784 0 0 1 0.47 427.31 A2.73849 2.73849 0 0         1 2.58 424.1 A2.91703 2.91703 0 0 1 6.38 425.12 Z" class="st17"/>
			</g>
			<g id="shape17-57" v:mID="17" v:groupContext="shape" transform="translate(37.3663,-38.9648)">
				<title>Sheet.17</title>
				<path d="M0.14 426.54 L0.16 427.68 A2.03487 2.03487 -180 0 0 2.55 428.69 A5.69468 5.69468 -180 0 0 5.68 428.3 L5.65         426.14 A5.06872 5.06872 0 0 1 0.23 426.49 L0.14 426.54 Z" class="st18"/>
				<path d="M0.14 426.54 L0.16 427.68 A2.03487 2.03487 -180 0 0 2.55 428.69 A5.69468 5.69468 -180 0 0 5.68 428.3 L5.65         426.14 A5.06872 5.06872 0 0 1 0.23 426.49" class="st7"/>
			</g>
			<g id="shape18-62" v:mID="18" v:groupContext="shape" transform="translate(36.9357,-16.8568)">
				<title>Sheet.18</title>
				<path d="M7.53 420.94 L0.34 425.06 A2.04619 2.04619 0 0 1 0 428.02 A1.85248 1.85248 -180 0 0 2.71 427.71 L7.64 424.81         L7.53 420.94 Z" class="st19"/>
			</g>
			<g id="shape19-64" v:mID="19" v:groupContext="shape" transform="translate(27.6923,-23.3138)">
				<title>Sheet.19</title>
				<path d="M0.27 428.94 L6.28 425.57 L6.11 421.73 L0 425.09 L0.27 428.94 Z" class="st20"/>
				<path d="M0.27 428.94 L6.28 425.57 L6.11 421.73 L0 425.09" class="st7"/>
			</g>
			<g id="shape20-67" v:mID="20" v:groupContext="shape" transform="translate(35.2229,-40.5091)">
				<title>Sheet.20</title>
				<path d="M9.88 423.23 A5.36635 5.36635 0 0 1 4.94 428.94 A5.36635 5.36635 0 0 1 0 423.23 A5.3675 5.3675 0 0 1 4.94         417.53 A5.3675 5.3675 0 0 1 9.88 423.23 L-2.47 414.67 L9.88 423.23 Z" class="st21"/>
				<path d="M9.88 423.23 A5.36635 5.36635 0 0 1 4.94 428.94 A5.36635 5.36635 0 0 1 0 423.23 A5.3675 5.3675 0 0 1 4.94         417.53 A5.3675 5.3675 0 0 1 9.88 423.23" class="st22"/>
			</g>
			<g id="shape21-72" v:mID="21" v:groupContext="shape" transform="translate(27.552,-20.7139)">
				<title>Sheet.21</title>
				<path d="M-0 420.45 A1387.35 1387.35 -180 0 0 4.36 418 L6.24 419.1 L0.17 422.54 L0 420.45 ZM16.77 424.86 L9.73 428.94         A2.45009 2.45009 -180 0 0 7.55 428.2 A1.42182 1.42182 0 0 1 8.31 427.51 A395.138 395.138 -180 0 0 14.89         423.77 L16.77 424.86 Z" class="st20"/>
				<path d="M-0 420.45 A1387.35 1387.35 -180 0 0 4.36 418 L6.24 419.1 L0.17 422.54M16.77 424.86 L9.73 428.94 A2.45009         2.45009 -180 0 0 7.55 428.2 A1.42182 1.42182 0 0 1 8.31 427.51 A395.138 395.138 -180 0 0 14.89 423.77         L16.77 424.86" class="st7"/>
			</g>
			<g id="shape22-75" v:mID="22" v:groupContext="shape" transform="translate(27.5357,-16.6109)">
				<title>Sheet.22</title>
				<path d="M6.34 419.04 L6.16 411.74 L6.34 419.04 ZM0.43 422.23 L6.39 419 L0.43 422.23 ZM14.86 416.54 L14.86 419.66         L8.96 423.04 A4.12087 4.12087 -180 0 0 7.61 424.03 A4.17932 4.17932 -180 0 0 4.37 425.86 A2.2379 2.2379         -180 0 0 7.49 428.81 A4.74779 4.74779 -180 0 0 9.38 427.8 A3.17032 3.17032 -180 0 0 13.07 426.94 L20.73         422.45 A3.17103 3.17103 -180 0 0 21.61 419.65 A605.106 605.106 -180 0 0 21.21 412.86 A9.84699 9.84699         -180 0 0 17.48 406.34 A18.3923 18.3923 -180 0 0 15.51 404.91 L15.48 404.03 A5.68706 5.68706 -180 0 0         17.58 399.47 A5.3583 5.3583 -180 0 0 12.63 393.63 A5.28975 5.28975 -180 0 0 7.73 399.47 A6.0478 6.0478         -180 0 0 9.76 404.1 L5.66 406.35 A2.74101 2.74101 -180 0 0 4.51 408.74 L4.29 413.92 A89.9117 89.9117         -180 0 0 -0 416.3 L14.86 416.54 Z" class="st23"/>
				<path d="M6.34 419.04 L6.16 411.74M0.43 422.23 L6.39 419M14.86 416.54 L14.86 419.66 L8.96 423.04 A4.12087 4.12087         -180 0 0 7.61 424.03 A4.17932 4.17932 -180 0 0 4.37 425.86 A2.2379 2.2379 -180 0 0 7.49 428.81 A4.74779         4.74779 -180 0 0 9.38 427.8 A3.17032 3.17032 -180 0 0 13.07 426.94 L20.73 422.45 A3.17103 3.17103 -180         0 0 21.61 419.65 A605.106 605.106 -180 0 0 21.21 412.86 A9.84699 9.84699 -180 0 0 17.48 406.34 A18.3923         18.3923 -180 0 0 15.51 404.91 L15.48 404.03 A5.68706 5.68706 -180 0 0 17.58 399.47 A5.3583 5.3583 -180         0 0 12.63 393.63 A5.28975 5.28975 -180 0 0 7.73 399.47 A6.0478 6.0478 -180 0 0 9.76 404.1 L5.66 406.35         A2.74101 2.74101 -180 0 0 4.51 408.74 L4.29 413.92 A89.9117 89.9117 -180 0 0 -0 416.3" class="st12"/>
			</g>
			<g id="shape23-78" v:mID="23" v:groupContext="shape" transform="translate(21.6407,-13.0954)">
				<title>Sheet.23</title>
				<path d="M5.64 424.66 L0 421.29 L0 422.22 L5.71 425.63 L5.77 426.51 L6.48 426.09 L11.26 428.93 L17 425.63 L16.12         425.14 L11.27 428.01 L6.74 425.31 L5.74 410.63 L4.59 411.28 L5.64 424.66 Z" class="st24"/>
			</g>
			<g id="shape24-80" v:mID="24" v:groupContext="shape" transform="translate(14.3752,-30.7576)">
				<title>Sheet.24</title>
				<path d="M11.85 428.94 L0 422.38 L1.14 421.82 L13.01 428.29 L11.85 428.94 Z" class="st25"/>
			</g>
			<g id="shape25-83" v:mID="25" v:groupContext="shape" transform="translate(14.6409,-13.368)">
				<title>Sheet.25</title>
				<path d="M11.82 426.28 A5.40889 5.40889 0 0 1 5.91 428.94 A5.40411 5.40411 0 0 1 -0 426.28 A5.4051 5.4051 0 0 1 5.91         423.62 A5.40987 5.40987 0 0 1 11.82 426.28 Z" class="st26"/>
			</g>
			<g id="shape26-87" v:mID="26" v:groupContext="shape" transform="translate(14.3814,-15.5235)">
				<title>Sheet.26</title>
				<path d="M0 407.13 L1 422.3 L13.03 428.94 L11.85 413.61 L0 407.13 Z" class="st27"/>
			</g>
			<g id="shape27-90" v:mID="27" v:groupContext="shape" transform="translate(15.8482,-13.7319)">
				<title>Sheet.27</title>
				<path d="M3.3 417.88 A22.0156 22.0156 -180 0 0 -0 428.18 L1.92 428.94 A22.0235 22.0235 0 0 1 5.22 418.63 L3.3 417.88         Z" class="st28"/>
			</g>
			<g id="shape28-93" v:mID="28" v:groupContext="shape" transform="translate(14.632,-12.2899)">
				<title>Sheet.28</title>
				<path d="M6.43 417.19 L7.08 425.34 L3.18 427.55 A22.5254 22.5254 0 0 1 6.43 417.19 ZM11.82 425.24 A5.40793 5.40793         0 0 1 5.91 427.9 A5.40538 5.40538 0 0 1 0 425.24 L0 426.28 A5.40425 5.40425 -180 0 0 5.91 428.94 A5.40924         5.40924 -180 0 0 11.82 426.28 L11.82 425.24 Z" class="st29"/>
			</g>
			<g id="shape29-95" v:mID="29" v:groupContext="shape" transform="translate(0,-2.07692)">
				<title>Sheet.29</title>
				<path d="M37.3 389.56 L33.44 391.62 A2.37823 2.37823 -180 0 0 32.46 392.54 A26.628 26.628 -180 0 0 31.82 399.39 A55.544         55.544 -180 0 0 27.55 401.82 L27.52 400.81 L27.38 399.61 L15.51 393.14 L14.38 393.7 L14.88 401.22 L0         409.67 L0 410.54 L32.74 428.94 L54 416.85 L54 415.99 L50.89 414.23 L51.53 399.47 L48.69 397.85 A11.2315         11.2315 -180 0 0 43.05 390.37 A33.3456 33.3456 0 0 1 43.02 389.5 A5.81693 5.81693 -180 0 0 45.11 384.58         A5.25127 5.25127 -180 0 0 40.16 379.09 A5.15954 5.15954 -180 0 0 35.23 384.5 A6.04773 6.04773 -180 0         0 37.3 389.56 Z" class="st30"/>
			</g>
			<g id="shape5-97" v:mID="5" v:groupContext="groupContent">
				<v:textBlock v:margins="rect(4,4,4,4)"/>
				<v:textRect cx="27" cy="440.142" width="66.78" height="22.4037"/>
				<text x="-1.03" y="443.74" class="st31" v:langID="1033"><v:paragraph v:horizAlign="1"/><v:tabList/>Adjuster #1</text>			</g>
		</g>
		<g id="group30-99" transform="translate(244.44,-217.44)" v:mID="30" v:groupContext="group">
			<v:userDefs>
				<v:ud v:nameU="SkinColor" v:prompt="" v:val="VT5(#da8c36)"/>
				<v:ud v:nameU="visVersion" v:prompt="" v:val="VT0(14):26"/>
				<v:ud v:nameU="msvThemeColors" v:val="VT0(254):26"/>
			</v:userDefs>
			<title>User.30</title>
			<desc>Adjuster #2</desc>
			<g id="shape31-100" v:mID="31" v:groupContext="shape" transform="translate(0,-2.07692)">
				<title>Sheet.31</title>
				<path d="M37.3 389.56 L33.44 391.62 A2.27692 2.27692 -180 0 0 32.46 392.54 A28.0361 28.0361 -180 0 0 31.82 399.39         A37.1943 37.1943 -180 0 0 27.55 401.82 L27.52 400.81 L27.38 399.61 L15.51 393.14 L14.38 393.7 L14.88         401.22 L0 409.67 L0 410.54 L32.74 428.94 L54 416.85 L54 415.99 L50.89 414.23 L51.53 399.47 L48.69 397.85         A10.6718 10.6718 -180 0 0 43.05 390.37 A32.0289 32.0289 0 0 1 43.02 389.5 A5.80599 5.80599 -180 0 0         45.11 384.58 A5.17788 5.17788 -180 0 0 40.16 379.09 A5.14456 5.14456 -180 0 0 35.23 384.5 A5.90563 5.90563         -180 0 0 37.3 389.56 Z" class="st5"/>
			</g>
			<g id="shape32-102" v:mID="32" v:groupContext="shape" transform="translate(47.9101,-16.7895)">
				<title>Sheet.32</title>
				<path d="M0 427.26 L0.31 412.31 L3.62 414.18 L2.98 428.94 L1.45 428.08 L0 427.26 Z" class="st6"/>
				<path d="M0 427.26 L0.31 412.31 L3.62 414.18 L2.98 428.94 L1.45 428.08" class="st7"/>
			</g>
			<g id="shape33-105" v:mID="33" v:groupContext="shape" transform="translate(48.6855,-30.8721)">
				<title>Sheet.33</title>
				<path d="M0 426.64 L2.84 428.27 L1.29 428.94 L0.02 428.17 L0 426.64 Z" class="st8"/>
				<path d="M0 426.64 L2.84 428.27 L1.29 428.94 L0.02 428.17" class="st7"/>
			</g>
			<g id="shape34-109" v:mID="34" v:groupContext="shape" transform="translate(0,-2.94364)">
				<title>Sheet.34</title>
				<path d="M0 410.54 L21.36 398.4 L54 416.85 L32.76 428.94 L0 410.54 Z" class="st9"/>
			</g>
			<g id="shape35-112" v:mID="35" v:groupContext="shape" transform="translate(0,-2.07692)">
				<title>Sheet.35</title>
				<path d="M0 410.54 L32.74 428.94 L32.76 428.07 L0 409.67 L0 410.54 ZM51.12 417.6 L32.76 428.07 L32.76 428.94 L54         416.85 L54 415.99 L51.12 417.6 Z" class="st10"/>
			</g>
			<g id="shape36-114" v:mID="36" v:groupContext="shape" transform="translate(21.6407,-13.9958)">
				<title>Sheet.36</title>
				<path d="M4.89 419.56 L0 422.35 L11.27 428.94 L16.12 426.13 L4.85 419.54 L4.89 419.56 Z" class="st11"/>
				<path d="M4.89 419.56 L0 422.35 L11.27 428.94 L16.12 426.13 L4.85 419.54" class="st12"/>
			</g>
			<g id="shape37-118" v:mID="37" v:groupContext="shape" transform="translate(31.8203,-20.7951)">
				<title>Sheet.37</title>
				<path d="M1.93 423.29 L1.9 423.38 L0 418.17 A39.8508 39.8508 0 0 1 0.63 411.26 A3.73226 3.73226 0 0 1 6.06 411.13         A12.0053 12.0053 0 0 1 12.83 424.74 L12.53 428.94 L1.93 423.29 Z" class="st13"/>
				<path d="M1.93 423.29 L1.9 423.38 L0 418.17 A39.8508 39.8508 0 0 1 0.63 411.26 A3.73226 3.73226 0 0 1 6.06 411.13         A12.0053 12.0053 0 0 1 12.83 424.74 L12.53 428.94" class="st7"/>
			</g>
			<g id="shape38-122" v:mID="38" v:groupContext="shape" transform="translate(33.1663,-31.8016)">
				<title>Sheet.38</title>
				<path d="M10.49 428.94 A10.432 10.432 -180 0 0 7.09 424.09 A8.1565 8.1565 -180 0 0 0 421.5 L4.73 418.9 A8.15807 8.15807         0 0 1 11.82 421.49 A10.474 10.474 0 0 1 15.19 426.25 L10.49 428.94 Z" class="st14"/>
				<path d="M10.49 428.94 A10.432 10.432 -180 0 0 7.09 424.09 A8.1565 8.1565 -180 0 0 0 421.5 L4.73 418.9 A8.15807 8.15807         0 0 1 11.82 421.49 A10.474 10.474 0 0 1 15.19 426.25" class="st7"/>
			</g>
			<g id="shape39-126" v:mID="39" v:groupContext="shape" transform="translate(43.657,-20.9597)">
				<title>Sheet.39</title>
				<path d="M4.7 415.41 A8.49544 8.49544 0 0 1 5.06 417.17 A52.856 52.856 0 0 1 5.33 426.07 A15.6694 15.6694 0 0 1 0.86         428.94 A1061.86 1061.86 -180 0 0 0.33 419.77 A8.40381 8.40381 -180 0 0 0.02 418.18 L0 418.1 A3.80207         3.80207 0 0 1 4.69 415.4 L4.7 415.41 Z" class="st15"/>
				<path d="M4.7 415.41 A8.49544 8.49544 0 0 1 5.06 417.17 A52.856 52.856 0 0 1 5.33 426.07 A15.6694 15.6694 0 0 1 0.86         428.94 A1061.86 1061.86 -180 0 0 0.33 419.77 A8.40381 8.40381 -180 0 0 0.02 418.18 L0 418.1 A3.80207         3.80207 0 0 1 4.69 415.4" class="st7"/>
			</g>
			<g id="shape40-130" v:mID="40" v:groupContext="shape" transform="translate(44.004,-18.4737)">
				<title>Sheet.40</title>
				<path d="M0 426.73 L4.26 424.31 L3.91 428.94 L0 426.73 Z" class="st16"/>
			</g>
			<g id="shape41-132" v:mID="41" v:groupContext="shape" transform="translate(31.2605,-16.3471)">
				<title>Sheet.41</title>
				<path d="M6.38 425.12 A2.73577 2.73577 0 0 1 4.28 428.34 A2.91784 2.91784 0 0 1 0.47 427.31 A2.73849 2.73849 0 0         1 2.58 424.1 A2.91703 2.91703 0 0 1 6.38 425.12 Z" class="st17"/>
			</g>
			<g id="shape42-135" v:mID="42" v:groupContext="shape" transform="translate(37.3663,-38.9648)">
				<title>Sheet.42</title>
				<path d="M0.14 426.54 L0.16 427.68 A2.03487 2.03487 -180 0 0 2.55 428.69 A5.69468 5.69468 -180 0 0 5.68 428.3 L5.65         426.14 A5.06872 5.06872 0 0 1 0.23 426.49 L0.14 426.54 Z" class="st18"/>
				<path d="M0.14 426.54 L0.16 427.68 A2.03487 2.03487 -180 0 0 2.55 428.69 A5.69468 5.69468 -180 0 0 5.68 428.3 L5.65         426.14 A5.06872 5.06872 0 0 1 0.23 426.49" class="st7"/>
			</g>
			<g id="shape43-139" v:mID="43" v:groupContext="shape" transform="translate(36.9357,-16.8568)">
				<title>Sheet.43</title>
				<path d="M7.53 420.94 L0.34 425.06 A2.04619 2.04619 0 0 1 0 428.02 A1.85248 1.85248 -180 0 0 2.71 427.71 L7.64 424.81         L7.53 420.94 Z" class="st19"/>
			</g>
			<g id="shape44-141" v:mID="44" v:groupContext="shape" transform="translate(27.6923,-23.3138)">
				<title>Sheet.44</title>
				<path d="M0.27 428.94 L6.28 425.57 L6.11 421.73 L0 425.09 L0.27 428.94 Z" class="st20"/>
				<path d="M0.27 428.94 L6.28 425.57 L6.11 421.73 L0 425.09" class="st7"/>
			</g>
			<g id="shape45-144" v:mID="45" v:groupContext="shape" transform="translate(35.2229,-40.5091)">
				<title>Sheet.45</title>
				<path d="M9.88 423.23 A5.36635 5.36635 0 0 1 4.94 428.94 A5.36635 5.36635 0 0 1 0 423.23 A5.3675 5.3675 0 0 1 4.94         417.53 A5.3675 5.3675 0 0 1 9.88 423.23 L-2.47 414.67 L9.88 423.23 Z" class="st21"/>
				<path d="M9.88 423.23 A5.36635 5.36635 0 0 1 4.94 428.94 A5.36635 5.36635 0 0 1 0 423.23 A5.3675 5.3675 0 0 1 4.94         417.53 A5.3675 5.3675 0 0 1 9.88 423.23" class="st22"/>
			</g>
			<g id="shape46-148" v:mID="46" v:groupContext="shape" transform="translate(27.552,-20.7139)">
				<title>Sheet.46</title>
				<path d="M-0 420.45 A1387.35 1387.35 -180 0 0 4.36 418 L6.24 419.1 L0.17 422.54 L0 420.45 ZM16.77 424.86 L9.73 428.94         A2.45009 2.45009 -180 0 0 7.55 428.2 A1.42182 1.42182 0 0 1 8.31 427.51 A395.138 395.138 -180 0 0 14.89         423.77 L16.77 424.86 Z" class="st20"/>
				<path d="M-0 420.45 A1387.35 1387.35 -180 0 0 4.36 418 L6.24 419.1 L0.17 422.54M16.77 424.86 L9.73 428.94 A2.45009         2.45009 -180 0 0 7.55 428.2 A1.42182 1.42182 0 0 1 8.31 427.51 A395.138 395.138 -180 0 0 14.89 423.77         L16.77 424.86" class="st7"/>
			</g>
			<g id="shape47-151" v:mID="47" v:groupContext="shape" transform="translate(27.5357,-16.6109)">
				<title>Sheet.47</title>
				<path d="M6.34 419.04 L6.16 411.74 L6.34 419.04 ZM0.43 422.23 L6.39 419 L0.43 422.23 ZM14.86 416.54 L14.86 419.66         L8.96 423.04 A4.12087 4.12087 -180 0 0 7.61 424.03 A4.17932 4.17932 -180 0 0 4.37 425.86 A2.2379 2.2379         -180 0 0 7.49 428.81 A4.74779 4.74779 -180 0 0 9.38 427.8 A3.17032 3.17032 -180 0 0 13.07 426.94 L20.73         422.45 A3.17103 3.17103 -180 0 0 21.61 419.65 A605.106 605.106 -180 0 0 21.21 412.86 A9.84699 9.84699         -180 0 0 17.48 406.34 A18.3923 18.3923 -180 0 0 15.51 404.91 L15.48 404.03 A5.68706 5.68706 -180 0 0         17.58 399.47 A5.3583 5.3583 -180 0 0 12.63 393.63 A5.28975 5.28975 -180 0 0 7.73 399.47 A6.0478 6.0478         -180 0 0 9.76 404.1 L5.66 406.35 A2.74101 2.74101 -180 0 0 4.51 408.74 L4.29 413.92 A89.9117 89.9117         -180 0 0 -0 416.3 L14.86 416.54 Z" class="st23"/>
				<path d="M6.34 419.04 L6.16 411.74M0.43 422.23 L6.39 419M14.86 416.54 L14.86 419.66 L8.96 423.04 A4.12087 4.12087         -180 0 0 7.61 424.03 A4.17932 4.17932 -180 0 0 4.37 425.86 A2.2379 2.2379 -180 0 0 7.49 428.81 A4.74779         4.74779 -180 0 0 9.38 427.8 A3.17032 3.17032 -180 0 0 13.07 426.94 L20.73 422.45 A3.17103 3.17103 -180         0 0 21.61 419.65 A605.106 605.106 -180 0 0 21.21 412.86 A9.84699 9.84699 -180 0 0 17.48 406.34 A18.3923         18.3923 -180 0 0 15.51 404.91 L15.48 404.03 A5.68706 5.68706 -180 0 0 17.58 399.47 A5.3583 5.3583 -180         0 0 12.63 393.63 A5.28975 5.28975 -180 0 0 7.73 399.47 A6.0478 6.0478 -180 0 0 9.76 404.1 L5.66 406.35         A2.74101 2.74101 -180 0 0 4.51 408.74 L4.29 413.92 A89.9117 89.9117 -180 0 0 -0 416.3" class="st12"/>
			</g>
			<g id="shape48-154" v:mID="48" v:groupContext="shape" transform="translate(21.6407,-13.0954)">
				<title>Sheet.48</title>
				<path d="M5.64 424.66 L0 421.29 L0 422.22 L5.71 425.63 L5.77 426.51 L6.48 426.09 L11.26 428.93 L17 425.63 L16.12         425.14 L11.27 428.01 L6.74 425.31 L5.74 410.63 L4.59 411.28 L5.64 424.66 Z" class="st24"/>
			</g>
			<g id="shape49-156" v:mID="49" v:groupContext="shape" transform="translate(14.3752,-30.7576)">
				<title>Sheet.49</title>
				<path d="M11.85 428.94 L0 422.38 L1.14 421.82 L13.01 428.29 L11.85 428.94 Z" class="st25"/>
			</g>
			<g id="shape50-159" v:mID="50" v:groupContext="shape" transform="translate(14.6409,-13.368)">
				<title>Sheet.50</title>
				<path d="M11.82 426.28 A5.40889 5.40889 0 0 1 5.91 428.94 A5.40411 5.40411 0 0 1 -0 426.28 A5.4051 5.4051 0 0 1 5.91         423.62 A5.40987 5.40987 0 0 1 11.82 426.28 Z" class="st26"/>
			</g>
			<g id="shape51-162" v:mID="51" v:groupContext="shape" transform="translate(14.3814,-15.5235)">
				<title>Sheet.51</title>
				<path d="M0 407.13 L1 422.3 L13.03 428.94 L11.85 413.61 L0 407.13 Z" class="st27"/>
			</g>
			<g id="shape52-165" v:mID="52" v:groupContext="shape" transform="translate(15.8482,-13.7319)">
				<title>Sheet.52</title>
				<path d="M3.3 417.88 A22.0156 22.0156 -180 0 0 -0 428.18 L1.92 428.94 A22.0235 22.0235 0 0 1 5.22 418.63 L3.3 417.88         Z" class="st28"/>
			</g>
			<g id="shape53-168" v:mID="53" v:groupContext="shape" transform="translate(14.632,-12.2899)">
				<title>Sheet.53</title>
				<path d="M6.43 417.19 L7.08 425.34 L3.18 427.55 A22.5254 22.5254 0 0 1 6.43 417.19 ZM11.82 425.24 A5.40793 5.40793         0 0 1 5.91 427.9 A5.40538 5.40538 0 0 1 0 425.24 L0 426.28 A5.40425 5.40425 -180 0 0 5.91 428.94 A5.40924         5.40924 -180 0 0 11.82 426.28 L11.82 425.24 Z" class="st29"/>
			</g>
			<g id="shape54-170" v:mID="54" v:groupContext="shape" transform="translate(0,-2.07692)">
				<title>Sheet.54</title>
				<path d="M37.3 389.56 L33.44 391.62 A2.37823 2.37823 -180 0 0 32.46 392.54 A26.628 26.628 -180 0 0 31.82 399.39 A55.544         55.544 -180 0 0 27.55 401.82 L27.52 400.81 L27.38 399.61 L15.51 393.14 L14.38 393.7 L14.88 401.22 L0         409.67 L0 410.54 L32.74 428.94 L54 416.85 L54 415.99 L50.89 414.23 L51.53 399.47 L48.69 397.85 A11.2315         11.2315 -180 0 0 43.05 390.37 A33.3456 33.3456 0 0 1 43.02 389.5 A5.81693 5.81693 -180 0 0 45.11 384.58         A5.25127 5.25127 -180 0 0 40.16 379.09 A5.15954 5.15954 -180 0 0 35.23 384.5 A6.04773 6.04773 -180 0         0 37.3 389.56 Z" class="st30"/>
			</g>
			<g id="shape30-172" v:mID="30" v:groupContext="groupContent">
				<v:textBlock v:margins="rect(4,4,4,4)"/>
				<v:textRect cx="27" cy="440.142" width="66.78" height="22.4037"/>
				<text x="-1.03" y="443.74" class="st31" v:langID="1033"><v:paragraph v:horizAlign="1"/><v:tabList/>Adjuster #2</text>			</g>
		</g>
		<g id="group55-174" transform="translate(325.44,-140.94)" v:mID="55" v:groupContext="group">
			<v:userDefs>
				<v:ud v:nameU="SkinColor" v:prompt="" v:val="VT5(#da8c36)"/>
				<v:ud v:nameU="visVersion" v:prompt="" v:val="VT0(14):26"/>
				<v:ud v:nameU="msvThemeColors" v:val="VT0(254):26"/>
			</v:userDefs>
			<title>User.55</title>
			<desc>Adjuster #3</desc>
			<g id="shape56-175" v:mID="56" v:groupContext="shape" transform="translate(0,-2.07692)">
				<title>Sheet.56</title>
				<path d="M37.3 389.56 L33.44 391.62 A2.27692 2.27692 -180 0 0 32.46 392.54 A28.0361 28.0361 -180 0 0 31.82 399.39         A37.1943 37.1943 -180 0 0 27.55 401.82 L27.52 400.81 L27.38 399.61 L15.51 393.14 L14.38 393.7 L14.88         401.22 L0 409.67 L0 410.54 L32.74 428.94 L54 416.85 L54 415.99 L50.89 414.23 L51.53 399.47 L48.69 397.85         A10.6718 10.6718 -180 0 0 43.05 390.37 A32.0289 32.0289 0 0 1 43.02 389.5 A5.80599 5.80599 -180 0 0         45.11 384.58 A5.17788 5.17788 -180 0 0 40.16 379.09 A5.14456 5.14456 -180 0 0 35.23 384.5 A5.90563 5.90563         -180 0 0 37.3 389.56 Z" class="st5"/>
			</g>
			<g id="shape57-177" v:mID="57" v:groupContext="shape" transform="translate(47.9101,-16.7895)">
				<title>Sheet.57</title>
				<path d="M0 427.26 L0.31 412.31 L3.62 414.18 L2.98 428.94 L1.45 428.08 L0 427.26 Z" class="st6"/>
				<path d="M0 427.26 L0.31 412.31 L3.62 414.18 L2.98 428.94 L1.45 428.08" class="st7"/>
			</g>
			<g id="shape58-180" v:mID="58" v:groupContext="shape" transform="translate(48.6855,-30.8721)">
				<title>Sheet.58</title>
				<path d="M0 426.64 L2.84 428.27 L1.29 428.94 L0.02 428.17 L0 426.64 Z" class="st8"/>
				<path d="M0 426.64 L2.84 428.27 L1.29 428.94 L0.02 428.17" class="st7"/>
			</g>
			<g id="shape59-184" v:mID="59" v:groupContext="shape" transform="translate(0,-2.94364)">
				<title>Sheet.59</title>
				<path d="M0 410.54 L21.36 398.4 L54 416.85 L32.76 428.94 L0 410.54 Z" class="st9"/>
			</g>
			<g id="shape60-187" v:mID="60" v:groupContext="shape" transform="translate(0,-2.07692)">
				<title>Sheet.60</title>
				<path d="M0 410.54 L32.74 428.94 L32.76 428.07 L0 409.67 L0 410.54 ZM51.12 417.6 L32.76 428.07 L32.76 428.94 L54         416.85 L54 415.99 L51.12 417.6 Z" class="st10"/>
			</g>
			<g id="shape61-189" v:mID="61" v:groupContext="shape" transform="translate(21.6407,-13.9958)">
				<title>Sheet.61</title>
				<path d="M4.89 419.56 L0 422.35 L11.27 428.94 L16.12 426.13 L4.85 419.54 L4.89 419.56 Z" class="st11"/>
				<path d="M4.89 419.56 L0 422.35 L11.27 428.94 L16.12 426.13 L4.85 419.54" class="st12"/>
			</g>
			<g id="shape62-193" v:mID="62" v:groupContext="shape" transform="translate(31.8203,-20.7951)">
				<title>Sheet.62</title>
				<path d="M1.93 423.29 L1.9 423.38 L0 418.17 A39.8508 39.8508 0 0 1 0.63 411.26 A3.73226 3.73226 0 0 1 6.06 411.13         A12.0053 12.0053 0 0 1 12.83 424.74 L12.53 428.94 L1.93 423.29 Z" class="st13"/>
				<path d="M1.93 423.29 L1.9 423.38 L0 418.17 A39.8508 39.8508 0 0 1 0.63 411.26 A3.73226 3.73226 0 0 1 6.06 411.13         A12.0053 12.0053 0 0 1 12.83 424.74 L12.53 428.94" class="st7"/>
			</g>
			<g id="shape63-197" v:mID="63" v:groupContext="shape" transform="translate(33.1663,-31.8016)">
				<title>Sheet.63</title>
				<path d="M10.49 428.94 A10.432 10.432 -180 0 0 7.09 424.09 A8.1565 8.1565 -180 0 0 0 421.5 L4.73 418.9 A8.15807 8.15807         0 0 1 11.82 421.49 A10.474 10.474 0 0 1 15.19 426.25 L10.49 428.94 Z" class="st14"/>
				<path d="M10.49 428.94 A10.432 10.432 -180 0 0 7.09 424.09 A8.1565 8.1565 -180 0 0 0 421.5 L4.73 418.9 A8.15807 8.15807         0 0 1 11.82 421.49 A10.474 10.474 0 0 1 15.19 426.25" class="st7"/>
			</g>
			<g id="shape64-201" v:mID="64" v:groupContext="shape" transform="translate(43.657,-20.9597)">
				<title>Sheet.64</title>
				<path d="M4.7 415.41 A8.49544 8.49544 0 0 1 5.06 417.17 A52.856 52.856 0 0 1 5.33 426.07 A15.6694 15.6694 0 0 1 0.86         428.94 A1061.86 1061.86 -180 0 0 0.33 419.77 A8.40381 8.40381 -180 0 0 0.02 418.18 L0 418.1 A3.80207         3.80207 0 0 1 4.69 415.4 L4.7 415.41 Z" class="st15"/>
				<path d="M4.7 415.41 A8.49544 8.49544 0 0 1 5.06 417.17 A52.856 52.856 0 0 1 5.33 426.07 A15.6694 15.6694 0 0 1 0.86         428.94 A1061.86 1061.86 -180 0 0 0.33 419.77 A8.40381 8.40381 -180 0 0 0.02 418.18 L0 418.1 A3.80207         3.80207 0 0 1 4.69 415.4" class="st7"/>
			</g>
			<g id="shape65-205" v:mID="65" v:groupContext="shape" transform="translate(44.004,-18.4737)">
				<title>Sheet.65</title>
				<path d="M0 426.73 L4.26 424.31 L3.91 428.94 L0 426.73 Z" class="st16"/>
			</g>
			<g id="shape66-207" v:mID="66" v:groupContext="shape" transform="translate(31.2605,-16.3471)">
				<title>Sheet.66</title>
				<path d="M6.38 425.12 A2.73577 2.73577 0 0 1 4.28 428.34 A2.91784 2.91784 0 0 1 0.47 427.31 A2.73849 2.73849 0 0         1 2.58 424.1 A2.91703 2.91703 0 0 1 6.38 425.12 Z" class="st17"/>
			</g>
			<g id="shape67-210" v:mID="67" v:groupContext="shape" transform="translate(37.3663,-38.9648)">
				<title>Sheet.67</title>
				<path d="M0.14 426.54 L0.16 427.68 A2.03487 2.03487 -180 0 0 2.55 428.69 A5.69468 5.69468 -180 0 0 5.68 428.3 L5.65         426.14 A5.06872 5.06872 0 0 1 0.23 426.49 L0.14 426.54 Z" class="st18"/>
				<path d="M0.14 426.54 L0.16 427.68 A2.03487 2.03487 -180 0 0 2.55 428.69 A5.69468 5.69468 -180 0 0 5.68 428.3 L5.65         426.14 A5.06872 5.06872 0 0 1 0.23 426.49" class="st7"/>
			</g>
			<g id="shape68-214" v:mID="68" v:groupContext="shape" transform="translate(36.9357,-16.8568)">
				<title>Sheet.68</title>
				<path d="M7.53 420.94 L0.34 425.06 A2.04619 2.04619 0 0 1 0 428.02 A1.85248 1.85248 -180 0 0 2.71 427.71 L7.64 424.81         L7.53 420.94 Z" class="st19"/>
			</g>
			<g id="shape69-216" v:mID="69" v:groupContext="shape" transform="translate(27.6923,-23.3138)">
				<title>Sheet.69</title>
				<path d="M0.27 428.94 L6.28 425.57 L6.11 421.73 L0 425.09 L0.27 428.94 Z" class="st20"/>
				<path d="M0.27 428.94 L6.28 425.57 L6.11 421.73 L0 425.09" class="st7"/>
			</g>
			<g id="shape70-219" v:mID="70" v:groupContext="shape" transform="translate(35.2229,-40.5091)">
				<title>Sheet.70</title>
				<path d="M9.88 423.23 A5.36635 5.36635 0 0 1 4.94 428.94 A5.36635 5.36635 0 0 1 0 423.23 A5.3675 5.3675 0 0 1 4.94         417.53 A5.3675 5.3675 0 0 1 9.88 423.23 L-2.47 414.67 L9.88 423.23 Z" class="st21"/>
				<path d="M9.88 423.23 A5.36635 5.36635 0 0 1 4.94 428.94 A5.36635 5.36635 0 0 1 0 423.23 A5.3675 5.3675 0 0 1 4.94         417.53 A5.3675 5.3675 0 0 1 9.88 423.23" class="st22"/>
			</g>
			<g id="shape71-223" v:mID="71" v:groupContext="shape" transform="translate(27.552,-20.7139)">
				<title>Sheet.71</title>
				<path d="M-0 420.45 A1387.35 1387.35 -180 0 0 4.36 418 L6.24 419.1 L0.17 422.54 L0 420.45 ZM16.77 424.86 L9.73 428.94         A2.45009 2.45009 -180 0 0 7.55 428.2 A1.42182 1.42182 0 0 1 8.31 427.51 A395.138 395.138 -180 0 0 14.89         423.77 L16.77 424.86 Z" class="st20"/>
				<path d="M-0 420.45 A1387.35 1387.35 -180 0 0 4.36 418 L6.24 419.1 L0.17 422.54M16.77 424.86 L9.73 428.94 A2.45009         2.45009 -180 0 0 7.55 428.2 A1.42182 1.42182 0 0 1 8.31 427.51 A395.138 395.138 -180 0 0 14.89 423.77         L16.77 424.86" class="st7"/>
			</g>
			<g id="shape72-226" v:mID="72" v:groupContext="shape" transform="translate(27.5357,-16.6109)">
				<title>Sheet.72</title>
				<path d="M6.34 419.04 L6.16 411.74 L6.34 419.04 ZM0.43 422.23 L6.39 419 L0.43 422.23 ZM14.86 416.54 L14.86 419.66         L8.96 423.04 A4.12087 4.12087 -180 0 0 7.61 424.03 A4.17932 4.17932 -180 0 0 4.37 425.86 A2.2379 2.2379         -180 0 0 7.49 428.81 A4.74779 4.74779 -180 0 0 9.38 427.8 A3.17032 3.17032 -180 0 0 13.07 426.94 L20.73         422.45 A3.17103 3.17103 -180 0 0 21.61 419.65 A605.106 605.106 -180 0 0 21.21 412.86 A9.84699 9.84699         -180 0 0 17.48 406.34 A18.3923 18.3923 -180 0 0 15.51 404.91 L15.48 404.03 A5.68706 5.68706 -180 0 0         17.58 399.47 A5.3583 5.3583 -180 0 0 12.63 393.63 A5.28975 5.28975 -180 0 0 7.73 399.47 A6.0478 6.0478         -180 0 0 9.76 404.1 L5.66 406.35 A2.74101 2.74101 -180 0 0 4.51 408.74 L4.29 413.92 A89.9117 89.9117         -180 0 0 -0 416.3 L14.86 416.54 Z" class="st23"/>
				<path d="M6.34 419.04 L6.16 411.74M0.43 422.23 L6.39 419M14.86 416.54 L14.86 419.66 L8.96 423.04 A4.12087 4.12087         -180 0 0 7.61 424.03 A4.17932 4.17932 -180 0 0 4.37 425.86 A2.2379 2.2379 -180 0 0 7.49 428.81 A4.74779         4.74779 -180 0 0 9.38 427.8 A3.17032 3.17032 -180 0 0 13.07 426.94 L20.73 422.45 A3.17103 3.17103 -180         0 0 21.61 419.65 A605.106 605.106 -180 0 0 21.21 412.86 A9.84699 9.84699 -180 0 0 17.48 406.34 A18.3923         18.3923 -180 0 0 15.51 404.91 L15.48 404.03 A5.68706 5.68706 -180 0 0 17.58 399.47 A5.3583 5.3583 -180         0 0 12.63 393.63 A5.28975 5.28975 -180 0 0 7.73 399.47 A6.0478 6.0478 -180 0 0 9.76 404.1 L5.66 406.35         A2.74101 2.74101 -180 0 0 4.51 408.74 L4.29 413.92 A89.9117 89.9117 -180 0 0 -0 416.3" class="st12"/>
			</g>
			<g id="shape73-229" v:mID="73" v:groupContext="shape" transform="translate(21.6407,-13.0954)">
				<title>Sheet.73</title>
				<path d="M5.64 424.66 L0 421.29 L0 422.22 L5.71 425.63 L5.77 426.51 L6.48 426.09 L11.26 428.93 L17 425.63 L16.12         425.14 L11.27 428.01 L6.74 425.31 L5.74 410.63 L4.59 411.28 L5.64 424.66 Z" class="st24"/>
			</g>
			<g id="shape74-231" v:mID="74" v:groupContext="shape" transform="translate(14.3752,-30.7576)">
				<title>Sheet.74</title>
				<path d="M11.85 428.94 L0 422.38 L1.14 421.82 L13.01 428.29 L11.85 428.94 Z" class="st25"/>
			</g>
			<g id="shape75-234" v:mID="75" v:groupContext="shape" transform="translate(14.6409,-13.368)">
				<title>Sheet.75</title>
				<path d="M11.82 426.28 A5.40889 5.40889 0 0 1 5.91 428.94 A5.40411 5.40411 0 0 1 -0 426.28 A5.4051 5.4051 0 0 1 5.91         423.62 A5.40987 5.40987 0 0 1 11.82 426.28 Z" class="st26"/>
			</g>
			<g id="shape76-237" v:mID="76" v:groupContext="shape" transform="translate(14.3814,-15.5235)">
				<title>Sheet.76</title>
				<path d="M0 407.13 L1 422.3 L13.03 428.94 L11.85 413.61 L0 407.13 Z" class="st27"/>
			</g>
			<g id="shape77-240" v:mID="77" v:groupContext="shape" transform="translate(15.8482,-13.7319)">
				<title>Sheet.77</title>
				<path d="M3.3 417.88 A22.0156 22.0156 -180 0 0 -0 428.18 L1.92 428.94 A22.0235 22.0235 0 0 1 5.22 418.63 L3.3 417.88         Z" class="st28"/>
			</g>
			<g id="shape78-243" v:mID="78" v:groupContext="shape" transform="translate(14.632,-12.2899)">
				<title>Sheet.78</title>
				<path d="M6.43 417.19 L7.08 425.34 L3.18 427.55 A22.5254 22.5254 0 0 1 6.43 417.19 ZM11.82 425.24 A5.40793 5.40793         0 0 1 5.91 427.9 A5.40538 5.40538 0 0 1 0 425.24 L0 426.28 A5.40425 5.40425 -180 0 0 5.91 428.94 A5.40924         5.40924 -180 0 0 11.82 426.28 L11.82 425.24 Z" class="st29"/>
			</g>
			<g id="shape79-245" v:mID="79" v:groupContext="shape" transform="translate(0,-2.07692)">
				<title>Sheet.79</title>
				<path d="M37.3 389.56 L33.44 391.62 A2.37823 2.37823 -180 0 0 32.46 392.54 A26.628 26.628 -180 0 0 31.82 399.39 A55.544         55.544 -180 0 0 27.55 401.82 L27.52 400.81 L27.38 399.61 L15.51 393.14 L14.38 393.7 L14.88 401.22 L0         409.67 L0 410.54 L32.74 428.94 L54 416.85 L54 415.99 L50.89 414.23 L51.53 399.47 L48.69 397.85 A11.2315         11.2315 -180 0 0 43.05 390.37 A33.3456 33.3456 0 0 1 43.02 389.5 A5.81693 5.81693 -180 0 0 45.11 384.58         A5.25127 5.25127 -180 0 0 40.16 379.09 A5.15954 5.15954 -180 0 0 35.23 384.5 A6.04773 6.04773 -180 0         0 37.3 389.56 Z" class="st30"/>
			</g>
			<g id="shape55-247" v:mID="55" v:groupContext="groupContent">
				<v:textBlock v:margins="rect(4,4,4,4)"/>
				<v:textRect cx="27" cy="440.142" width="66.78" height="22.4037"/>
				<text x="-1.03" y="443.74" class="st31" v:langID="1033"><v:paragraph v:horizAlign="1"/><v:tabList/>Adjuster #3</text>			</g>
		</g>
		<g id="group119-249" transform="translate(95.94,-118.44)" v:mID="119" v:groupContext="group">
			<v:userDefs>
				<v:ud v:nameU="SkinColor" v:prompt="" v:val="VT5(#da8c36)"/>
				<v:ud v:nameU="visVersion" v:prompt="" v:val="VT0(14):26"/>
				<v:ud v:nameU="msvThemeColors" v:val="VT0(254):26"/>
			</v:userDefs>
			<title>Document collection</title>
			<desc>Assignable Work</desc>
			<g id="shape120-250" v:mID="120" v:groupContext="shape" transform="translate(3.19652,-3.41061E-013)">
				<title>Sheet.120</title>
				<path d="M0 408.7 L5.31 411.73 L24.85 422.9 L56.61 404.54 L49.48 400.39 L51.14 395.04 L32.06 383.94 L0.24 402.36         L5.61 405.47 L0 408.7 ZM0.24 414.7 L24.85 428.94 L56.61 410.58 L51.5 407.59 L24.85 422.9 L5.32 411.74         L0.24 414.7 Z" class="st5"/>
			</g>
			<g id="shape121-252" v:mID="121" v:groupContext="shape" transform="translate(3.19652,-0.000732995)">
				<title>Sheet.121</title>
				<path d="M0.24 414.7 L5.33 411.72 L24.85 422.9 L51.5 407.59 L56.61 410.58 L24.85 428.94 L0.24 414.7 ZM0 408.7 L32.06         390.24 L56.61 404.54 L24.85 422.9 L0 408.7 Z" class="st32"/>
			</g>
			<g id="shape122-255" v:mID="122" v:groupContext="shape" transform="translate(3.4406,-12.34)">
				<title>Sheet.122</title>
				<path d="M50.9 407.38 L31.82 396.28 L0 414.7 L24.61 428.94 L48.49 415.13 L50.9 407.38 Z" class="st32"/>
			</g>
			<g id="shape123-258" v:mID="123" v:groupContext="shape" transform="translate(45.3752,-25.6724)">
				<title>Sheet.123</title>
				<path d="M1.04 425.11 L6.34 428.31 L5.2 428.94 L0 425.89 L1.04 425.11 Z" class="st20"/>
				<path d="M1.04 425.11 L6.34 428.31 L5.2 428.94 L0 425.89" class="st7"/>
			</g>
			<g id="shape124-261" v:mID="124" v:groupContext="shape" transform="translate(46.4183,-26.1474)">
				<title>Sheet.124</title>
				<path d="M5.51 428.94 L0 425.58 L7.92 421.19 L5.51 428.94 Z" class="st33"/>
			</g>
			<g id="shape125-264" v:mID="125" v:groupContext="shape" transform="translate(13.1828,-18.6796)">
				<title>Sheet.125</title>
				<path d="M16.96 428.94 L0 419.11 L16.96 428.94 ZM21.5 426.49 L4.4 416.58 L21.5 426.49 ZM26.12 423.69 L9.11 413.83         L26.12 423.69 ZM30.8 420.98 L13.78 411.11 L30.8 420.98 ZM29.65 415.38 L17.86 408.55 L29.65 415.38 Z" class="st23"/>
				<path d="M16.96 428.94 L0 419.11M21.5 426.49 L4.4 416.58M26.12 423.69 L9.11 413.83M30.8 420.98 L13.78 411.11M29.65         415.38 L17.86 408.55" class="st34"/>
			</g>
			<g id="shape126-267" v:mID="126" v:groupContext="shape" transform="translate(3.19652,-0.000732995)">
				<title>Sheet.126</title>
				<path d="M51.5 407.59 L56.61 404.54 L49.49 400.39 L51.14 395.04 L32.06 383.94 L0.24 402.36 L5.48 405.44 L0 408.7         L5.33 411.72 L0.24 414.7 L24.85 428.94 L56.61 410.58 L51.5 407.59 Z" class="st30"/>
			</g>
			<g id="shape119-269" v:mID="119" v:groupContext="groupContent">
				<v:textBlock v:margins="rect(4,4,4,4)"/>
				<v:textRect cx="31.5" cy="440.142" width="91.89" height="22.4037"/>
				<text x="-9.09" y="443.74" class="st31" v:langID="1033"><v:paragraph v:horizAlign="1"/><v:tabList/>Assignable Work</text>			</g>
		</g>
		<g id="group80-271" transform="translate(184.962,-343.676)" v:mID="80" v:groupContext="group">
			<v:userDefs>
				<v:ud v:nameU="SkinColor" v:prompt="" v:val="VT5(#da8c36)"/>
				<v:ud v:nameU="visVersion" v:prompt="" v:val="VT0(14):26"/>
				<v:ud v:nameU="msvThemeColors" v:val="VT0(254):26"/>
			</v:userDefs>
			<title>Document collection.80</title>
			<g id="shape81-272" v:mID="81" v:groupContext="shape" transform="translate(2.04951,-2.27374E-013)">
				<title>Sheet.81</title>
				<path d="M0 415.96 L3.4 417.91 L15.93 425.06 L36.29 413.29 L31.73 410.63 L32.79 407.21 L20.56 400.09 L0.16 411.9         L3.6 413.89 L0 415.96 ZM0.16 419.81 L15.93 428.94 L36.29 417.17 L33.02 415.25 L15.93 425.06 L3.41 417.91         L0.16 419.81 Z" class="st5"/>
			</g>
			<g id="shape82-274" v:mID="82" v:groupContext="shape" transform="translate(2.04951,-0.000469974)">
				<title>Sheet.82</title>
				<path d="M0.16 419.81 L3.41 417.9 L15.93 425.06 L33.02 415.25 L36.29 417.17 L15.93 428.94 L0.16 419.81 ZM0 415.96         L20.56 404.12 L36.29 413.29 L15.93 425.06 L0 415.96 Z" class="st32"/>
			</g>
			<g id="shape83-277" v:mID="83" v:groupContext="shape" transform="translate(2.20601,-7.91201)">
				<title>Sheet.83</title>
				<path d="M32.63 415.12 L20.4 408 L0 419.81 L15.78 428.94 L31.09 420.09 L32.63 415.12 Z" class="st32"/>
			</g>
			<g id="shape84-280" v:mID="84" v:groupContext="shape" transform="translate(29.0932,-16.4604)">
				<title>Sheet.84</title>
				<path d="M0.67 426.48 L4.07 428.53 L3.34 428.94 L0 426.99 L0.67 426.48 Z" class="st20"/>
				<path d="M0.67 426.48 L4.07 428.53 L3.34 428.94 L0 426.99" class="st7"/>
			</g>
			<g id="shape85-283" v:mID="85" v:groupContext="shape" transform="translate(29.762,-16.7649)">
				<title>Sheet.85</title>
				<path d="M3.53 428.94 L0 426.79 L5.08 423.97 L3.53 428.94 Z" class="st33"/>
			</g>
			<g id="shape86-286" v:mID="86" v:groupContext="shape" transform="translate(8.45244,-11.9768)">
				<title>Sheet.86</title>
				<path d="M10.87 428.94 L0 422.64 L10.87 428.94 ZM13.78 427.37 L2.82 421.02 L13.78 427.37 ZM16.75 425.57 L5.84 419.25         L16.75 425.57 ZM19.75 423.83 L8.83 417.51 L19.75 423.83 ZM19.01 420.25 L11.45 415.87 L19.01 420.25 Z" class="st23"/>
				<path d="M10.87 428.94 L0 422.64M13.78 427.37 L2.82 421.02M16.75 425.57 L5.84 419.25M19.75 423.83 L8.83 417.51M19.01         420.25 L11.45 415.87" class="st34"/>
			</g>
			<g id="shape87-289" v:mID="87" v:groupContext="shape" transform="translate(2.04951,-0.000469974)">
				<title>Sheet.87</title>
				<path d="M33.02 415.25 L36.29 413.29 L31.73 410.64 L32.79 407.21 L20.56 400.09 L0.16 411.9 L3.52 413.88 L0 415.96         L3.41 417.9 L0.16 419.81 L15.93 428.94 L36.29 417.17 L33.02 415.25 Z" class="st30"/>
			</g>
		</g>
		<g id="group88-291" transform="translate(215.243,-324.514)" v:mID="88" v:groupContext="group">
			<v:userDefs>
				<v:ud v:nameU="SkinColor" v:prompt="" v:val="VT5(#da8c36)"/>
				<v:ud v:nameU="visVersion" v:prompt="" v:val="VT0(14):26"/>
				<v:ud v:nameU="msvThemeColors" v:val="VT0(254):26"/>
			</v:userDefs>
			<title>Document collection.88</title>
			<g id="shape89-292" v:mID="89" v:groupContext="shape" transform="translate(2.04951,-2.27374E-013)">
				<title>Sheet.89</title>
				<path d="M0 415.96 L3.4 417.91 L15.93 425.06 L36.29 413.29 L31.73 410.63 L32.79 407.21 L20.56 400.09 L0.16 411.9         L3.6 413.89 L0 415.96 ZM0.16 419.81 L15.93 428.94 L36.29 417.17 L33.02 415.25 L15.93 425.06 L3.41 417.91         L0.16 419.81 Z" class="st5"/>
			</g>
			<g id="shape90-294" v:mID="90" v:groupContext="shape" transform="translate(2.04951,-0.000469974)">
				<title>Sheet.90</title>
				<path d="M0.16 419.81 L3.41 417.9 L15.93 425.06 L33.02 415.25 L36.29 417.17 L15.93 428.94 L0.16 419.81 ZM0 415.96         L20.56 404.12 L36.29 413.29 L15.93 425.06 L0 415.96 Z" class="st32"/>
			</g>
			<g id="shape91-297" v:mID="91" v:groupContext="shape" transform="translate(2.20601,-7.91201)">
				<title>Sheet.91</title>
				<path d="M32.63 415.12 L20.4 408 L0 419.81 L15.78 428.94 L31.09 420.09 L32.63 415.12 Z" class="st32"/>
			</g>
			<g id="shape92-300" v:mID="92" v:groupContext="shape" transform="translate(29.0932,-16.4604)">
				<title>Sheet.92</title>
				<path d="M0.67 426.48 L4.07 428.53 L3.34 428.94 L0 426.99 L0.67 426.48 Z" class="st20"/>
				<path d="M0.67 426.48 L4.07 428.53 L3.34 428.94 L0 426.99" class="st7"/>
			</g>
			<g id="shape93-303" v:mID="93" v:groupContext="shape" transform="translate(29.762,-16.7649)">
				<title>Sheet.93</title>
				<path d="M3.53 428.94 L0 426.79 L5.08 423.97 L3.53 428.94 Z" class="st33"/>
			</g>
			<g id="shape94-306" v:mID="94" v:groupContext="shape" transform="translate(8.45244,-11.9768)">
				<title>Sheet.94</title>
				<path d="M10.87 428.94 L0 422.64 L10.87 428.94 ZM13.78 427.37 L2.82 421.02 L13.78 427.37 ZM16.75 425.57 L5.84 419.25         L16.75 425.57 ZM19.75 423.83 L8.83 417.51 L19.75 423.83 ZM19.01 420.25 L11.45 415.87 L19.01 420.25 Z" class="st23"/>
				<path d="M10.87 428.94 L0 422.64M13.78 427.37 L2.82 421.02M16.75 425.57 L5.84 419.25M19.75 423.83 L8.83 417.51M19.01         420.25 L11.45 415.87" class="st34"/>
			</g>
			<g id="shape95-309" v:mID="95" v:groupContext="shape" transform="translate(2.04951,-0.000469974)">
				<title>Sheet.95</title>
				<path d="M33.02 415.25 L36.29 413.29 L31.73 410.64 L32.79 407.21 L20.56 400.09 L0.16 411.9 L3.52 413.88 L0 415.96         L3.41 417.9 L0.16 419.81 L15.93 428.94 L36.29 417.17 L33.02 415.25 Z" class="st30"/>
			</g>
		</g>
		<g id="group104-311" transform="translate(289.546,-269.363)" v:mID="104" v:groupContext="group">
			<v:userDefs>
				<v:ud v:nameU="SkinColor" v:prompt="" v:val="VT5(#da8c36)"/>
				<v:ud v:nameU="visVersion" v:prompt="" v:val="VT0(14):26"/>
				<v:ud v:nameU="msvThemeColors" v:val="VT0(254):26"/>
			</v:userDefs>
			<title>Document collection.104</title>
			<g id="shape105-312" v:mID="105" v:groupContext="shape" transform="translate(2.04951,-2.27374E-013)">
				<title>Sheet.105</title>
				<path d="M0 415.96 L3.4 417.91 L15.93 425.06 L36.29 413.29 L31.73 410.63 L32.79 407.21 L20.56 400.09 L0.16 411.9         L3.6 413.89 L0 415.96 ZM0.16 419.81 L15.93 428.94 L36.29 417.17 L33.02 415.25 L15.93 425.06 L3.41 417.91         L0.16 419.81 Z" class="st5"/>
			</g>
			<g id="shape106-314" v:mID="106" v:groupContext="shape" transform="translate(2.04951,-0.000469974)">
				<title>Sheet.106</title>
				<path d="M0.16 419.81 L3.41 417.9 L15.93 425.06 L33.02 415.25 L36.29 417.17 L15.93 428.94 L0.16 419.81 ZM0 415.96         L20.56 404.12 L36.29 413.29 L15.93 425.06 L0 415.96 Z" class="st32"/>
			</g>
			<g id="shape107-317" v:mID="107" v:groupContext="shape" transform="translate(2.20601,-7.91201)">
				<title>Sheet.107</title>
				<path d="M32.63 415.12 L20.4 408 L0 419.81 L15.78 428.94 L31.09 420.09 L32.63 415.12 Z" class="st32"/>
			</g>
			<g id="shape108-320" v:mID="108" v:groupContext="shape" transform="translate(29.0932,-16.4604)">
				<title>Sheet.108</title>
				<path d="M0.67 426.48 L4.07 428.53 L3.34 428.94 L0 426.99 L0.67 426.48 Z" class="st20"/>
				<path d="M0.67 426.48 L4.07 428.53 L3.34 428.94 L0 426.99" class="st7"/>
			</g>
			<g id="shape109-323" v:mID="109" v:groupContext="shape" transform="translate(29.762,-16.7649)">
				<title>Sheet.109</title>
				<path d="M3.53 428.94 L0 426.79 L5.08 423.97 L3.53 428.94 Z" class="st33"/>
			</g>
			<g id="shape110-326" v:mID="110" v:groupContext="shape" transform="translate(8.45244,-11.9768)">
				<title>Sheet.110</title>
				<path d="M10.87 428.94 L0 422.64 L10.87 428.94 ZM13.78 427.37 L2.82 421.02 L13.78 427.37 ZM16.75 425.57 L5.84 419.25         L16.75 425.57 ZM19.75 423.83 L8.83 417.51 L19.75 423.83 ZM19.01 420.25 L11.45 415.87 L19.01 420.25 Z" class="st23"/>
				<path d="M10.87 428.94 L0 422.64M13.78 427.37 L2.82 421.02M16.75 425.57 L5.84 419.25M19.75 423.83 L8.83 417.51M19.01         420.25 L11.45 415.87" class="st34"/>
			</g>
			<g id="shape111-329" v:mID="111" v:groupContext="shape" transform="translate(2.04951,-0.000469974)">
				<title>Sheet.111</title>
				<path d="M33.02 415.25 L36.29 413.29 L31.73 410.64 L32.79 407.21 L20.56 400.09 L0.16 411.9 L3.52 413.88 L0 415.96         L3.41 417.9 L0.16 419.81 L15.93 428.94 L36.29 417.17 L33.02 415.25 Z" class="st30"/>
			</g>
		</g>
		<g id="group112-331" transform="translate(317.746,-248.422)" v:mID="112" v:groupContext="group">
			<v:userDefs>
				<v:ud v:nameU="SkinColor" v:prompt="" v:val="VT5(#da8c36)"/>
				<v:ud v:nameU="visVersion" v:prompt="" v:val="VT0(14):26"/>
				<v:ud v:nameU="msvThemeColors" v:val="VT0(254):26"/>
			</v:userDefs>
			<title>Document collection.112</title>
			<g id="shape113-332" v:mID="113" v:groupContext="shape" transform="translate(2.04951,-2.27374E-013)">
				<title>Sheet.113</title>
				<path d="M0 415.96 L3.4 417.91 L15.93 425.06 L36.29 413.29 L31.73 410.63 L32.79 407.21 L20.56 400.09 L0.16 411.9         L3.6 413.89 L0 415.96 ZM0.16 419.81 L15.93 428.94 L36.29 417.17 L33.02 415.25 L15.93 425.06 L3.41 417.91         L0.16 419.81 Z" class="st5"/>
			</g>
			<g id="shape114-334" v:mID="114" v:groupContext="shape" transform="translate(2.04951,-0.000469974)">
				<title>Sheet.114</title>
				<path d="M0.16 419.81 L3.41 417.9 L15.93 425.06 L33.02 415.25 L36.29 417.17 L15.93 428.94 L0.16 419.81 ZM0 415.96         L20.56 404.12 L36.29 413.29 L15.93 425.06 L0 415.96 Z" class="st32"/>
			</g>
			<g id="shape115-337" v:mID="115" v:groupContext="shape" transform="translate(2.20601,-7.91201)">
				<title>Sheet.115</title>
				<path d="M32.63 415.12 L20.4 408 L0 419.81 L15.78 428.94 L31.09 420.09 L32.63 415.12 Z" class="st32"/>
			</g>
			<g id="shape116-340" v:mID="116" v:groupContext="shape" transform="translate(29.0932,-16.4604)">
				<title>Sheet.116</title>
				<path d="M0.67 426.48 L4.07 428.53 L3.34 428.94 L0 426.99 L0.67 426.48 Z" class="st20"/>
				<path d="M0.67 426.48 L4.07 428.53 L3.34 428.94 L0 426.99" class="st7"/>
			</g>
			<g id="shape117-343" v:mID="117" v:groupContext="shape" transform="translate(29.762,-16.7649)">
				<title>Sheet.117</title>
				<path d="M3.53 428.94 L0 426.79 L5.08 423.97 L3.53 428.94 Z" class="st33"/>
			</g>
			<g id="shape118-346" v:mID="118" v:groupContext="shape" transform="translate(8.45244,-11.9768)">
				<title>Sheet.118</title>
				<path d="M10.87 428.94 L0 422.64 L10.87 428.94 ZM13.78 427.37 L2.82 421.02 L13.78 427.37 ZM16.75 425.57 L5.84 419.25         L16.75 425.57 ZM19.75 423.83 L8.83 417.51 L19.75 423.83 ZM19.01 420.25 L11.45 415.87 L19.01 420.25 Z" class="st23"/>
				<path d="M10.87 428.94 L0 422.64M13.78 427.37 L2.82 421.02M16.75 425.57 L5.84 419.25M19.75 423.83 L8.83 417.51M19.01         420.25 L11.45 415.87" class="st34"/>
			</g>
			<g id="shape127-349" v:mID="127" v:groupContext="shape" transform="translate(2.04951,-0.000469974)">
				<title>Sheet.127</title>
				<path d="M33.02 415.25 L36.29 413.29 L31.73 410.64 L32.79 407.21 L20.56 400.09 L0.16 411.9 L3.52 413.88 L0 415.96         L3.41 417.9 L0.16 419.81 L15.93 428.94 L36.29 417.17 L33.02 415.25 Z" class="st30"/>
			</g>
		</g>
		<g id="group128-351" transform="translate(381.796,-152.587)" v:mID="128" v:groupContext="group">
			<v:userDefs>
				<v:ud v:nameU="SkinColor" v:prompt="" v:val="VT5(#da8c36)"/>
				<v:ud v:nameU="visVersion" v:prompt="" v:val="VT0(14):26"/>
				<v:ud v:nameU="msvThemeColors" v:val="VT0(254):26"/>
			</v:userDefs>
			<title>Document collection.128</title>
			<g id="shape129-352" v:mID="129" v:groupContext="shape" transform="translate(2.04951,-2.27374E-013)">
				<title>Sheet.129</title>
				<path d="M0 415.96 L3.4 417.91 L15.93 425.06 L36.29 413.29 L31.73 410.63 L32.79 407.21 L20.56 400.09 L0.16 411.9         L3.6 413.89 L0 415.96 ZM0.16 419.81 L15.93 428.94 L36.29 417.17 L33.02 415.25 L15.93 425.06 L3.41 417.91         L0.16 419.81 Z" class="st5"/>
			</g>
			<g id="shape130-354" v:mID="130" v:groupContext="shape" transform="translate(2.04951,-0.000469974)">
				<title>Sheet.130</title>
				<path d="M0.16 419.81 L3.41 417.9 L15.93 425.06 L33.02 415.25 L36.29 417.17 L15.93 428.94 L0.16 419.81 ZM0 415.96         L20.56 404.12 L36.29 413.29 L15.93 425.06 L0 415.96 Z" class="st32"/>
			</g>
			<g id="shape131-357" v:mID="131" v:groupContext="shape" transform="translate(2.20601,-7.91201)">
				<title>Sheet.131</title>
				<path d="M32.63 415.12 L20.4 408 L0 419.81 L15.78 428.94 L31.09 420.09 L32.63 415.12 Z" class="st32"/>
			</g>
			<g id="shape132-360" v:mID="132" v:groupContext="shape" transform="translate(29.0932,-16.4604)">
				<title>Sheet.132</title>
				<path d="M0.67 426.48 L4.07 428.53 L3.34 428.94 L0 426.99 L0.67 426.48 Z" class="st20"/>
				<path d="M0.67 426.48 L4.07 428.53 L3.34 428.94 L0 426.99" class="st7"/>
			</g>
			<g id="shape133-363" v:mID="133" v:groupContext="shape" transform="translate(29.762,-16.7649)">
				<title>Sheet.133</title>
				<path d="M3.53 428.94 L0 426.79 L5.08 423.97 L3.53 428.94 Z" class="st33"/>
			</g>
			<g id="shape134-366" v:mID="134" v:groupContext="shape" transform="translate(8.45244,-11.9768)">
				<title>Sheet.134</title>
				<path d="M10.87 428.94 L0 422.64 L10.87 428.94 ZM13.78 427.37 L2.82 421.02 L13.78 427.37 ZM16.75 425.57 L5.84 419.25         L16.75 425.57 ZM19.75 423.83 L8.83 417.51 L19.75 423.83 ZM19.01 420.25 L11.45 415.87 L19.01 420.25 Z" class="st23"/>
				<path d="M10.87 428.94 L0 422.64M13.78 427.37 L2.82 421.02M16.75 425.57 L5.84 419.25M19.75 423.83 L8.83 417.51M19.01         420.25 L11.45 415.87" class="st34"/>
			</g>
			<g id="shape135-369" v:mID="135" v:groupContext="shape" transform="translate(2.04951,-0.000469974)">
				<title>Sheet.135</title>
				<path d="M33.02 415.25 L36.29 413.29 L31.73 410.64 L32.79 407.21 L20.56 400.09 L0.16 411.9 L3.52 413.88 L0 415.96         L3.41 417.9 L0.16 419.81 L15.93 428.94 L36.29 417.17 L33.02 415.25 Z" class="st30"/>
			</g>
		</g>
		<g id="shape96-371" v:mID="96" v:groupContext="shape" v:layerMember="1" transform="translate(505.099,404.719) rotate(-71.0607) scale(1,-1)">
			<title>Line-curve connector</title>
			<v:userDefs>
				<v:ud v:nameU="ScaleFactor" v:val="VT0(1):26"/>
				<v:ud v:nameU="visVersion" v:val="VT0(14):26"/>
				<v:ud v:nameU="msvThemeEffects" v:prompt="" v:val="VT0(1):26"/>
				<v:ud v:nameU="msvThemeColors" v:val="VT0(254):26"/>
			</v:userDefs>
			<path d="M0 428.94 L10.23 452.29 L20.49 470.98 L30.78 484.99 L41.1 494.33 L51.45 499 L61.83 499 L72.24 494.33 L82.68        484.99 L93.15 470.98 L103.65 452.29 L114.18 428.94" class="st35"/>
		</g>
		<g id="shape99-377" v:mID="99" v:groupContext="shape" v:layerMember="1" transform="translate(255.825,-110.823) rotate(-6.91123) scale(-1,1)">
			<title>Line-curve connector.99</title>
			<v:userDefs>
				<v:ud v:nameU="ScaleFactor" v:val="VT0(1):26"/>
				<v:ud v:nameU="visVersion" v:val="VT0(14):26"/>
				<v:ud v:nameU="msvThemeEffects" v:prompt="" v:val="VT0(1):26"/>
				<v:ud v:nameU="msvThemeColors" v:val="VT0(254):26"/>
			</v:userDefs>
			<path d="M0 428.94 L5.83 452.32 L13.22 471.03 L22.16 485.06 L32.65 494.42 L44.7 499.09 L58.3 499.09 L73.45 494.42 L90.15        485.06 L108.41 471.03 L128.22 452.32 L149.59 428.94" class="st35"/>
		</g>
		<g id="shape97-382" v:mID="97" v:groupContext="shape" v:layerMember="1" transform="translate(553.416,-122.665) rotate(51.5609)">
			<title>Line-curve connector.97</title>
			<v:userDefs>
				<v:ud v:nameU="ScaleFactor" v:val="VT0(1):26"/>
				<v:ud v:nameU="visVersion" v:val="VT0(14):26"/>
				<v:ud v:nameU="msvThemeEffects" v:prompt="" v:val="VT0(1):26"/>
				<v:ud v:nameU="msvThemeColors" v:val="VT0(254):26"/>
			</v:userDefs>
			<path d="M0 428.94 L5.54 421.82 L11.56 417.36 L18.07 415.55 L25.06 416.41 L32.53 419.93 L40.49 426.11 L40.75 426.36" class="st37"/>
		</g>
		<g id="shape98-388" v:mID="98" v:groupContext="shape" v:layerMember="1" transform="translate(658.898,-17.6529) rotate(55.5488)">
			<title>Line-curve connector.98</title>
			<v:userDefs>
				<v:ud v:nameU="ScaleFactor" v:val="VT0(1):26"/>
				<v:ud v:nameU="visVersion" v:val="VT0(14):26"/>
				<v:ud v:nameU="msvThemeEffects" v:prompt="" v:val="VT0(1):26"/>
				<v:ud v:nameU="msvThemeColors" v:val="VT0(254):26"/>
			</v:userDefs>
			<path d="M0 428.94 L4.54 421.85 L9.47 417.39 L14.8 415.56 L20.52 416.36 L26.63 419.79 L33.14 425.85 L33.37 426.12" class="st37"/>
		</g>
		<g id="group137-393" transform="translate(168.75,-148.5)" v:mID="137" v:groupContext="group">
			<v:userDefs>
				<v:ud v:nameU="BeginAngle" v:prompt="" v:val="VT0(0):32"/>
				<v:ud v:nameU="EndAngle" v:prompt="" v:val="VT0(0):32"/>
				<v:ud v:nameU="RealBeginX" v:val="VT0(0):1"/>
				<v:ud v:nameU="RealBeginY" v:val="VT0(0.125):1"/>
				<v:ud v:nameU="EndX" v:val="VT0(-1.40625):1"/>
				<v:ud v:nameU="EndY" v:val="VT0(-0.125):1"/>
				<v:ud v:nameU="BeginArrowSize" v:val="VT0(0.24333333333333):29"/>
				<v:ud v:nameU="EndSize" v:val="VT0(0.24333333333333):29"/>
				<v:ud v:nameU="FillColor" v:prompt="Association = 0, Composition = 2, Aggregation = 1, Namespace = 3" v:val="VT0(0):26"/>
				<v:ud v:nameU="Navigability" v:prompt="Position of first &lt;--- or -X----" v:val="VT0(0):1"/>
				<v:ud v:nameU="NonNavigability" v:prompt="Position of first &lt;--- or -X----" v:val="VT0(0.125):1"/>
				<v:ud v:nameU="BeginArrow" v:prompt="No Arrow = 0, Arrow = 1" v:val="VT0(0):26"/>
				<v:ud v:nameU="SetBeginArrow" v:val="VT0(0):26"/>
				<v:ud v:nameU="SetEndArrow" v:val="VT0(0):26"/>
				<v:ud v:nameU="BeginDot" v:prompt="No Dot = 0; Dot = 1" v:val="VT0(0):26"/>
				<v:ud v:nameU="SetBeginArrow42" v:val="VT0(0):26"/>
				<v:ud v:nameU="msvThemeColors" v:val="VT0(254):26"/>
			</v:userDefs>
			<title>Straight Relationship.137</title>
			<desc>Assign</desc>
			<g id="shape138-394" v:mID="138" v:groupContext="shape" transform="translate(84.3578,-14.1732)">
				<title>Sheet.138</title>
				<v:userDefs>
					<v:ud v:nameU="msvThemeColors" v:val="VT0(254):26"/>
				</v:userDefs>
				<path d="M0 428.94 L2.25 428.94 L2.25 426.69 L0 426.69 L0 428.94 Z" class="st23"/>
			</g>
			<g id="shape139-399" v:mID="139" v:groupContext="shape" transform="translate(14.6386,-14.1732)">
				<title>Sheet.139</title>
				<v:userDefs>
					<v:ud v:nameU="msvThemeColors" v:val="VT0(254):26"/>
				</v:userDefs>
				<path d="M0 428.94 L2.25 428.94 L2.25 426.69 L0 426.69 L0 428.94 Z" class="st23"/>
			</g>
			<g id="shape140-403" v:mID="140" v:groupContext="shape" transform="translate(14.6386,-1.5732)">
				<title>Sheet.140</title>
				<v:userDefs>
					<v:ud v:nameU="msvThemeColors" v:val="VT0(254):26"/>
				</v:userDefs>
				<path d="M0 428.94 L2.25 428.94 L2.25 426.69 L0 426.69 L0 428.94 Z" class="st23"/>
			</g>
			<g id="shape141-407" v:mID="141" v:groupContext="shape" transform="translate(84.3578,-1.5732)">
				<title>Sheet.141</title>
				<v:userDefs>
					<v:ud v:nameU="msvThemeColors" v:val="VT0(254):26"/>
				</v:userDefs>
				<path d="M0 428.94 L2.25 428.94 L2.25 426.69 L0 426.69 L0 428.94 Z" class="st23"/>
			</g>
			<g id="shape137-411" v:mID="137" v:groupContext="groupContent">
				<v:textBlock v:margins="rect(4,4,4,4)"/>
				<v:textRect cx="48.375" cy="408.69" width="48" height="22.4037"/>
				<path d="M0 419.94 L89.19 419.94" class="st39"/>
				<rect v:rectContext="textBkgnd" x="32.414" y="401.49" width="31.9221" height="14.4001" class="st40"/>
				<text x="32.41" y="412.29" class="st41" v:langID="1033"><v:paragraph v:horizAlign="1"/><v:tabList/>Assign</text>			</g>
		</g>
	</g>
</svg>